<svg width="888" height="518" viewBox="0 0 888 518" fill="none" xmlns="http://www.w3.org/2000/svg">
<path d="M443.509 234.841C450.858 231.127 462.217 235.103 461.605 246.024C462.55 229.758 487.771 231.861 485.626 248.373C487.076 237.165 501.579 234.18 507.725 243.433C509.237 245.713 509.954 247.42 510.247 248.665C510.996 247.649 512.309 246.386 514.56 244.927C523.929 238.845 535.934 247.65 532.824 258.412C537.968 240.436 556.724 252.322 557.198 263.251C564.598 252.125 584.317 261.813 577.98 275.578C581.183 268.689 587.736 267.494 593.057 269.621C598.485 271.453 602.746 276.63 600.824 283.993C604.711 269.325 625.97 274.732 624.573 288.069C631.877 280.004 653.795 283.1 646.318 300.217C650.771 289.949 665.56 291.015 668.873 301.768C669.672 304.35 669.876 306.172 669.804 307.437C670.819 306.673 672.452 305.832 675.059 305.069C685.643 301.978 694.857 313.7 688.85 323.229C697.693 309.183 718.35 323.981 708.743 337.056C715.211 328.292 726.437 332.635 729.708 340.262C737.697 342.197 743.873 352.632 736.467 360.601C747.523 348.755 765.509 366.773 753.377 378.026C761.607 370.384 774.613 377.532 773.443 388.619C773.154 391.348 772.619 393.121 772.052 394.266C773.271 393.975 775.078 393.861 777.73 394.209C788.769 395.645 792.373 410.199 783.157 416.42C798.514 405.996 805.333 427.302 798.753 435.983C811.489 432.274 820.442 452.523 806.844 458.945C813.674 455.751 819.452 459.098 822.178 464.19C825.172 469.124 825.148 475.863 818.999 480.252C831.294 471.545 844.144 489.516 834.603 498.824C845.322 497.397 860.145 514.027 843.546 522.276C853.478 517.308 864.13 527.745 859.839 538.137C858.811 540.635 857.81 542.163 856.951 543.086C858.213 543.162 859.999 543.58 862.48 544.691C872.551 549.209 872.165 564.182 861.512 567.574C877.206 562.568 883.632 587.341 867.968 591.106C878.489 588.6 884.331 599.231 881.993 607.2C886.883 613.88 884.987 625.892 874.253 627.179C882.344 626.226 886.922 632.284 887.359 638.596L885.944 638.596C885.497 628.657 865.488 624.454 865.481 638.596L859.442 638.596C859.109 634.731 858.803 630.869 858.321 626.99C858.185 631.106 857.8 634.96 857.223 638.596L851.015 638.596C852.094 630.142 851.875 621.385 850.414 612.836C843.159 571.954 807.885 536.218 754.456 562.624C742.992 569.238 733.544 575.815 725.359 589.973C747.611 581.76 766.002 600.732 779.165 619.103C781.174 621.915 781.061 612.984 789.788 611.426C795.537 610.4 796.635 613.325 796.346 611.669C793.621 596.027 817.032 591.774 819.774 607.506C819.852 607.959 836.041 598.585 839.228 614.217C839.2 614.242 839.186 614.467 839.167 614.848C839.313 615.194 839.402 615.398 839.436 615.411C841.724 631.202 823.343 627.997 823.422 628.45C824.177 632.784 822.909 636.196 820.671 638.596L815.861 638.596C820.308 636.432 823.25 631.396 819.315 625.433C810.241 616.369 801.376 624.509 802.709 632.164C803.275 635.412 804.858 637.448 806.844 638.596L802.727 638.596C801.432 637.074 800.435 635.138 800.001 632.647C799.713 630.991 799.669 634.119 793.92 635.146C785.194 636.702 782.282 628.27 781.344 631.608C780.691 633.921 779.971 636.262 779.202 638.596L773.253 638.596C774.746 634.258 776.023 630.03 777.219 626.304C777.128 626.185 777.035 626.065 776.945 625.947C776.991 625.804 777.036 625.66 777.082 625.516C766.905 612.329 752.435 591.087 732.446 593.831C717.052 595.881 713.645 616.728 717.403 636.573C717.511 637.251 717.648 637.922 717.772 638.596L711.797 638.596C711.787 638.25 711.801 637.943 711.778 637.576C707.809 623.872 699.766 628.514 695.699 638.596L690.072 638.596C690.673 637.424 691.347 636.256 692.124 635.103C696.063 629.273 699.269 626.518 701.416 625.271C698.947 625.285 694.814 624.56 688.493 621.633C676.268 616.096 668.535 602.7 672.493 587.748C674.082 580.665 676.214 576.929 677.794 575.084C675.575 575.999 671.436 576.93 664.243 576.686C656.534 576.303 649.728 573.017 644.818 567.823C642.829 560.922 643.419 553.317 646.946 546.366C650.334 539.94 653.2 536.779 655.092 535.291C652.723 535.754 648.46 535.754 641.605 533.605C626.831 529.598 619.234 516.124 620.608 502.639C621.265 495.635 622.711 491.651 623.957 489.493C621.817 490.751 617.856 492.184 610.897 492.722C608.313 492.917 605.851 492.814 603.525 492.45C602.767 490.195 602.24 487.759 601.98 485.15C601.296 478.122 602.002 473.925 602.854 471.573C600.972 473.19 597.345 475.323 590.643 477.194C577.761 480.904 563.329 475.673 556.865 461.644C553.583 455.185 552.843 450.937 552.883 448.496C551.764 450.64 549.185 454.044 543.521 458.537C537.371 463.26 530.071 465.169 523.011 464.385C517.104 460.393 512.726 454.181 511.014 446.564C509.528 439.437 509.715 435.151 510.219 432.78C508.699 434.676 505.435 437.449 498.817 440.263C484.954 446.805 470.577 441.423 463.065 430.201C459.119 424.409 457.696 420.415 457.281 417.952C456.439 420.308 454.316 423.983 449.327 428.921C447.471 430.751 445.52 432.273 443.508 433.507C441.495 432.273 439.544 430.751 437.688 428.921C432.699 423.983 430.576 420.308 429.734 417.952C429.319 420.415 427.894 424.409 423.95 430.201C416.438 441.423 402.061 446.805 388.197 440.263C381.581 437.449 378.316 434.676 376.795 432.781C377.3 435.152 377.487 439.438 376.001 446.564C374.289 454.181 369.91 460.393 364.003 464.385C356.943 465.169 349.643 463.26 343.494 458.537C337.83 454.044 335.251 450.64 334.131 448.496C334.171 450.937 333.431 455.185 330.149 461.645C323.684 475.674 309.253 480.905 296.37 477.194C289.668 475.323 286.041 473.19 284.159 471.573C285.01 473.926 285.717 478.123 285.033 485.151C284.774 487.76 284.247 490.196 283.489 492.451C281.162 492.815 278.701 492.917 276.117 492.722C269.16 492.184 265.198 490.752 263.058 489.494C264.304 491.651 265.749 495.636 266.407 502.64C267.78 516.124 260.184 529.598 245.41 533.606C238.554 535.755 234.292 535.755 231.923 535.291C233.815 536.78 236.682 539.941 240.069 546.367C243.595 553.317 244.186 560.923 242.196 567.824C237.286 573.018 230.482 576.303 222.771 576.687C215.579 576.93 211.44 576 209.221 575.085C210.802 576.93 212.933 580.666 214.522 587.749C218.479 602.701 210.747 616.096 198.522 621.634C192.201 624.56 188.068 625.286 185.598 625.272C187.745 626.52 190.951 629.274 194.891 635.104C195.667 636.257 196.341 637.424 196.942 638.597L191.316 638.597C187.248 628.515 179.206 623.872 175.238 637.577C175.214 637.944 175.228 638.252 175.218 638.597L169.243 638.597C169.368 637.923 169.504 637.252 169.612 636.573C173.37 616.728 169.963 595.883 154.569 593.832C134.581 591.087 120.111 612.33 109.933 625.517C109.979 625.661 110.025 625.805 110.07 625.948C109.979 626.066 109.887 626.186 109.796 626.305C110.991 630.031 112.268 634.259 113.761 638.596L107.812 638.596C107.043 636.261 106.323 633.922 105.67 631.609C104.733 628.271 101.82 636.704 93.0939 635.146C87.345 634.12 87.3013 630.992 87.013 632.648C86.5787 635.139 85.5819 637.074 84.2866 638.596L80.1691 638.596C82.155 637.449 83.7377 635.412 84.3038 632.164C85.637 624.51 76.7719 616.37 67.6984 625.433C63.7631 631.396 66.7055 636.433 71.1524 638.596L66.343 638.596C64.1052 636.196 62.8361 632.785 63.5917 628.45C63.67 627.998 45.289 631.203 47.5788 615.41C47.6135 615.396 47.7023 615.19 47.8482 614.839C47.8284 614.464 47.8145 614.241 47.7864 614.217C50.9727 598.586 67.1612 607.96 67.2403 607.507C69.9816 591.775 93.393 596.028 90.6681 611.669C90.3797 613.325 91.4781 610.401 97.2261 611.427C105.952 612.984 105.84 621.916 107.849 619.104C121.011 600.733 139.402 581.761 161.654 589.974C153.471 575.816 144.022 569.239 132.558 562.624C79.1292 536.218 43.8553 571.955 36.6011 612.837C35.1386 621.386 34.9211 630.142 35.9996 638.596L29.7918 638.596C29.215 634.961 28.8303 631.106 28.6943 626.991C28.2123 630.87 27.9058 634.732 27.5729 638.596L21.534 638.596C21.5274 624.454 1.51826 628.658 1.07087 638.596L-0.343073 638.596C0.0935733 632.284 4.67158 626.227 12.7622 627.179C2.02827 625.893 0.132393 613.881 5.02253 607.201C2.68415 599.232 8.52607 588.601 19.0473 591.107C3.38288 587.341 9.80818 562.568 25.5031 567.575C14.8492 564.184 14.4628 549.21 24.535 544.692C27.0151 543.581 28.8015 543.162 30.0638 543.086C29.2052 542.164 28.2033 540.636 27.1757 538.138C22.8846 527.746 33.5368 517.309 43.4688 522.277C26.8709 514.029 41.6932 497.4 52.4113 498.825C42.8707 489.517 55.7213 471.546 68.0156 480.252C61.8671 475.864 61.8425 469.125 64.8376 464.191C67.5625 459.099 73.3409 455.752 80.1709 458.946C66.5728 452.524 75.5252 432.275 88.2613 435.984C81.6827 427.303 88.5011 405.997 103.859 416.42C94.6413 410.199 98.2461 395.645 109.286 394.21C111.936 393.862 113.744 393.976 114.964 394.267C114.397 393.122 113.862 391.349 113.573 388.619C112.403 377.533 125.409 370.385 133.639 378.027C121.508 366.775 139.493 348.756 150.548 360.602C143.142 352.633 149.319 342.198 157.308 340.262C160.578 332.636 171.806 328.293 178.274 337.057C168.666 323.982 189.322 309.184 198.166 323.229C192.159 313.701 201.373 301.979 211.958 305.07C214.565 305.832 216.198 306.674 217.213 307.437C217.141 306.171 217.345 304.35 218.143 301.769C221.457 291.016 236.246 289.95 240.698 300.218C233.223 283.101 255.139 280.004 262.444 288.07C261.046 274.733 282.305 269.325 286.193 283.993C284.271 276.631 288.532 271.453 293.96 269.622C299.281 267.494 305.834 268.689 309.036 275.579C302.699 261.814 322.419 252.126 329.819 263.252C330.293 252.322 349.048 240.436 354.192 258.412C351.083 247.65 363.088 238.846 372.456 244.928C374.708 246.386 376.021 247.649 376.769 248.666C377.062 247.42 377.779 245.713 379.291 243.434C385.436 234.181 399.94 237.166 401.39 248.373C399.244 231.862 424.466 229.758 425.41 246.025C424.8 235.103 436.159 231.127 443.509 234.841ZM799.055 611.186C800.389 618.841 811.471 623.422 816.933 611.764C820.496 597.018 796.523 596.653 799.055 611.186ZM829.253 626.016C835.324 624.932 837.472 619.846 836.629 615.297C835.884 610.73 832.147 606.695 826.075 607.778C820.147 608.841 817.97 613.929 818.761 618.485C819.557 623.042 823.322 627.069 829.253 626.016ZM782.824 624.468C782.843 624.61 782.863 624.75 782.885 624.887C782.911 625.024 782.939 625.163 782.969 625.302C784.318 633.051 794.756 635.237 799.348 628.599C801.174 625.959 801.738 623.591 801.445 621.574C801.039 619.579 799.709 617.547 797.101 615.7C790.543 611.053 781.473 616.719 782.824 624.468ZM50.3868 615.297C49.5439 619.846 51.692 624.932 57.7639 626.015C63.6948 627.069 67.4594 623.041 68.2553 618.485C69.0472 613.928 66.8695 608.84 60.941 607.778C54.8701 606.694 51.1325 610.729 50.3868 615.297ZM87.9605 611.186C90.4934 596.653 66.5202 597.017 70.0822 611.764C75.5458 623.422 86.6274 618.841 87.9605 611.186ZM89.915 615.701C87.3072 617.549 85.9774 619.58 85.5711 621.576C85.2786 623.592 85.8422 625.96 87.6681 628.6C92.2609 635.238 102.698 633.052 104.048 625.304C104.078 625.165 104.106 625.026 104.132 624.889C104.154 624.751 104.174 624.611 104.193 624.469C105.543 616.719 96.4738 611.053 89.915 615.701ZM481.386 240.679C469.122 225.214 453.528 255.293 472.608 256.947C481.148 257.784 486.879 247.628 481.386 240.679ZM466.015 256.439C463.153 254.002 461.383 250.215 461.595 246.091C460.818 258.576 446.978 255.041 466.015 256.439ZM425.421 246.091C425.634 250.215 423.864 254.002 421.001 256.439C440.04 255.041 426.199 258.576 425.421 246.091ZM489.221 258.963C486.536 256.327 485.108 252.504 485.619 248.428C483.929 260.945 470.431 256.134 489.221 258.963ZM401.398 248.428C401.908 252.504 400.48 256.326 397.797 258.963C416.586 256.134 403.087 260.945 401.398 248.428ZM495.897 260.103C504.156 261.622 510.627 251.774 505.909 244.665C494.957 228.139 476.736 256.253 495.897 260.103ZM303.545 296.274C262.006 305.492 221.863 323.657 186.078 351.115C245.917 318.804 279.559 378.335 278.865 368.349C277.139 343.352 287.917 319.667 306.54 304.602C330.374 304.028 353.672 315.161 368.228 335.433C374.038 343.535 361.999 276.045 428.362 261.87C383.509 264.115 341.221 276.313 303.545 296.274ZM354.203 258.453C355.31 262.375 354.433 266.429 352.159 269.476C370.436 263.738 357.758 270.671 354.203 258.453ZM309.051 275.616C310.665 279.127 310.619 283.196 308.661 286.922C326.173 278.289 314.46 287.271 309.051 275.616ZM293.686 292.438C289.819 290.858 287.199 287.772 286.206 284.032C289.465 296.478 274.788 297.218 293.686 292.438ZM264.69 294.342C264.608 296.684 263.727 299.385 261.695 302.455C277.874 296.406 269.607 301.75 264.69 294.342ZM249.283 307.369C245.606 306.516 242.36 303.98 240.716 300.255C245.753 311.927 231.638 314.864 249.283 307.369ZM218.993 310.895C218.696 310.539 222.203 315.774 219.295 322.164C235.943 312.818 224.899 322.001 218.993 310.895ZM207.646 329.005C203.915 328.731 200.393 326.732 198.196 323.278C204.852 333.965 191.456 339.061 207.646 329.005ZM188.267 342.167C184.527 342.163 180.765 340.413 178.309 337.115C185.643 347.185 172.795 353.481 188.267 342.167ZM150.597 360.648C153.38 363.668 154.429 367.721 153.783 371.45C167.481 357.994 159.123 369.705 150.597 360.648ZM177.92 365.123C146.564 391.922 133.62 440.706 182.93 474.33C194.322 481.07 204.675 486.063 220.882 486.157C202.727 470.761 209.767 445.156 218.906 424.434C220.308 421.268 212.721 425.832 207.025 418.963C203.273 414.437 205.227 412.012 203.954 413.093C191.932 423.302 176.586 404.91 188.679 394.642C189.027 394.347 172.91 384.844 184.694 374.236C184.73 374.247 184.928 374.147 185.264 373.973C185.488 373.672 185.618 373.493 185.611 373.456C197.981 363.555 204.427 381.267 204.775 380.972C216.868 370.703 232.1 389.192 220.078 399.401C218.805 400.482 221.504 398.956 225.256 403.481C230.953 410.35 225.193 417.119 228.518 416.273C250.269 410.762 276.408 408.193 288.237 428.959C290.96 412.789 287.899 401.605 283.319 389.08C259.162 334.096 209.443 338.525 177.92 365.123ZM280.359 427.305C266.791 412.199 242.214 419.06 226.042 422.541C225.985 422.681 225.929 422.82 225.874 422.96C225.728 422.992 225.582 423.024 225.436 423.056C219.241 438.569 208.297 461.873 220.64 478.019C230.092 490.487 249.633 483.049 264.736 469.833C280.218 457.075 290.849 438.89 280.359 427.305ZM317.607 428.974C301.552 420.174 296.215 412.965 294.777 410.26C295.54 413.1 296.548 421.475 291.873 437.993C297.461 458.564 283.447 450.186 324.254 438.346C321.763 435.343 319.655 432.544 317.607 428.974ZM327.412 433.464C327.757 433.893 328.006 434.302 328.37 434.735C329.746 436.395 336.044 436.66 327.412 433.464ZM562.764 438.346C603.572 450.187 589.557 458.565 595.144 437.993C590.469 421.475 591.477 413.1 592.24 410.26C590.802 412.966 585.464 420.174 569.411 428.974C567.361 432.544 565.253 435.343 562.764 438.346ZM559.605 433.464C550.972 436.659 557.27 436.395 558.646 434.735C559.011 434.302 559.26 433.893 559.605 433.464ZM622.281 469.832C637.383 483.049 656.925 490.485 666.377 478.018C678.719 461.872 667.776 438.568 661.58 423.055C661.434 423.022 661.289 422.991 661.143 422.96C661.087 422.82 661.031 422.681 660.975 422.54C644.803 419.059 620.226 412.199 606.657 427.304C596.167 438.89 606.797 457.075 622.281 469.832ZM733.232 371.45C732.587 367.721 733.636 363.668 736.419 360.648C727.893 369.705 719.536 357.994 733.232 371.45ZM709.097 365.123C677.574 338.525 627.855 334.096 603.698 389.08C599.117 401.605 596.056 412.789 598.779 428.959C610.608 408.192 636.748 410.762 658.499 416.273C661.823 417.12 656.064 410.35 661.759 403.481C665.511 398.956 668.21 400.481 666.938 399.401C654.916 389.192 670.148 370.703 682.241 380.972C682.589 381.267 689.036 363.555 701.405 373.457C701.399 373.494 701.532 373.675 701.759 373.98C702.091 374.151 702.288 374.249 702.323 374.237C714.105 384.845 697.989 394.347 698.338 394.642C710.43 404.91 695.084 423.302 683.063 413.093C681.79 412.012 683.743 414.437 679.991 418.963C674.295 425.832 666.708 421.268 668.11 424.434C677.25 445.156 684.289 470.761 666.134 486.157C682.342 486.063 692.694 481.071 704.086 474.33C753.397 440.707 740.453 391.922 709.097 365.123ZM583.472 296.274C545.797 276.313 503.508 264.115 458.655 261.87C525.017 276.045 512.978 343.534 518.789 335.433C533.344 315.161 556.642 304.028 580.477 304.602C599.1 319.667 609.877 343.351 608.151 368.349C607.456 378.335 641.099 318.805 700.939 351.116C665.153 323.657 625.01 305.493 583.472 296.274ZM708.707 337.115C706.252 340.413 702.489 342.163 698.749 342.167C714.221 353.481 701.374 347.185 708.707 337.115ZM688.82 323.279C686.622 326.732 683.101 328.731 679.37 329.006C695.561 339.061 682.165 333.965 688.82 323.279ZM667.721 322.164C664.813 315.774 668.319 310.539 668.023 310.895C662.118 322.001 651.073 312.819 667.721 322.164ZM646.3 300.256C644.656 303.981 641.41 306.516 637.732 307.37C655.378 314.864 641.264 311.927 646.3 300.256ZM625.322 302.455C623.29 299.385 622.407 296.684 622.327 294.342C617.409 301.75 609.142 296.406 625.322 302.455ZM600.81 284.032C599.817 287.772 597.197 290.859 593.33 292.438C612.229 297.218 597.552 296.478 600.81 284.032ZM578.356 286.922C576.397 283.196 576.35 279.128 577.965 275.616C572.557 287.271 560.843 278.289 578.356 286.922ZM534.858 269.476C532.584 266.429 531.707 262.375 532.813 258.453C529.259 270.671 516.58 263.739 534.858 269.476ZM313.768 420.097C308.56 402.191 318.882 388.555 332.853 377.769C350.407 376.942 366.975 380.674 374.359 397.778C378.901 380.95 376.508 369.041 372.752 355.945C360.395 321.233 334.344 308.287 308.412 309.809C287.58 325.513 275.847 352.376 288.428 387.006C293.87 399.48 299.6 410.16 313.768 420.097ZM399.545 387.96C395.417 364.356 417.072 349.32 437.234 339.392C440.319 337.878 431.608 336.439 431.608 327.472C431.608 321.564 434.644 320.977 432.983 320.977C417.289 320.977 417.216 296.905 433.001 296.905C433.455 296.905 427.144 279.143 442.91 278.682C442.929 278.713 443.145 278.766 443.513 278.852C443.875 278.766 444.089 278.713 444.108 278.682C459.871 279.144 453.56 296.905 454.015 296.905C469.801 296.905 469.726 320.977 454.033 320.977C452.371 320.977 455.408 321.564 455.408 327.472C455.408 336.439 446.697 337.878 449.782 339.392C469.945 349.32 491.6 364.357 487.472 387.96C499.828 377.344 504.588 366.785 509.034 354.211C525.451 296.376 484.551 267.425 443.509 267.294C402.468 267.425 361.568 296.376 377.985 354.211C382.43 366.785 387.189 377.344 399.545 387.96ZM419.052 405.624C416.545 404.72 414.108 403.684 411.735 402.524C414.835 407.144 413.399 406.491 419.052 405.624ZM475.282 402.524C472.909 403.685 470.47 404.721 467.965 405.625C473.617 406.491 472.181 407.144 475.282 402.524ZM443.509 403.981C463.472 404.28 483.165 397.265 482.487 381.566C481.687 361.168 458.502 350.436 443.903 342.581C443.771 342.652 443.64 342.722 443.509 342.793C443.377 342.722 443.245 342.652 443.113 342.581C428.513 350.436 405.329 361.168 404.529 381.566C403.851 397.265 423.545 404.28 443.509 403.981ZM443.509 299.821C448.08 299.818 452.653 296.765 452.658 290.671C452.658 284.432 448.082 281.409 443.509 281.459C438.935 281.409 434.359 284.432 434.359 290.671C434.363 296.765 438.937 299.819 443.509 299.821ZM432.984 318.194C440.664 318.194 447.046 307.944 436.651 300.475C422.919 294.364 418.401 318.194 432.984 318.194ZM450.366 300.475C439.97 307.944 446.352 318.194 454.033 318.194C468.616 318.194 464.098 294.364 450.366 300.475ZM443.509 317.615C441.496 317.673 439.289 318.646 437.037 320.924C431.376 326.653 435.315 336.677 443.089 336.677C443.231 336.682 443.37 336.687 443.509 336.688C443.646 336.687 443.785 336.682 443.927 336.677C451.701 336.677 455.642 326.653 449.979 320.924C447.728 318.646 445.521 317.674 443.509 317.615ZM554.163 377.769C568.135 388.555 578.456 402.191 573.249 420.097C587.416 410.16 593.147 399.48 598.589 387.005C611.169 352.376 599.435 325.512 578.605 309.808C552.673 308.286 526.622 321.232 514.265 355.944C510.51 369.04 508.117 380.949 512.658 397.777C520.042 380.674 536.609 376.942 554.163 377.769ZM682.769 386.081C676.131 372.467 657.535 387.782 668.706 397.269C674.589 402.264 685.988 398.565 682.769 386.081ZM701.257 388.984C705.22 384.204 703.635 378.911 700.1 375.974C696.629 372.961 691.203 372.3 687.24 377.08C683.373 381.751 684.937 387.065 688.438 390.04C691.94 393.013 697.383 393.649 701.257 388.984ZM684.83 410.962C696.001 420.448 707.675 399.254 693.275 395.003C680.567 393.962 678.946 405.965 684.83 410.962ZM679.99 410.417C679.713 407.208 678.639 405.026 677.134 403.672C675.556 402.408 673.247 401.716 670.075 401.997C662.099 402.704 658.752 412.944 664.707 418.001C664.811 418.098 664.916 418.191 665.02 418.283C665.127 418.372 665.236 418.459 665.348 418.547C671.304 423.604 680.688 418.489 679.99 410.417ZM598.867 448.047C598.307 453.603 597.622 452.169 602.503 455.182C601.156 452.858 599.947 450.479 598.867 448.047ZM551.84 384.227C508.725 384.644 507.666 409.552 534.734 431.79C569.594 432.363 584.604 412.594 551.84 384.227ZM514.619 416.894C514.612 417.447 514.542 417.922 514.546 418.49C514.546 420.658 519.202 424.957 514.619 416.894ZM509.961 407.075C503.25 389.889 503.742 380.894 504.358 377.887C503.14 380.557 498.593 387.63 484.519 397.243C475.733 416.637 470.319 401.103 509.1 418.577C509.1 414.658 509.262 411.143 509.961 407.075ZM402.497 397.243C388.423 387.63 383.877 380.558 382.658 377.887C383.274 380.894 383.766 389.89 377.056 407.075C377.754 411.143 377.917 414.657 377.917 418.577C416.698 401.103 411.283 416.637 402.497 397.243ZM372.47 418.49C372.475 417.922 372.405 417.447 372.397 416.894C367.814 424.958 372.47 420.658 372.47 418.49ZM335.176 384.227C302.412 412.594 317.422 432.363 352.282 431.79C379.35 409.552 378.292 384.644 335.176 384.227ZM288.15 448.047C287.07 450.479 285.86 452.859 284.514 455.182C289.395 452.168 288.709 453.602 288.15 448.047ZM204.248 386.081C201.029 398.565 212.427 402.264 218.31 397.269C229.482 387.782 210.886 372.467 204.248 386.081ZM199.777 377.081C195.814 372.301 190.388 372.962 186.916 375.975C183.381 378.912 181.796 384.205 185.76 388.985C189.633 393.649 195.076 393.013 198.58 390.041C202.08 387.066 203.644 381.752 199.777 377.081ZM193.741 395.003C179.341 399.254 191.015 420.448 202.186 410.962C208.069 405.965 206.449 393.962 193.741 395.003ZM209.881 403.672C208.377 405.026 207.303 407.208 207.026 410.417C206.328 418.489 215.712 423.604 221.667 418.548C221.779 418.46 221.889 418.371 221.996 418.284C222.101 418.192 222.204 418.099 222.31 418.002C228.266 412.945 224.917 402.705 216.94 401.998C213.769 401.716 211.459 402.408 209.881 403.672ZM384.528 261.3C378.241 258.297 377.602 252.006 377.602 252.472C380.132 264.821 365.838 264.972 384.528 261.3ZM509.414 252.472C509.414 252.006 508.776 258.297 502.489 261.3C521.178 264.972 506.884 264.821 509.414 252.472ZM529.808 250.2C519.922 232.809 500.125 260.575 518.771 264.926C527.187 267.019 534.083 257.759 529.808 250.2ZM534.921 259.039C531.378 271.513 549.054 277.67 553.692 265.32C558.36 252.846 538.643 245.969 534.921 259.039ZM547.487 273.784C563.723 279.676 553.996 278.392 554.934 269.518C553.384 271.259 550.993 272.755 547.487 273.784ZM576.259 267.139C569.23 248.228 545.113 272.679 563.133 279.853C570.794 283.265 579.308 275.332 576.259 267.139ZM592.384 271.49C585.563 269.126 576.348 274.664 579.553 284.155C580.681 287.708 582.945 289.725 585.54 290.525C588.034 291.6 591.051 291.528 594.17 289.54C602.653 284.354 599.112 274.117 592.384 271.49ZM607.502 278.647C599.962 282.94 601.446 294.555 609.482 296.925C627.843 303.152 624.897 268.734 607.502 278.647ZM644.313 299.334C649.763 286.9 630.293 279.342 625.945 291.934C621.653 304.412 639.104 311.194 644.313 299.334ZM653.845 295.89C645.768 298.898 645.17 310.479 652.946 314.35C669.993 323.146 672.463 288.998 653.845 295.89ZM675.667 307.196C667.538 309.573 666.24 321.327 673.531 325.536C690.655 335.051 694.553 301.66 675.667 307.196ZM696.984 320.095C688.363 321.845 686.302 333.353 693.376 338.268C709.043 349.413 716.201 316.227 696.984 320.095ZM737.445 352.13C737.12 344.664 732.633 342.033 727.952 342.381C727.478 337.656 724.139 333.641 716.817 334.614C708.587 335.709 705.249 346.881 712.128 352.517C714.041 353.95 715.847 354.722 717.506 354.981C718.046 356.589 719.111 358.254 720.837 359.913C727.517 365.79 737.809 360.523 737.445 352.13ZM755.017 369.377C755.445 349.552 724.395 362.449 737.96 376.128C743.971 382.324 754.811 378.272 755.017 369.377ZM749.405 388.478C749.024 384.713 750.358 380.855 753.336 378.066C744.093 386.555 736.808 374.088 749.405 388.478ZM771.271 388.383C773.378 368.598 741.563 378.281 753.795 393.695C759.158 400.232 770.369 396.897 771.271 388.383ZM758.085 398.901C770.07 413.871 759.215 404.457 768.998 396.643C769.293 396.286 764.809 400.69 758.085 398.901ZM786.062 408.169C789.535 388.416 756.735 396.808 768.254 412.27C773.372 419.348 784.537 416.741 786.062 408.169ZM777.689 426.22C777.881 422.407 779.785 418.731 783.124 416.446C772.64 423.493 767.332 409.935 777.689 426.22ZM784.365 418.266C773.729 425.517 783.358 441.732 794.756 435.289C806.254 428.769 795.518 410.676 784.365 418.266ZM784.627 437.737C793.323 452.812 786.687 445.501 793.042 439.314C790.748 439.639 787.965 439.229 784.627 437.737ZM810.888 451.363C817.514 432.304 783.509 435.344 792.758 452.563C796.459 460.16 808.02 459.622 810.888 451.363ZM799.928 467.882C800.794 463.753 803.343 460.606 806.809 458.966C795.265 464.376 791.996 449.876 799.928 467.882ZM820.477 465.187C816.753 458.938 806.177 457.186 802.604 466.541C801.211 469.997 801.665 473.014 803.144 475.314C804.372 477.761 806.729 479.667 810.381 480.174C820.173 481.72 823.962 471.575 820.477 465.187ZM807.897 481.848C819.339 497.804 808.564 487.69 818.966 480.275C815.829 482.493 811.862 483.153 807.897 481.848ZM827.512 480.503C819.01 478.887 812.769 488.75 817.42 495.793C827.53 512.507 847.134 484.225 827.512 480.503ZM826.042 510.333C826.435 506.661 827.474 504.017 828.9 502.17C820.428 504.644 817.489 495.174 826.042 510.333ZM842.572 520.297C854.644 514.317 844.529 495.861 833.201 502.679C821.988 509.445 831.049 525.994 842.572 520.297ZM832.427 522.171C841.184 539.391 832.237 527.96 843.509 522.295C839.884 524.079 835.787 523.91 832.427 522.171ZM852.061 523.859C843.963 520.909 836.15 529.392 839.648 537.416C847.119 555.243 870.701 530.691 852.061 523.859ZM853.391 544.577C841.813 549.243 839.185 535.024 846.003 553.012C847.835 546.226 853.845 544.497 853.391 544.577ZM861.596 546.716C853.859 543.248 845.401 551.407 848.313 559.376C855.386 577.804 879.58 554.76 861.596 546.716ZM850.582 565.832C856.598 584.067 849.572 571.449 861.458 567.592C857.581 568.808 853.614 568.048 850.582 565.832ZM869.734 570.464C862.019 566.196 853.131 573.671 855.428 582.038C860.351 600.767 886.913 580.002 869.734 570.464ZM864.884 633.385C866.758 630.108 870.136 627.686 874.186 627.183C861.901 628.576 862.938 614.167 864.884 633.385ZM860.742 605.152C861.299 607.494 862.191 609.26 863.297 610.538C862.689 612.121 862.448 614.09 862.716 616.483C864.1 625.331 875.33 627.991 880.381 621.325C884.874 615.393 883.109 610.459 879.302 607.682C881.94 603.753 881.932 598.506 875.706 594.487C868.706 589.973 859.053 596.359 860.742 605.152ZM867.904 591.128C863.928 592.057 859.936 590.951 857.068 588.521C861.733 607.252 855.891 594.072 867.904 591.128ZM853.06 596.8C843.087 552.486 823.873 512.457 797.907 478.373C781.724 438.573 757.076 401.719 724.143 370.822C765.977 424.85 713.889 468.718 723.487 466.292C747.512 460.232 772.43 466.859 790.323 482.805C795.022 506.46 788.234 531.614 771.035 549.64C764.161 556.839 827.743 533.121 853.06 596.8ZM751.861 557.712C783.493 539.368 791.567 511.157 785.583 485.575C766.684 467.541 738.506 460.511 706.993 479.062C695.799 486.652 686.402 494.219 679.192 510.064C695.712 501.765 710.774 509.684 723.695 521.736C727.547 539.087 726.793 556.247 711.431 566.577C728.595 568.181 739.77 563.728 751.861 557.712ZM647.546 489.385C644.991 488.731 642.465 487.938 639.971 487C643.751 491.341 642.237 490.907 647.546 489.385ZM657.975 491.349C638.928 500.49 644.647 485.067 663.256 523.683C665.746 520.679 668.102 518.092 671.221 515.431C676.995 497.902 683.085 491.331 685.467 489.428C682.837 490.681 674.861 493.141 657.975 491.349ZM690.949 568.292C691.503 568.197 691.953 568.045 692.49 567.941C683.846 564.774 688.84 568.668 690.949 568.292ZM716.838 594.53C723.749 578.834 729.841 573.074 732.229 571.395C729.409 572.532 720.74 574.583 702.854 570.881C699.017 572.283 695.624 573.055 691.809 573.736C715.548 609.352 699.493 606.654 716.838 594.53ZM713.304 604.653C709.347 608.546 709.733 607.001 711.557 612.484C712.002 609.829 712.586 607.219 713.304 604.653ZM677.018 597.525C678.219 612.1 693.319 621.461 706.876 618.381C685.325 547.666 676.159 588.043 677.018 597.525ZM651.822 548.949C649.216 554.089 649.033 559.593 650.263 564.642C653.969 568.245 658.771 570.837 664.472 571.123C670.566 571.331 675.805 569.874 680.115 566.924C676.024 561.712 672.293 557.354 668.905 553.749C667.515 548.979 665.652 543.53 663.237 537.338C658.557 539.641 654.69 543.504 651.822 548.949ZM674.501 550.48C700.841 573.596 724.896 568.216 717.814 525.171C684.522 497.443 667.89 515.837 674.501 550.48ZM668.553 525.983C668.196 526.402 667.841 526.721 667.483 527.159C666.106 528.82 666.943 535.142 668.553 525.983ZM635.502 524.751C643.186 530.246 682.32 542.4 632.583 488.153C623.17 498.496 623.63 516.412 635.502 524.751ZM607.64 487.49C619.274 489.901 628.969 485.247 618.609 474.261C606.118 465.842 603.274 476.314 607.64 487.49ZM566.543 466.192C576.72 476.576 594.233 473.923 602.663 462.745C541.239 422.594 559.862 459.487 566.543 466.192ZM516.388 445.371C517.657 451.004 521.013 455.339 525.162 458.407C530.29 458.756 535.614 457.618 540.163 454.129C544.964 450.324 548.052 445.8 549.479 440.736C543.035 439.405 537.41 438.494 532.525 437.936C528.429 435.187 523.541 432.225 517.759 429.053C515.636 433.858 515.128 439.334 516.388 445.371ZM488.519 437.451C497.894 436.661 535.593 420.514 463.038 411.314C462.396 425.36 474.127 438.785 488.519 437.451ZM443.509 427.031C453.952 421.311 458.423 411.439 443.509 409.762C428.593 411.439 433.065 421.311 443.509 427.031ZM398.499 437.451C412.889 438.785 424.621 425.359 423.978 411.314C351.423 420.514 389.122 436.661 398.499 437.451ZM346.853 454.129C351.403 457.618 356.727 458.757 361.854 458.407C366.003 455.339 369.36 451.004 370.628 445.371C371.889 439.334 371.381 433.858 369.259 429.052C363.477 432.224 358.589 435.186 354.492 437.935C349.608 438.494 343.983 439.405 337.538 440.735C338.965 445.799 342.054 450.324 346.853 454.129ZM320.473 466.192C327.155 459.487 345.778 422.593 284.354 462.745C292.783 473.922 310.296 476.575 320.473 466.192ZM279.376 487.49C283.742 476.314 280.897 465.843 268.408 474.261C258.047 485.247 267.743 489.901 279.376 487.49ZM201.549 489.428C203.931 491.331 210.021 497.902 215.796 515.431C218.914 518.092 221.271 520.679 223.761 523.683C242.369 485.067 248.088 500.49 229.041 491.349C212.155 493.141 204.179 490.681 201.549 489.428ZM239.471 489.385C244.78 490.907 243.265 491.341 247.045 487C244.55 487.938 242.025 488.731 239.471 489.385ZM251.514 524.751C263.386 516.411 263.846 498.495 254.432 488.153C204.695 542.4 243.83 530.246 251.514 524.751ZM219.533 527.159C219.176 526.721 218.82 526.402 218.464 525.983C220.074 535.142 220.91 528.82 219.533 527.159ZM169.202 525.172C162.12 568.216 186.176 573.596 212.515 550.48C219.126 515.837 202.494 497.443 169.202 525.172ZM236.754 564.642C237.983 559.593 237.8 554.089 235.194 548.949C232.325 543.504 228.459 539.641 223.78 537.338C221.365 543.53 219.502 548.979 218.111 553.749C214.724 557.354 210.993 561.712 206.902 566.924C211.211 569.874 216.45 571.331 222.544 571.123C228.246 570.837 233.048 568.245 236.754 564.642ZM209.997 597.525C210.858 588.043 201.691 547.665 180.139 618.381C193.696 621.462 208.798 612.1 209.997 597.525ZM175.459 612.483C177.284 607 177.67 608.545 173.712 604.652C174.43 607.219 175.014 609.829 175.459 612.483ZM170.178 594.53C187.524 606.654 171.468 609.353 195.206 573.735C191.392 573.055 188 572.282 184.163 570.88C166.275 574.583 157.606 572.531 154.787 571.394C157.175 573.074 163.268 578.834 170.178 594.53ZM196.067 568.291C198.177 568.668 203.169 564.774 194.527 567.941C195.063 568.046 195.514 568.197 196.067 568.291ZM135.156 557.712C147.247 563.728 158.421 568.181 175.584 566.578C160.222 556.249 159.469 539.088 163.321 521.736C176.243 509.684 191.304 501.766 207.824 510.065C200.615 494.219 191.217 486.653 180.022 479.063C148.51 460.511 120.331 467.541 101.432 485.576C95.4496 511.156 103.524 539.368 135.156 557.712ZM12.8305 627.183C16.8803 627.687 20.2586 630.108 22.1323 633.385C24.0784 614.167 25.1151 628.576 12.8305 627.183ZM11.3103 594.488C5.08357 598.506 5.07612 603.754 7.71443 607.683C3.90766 610.46 2.14118 615.394 6.63435 621.326C11.686 627.992 22.9158 625.331 24.2993 616.484C24.5679 614.091 24.3265 612.123 23.7183 610.539C24.8249 609.261 25.7165 607.495 26.2735 605.152C27.9634 596.359 18.3107 589.973 11.3103 594.488ZM19.1115 591.128C31.1258 594.072 25.2823 607.252 29.9484 588.521C27.081 590.951 23.0881 592.057 19.1115 591.128ZM17.2824 570.464C0.103466 580.001 26.6657 600.767 31.5889 582.038C33.8853 573.671 24.9971 566.196 17.2824 570.464ZM25.5583 567.592C37.444 571.449 30.4189 584.067 36.4346 565.832C33.4033 568.048 29.435 568.808 25.5583 567.592ZM25.4199 546.716C7.43599 554.761 31.6293 577.803 38.7039 559.375C41.6158 551.407 33.1569 543.248 25.4199 546.716ZM41.0135 553.012C47.831 535.023 45.2033 549.243 33.625 544.577C33.1709 544.497 39.1827 546.226 41.0135 553.012ZM34.9556 523.859C16.315 530.691 39.897 555.243 47.3687 537.416C50.8664 529.391 43.0535 520.909 34.9556 523.859ZM43.5075 522.295C54.7786 527.96 45.832 539.391 54.5891 522.171C51.2298 523.91 47.1322 524.079 43.5075 522.295ZM44.4445 520.297C55.9676 525.994 65.0288 509.446 53.8162 502.679C42.4875 495.861 32.3725 514.317 44.4445 520.297ZM58.1165 502.169C59.5412 504.016 60.5819 506.66 60.9748 510.333C69.5277 495.174 66.5886 504.644 58.1165 502.169ZM59.505 480.503C39.8822 484.225 59.4868 512.507 69.5969 495.793C74.2473 488.749 68.0066 478.886 59.505 480.503ZM79.1202 481.848C75.1545 483.153 71.1871 482.493 68.0503 480.275C78.4511 487.689 67.6778 497.803 79.1202 481.848ZM66.5391 465.187C63.0538 471.575 66.8431 481.72 76.6344 480.174C80.2878 479.668 82.6444 477.761 83.872 475.314C85.3519 473.014 85.805 469.997 84.4117 466.541C80.8391 457.186 70.2635 458.937 66.5391 465.187ZM80.2063 458.966C83.6727 460.606 86.2212 463.753 87.0872 467.882C95.0195 449.876 91.7516 464.376 80.2063 458.966ZM76.1284 451.363C78.9965 459.622 90.5569 460.161 94.259 452.563C103.506 435.344 69.5029 432.303 76.1284 451.363ZM93.9755 439.313C100.329 445.5 93.6945 452.811 102.39 437.736C99.0511 439.229 96.2686 439.639 93.9755 439.313ZM92.2608 435.289C103.658 441.732 113.288 425.517 102.651 418.266C91.4979 410.676 80.7624 428.769 92.2608 435.289ZM109.328 426.22C119.686 409.934 114.376 423.492 103.893 416.446C107.231 418.731 109.136 422.407 109.328 426.22ZM89.1075 478.374C63.1427 512.457 43.9287 552.487 33.9553 596.8C59.2725 533.122 122.855 556.84 115.98 549.642C98.7808 531.615 91.9939 506.462 96.6921 482.807C114.585 466.861 139.504 460.233 163.53 466.294C173.127 468.721 121.04 424.853 162.872 370.824C129.939 401.72 105.292 438.574 89.1075 478.374ZM133.68 378.066C136.659 380.855 137.993 384.713 137.612 388.478C150.208 374.088 142.922 386.555 133.68 378.066ZM118.019 396.643C127.8 404.457 116.947 413.871 128.931 398.901C122.208 400.69 117.723 396.286 118.019 396.643ZM100.954 408.169C102.48 416.741 113.645 419.348 118.762 412.27C130.281 396.807 97.4807 388.415 100.954 408.169ZM115.746 388.383C116.647 396.897 127.859 400.231 133.221 393.695C145.454 378.282 113.639 368.598 115.746 388.383ZM131.999 369.377C132.204 378.272 143.045 382.324 149.057 376.128C162.623 362.449 131.571 349.551 131.999 369.377ZM170.199 334.614C162.877 333.641 159.539 337.656 159.065 342.381C154.385 342.034 149.897 344.664 149.572 352.13C149.209 360.523 159.5 365.79 166.179 359.913C167.905 358.254 168.97 356.59 169.511 354.981C171.17 354.722 172.975 353.949 174.889 352.517C181.768 346.881 178.43 335.709 170.199 334.614ZM190.033 320.095C170.815 316.227 177.973 349.413 193.64 338.268C200.714 333.353 198.652 321.844 190.033 320.095ZM213.485 325.535C220.777 321.326 219.479 309.572 211.35 307.196C192.463 301.66 196.362 335.051 213.485 325.535ZM233.171 295.89C214.553 288.998 217.023 323.146 234.07 314.35C241.846 310.479 241.249 298.898 233.171 295.89ZM242.703 299.334C247.911 311.194 265.363 304.412 261.071 291.934C256.724 279.342 237.253 286.9 242.703 299.334ZM279.515 278.647C262.119 268.734 259.173 303.152 277.534 296.925C285.57 294.555 287.054 282.94 279.515 278.647ZM294.631 271.49C287.904 274.117 284.363 284.354 292.846 289.539C295.966 291.527 298.982 291.599 301.477 290.524C304.071 289.725 306.336 287.708 307.463 284.154C310.667 274.664 301.454 269.126 294.631 271.49ZM310.757 267.139C307.708 275.332 316.222 283.265 323.884 279.853C341.905 272.678 317.787 248.228 310.757 267.139ZM339.53 273.784C336.024 272.755 333.632 271.259 332.082 269.518C333.02 278.392 323.294 279.676 339.53 273.784ZM333.325 265.32C337.963 277.67 355.638 271.513 352.095 259.039C348.373 245.969 328.658 252.846 333.325 265.32ZM357.209 250.2C352.932 257.759 359.831 267.019 368.246 264.926C386.891 260.575 367.095 232.809 357.209 250.2ZM381.107 244.666C376.389 251.775 382.86 261.623 391.119 260.104C410.281 256.253 392.059 228.139 381.107 244.666ZM405.63 240.679C400.137 247.628 405.867 257.784 414.409 256.947C433.488 255.293 417.894 225.214 405.63 240.679ZM437.824 255.664C440.2 255.516 442.073 254.934 443.509 254.053C444.944 254.934 446.818 255.516 449.193 255.664C458.043 255.822 462.581 245.091 456.972 238.898C451.981 233.39 446.873 234.294 443.509 237.605C440.144 234.294 435.036 233.39 430.045 238.898C424.435 245.092 428.975 255.822 437.824 255.664Z" fill="url(#paint0_linear_301_159)"/>
<path d="M519.905 473.02C547.128 474.293 573.414 485.68 594.386 503.474C615.344 521.288 630.989 545.508 636.955 572.418C655.617 589.813 667.995 613.416 673.472 638.597L670.276 638.597C664.119 610.353 650.874 589.08 633.571 574.396C629.373 550.259 616.507 526.381 592.381 505.893C568.256 485.407 542.786 476.729 518.569 476.738C500.023 460.977 475.002 451.055 443.508 451.055C412.014 451.055 386.992 460.977 368.446 476.738C344.23 476.729 318.76 485.406 294.635 505.893C270.509 526.381 257.643 550.259 253.445 574.396C236.141 589.08 222.896 610.353 216.739 638.597L213.543 638.597C219.02 613.416 231.399 589.813 250.06 572.418C256.027 545.508 271.672 521.288 292.629 503.474C313.602 485.68 339.888 474.293 367.11 473.02C388.772 456.286 416.14 447.91 443.509 447.898C470.876 447.91 498.244 456.286 519.905 473.02Z" fill="url(#paint1_linear_301_159)"/>
<path d="M481.766 474.763C494.346 474.891 505.881 479.267 515.039 486.551C526.681 486.929 538.297 491.079 548.015 499.165C562.901 498 576.828 502.929 587.396 511.904C597.966 520.879 605.18 533.904 606.631 548.942C616.188 557.223 622.244 568.08 624.632 579.617C633.311 587.48 639.573 598.215 641.881 610.732C651.774 617.893 658.551 627.757 662.041 638.596L659.164 638.596C656.045 629.474 650.425 621.121 642.431 614.675C643.326 622.644 642.515 630.811 639.921 638.596L637.585 638.596C649.405 610.934 627.328 599.963 602.352 603.772C605.536 625.34 605.769 634.641 606.188 638.596L602.483 638.596C598.515 631.097 598.795 633.28 596.093 638.596L592.84 638.596C594.109 636.823 595.376 634.343 596.762 630.694C572.236 602.169 570.195 620.432 567.828 638.596L565.542 638.596C565.813 635.332 565.818 632.059 565.489 628.816C563.644 631.938 562.177 635.221 561.021 638.596L557.033 638.596C558.672 634.747 561.151 630.104 564.904 624.54C564.17 620.541 563.546 617.727 562.694 615.807C561.477 614.101 559.381 612.147 556.326 609.504C543.585 610.48 535.974 609.078 531.715 607.37C534.029 611.195 536.608 618.199 537.919 630.282C542.015 633.323 545.178 636.093 547.676 638.595L542.888 638.595C541.295 636.878 539.614 635.248 537.813 633.764C538.221 635.41 538.729 637.014 539.285 638.595L536.507 638.595C535.904 636.16 535.511 634.18 534.345 632.37C531.637 626.964 524.782 626.281 518.988 607.806C517.803 616.648 510.508 629.496 508.555 638.595L504.801 638.595C504.777 638.436 504.738 638.28 504.716 638.12C504.56 638.289 504.411 638.434 504.257 638.595L500.603 638.595C501.695 637.471 502.871 636.173 504.295 634.484C503.346 621.636 504.72 613.911 506.397 609.597L506.393 609.599L506.395 609.595C502.487 612.016 495.21 614.725 482.543 616.012C473.938 626.565 474.69 627.588 484.543 635.955C485.719 636.954 486.756 637.825 487.711 638.596L483.448 638.596C483.229 638.416 482.991 638.27 482.774 638.087C479.72 635.492 477.02 632.599 474.596 629.412C473.143 632.961 472.106 635.98 471.376 638.596L467.362 638.596C467.037 628.835 467.165 622.995 467.187 619.601C464.632 622.725 460.009 628.588 450.887 638.596L447.581 638.596C450.027 636 452.607 630.884 455.28 622.297C451.399 623.163 447.493 623.622 443.506 623.622C439.518 623.622 435.611 623.163 431.73 622.297C434.403 630.884 436.984 636 439.43 638.596L436.124 638.596C427.002 628.588 422.378 622.725 419.823 619.601C419.845 622.995 419.974 628.835 419.649 638.596L415.635 638.596C414.907 635.98 413.868 632.961 412.415 629.412C409.992 632.599 407.291 635.492 404.237 638.087C404.02 638.27 403.782 638.416 403.563 638.596L399.302 638.596C400.257 637.826 401.294 636.954 402.47 635.955C412.322 627.588 413.074 626.565 404.469 616.012C391.802 614.726 384.524 612.016 380.616 609.595L380.618 609.599L380.615 609.597C382.292 613.911 383.665 621.636 382.717 634.484C384.141 636.174 385.317 637.471 386.408 638.595L382.755 638.595C382.601 638.435 382.452 638.29 382.296 638.12C382.273 638.279 382.234 638.436 382.211 638.595L378.456 638.595C376.504 629.495 369.209 616.647 368.024 607.806C362.23 626.281 355.375 626.964 352.667 632.37C351.501 634.18 351.108 636.16 350.505 638.595L347.726 638.595C348.282 637.014 348.79 635.41 349.199 633.764C347.397 635.248 345.717 636.878 344.123 638.595L339.336 638.595C341.834 636.093 344.998 633.323 349.093 630.282C350.404 618.199 352.983 611.195 355.298 607.37C351.038 609.078 343.428 610.479 330.687 609.504C327.631 612.147 325.535 614.101 324.318 615.807C323.467 617.726 322.842 620.541 322.108 624.54C325.862 630.104 328.341 634.747 329.979 638.596L325.992 638.596C324.836 635.221 323.369 631.938 321.524 628.816C321.195 632.059 321.2 635.332 321.471 638.596L319.185 638.596C316.817 620.432 314.777 602.169 290.251 630.694C291.637 634.342 292.904 636.823 294.172 638.596L290.922 638.596C288.219 633.28 288.499 631.097 284.532 638.596L280.827 638.596C281.246 634.641 281.478 625.34 284.662 603.772C259.685 599.963 237.608 610.933 249.429 638.596L247.093 638.596C244.498 630.812 243.687 622.644 244.582 614.675C236.588 621.121 230.969 629.474 227.85 638.596L224.973 638.596C228.463 627.757 235.24 617.894 245.133 610.732C247.441 598.215 253.703 587.48 262.381 579.617C264.77 568.08 270.827 557.223 280.383 548.942C281.834 533.904 289.048 520.879 299.618 511.904C310.187 502.929 324.114 498 338.999 499.165C348.717 491.079 360.333 486.928 371.975 486.551C381.132 479.266 392.667 474.89 405.247 474.763C415.909 464.187 429.709 458.903 443.507 458.903C457.304 458.903 471.103 464.187 481.766 474.763ZM514.046 489.311C505.908 482.61 495.69 478.375 484.451 477.672C492.716 487.129 497.835 499.433 498.153 512.943C500.583 513.002 502.973 513.222 505.313 513.594C507.342 514.833 509.313 516.219 511.211 517.754C520.037 507.61 531.772 501.516 544.11 499.647C535.054 492.876 524.536 489.473 514.046 489.311ZM455.283 514.203C451.631 502.47 447.65 495.75 443.507 495.729C439.364 495.749 435.383 502.47 431.731 514.203C435.759 513.304 439.668 512.877 443.507 512.877C447.347 512.878 451.256 513.305 455.283 514.203ZM441.568 492.003C410.645 462.244 392.321 484.154 391.612 512.951C453.648 514.598 412.524 523.001 441.568 492.003ZM495.402 512.951C494.692 484.154 476.369 462.244 445.446 492.003C474.49 523.001 433.366 514.598 495.402 512.951ZM330.055 575.115C328.252 572.689 326.637 570.126 325.242 567.425C318.368 578.364 321.248 574.806 330.055 575.115ZM333.663 575.326C346.325 576.609 353.604 579.315 357.515 581.734C355.84 577.416 354.471 569.691 355.42 556.849C346.683 546.49 345.543 546.997 335.667 555.383C325.791 563.77 325.101 564.819 333.663 575.326ZM357.088 594.61C330.576 586.042 341.125 575.136 320.026 578.507C303.787 626.311 339.009 597.085 357.088 594.61ZM316.938 579.073C290.088 585.067 293.095 593.786 314.891 602.901C313.861 594.905 314.559 586.769 316.938 579.073ZM334.055 606.855C345.275 607.032 356.089 603.577 365.177 596.916C353.664 596.743 342.86 600.415 334.055 606.855ZM566.989 578.507C545.889 575.136 556.438 586.042 529.926 594.61C548.004 597.085 583.228 626.311 566.989 578.507ZM521.838 596.916C530.925 603.577 541.739 607.032 552.96 606.855C544.154 600.415 533.35 596.743 521.838 596.916ZM572.124 602.901C593.919 593.787 596.927 585.067 570.077 579.073C572.455 586.769 573.153 594.905 572.124 602.901ZM561.772 567.425C560.377 570.126 558.762 572.689 556.959 575.115C565.767 574.806 568.646 578.364 561.772 567.425ZM553.351 575.326C561.913 564.819 561.223 563.77 551.347 555.383C541.471 546.996 540.331 546.49 531.594 556.849C532.544 569.691 531.174 577.416 529.499 581.734C533.409 579.315 540.689 576.609 553.351 575.326ZM385.514 542.928C380.429 519.623 372.467 515.111 361.972 540.831C369.874 539.797 377.911 540.513 385.514 542.928ZM370.118 583.545C375.665 565.957 410.222 535.925 360.884 543.81C353.94 564.253 366.385 555.634 370.118 583.545ZM349.195 547.084C351.581 548.944 353.795 550.998 355.842 553.216C357.072 544.385 361.033 542.133 349.195 547.084ZM386.034 562.714C378.238 570.372 372.788 580.502 370.958 592.006C379.018 584.107 384.258 573.929 386.034 562.714ZM336.523 578.522C344.086 586.402 354.085 591.909 365.439 593.757C357.428 585.406 347.236 580.275 336.523 578.522ZM367.838 591.719C368.011 580.082 364.389 569.16 358.034 560.255C357.88 571.236 361.103 582.286 367.838 591.719ZM389.014 547.158C389.392 550.123 389.505 553.132 389.402 556.168C392.127 554.094 394.436 553.011 395.58 552.184C396.98 552.074 399.438 551.402 402.842 551.218C400.835 548.96 399.012 546.58 397.417 544.065C396.087 546.647 395.184 548.453 394.684 549.693C393.512 549.067 391.673 548.272 389.014 547.158ZM435.002 559.644C420.135 535.835 435.142 534.342 416.838 523.198C374.036 549.254 419.582 549.78 435.002 559.644ZM429.466 533.943C430.255 544.899 434.417 555.622 441.941 564.424C441.108 552.816 436.56 542.254 429.466 533.943ZM445.073 564.424C452.597 555.621 456.759 544.899 457.548 533.943C450.454 542.254 445.906 552.816 445.073 564.424ZM447.28 566.673C458.472 565.865 468.951 561.476 477.433 554.041C466.598 554.836 455.99 559.05 447.28 566.673ZM409.58 554.041C418.062 561.476 428.541 565.865 439.733 566.673C431.024 559.05 420.416 554.836 409.58 554.041ZM426.675 527.125C426.835 524.094 427.226 521.079 427.873 518.103C415.66 522.012 420.125 521.16 426.675 527.125ZM429.305 529.634C438.189 538.854 442.047 545.661 443.507 550.059C444.967 545.661 448.824 538.853 457.709 529.634C457.595 516.015 456.4 515.661 443.507 515.661C430.615 515.661 429.419 516.015 429.305 529.634ZM460.339 527.125C466.89 521.16 471.354 522.012 459.141 518.103C459.788 521.079 460.179 524.094 460.339 527.125ZM452.011 559.644C467.432 549.779 512.978 549.254 470.176 523.198C451.871 534.342 466.879 535.835 452.011 559.644ZM516.056 592.006C514.226 580.502 508.776 570.372 500.98 562.714C502.756 573.928 507.996 584.107 516.056 592.006ZM528.979 560.255C522.625 569.16 519.002 580.082 519.175 591.719C525.911 582.286 529.134 571.236 528.979 560.255ZM521.575 593.757C532.929 591.909 542.928 586.402 550.491 578.522C539.778 580.275 529.585 585.406 521.575 593.757ZM516.896 583.545C520.629 555.634 533.073 564.253 526.13 543.81C476.792 535.925 511.349 565.957 516.896 583.545ZM531.172 553.216C533.219 550.998 535.433 548.944 537.819 547.084C525.981 542.133 529.942 544.385 531.172 553.216ZM498 547.158C495.341 548.272 493.501 549.068 492.331 549.693C491.831 548.452 490.927 546.647 489.598 544.065C488.003 546.58 486.18 548.96 484.173 551.218C487.577 551.402 490.034 552.074 491.435 552.184C492.579 553.011 494.887 554.094 497.612 556.168C497.508 553.131 497.623 550.123 498 547.158ZM501.5 542.928C509.103 540.513 517.139 539.797 525.042 540.831C514.546 515.111 506.584 519.623 501.5 542.928ZM509.446 519.889C507.721 518.498 506.042 517.24 504.408 516.112C502.439 515.913 500.354 515.783 498.149 515.728C497.93 524.286 497.588 530.911 497.239 536.044C500.232 531.885 504.178 526.588 509.446 519.889ZM564.887 535.999C560.1 493.087 532.147 497.951 513.313 519.549C559.79 561.167 522.949 540.852 564.887 535.999ZM543.252 546.607C546.907 548.538 550.173 550.754 553.115 553.252C556.056 555.751 558.779 558.62 561.294 561.928C565.949 550.565 567.167 542.827 564.007 540.116C560.819 537.436 553.5 539.994 543.252 546.607ZM482.923 584.508C492.015 591.167 502.827 594.611 514.05 594.431C504.718 587.607 493.787 584.344 482.923 584.508ZM497.817 559.819C494.714 557.233 492.449 555.484 490.578 554.567C488.562 554.052 485.715 553.918 481.697 553.881C472.555 562.916 465.835 566.793 461.488 568.256C465.69 569.681 472.115 573.368 480.794 581.772C492.78 580.98 500.044 582.334 504.168 583.977C501.766 580.028 499.08 572.687 497.817 559.819ZM447.277 569.836C455.76 577.274 466.23 581.668 477.423 582.482C469.207 575.29 458.761 570.678 447.277 569.836ZM457.544 602.554C456.752 591.602 452.592 580.881 445.073 572.079C445.906 583.683 450.453 594.243 457.544 602.554ZM441.941 572.078C434.421 580.881 430.261 591.602 429.469 602.553C436.561 594.243 441.108 583.683 441.941 572.078ZM439.736 569.836C428.254 570.678 417.807 575.29 409.59 582.482C420.784 581.668 431.254 577.274 439.736 569.836ZM406.22 581.772C414.898 573.368 421.324 569.68 425.526 568.256C421.178 566.794 414.458 562.916 405.317 553.881C401.299 553.918 398.452 554.051 396.436 554.567C394.564 555.484 392.299 557.233 389.196 559.819C387.933 572.687 385.248 580.028 382.846 583.977C386.97 582.334 394.235 580.98 406.22 581.772ZM372.964 594.431C384.186 594.612 394.998 591.167 404.09 584.508C393.227 584.344 382.295 587.607 372.964 594.431ZM333.899 553.251C336.842 550.754 340.107 548.537 343.763 546.606C333.514 539.993 326.196 537.436 323.009 540.115C319.848 542.826 321.067 550.564 325.721 561.927C328.235 558.62 330.958 555.75 333.899 553.251ZM373.701 519.548C354.866 497.951 326.914 493.086 322.126 535.998C364.065 540.852 327.224 561.167 373.701 519.548ZM377.568 519.889C382.835 526.588 386.781 531.885 389.774 536.044C389.425 530.912 389.084 524.287 388.864 515.728C386.659 515.784 384.574 515.913 382.606 516.112C380.972 517.241 379.293 518.498 377.568 519.889ZM397.411 538.546C401.701 531.75 407.402 525.973 414.113 521.625C389.738 508.749 386.504 517.385 397.411 538.546ZM472.901 521.624C479.611 525.972 485.313 531.749 489.603 538.545C500.51 517.385 497.276 508.749 472.901 521.624ZM585.628 514.036C576.256 506.078 564.086 501.491 550.941 501.829C559.987 510.521 566.145 522.323 567.626 535.75C580.949 534.894 593.502 538.982 603.531 546.489C601.577 533.329 595.001 521.996 585.628 514.036ZM567.859 538.522C570.419 581.163 544.253 547.973 592.822 587.067C610.568 564.545 610.448 535.842 567.859 538.522ZM638.583 608.562C635.947 597.482 630.052 588.034 622.119 581.087C620.14 570.66 615.003 560.768 606.839 552.918C607.164 565.54 603.271 578.293 594.932 588.851C596.756 590.476 598.447 592.2 600.004 594.007C600.771 596.275 601.4 598.619 601.88 601.031C615.085 599.002 627.946 601.966 638.583 608.562ZM599.174 601.518C598.736 599.329 598.247 597.274 597.713 595.347C596.331 593.914 594.816 592.459 593.163 590.981C587.558 597.394 583.089 602.247 579.561 605.951C584.496 604.714 590.884 603.223 599.174 601.518ZM597.82 627.706C606.115 601.176 597.151 599.452 578.453 613.997C585.811 617.094 592.423 621.773 597.82 627.706ZM564.864 614.539C565.215 615.917 566.296 618.249 567.066 621.61C568.914 619.217 570.913 616.987 573.085 614.962C570.34 614.085 568.427 613.497 567.133 613.215C567.538 611.939 567.992 609.969 568.614 607.125C565.795 608.016 562.887 608.652 559.915 609.077C562.406 611.431 563.861 613.544 564.864 614.539ZM534.888 628.635C533.161 617.781 528.087 607.451 519.826 599.337C521.6 610.553 526.829 620.73 534.888 628.635ZM506.911 631.079C513.26 622.174 516.882 611.256 516.713 599.621C509.98 609.053 506.756 620.099 506.911 631.079ZM514.314 597.583C502.963 599.434 492.967 604.941 485.404 612.816C496.115 611.063 506.305 605.932 514.314 597.583ZM505.953 596.736C486.968 594.17 485.114 587.457 479.383 585.696C473.875 583.316 468.189 587.252 452.016 576.868C458.535 587.312 460.941 611.326 469.496 613.186C477.231 617.328 494.326 600.497 505.953 596.736ZM460.338 609.376C459.866 618.409 456.114 620.864 467.45 614.876C464.925 613.24 462.558 611.396 460.338 609.376ZM478.932 616.225C475.949 616.328 472.963 616.201 469.99 615.811C474.871 627.772 473.557 623.451 478.932 616.225ZM443.507 620.839C456.368 620.839 457.594 620.544 457.705 606.863C448.818 597.638 444.964 590.828 443.508 586.431L443.507 586.436L443.506 586.431C442.05 590.827 438.196 597.637 429.309 606.863C429.42 620.545 430.646 620.839 443.507 620.839ZM408.082 616.225C413.458 623.452 412.142 627.772 417.024 615.811C414.051 616.201 411.066 616.328 408.082 616.225ZM426.676 609.376C424.456 611.397 422.088 613.24 419.564 614.876C430.901 620.863 427.148 618.409 426.676 609.376ZM417.518 613.186C426.074 611.326 428.479 587.311 434.997 576.868C418.825 587.252 413.139 583.316 407.632 585.696C401.9 587.457 400.045 594.17 381.061 596.736C392.688 600.497 409.782 617.328 417.518 613.186ZM372.7 597.583C380.708 605.932 390.898 611.063 401.61 612.816C394.047 604.942 384.051 599.435 372.7 597.583ZM380.103 631.079C380.258 620.1 377.034 609.053 370.301 599.621C370.131 611.255 373.754 622.174 380.103 631.079ZM367.187 599.337C358.926 607.451 353.853 617.782 352.126 628.635C360.185 620.73 365.414 610.553 367.187 599.337ZM319.948 621.61C320.718 618.249 321.799 615.917 322.149 614.539C323.153 613.544 324.608 611.431 327.099 609.075C324.127 608.651 321.219 608.014 318.4 607.124C319.022 609.967 319.476 611.938 319.881 613.213C318.587 613.495 316.673 614.083 313.929 614.96C316.1 616.987 318.099 619.218 319.948 621.61ZM289.193 627.706C294.591 621.773 301.203 617.094 308.561 613.997C289.863 599.452 280.898 601.176 289.193 627.706ZM307.452 605.952C303.924 602.247 299.455 597.394 293.85 590.981C292.197 592.459 290.682 593.915 289.3 595.348C288.766 597.275 288.277 599.33 287.84 601.518C296.13 603.223 302.518 604.714 307.452 605.952ZM264.895 581.086C256.962 588.034 251.067 597.482 248.431 608.562C259.069 601.967 271.93 599.002 285.133 601.031C285.612 598.621 286.242 596.276 287.009 594.007C288.567 592.2 290.258 590.478 292.081 588.852C283.743 578.294 279.85 565.54 280.174 552.919C272.011 560.768 266.874 570.659 264.895 581.086ZM294.191 587.067C342.76 547.973 316.595 581.162 319.155 538.522C276.566 535.842 276.446 564.545 294.191 587.067ZM301.386 514.036C292.013 521.996 285.437 533.328 283.482 546.489C293.512 538.983 306.065 534.894 319.388 535.75C320.869 522.323 327.027 510.521 336.073 501.829C322.928 501.491 310.758 506.078 301.386 514.036ZM372.968 489.311C362.478 489.473 351.96 492.876 342.904 499.648C355.242 501.516 366.977 507.61 375.803 517.755C377.702 516.219 379.672 514.833 381.701 513.594C384.042 513.224 386.432 513.004 388.861 512.944C389.179 499.433 394.298 487.13 402.563 477.673C391.324 478.375 381.106 482.611 372.968 489.311ZM409.181 474.9C421.631 475.674 433.844 480.708 443.507 490.031C453.169 480.708 465.382 475.674 477.832 474.9C467.977 466.09 455.741 461.686 443.507 461.687C431.272 461.686 419.036 466.09 409.181 474.9Z" fill="url(#paint2_linear_301_159)"/>
<path d="M447.277 8.21623C461.488 40.4976 561.215 98.0348 548.903 170.155C563.943 128.725 611.741 112.5 653.485 101.595C678.536 137.104 704.846 180.627 690.054 222.148C726.43 158.891 839.37 179.69 870.759 164.205C876.018 161.612 878.289 160.018 878.866 160.364C879.302 160.879 878.145 163.419 876.535 169.111C866.918 203.084 906.769 312.035 851.531 359.274C889.366 337.32 936.287 355.986 975.191 374.787C971.828 418.285 964.339 468.741 926.636 490.925C994.678 466.131 1067.98 555.534 1101.86 564.091C1107.54 565.527 1110.29 565.782 1110.51 566.423C1110.52 567.101 1108.02 568.294 1103.17 571.607C1089.51 580.938 1073.68 610.234 1053.16 638.597L1042.93 638.597C1063.61 611.46 1079.98 581.872 1092.62 569.616C1050.13 550.68 941.842 426.283 882.215 546.832C892.652 576.221 882.364 556.019 890.338 544.145C896.188 535.42 918.8 532.132 912.71 569.17C942.836 504.499 990.387 538.379 929.778 587.147C950.939 576.802 988.234 561.249 997.097 583.397C1011.9 553.475 1032.4 551.226 1053.83 573.634C1053.96 568.351 1056.97 563.826 1061.52 562.905C1071.18 560.951 1074.08 566.647 1073.38 573.049C1076.2 578.823 1075.41 585.177 1065.67 586.684C1061.08 587.393 1056.72 584.186 1054.81 579.266C1042.25 607.739 1022.22 612.723 998.2 589.728C997.356 613.609 957.053 611.903 933.674 609.507C959.023 618.084 971.652 629.454 975.271 638.597L971.125 638.597C970.963 637.272 970.667 636.182 970.328 635.587C961.484 620.06 920.459 609.006 905.074 605.969C918.739 621.131 929.626 631.559 938.338 638.597L930.528 638.597C928.292 636.681 926.027 634.634 923.709 632.308C924.955 634.542 925.977 636.618 926.862 638.597L922.496 638.597C916.728 626.89 906.795 614.069 901.449 608.237C902.157 621.05 903.36 630.939 904.859 638.597L891.527 638.597C891.022 627.854 890.027 616.991 888.446 606.051C877.011 550.061 851.824 501.21 824.596 462.779C805.323 419.7 776.114 373.199 733.92 335.182C689.599 299.73 639.278 278.694 594.01 266.966C551.884 246.502 499.975 229.882 443.507 228.207C387.038 229.882 335.128 246.502 293.002 266.966C247.735 278.693 197.413 299.73 153.092 335.182C110.898 373.199 81.6897 419.7 62.4163 462.779C35.1883 501.21 10.0014 550.061 -1.43365 606.051C-3.01482 616.991 -4.00933 627.855 -4.51446 638.597L-17.848 638.597C-16.3483 630.939 -15.1445 621.05 -14.4376 608.237C-19.7818 614.069 -29.7155 626.89 -35.4832 638.597L-39.8487 638.597C-38.9638 636.618 -37.9428 634.542 -36.697 632.308C-39.014 634.633 -41.2798 636.681 -43.5162 638.597L-51.3257 638.597C-42.6131 631.56 -31.7267 621.131 -18.0621 605.969C-33.4463 609.006 -74.4717 620.06 -83.3161 635.587C-83.654 636.181 -83.9506 637.272 -84.113 638.597L-88.2599 638.597C-84.6403 629.454 -72.0113 618.084 -46.6629 609.507C-70.042 611.904 -110.345 613.609 -111.188 589.728C-135.207 612.723 -155.236 607.739 -167.797 579.266C-169.704 584.186 -174.069 587.393 -178.656 586.683C-188.395 585.177 -189.188 578.823 -186.366 573.049C-187.067 566.647 -184.174 560.951 -174.513 562.905C-169.963 563.826 -166.945 568.351 -166.815 573.634C-145.39 551.226 -124.884 553.475 -110.086 583.397C-101.223 561.249 -63.9266 576.802 -42.7671 587.147C-103.375 538.379 -55.8237 504.499 -25.6978 569.17C-31.7878 532.132 -9.17558 535.42 -3.32549 544.145C4.64802 556.019 -5.64006 576.221 4.79707 546.832C-54.83 426.283 -163.12 550.679 -205.611 569.616C-192.967 581.872 -176.596 611.46 -155.919 638.597L-166.149 638.597C-186.661 610.234 -202.497 580.938 -216.159 571.607C-221.008 568.294 -223.507 567.101 -223.5 566.423C-223.278 565.783 -220.526 565.527 -214.85 564.091C-180.969 555.534 -107.663 466.13 -39.6204 490.925C-77.3243 468.741 -84.8125 418.285 -88.1759 374.787C-49.2724 355.986 -2.35159 337.32 35.4841 359.274C-19.7545 312.035 20.0974 203.085 10.4801 169.111C8.86998 163.419 7.71398 160.879 8.14989 160.364C8.72667 160.019 10.9975 161.613 16.2569 164.205C47.646 179.69 160.585 158.891 196.962 222.147C182.169 180.627 208.479 137.103 233.53 101.595C275.274 112.5 323.072 128.725 338.112 170.155C325.8 98.0348 425.528 40.4976 439.738 8.21623C442.12 2.80849 442.847 0.110848 443.508 -5.90135e-05C444.168 0.110014 444.895 2.80849 447.277 8.21623ZM1051.46 577.034C1051.47 577.021 1051.47 576.996 1051.46 576.961C1051.46 576.924 1051.45 576.9 1051.44 576.891C1052.21 575.946 1021.18 540.712 999.556 586.232C1035.25 621.505 1052.51 577.653 1051.46 577.034ZM994.167 587.184C987.405 560.52 934.65 588.525 909.618 602.272C937.787 606.526 996.825 614.58 994.167 587.184ZM955.409 549.952C956.416 544.126 942.707 505.423 904.099 600.37C917.53 592.192 952.344 567.604 955.409 549.952ZM908.141 547.041C905.724 542.047 878.56 527.884 899.927 599.495C904.549 588.39 913.7 558.531 908.141 547.041ZM878.38 536.285C888.461 518.094 900.664 504.857 914.576 496.613C851.502 519.374 851.125 466.688 878.38 536.285ZM-164.422 576.891C-164.435 576.9 -164.443 576.924 -164.445 576.96C-164.455 576.996 -164.456 577.021 -164.446 577.034C-165.495 577.653 -148.24 621.505 -112.539 586.213C-134.163 540.711 -165.198 575.946 -164.422 576.891ZM-107.153 587.184C-109.81 614.58 -50.7728 606.525 -22.6038 602.272C-47.6376 588.525 -100.392 560.52 -107.153 587.184ZM-68.3949 549.952C-65.3306 567.604 -30.5156 592.191 -17.0857 600.37C-55.6943 505.424 -69.4026 544.127 -68.3949 549.952ZM-21.1272 547.041C-26.6857 558.532 -17.5347 588.39 -12.9123 599.494C8.45393 527.884 -18.7114 542.046 -21.1272 547.041ZM8.63277 536.285C35.8888 466.688 35.5122 519.374 -27.5633 496.613C-13.6498 504.857 -1.44768 518.094 8.63277 536.285ZM846.163 450.177C850.742 396.424 813.574 401.416 836.739 455.684C871.595 503.121 894.45 473.04 846.163 450.177ZM881.182 429.716C902.143 392.175 870.031 384.237 852.652 446.385C914.523 462.228 923.787 430.114 881.182 429.716ZM824.009 434.378C816.58 404.412 849.795 394.157 850.412 437.074C866.097 377.561 903.221 388.237 886.632 426.531C927.695 431.138 918.268 469.015 859.5 453.004C895.917 475.003 870.534 498.987 848.605 477.494C866.521 505.869 937.521 501.24 956.976 434.535C962.506 417.855 964.971 398.619 966.527 379.847C949.685 371.826 931.992 364.367 914.954 360.875C848.146 344.574 808.685 404.487 824.009 434.378ZM840.634 366.998C826.623 375.07 809.193 379.146 788.587 378.886C834.516 437.573 789.618 410.9 840.634 366.998ZM794.264 347.425C787.211 336.808 757.084 329.899 745.27 328.398C795.867 382.93 797.329 352.039 794.264 347.425ZM815.406 304.541C798.769 298.401 760.321 316.621 746.607 324.303C847.16 337.938 820.895 306.571 815.406 304.541ZM749.587 248.648C746.659 243.529 711.575 222.799 742.304 320.649C747.398 305.646 758.451 264.163 749.587 248.648ZM711.528 277.166C706.505 274.912 676.7 281.734 738.551 322.691C735.039 311.178 723.085 282.351 711.528 277.166ZM696.05 286.528C694.99 276.04 710.223 258.812 729.083 291.146C711.086 222.008 769.031 217.028 753.577 293.813C763.215 272.123 781.908 235.948 802.765 247.148C795.097 214.599 809.376 199.537 840.021 202.765C836.765 198.633 836.203 193.203 839.103 189.539C845.262 181.757 851.097 184.238 854.626 189.599C860.455 192.185 863.883 197.57 857.379 205.06C854.316 208.587 848.936 208.969 844.35 206.442C852.813 236.424 840.635 253.271 807.63 251.281C822.152 270.123 790.194 295.034 770.763 308.408C842.798 279.671 848.015 338.288 777.611 332.356C812.35 345.538 798.231 363.713 787.84 364.477C773.691 365.528 761.548 346.411 781.478 370.253C914.448 378.268 862.146 221.159 867.187 174.449C822.61 187.585 660.646 162.738 691.534 293.873C718.196 309.595 697.484 300.813 696.05 286.528ZM747.739 318.516C772.019 303.448 822.36 271.214 802.925 251.956C780.81 235.928 758.184 291.699 747.739 318.516ZM840.367 206.909C840.367 206.893 840.351 206.875 840.32 206.854C840.294 206.828 840.273 206.814 840.258 206.816C840.252 205.587 794.099 198.785 806.449 247.72C856.197 251.52 841.565 206.702 840.367 206.909ZM681.899 288.286C678.067 267.794 679.007 249.715 684.429 234.35C650.568 292.818 616.816 252.702 681.899 288.286ZM602.529 243.283C571.895 199.128 546.594 227.129 598.806 253.632C655.637 267.295 654.04 229.386 602.529 243.283ZM575.522 245.591C550.799 227.469 569.73 198.005 597.461 230.481C571.676 174.688 606.897 158.716 618.511 198.842C652.894 175.659 669.729 210.806 614.541 236.772C656.411 229.935 652.199 264.82 621.75 262.619C653.497 272.702 704.946 222.968 677.482 159.213C671.125 142.839 660.795 126.499 650.064 111.108C632.068 115.919 613.777 121.715 598.506 130.123C536.975 161.096 544.799 232.663 575.522 245.591ZM605.091 236.156C662.55 208.043 649.248 177.417 616.358 204.827C608.572 162.434 578.931 177.243 605.091 236.156ZM545.462 183.161C539.857 198.459 529.093 212.919 513.142 226.125C585.6 241.203 534.266 249.978 545.462 183.161ZM373.871 226.125C357.92 212.919 347.158 198.459 341.551 183.161C352.747 249.978 301.413 241.203 373.871 226.125ZM288.207 253.632C340.42 227.129 315.119 199.127 284.485 243.282C232.975 229.386 231.377 267.295 288.207 253.632ZM202.585 234.35C208.007 249.716 208.946 267.794 205.115 288.286C270.198 252.702 236.446 292.818 202.585 234.35ZM140.406 324.303C126.693 316.621 88.2452 298.401 71.6076 304.541C66.1184 306.571 39.8545 337.937 140.406 324.303ZM148.463 322.691C210.314 281.734 180.509 274.912 175.486 277.166C163.929 282.351 151.975 311.178 148.463 322.691ZM144.71 320.648C175.439 222.798 140.355 243.528 137.427 248.647C128.564 264.163 139.616 305.646 144.71 320.648ZM141.743 328.398C129.929 329.899 99.8029 336.808 92.7498 347.425C89.6846 352.039 91.148 382.93 141.743 328.398ZM98.4261 378.886C77.8195 379.146 60.391 375.07 46.3795 366.998C97.3954 410.9 52.4983 437.573 98.4261 378.886ZM50.2761 455.684C73.4402 401.415 36.2727 396.424 40.8507 450.177C-7.43534 473.04 15.4189 503.121 50.2761 455.684ZM5.83212 429.716C-36.7727 430.114 -27.509 462.229 34.3619 446.385C16.9829 384.237 -15.1296 392.175 5.83212 429.716ZM-27.9414 360.876C-44.9795 364.368 -62.6725 371.827 -79.5152 379.848C-77.9579 398.619 -75.4934 417.856 -69.9638 434.535C-50.5091 501.24 20.4913 505.87 38.4067 477.495C16.4785 498.988 -8.90373 475.004 27.5123 453.005C-31.2563 469.015 -40.6825 431.139 0.3807 426.532C-16.2082 388.238 20.9165 377.562 36.6007 437.075C37.2177 394.158 70.4327 404.413 63.0037 434.379C78.3287 404.487 38.8674 344.574 -27.9414 360.876ZM19.8264 174.449C24.8674 221.158 -27.4356 378.267 105.535 370.252C125.465 346.411 113.322 365.527 99.1734 364.476C88.7824 363.711 74.6637 345.537 109.402 332.355C38.9991 338.287 44.2149 279.671 116.25 308.407C96.8186 295.033 64.8611 270.123 79.3827 251.28C46.3778 253.271 34.2004 236.424 42.6634 206.441C38.0773 208.969 32.6966 208.587 29.6339 205.059C23.1304 197.569 26.5581 192.184 32.3868 189.598C35.9167 184.238 41.7512 181.756 47.9095 189.538C50.8108 193.203 50.2479 198.632 46.9917 202.764C77.6366 199.536 91.9168 214.598 84.2481 247.147C105.105 235.946 123.797 272.122 133.436 293.812C117.982 217.027 175.928 222.007 157.93 291.145C176.789 258.811 192.023 276.039 190.962 286.528C189.529 300.811 168.818 309.595 195.478 293.871C226.368 162.738 64.4038 187.584 19.8264 174.449ZM139.275 318.516C128.83 291.7 106.204 235.929 84.0891 251.956C64.6526 271.213 114.994 303.448 139.275 318.516ZM80.579 247.709C92.9146 198.785 46.7618 205.587 46.7568 206.816C46.7403 206.814 46.7197 206.827 46.6942 206.854C46.6629 206.875 46.6472 206.893 46.6456 206.909C45.4492 206.702 30.8155 251.519 80.579 247.709ZM288.507 130.123C273.237 121.715 254.945 115.918 236.949 111.107C226.219 126.499 215.889 142.838 209.531 159.213C182.067 222.968 233.517 272.702 265.263 262.619C234.814 264.819 230.602 229.934 272.472 236.771C217.283 210.805 234.119 175.658 268.502 198.841C280.116 158.715 315.336 174.687 289.552 230.48C317.282 198.005 336.213 227.468 311.491 245.59C342.215 232.663 350.039 161.096 288.507 130.123ZM281.923 236.156C308.083 177.243 278.441 162.434 270.656 204.827C237.765 177.417 224.464 208.044 281.923 236.156ZM384.8 224.135C415.211 218.836 393.765 225.582 383.595 215.573C376.121 208.227 376.848 185.12 411.832 197.621C354.132 156.365 395.358 114.856 432.289 183.731C425.898 160.845 417.239 120.973 440.331 115.985C413.784 96.0393 415.156 75.2113 440.681 57.7489C435.563 56.7024 431.683 52.9092 431.578 48.2144C431.353 38.2461 437.398 36.3514 443.506 38.1609C449.615 36.3514 455.66 38.2461 455.435 48.2144C455.329 52.9092 451.45 56.7015 446.332 57.7489C471.857 75.2121 473.229 96.0393 446.682 115.985C469.774 120.972 461.115 160.845 454.723 183.731C491.654 114.856 532.88 156.366 475.18 197.621C510.164 185.12 510.891 208.227 503.417 215.573C493.247 225.582 471.802 218.836 502.212 224.135C609.163 143.773 469.311 57.4461 443.506 18.3845C417.702 57.4461 277.849 143.773 384.8 224.135ZM446.315 211.621C532.004 156.654 491.961 149.711 486.468 151.727C469.822 157.846 451.941 196.814 446.315 211.621ZM400.546 151.727C395.052 149.71 355.01 156.654 440.698 211.621C435.072 196.814 417.191 157.846 400.546 151.727ZM447.893 215.627C521.287 224.488 502.788 199.873 497.509 198.332C485.362 194.786 457.896 209.092 447.893 215.627ZM439.121 215.627C429.118 209.092 401.652 194.787 389.505 198.332C384.226 199.872 365.727 224.488 439.121 215.627ZM443.507 206.451C452.537 179.114 470.627 121.673 443.507 119.563C416.386 121.672 434.477 179.114 443.507 206.451ZM443.507 60.6876C443.471 60.6835 443.446 60.6876 443.436 60.6992C442.65 59.7611 402.976 84.5741 443.516 114.028C484.039 84.5741 444.364 59.762 443.579 60.6992C443.568 60.6867 443.544 60.6826 443.507 60.6876Z" fill="url(#paint3_linear_301_159)"/>
<defs>
<linearGradient id="paint0_linear_301_159" x1="443.507" y1="231.911" x2="443.507" y2="638.597" gradientUnits="userSpaceOnUse">
<stop stop-color="#C47372" stop-opacity="0.08"/>
<stop offset="1" stop-color="#C47372" stop-opacity="0.3"/>
</linearGradient>
<linearGradient id="paint1_linear_301_159" x1="443.507" y1="231.911" x2="443.507" y2="638.597" gradientUnits="userSpaceOnUse">
<stop stop-color="#C47372" stop-opacity="0.08"/>
<stop offset="1" stop-color="#C47372" stop-opacity="0.3"/>
</linearGradient>
<linearGradient id="paint2_linear_301_159" x1="443.507" y1="231.911" x2="443.507" y2="638.597" gradientUnits="userSpaceOnUse">
<stop stop-color="#C47372" stop-opacity="0.08"/>
<stop offset="1" stop-color="#C47372" stop-opacity="0.3"/>
</linearGradient>
<linearGradient id="paint3_linear_301_159" x1="443.507" y1="231.911" x2="443.507" y2="638.597" gradientUnits="userSpaceOnUse">
<stop stop-color="#C47372" stop-opacity="0.08"/>
<stop offset="1" stop-color="#C47372" stop-opacity="0.3"/>
</linearGradient>
</defs>
</svg>
