<svg width="1351" height="459" viewBox="0 0 1351 459" fill="none" xmlns="http://www.w3.org/2000/svg">
<path d="M675.037 234.841C682.475 231.127 693.971 235.103 693.351 246.024C694.308 229.758 719.833 231.861 717.661 248.373C719.129 237.165 733.807 234.18 740.027 243.434C741.557 245.713 742.283 247.42 742.58 248.665C743.337 247.649 744.666 246.386 746.944 244.927C756.425 238.846 768.575 247.65 765.428 258.412C770.634 240.436 789.616 252.322 790.095 263.251C797.584 252.125 817.541 261.813 811.127 275.578C814.369 268.689 821.001 267.494 826.386 269.621C831.879 271.453 836.192 276.63 834.246 283.993C838.18 269.325 859.695 274.732 858.281 288.069C865.673 280.005 887.855 283.101 880.288 300.217C884.794 289.949 899.762 291.015 903.115 301.768C903.923 304.35 904.13 306.172 904.056 307.437C905.084 306.673 906.736 305.832 909.375 305.069C920.087 301.978 929.411 313.7 923.332 323.229C932.282 309.184 953.187 323.981 943.464 337.056C950.01 328.292 961.372 332.635 964.682 340.262C972.767 342.197 979.018 352.633 971.523 360.601C982.711 348.755 1000.91 366.774 988.636 378.026C996.964 370.384 1010.13 377.532 1008.94 388.619C1008.65 391.348 1008.11 393.122 1007.54 394.267C1008.77 393.975 1010.6 393.861 1013.28 394.209C1024.45 395.645 1028.1 410.199 1018.77 416.42C1034.32 405.996 1041.22 427.303 1034.56 435.983C1047.45 432.274 1056.51 452.523 1042.75 458.945C1049.66 455.751 1055.51 459.099 1058.26 464.19C1061.3 469.124 1061.27 475.863 1055.05 480.252C1067.49 471.545 1080.5 489.516 1070.84 498.824C1081.69 497.397 1096.69 514.027 1079.89 522.276C1089.94 517.308 1100.72 527.745 1096.38 538.137C1095.34 540.635 1094.33 542.163 1093.46 543.086C1094.73 543.162 1096.54 543.58 1099.05 544.691C1109.24 549.209 1108.85 564.182 1098.07 567.574C1113.95 562.568 1120.46 587.341 1104.61 591.107C1115.25 588.6 1121.17 599.231 1118.8 607.201C1123.75 613.88 1121.83 625.892 1110.97 627.179C1119.16 626.227 1123.79 632.284 1124.23 638.596L1122.8 638.596C1122.35 628.657 1102.1 624.454 1102.09 638.596L1095.98 638.596C1095.64 634.731 1095.33 630.869 1094.84 626.99C1094.7 631.106 1094.32 634.96 1093.73 638.596L1087.45 638.596C1088.54 630.142 1088.32 621.385 1086.84 612.836C1079.5 571.954 1043.8 536.218 989.728 562.624C978.126 569.238 968.564 575.815 960.281 589.973C982.8 581.76 1001.41 600.732 1014.73 619.104C1016.77 621.916 1016.65 612.984 1025.48 611.426C1031.3 610.4 1032.41 613.325 1032.12 611.669C1029.36 596.028 1053.06 591.774 1055.83 607.507C1055.91 607.959 1072.29 598.585 1075.52 614.217C1075.49 614.242 1075.48 614.467 1075.46 614.848C1075.61 615.194 1075.7 615.399 1075.73 615.411C1078.05 631.202 1059.44 627.997 1059.52 628.45C1060.29 632.784 1059 636.196 1056.74 638.596L1051.87 638.596C1056.37 636.433 1059.35 631.396 1055.37 625.433C1046.18 616.369 1037.21 624.51 1038.56 632.164C1039.13 635.412 1040.74 637.448 1042.75 638.596L1038.58 638.596C1037.27 637.074 1036.26 635.138 1035.82 632.648C1035.53 630.991 1035.48 634.119 1029.67 635.146C1020.84 636.703 1017.89 628.27 1016.94 631.608C1016.28 633.922 1015.55 636.262 1014.77 638.596L1008.75 638.596C1010.26 634.258 1011.55 630.03 1012.76 626.304C1012.67 626.185 1012.58 626.066 1012.49 625.947C1012.53 625.804 1012.58 625.66 1012.63 625.516C1002.33 612.329 987.682 591.087 967.453 593.831C951.874 595.882 948.426 616.728 952.229 636.573C952.338 637.251 952.477 637.922 952.603 638.596L946.555 638.596C946.545 638.25 946.559 637.943 946.536 637.577C942.519 623.872 934.38 628.514 930.264 638.596L924.569 638.596C925.177 637.424 925.859 636.256 926.645 635.103C930.632 629.273 933.877 626.519 936.049 625.271C933.551 625.285 929.368 624.56 922.97 621.634C910.598 616.096 902.772 602.7 906.778 587.748C908.386 580.665 910.544 576.929 912.142 575.084C909.897 575.999 905.708 576.93 898.429 576.686C890.627 576.303 883.74 573.017 878.77 567.823C876.757 560.923 877.354 553.317 880.923 546.366C884.352 539.94 887.253 536.779 889.167 535.291C886.77 535.754 882.456 535.754 875.518 533.605C860.567 529.599 852.878 516.124 854.268 502.639C854.934 495.635 856.397 491.651 857.658 489.494C855.492 490.751 851.483 492.184 844.441 492.722C841.826 492.917 839.334 492.814 836.98 492.45C836.213 490.195 835.679 487.759 835.417 485.15C834.724 478.122 835.438 473.925 836.301 471.573C834.396 473.19 830.725 475.323 823.943 477.194C810.906 480.904 796.3 475.673 789.758 461.644C786.437 455.185 785.688 450.937 785.728 448.496C784.596 450.641 781.986 454.045 776.254 458.537C770.029 463.26 762.642 465.169 755.497 464.385C749.519 460.393 745.088 454.181 743.355 446.564C741.852 439.437 742.041 435.151 742.551 432.78C741.013 434.676 737.709 437.449 731.011 440.263C716.982 446.805 702.431 441.424 694.829 430.201C690.836 424.409 689.395 420.416 688.976 417.952C688.124 420.308 685.975 423.983 680.925 428.921C679.048 430.751 677.073 432.273 675.037 433.508C672.999 432.273 671.025 430.751 669.147 428.921C664.098 423.983 661.949 420.308 661.097 417.952C660.677 420.415 659.235 424.409 655.244 430.201C647.641 441.424 633.091 446.805 619.06 440.263C612.364 437.449 609.06 434.677 607.521 432.781C608.032 435.152 608.221 439.438 606.717 446.564C604.984 454.181 600.553 460.393 594.575 464.385C587.43 465.169 580.042 463.26 573.819 458.537C568.087 454.045 565.477 450.64 564.343 448.496C564.384 450.937 563.635 455.185 560.313 461.645C553.771 475.674 539.166 480.905 526.127 477.195C519.345 475.323 515.675 473.19 513.77 471.573C514.631 473.926 515.347 478.123 514.654 485.151C514.392 487.76 513.858 490.196 513.091 492.451C510.737 492.815 508.246 492.918 505.631 492.722C498.59 492.185 494.581 490.752 492.414 489.494C493.676 491.651 495.139 495.636 495.804 502.64C497.194 516.124 489.506 529.599 474.554 533.606C467.616 535.755 463.303 535.755 460.905 535.292C462.82 536.78 465.721 539.941 469.149 546.367C472.718 553.317 473.316 560.923 471.302 567.824C466.333 573.018 459.447 576.303 451.643 576.687C444.364 576.931 440.176 576 437.93 575.085C439.529 576.93 441.687 580.666 443.294 587.749C447.299 602.701 439.474 616.096 427.102 621.634C420.704 624.56 416.522 625.286 414.022 625.272C416.195 626.52 419.44 629.274 423.427 635.104C424.212 636.257 424.895 637.424 425.503 638.597L419.809 638.597C415.693 628.515 407.553 623.872 403.537 637.577C403.514 637.944 403.527 638.252 403.517 638.597L397.471 638.597C397.597 637.923 397.735 637.252 397.844 636.573C401.647 616.729 398.199 595.883 382.62 593.832C362.391 591.087 347.747 612.33 337.447 625.517C337.493 625.661 337.539 625.805 337.585 625.948C337.493 626.067 337.4 626.186 337.308 626.305C338.518 630.031 339.809 634.259 341.321 638.596L335.3 638.596C334.522 636.262 333.793 633.922 333.132 631.609C332.184 628.271 329.236 636.704 320.405 635.146C314.587 634.12 314.543 630.992 314.251 632.648C313.811 635.139 312.802 637.075 311.491 638.596L307.325 638.596C309.334 637.449 310.936 635.413 311.509 632.165C312.858 624.51 303.886 616.37 294.704 625.433C290.721 631.397 293.699 636.433 298.199 638.596L293.332 638.596C291.067 636.197 289.783 632.785 290.547 628.451C290.627 627.998 272.024 631.203 274.342 615.41C274.377 615.396 274.467 615.19 274.614 614.839C274.594 614.464 274.58 614.241 274.552 614.217C277.777 598.586 294.16 607.96 294.24 607.508C297.014 591.775 320.707 596.028 317.95 611.669C317.658 613.326 318.769 610.401 324.587 611.427C333.418 612.985 333.304 621.916 335.337 619.104C348.658 600.733 367.271 581.761 389.791 589.974C381.508 575.816 371.945 569.239 360.344 562.624C306.272 536.219 270.574 571.955 263.232 612.837C261.752 621.386 261.532 630.143 262.623 638.596L256.341 638.596C255.757 634.961 255.368 631.107 255.23 626.991C254.742 630.87 254.432 634.732 254.095 638.596L247.984 638.596C247.977 624.455 227.727 628.658 227.274 638.596L225.843 638.596C226.285 632.284 230.918 626.227 239.106 627.18C228.243 625.893 226.324 613.882 231.273 607.201C228.907 599.232 234.819 588.601 245.467 591.108C229.614 587.341 236.117 562.569 252 567.575C241.218 564.184 240.827 549.21 251.021 544.692C253.531 543.581 255.338 543.162 256.616 543.087C255.747 542.164 254.733 540.636 253.693 538.138C249.35 527.746 260.131 517.309 270.182 522.277C253.385 514.029 268.385 497.4 279.233 498.825C269.577 489.517 282.582 471.546 295.025 480.252C288.802 475.864 288.777 469.125 291.808 464.191C294.566 459.099 300.414 455.752 307.326 458.946C293.565 452.524 302.625 432.275 315.514 435.984C308.856 427.303 315.757 405.997 331.299 416.42C321.971 410.2 325.619 395.645 336.791 394.21C339.474 393.862 341.304 393.976 342.538 394.268C341.964 393.123 341.423 391.349 341.13 388.619C339.947 377.533 353.109 370.385 361.438 378.027C349.16 366.775 367.362 348.756 378.551 360.602C371.056 352.633 377.307 342.198 385.392 340.263C388.702 332.636 400.064 328.293 406.61 337.057C396.887 323.982 417.792 309.184 426.742 323.23C420.663 313.701 429.987 301.979 440.7 305.07C443.338 305.832 444.991 306.674 446.018 307.437C445.945 306.172 446.151 304.351 446.959 301.769C450.313 291.016 465.28 289.95 469.786 300.218C462.22 283.101 484.401 280.005 491.793 288.07C490.379 274.733 511.894 269.326 515.828 283.994C513.883 276.631 518.195 271.453 523.688 269.622C529.074 267.494 535.705 268.69 538.947 275.579C532.532 261.814 552.49 252.126 559.979 263.252C560.459 252.322 579.44 240.437 584.646 258.413C581.499 247.65 593.649 238.846 603.13 244.928C605.409 246.386 606.737 247.649 607.494 248.666C607.791 247.42 608.517 245.713 610.047 243.434C616.266 234.182 630.944 237.166 632.412 248.374C630.24 231.862 655.766 229.759 656.721 246.025C656.103 235.103 667.599 231.127 675.037 234.841ZM1034.86 611.187C1036.21 618.841 1047.43 623.422 1052.96 611.765C1056.56 597.018 1032.3 596.653 1034.86 611.187ZM1065.42 626.016C1071.57 624.932 1073.74 619.847 1072.89 615.298C1072.14 610.73 1068.35 606.695 1062.21 607.779C1056.21 608.841 1054.01 613.929 1054.81 618.486C1055.61 623.042 1059.42 627.07 1065.42 626.016ZM1018.44 624.468C1018.46 624.61 1018.48 624.75 1018.5 624.887C1018.53 625.024 1018.55 625.163 1018.58 625.303C1019.95 633.051 1030.51 635.237 1035.16 628.599C1037.01 625.959 1037.58 623.591 1037.28 621.574C1036.87 619.579 1035.53 617.548 1032.89 615.7C1026.25 611.053 1017.07 616.719 1018.44 624.468ZM277.184 615.297C276.331 619.846 278.505 624.932 284.649 626.016C290.652 627.069 294.462 623.041 295.267 618.485C296.069 613.928 293.865 608.84 287.865 607.778C281.721 606.695 277.938 610.73 277.184 615.297ZM315.21 611.187C317.773 596.653 293.511 597.017 297.116 611.765C302.646 623.422 313.86 618.841 315.21 611.187ZM317.188 615.701C314.548 617.549 313.203 619.581 312.791 621.576C312.495 623.592 313.066 625.961 314.914 628.601C319.562 635.238 330.125 633.053 331.49 625.304C331.521 625.165 331.55 625.026 331.575 624.889C331.598 624.751 331.618 624.611 331.637 624.469C333.004 616.719 323.825 611.053 317.188 615.701ZM713.371 240.679C700.96 225.214 685.177 255.293 704.487 256.948C713.13 257.784 718.93 247.628 713.371 240.679ZM697.815 256.439C694.918 254.002 693.127 250.215 693.342 246.091C692.555 258.576 678.548 255.041 697.815 256.439ZM656.732 246.091C656.948 250.216 655.156 254.002 652.259 256.439C671.527 255.041 657.519 258.576 656.732 246.091ZM721.3 258.963C718.583 256.327 717.138 252.504 717.655 248.429C715.944 260.945 702.284 256.135 721.3 258.963ZM632.42 248.429C632.936 252.504 631.491 256.326 628.775 258.963C647.79 256.135 634.13 260.945 632.42 248.429ZM728.057 260.103C736.415 261.622 742.964 251.774 738.189 244.665C727.105 228.139 708.665 256.253 728.057 260.103ZM533.389 296.274C491.35 305.492 450.724 323.658 414.508 351.116C475.067 318.804 509.114 378.335 508.412 368.35C506.665 343.352 517.573 319.667 536.42 304.602C560.541 304.028 584.12 315.161 598.85 335.433C604.731 343.535 592.547 276.045 659.708 261.87C614.316 264.116 571.518 276.314 533.389 296.274ZM584.657 258.453C585.778 262.375 584.89 266.43 582.588 269.476C601.085 263.739 588.254 270.671 584.657 258.453ZM538.962 275.617C540.595 279.127 540.549 283.197 538.567 286.922C556.29 278.289 544.435 287.271 538.962 275.617ZM523.411 292.439C519.498 290.858 516.846 287.772 515.841 284.032C519.139 296.478 504.285 297.218 523.411 292.439ZM494.066 294.342C493.984 296.684 493.091 299.386 491.035 302.455C507.409 296.406 499.043 301.75 494.066 294.342ZM478.474 307.369C474.753 306.516 471.467 303.98 469.804 300.255C474.901 311.927 460.617 314.864 478.474 307.369ZM447.819 310.896C447.519 310.539 451.068 315.774 448.125 322.164C464.974 312.819 453.796 322.001 447.819 310.896ZM436.336 329.005C432.56 328.731 428.996 326.732 426.772 323.278C433.508 333.965 419.951 339.061 436.336 329.005ZM416.723 342.167C412.938 342.163 409.131 340.413 406.646 337.115C414.068 347.185 401.066 353.481 416.723 342.167ZM378.6 360.648C381.417 363.668 382.478 367.721 381.825 371.45C395.687 357.994 387.229 369.705 378.6 360.648ZM406.252 365.123C374.518 391.922 361.419 440.707 411.322 474.33C422.852 481.07 433.329 486.063 449.731 486.157C431.358 470.761 438.482 445.156 447.731 424.434C449.15 421.268 441.471 425.833 435.708 418.963C431.91 414.438 433.887 412.013 432.599 413.093C420.433 423.303 404.902 404.91 417.14 394.642C417.493 394.347 401.181 384.844 413.108 374.236C413.144 374.247 413.345 374.147 413.685 373.973C413.911 373.672 414.043 373.493 414.036 373.456C426.554 363.556 433.078 381.267 433.43 380.972C445.668 370.703 461.084 389.192 448.917 399.401C447.629 400.482 450.361 398.956 454.158 403.481C459.923 410.351 454.094 417.119 457.459 416.273C479.472 410.763 505.926 408.193 517.897 428.959C520.653 412.79 517.555 401.605 512.919 389.081C488.472 334.096 438.154 338.525 406.252 365.123ZM509.924 427.305C496.193 412.199 471.319 419.06 454.953 422.541C454.895 422.681 454.839 422.821 454.783 422.961C454.635 422.992 454.488 423.024 454.34 423.056C448.07 438.569 436.994 461.873 449.486 478.019C459.052 490.487 478.829 483.049 494.113 469.833C509.782 457.075 520.54 438.89 509.924 427.305ZM547.62 428.974C531.373 420.175 525.971 412.965 524.515 410.26C525.288 413.1 526.308 421.475 521.577 437.993C527.231 458.564 513.049 450.186 554.347 438.346C551.826 435.343 549.693 432.544 547.62 428.974ZM557.543 433.464C557.893 433.893 558.144 434.302 558.513 434.735C559.906 436.395 566.28 436.66 557.543 433.464ZM795.728 438.346C837.027 450.187 822.843 458.565 828.498 437.993C823.767 421.475 824.786 413.1 825.559 410.26C824.103 412.966 818.702 420.175 802.455 428.974C800.381 432.544 798.247 435.343 795.728 438.346ZM792.531 433.464C783.794 436.66 790.169 436.395 791.561 434.735C791.931 434.302 792.182 433.893 792.531 433.464ZM855.961 469.832C871.245 483.049 891.023 490.485 900.588 478.019C913.079 461.872 902.004 438.568 895.734 423.055C895.586 423.022 895.439 422.992 895.291 422.96C895.235 422.821 895.178 422.681 895.121 422.54C878.755 419.059 853.882 412.199 840.15 427.304C829.534 438.89 840.292 457.075 855.961 469.832ZM968.249 371.45C967.596 367.721 968.657 363.668 971.473 360.648C962.845 369.705 954.387 357.994 968.249 371.45ZM943.823 365.123C911.92 338.525 861.602 334.096 837.155 389.081C832.519 401.605 829.421 412.79 832.177 428.959C844.148 408.192 870.603 410.762 892.615 416.273C895.98 417.12 890.151 410.351 895.915 403.481C899.713 398.956 902.444 400.482 901.156 399.401C888.99 389.192 904.405 370.704 916.643 380.972C916.996 381.267 923.52 363.555 936.038 373.457C936.032 373.494 936.167 373.676 936.397 373.98C936.732 374.151 936.932 374.249 936.967 374.237C948.891 384.846 932.581 394.347 932.934 394.642C945.172 404.91 929.642 423.303 917.475 413.093C916.187 412.013 918.164 414.438 914.366 418.963C908.602 425.833 900.923 421.268 902.343 424.434C911.592 445.156 918.716 470.761 900.343 486.157C916.746 486.063 927.222 481.071 938.752 474.33C988.656 440.707 975.556 391.923 943.823 365.123ZM816.685 296.274C778.557 276.314 735.759 264.116 690.366 261.87C757.527 276.045 745.343 343.534 751.224 335.433C765.954 315.161 789.533 304.028 813.654 304.602C832.501 319.667 843.409 343.351 841.662 368.35C840.959 378.335 875.006 318.805 935.566 351.116C899.35 323.658 858.724 305.493 816.685 296.274ZM943.428 337.116C940.943 340.413 937.136 342.163 933.35 342.167C949.008 353.481 936.007 347.186 943.428 337.116ZM923.302 323.279C921.078 326.732 917.514 328.732 913.738 329.006C930.124 339.061 916.566 333.965 923.302 323.279ZM901.948 322.164C899.005 315.774 902.554 310.54 902.254 310.896C896.278 322.001 885.1 312.819 901.948 322.164ZM880.27 300.256C878.606 303.981 875.321 306.516 871.599 307.37C889.457 314.864 875.173 311.927 880.27 300.256ZM859.039 302.455C856.983 299.386 856.09 296.684 856.008 294.342C851.031 301.75 842.665 296.406 859.039 302.455ZM834.233 284.032C833.227 287.772 830.576 290.859 826.663 292.439C845.789 297.218 830.935 296.478 834.233 284.032ZM811.508 286.922C809.525 283.197 809.478 279.128 811.112 275.617C805.639 287.271 793.784 278.289 811.508 286.922ZM767.487 269.476C765.185 266.43 764.297 262.375 765.417 258.453C761.82 270.671 748.989 263.739 767.487 269.476ZM543.735 420.097C538.465 402.191 548.911 388.555 563.05 377.769C580.815 376.943 597.582 380.674 605.055 397.778C609.652 380.95 607.23 369.041 603.429 355.945C590.924 321.233 564.559 308.287 538.315 309.809C517.232 325.513 505.358 352.377 518.09 387.006C523.597 399.48 529.397 410.16 543.735 420.097ZM630.545 387.96C626.367 364.356 648.283 349.32 668.687 339.392C671.81 337.878 662.994 336.439 662.994 327.472C662.994 321.564 666.067 320.977 664.385 320.977C648.502 320.977 648.428 296.906 664.404 296.906C664.863 296.906 658.476 279.143 674.431 278.682C674.45 278.714 674.67 278.766 675.042 278.852C675.409 278.766 675.625 278.714 675.644 278.682C691.597 279.144 685.21 296.906 685.67 296.906C701.646 296.906 701.571 320.977 685.689 320.977C684.007 320.977 687.08 321.564 687.08 327.472C687.08 336.439 678.265 337.878 681.387 339.392C701.792 349.32 723.708 364.357 719.53 387.96C732.035 377.344 736.852 366.785 741.351 354.211C757.966 296.376 716.574 267.425 675.038 267.294C633.502 267.425 592.11 296.376 608.725 354.211C613.223 366.785 618.04 377.344 630.545 387.96ZM650.286 405.624C647.749 404.72 645.283 403.685 642.881 402.524C646.019 407.144 644.566 406.491 650.286 405.624ZM707.193 402.525C704.791 403.685 702.324 404.721 699.788 405.625C705.508 406.491 704.055 407.144 707.193 402.525ZM675.037 403.981C695.241 404.28 715.172 397.265 714.485 381.566C713.676 361.168 690.212 350.436 675.437 342.582C675.303 342.652 675.17 342.723 675.037 342.793C674.904 342.723 674.771 342.652 674.637 342.582C659.862 350.436 636.399 361.168 635.589 381.566C634.903 397.265 654.833 404.28 675.037 403.981ZM675.037 299.821C679.664 299.818 684.292 296.765 684.297 290.671C684.297 284.432 679.666 281.409 675.037 281.459C670.409 281.409 665.778 284.432 665.778 290.671C665.782 296.765 670.411 299.819 675.037 299.821ZM664.386 318.194C672.159 318.194 678.617 307.945 668.097 300.475C654.2 294.364 649.627 318.194 664.386 318.194ZM681.977 300.475C671.456 307.945 677.915 318.194 685.689 318.194C700.447 318.194 695.875 294.364 681.977 300.475ZM675.037 317.615C673.001 317.673 670.767 318.646 668.488 320.924C662.759 326.654 666.745 336.677 674.613 336.677C674.756 336.683 674.897 336.687 675.037 336.689C675.177 336.687 675.318 336.683 675.461 336.677C683.329 336.677 687.316 326.654 681.586 320.924C679.308 318.647 677.074 317.674 675.037 317.615ZM787.024 377.769C801.164 388.555 811.609 402.191 806.339 420.097C820.677 410.16 826.478 399.48 831.985 387.005C844.716 352.376 832.841 325.512 811.759 309.808C785.515 308.286 759.151 321.233 746.646 355.944C742.846 369.04 740.423 380.95 745.02 397.777C752.492 380.674 769.259 376.943 787.024 377.769ZM917.178 386.081C910.46 372.467 891.64 387.782 902.946 397.269C908.9 402.264 920.435 398.565 917.178 386.081ZM935.888 388.984C939.899 384.204 938.295 378.911 934.717 375.975C931.204 372.961 925.713 372.3 921.702 377.08C917.789 381.751 919.371 387.065 922.915 390.041C926.459 393.013 931.967 393.649 935.888 388.984ZM919.264 410.962C930.569 420.448 942.383 399.254 927.81 395.003C914.949 393.962 913.309 405.965 919.264 410.962ZM914.366 410.417C914.085 407.208 912.998 405.026 911.475 403.672C909.878 402.408 907.541 401.716 904.332 401.997C896.26 402.704 892.871 412.944 898.898 418.001C899.004 418.098 899.11 418.192 899.215 418.283C899.323 418.372 899.434 418.459 899.547 418.547C905.575 423.604 915.072 418.489 914.366 410.417ZM832.266 448.047C831.699 453.603 831.006 452.169 835.945 455.182C834.583 452.859 833.359 450.48 832.266 448.047ZM784.673 384.227C741.039 384.644 739.967 409.552 767.361 431.791C802.64 432.363 817.831 412.594 784.673 384.227ZM747.004 416.894C746.997 417.447 746.926 417.922 746.93 418.49C746.93 420.658 751.642 424.958 747.004 416.894ZM742.289 407.075C735.498 389.89 735.996 380.895 736.62 377.887C735.387 380.558 730.785 387.63 716.542 397.244C707.65 416.637 702.17 401.103 741.418 418.578C741.418 414.658 741.582 411.143 742.289 407.075ZM633.532 397.244C619.289 387.631 614.688 380.558 613.454 377.887C614.078 380.894 614.576 389.89 607.785 407.075C608.492 411.143 608.656 414.658 608.656 418.578C647.905 401.103 642.424 416.637 633.532 397.244ZM603.144 418.49C603.149 417.922 603.078 417.447 603.07 416.894C598.432 424.958 603.144 420.658 603.144 418.49ZM565.401 384.227C532.242 412.594 547.433 432.363 582.712 431.791C610.106 409.552 609.036 384.644 565.401 384.227ZM517.809 448.047C516.715 450.48 515.491 452.859 514.129 455.182C519.069 452.168 518.375 453.602 517.809 448.047ZM432.897 386.081C429.639 398.565 441.175 402.264 447.129 397.269C458.434 387.782 439.614 372.467 432.897 386.081ZM428.372 377.081C424.361 372.301 418.87 372.962 415.357 375.975C411.778 378.912 410.175 384.205 414.186 388.985C418.106 393.649 423.615 393.013 427.16 390.041C430.703 387.066 432.285 381.752 428.372 377.081ZM422.264 395.003C407.69 399.254 419.504 420.448 430.81 410.962C436.764 405.965 435.125 393.962 422.264 395.003ZM438.598 403.672C437.075 405.026 435.989 407.208 435.708 410.417C435.002 418.489 444.499 423.604 450.526 418.548C450.639 418.46 450.75 418.372 450.858 418.284C450.964 418.192 451.069 418.099 451.176 418.002C457.204 412.945 453.815 402.705 445.742 401.998C442.532 401.717 440.195 402.408 438.598 403.672ZM615.346 261.3C608.984 258.297 608.338 252.006 608.338 252.472C610.898 264.821 596.432 264.972 615.346 261.3ZM741.736 252.472C741.736 252.006 741.09 258.297 734.728 261.3C753.642 264.972 739.176 264.821 741.736 252.472ZM762.375 250.201C752.371 232.809 732.335 260.575 751.205 264.926C759.723 267.019 766.702 257.759 762.375 250.201ZM767.55 259.039C763.965 271.513 781.853 277.67 786.547 265.32C791.271 252.846 771.317 245.97 767.55 259.039ZM780.267 273.784C796.699 279.676 786.855 278.392 787.804 269.518C786.236 271.26 783.815 272.755 780.267 273.784ZM809.386 267.139C802.272 248.228 777.865 272.679 796.102 279.854C803.855 283.265 812.472 275.332 809.386 267.139ZM825.705 271.49C818.802 269.126 809.476 274.664 812.719 284.155C813.861 287.708 816.152 289.725 818.778 290.525C821.302 291.6 824.355 291.528 827.512 289.54C836.097 284.354 832.514 274.117 825.705 271.49ZM841.005 278.647C833.375 282.94 834.876 294.555 843.008 296.925C861.591 303.152 858.61 268.734 841.005 278.647ZM878.259 299.334C883.775 286.901 864.07 279.342 859.67 291.934C855.327 304.412 872.987 311.194 878.259 299.334ZM887.906 295.89C879.732 298.898 879.126 310.479 886.996 314.35C904.248 323.146 906.748 288.998 887.906 295.89ZM909.99 307.197C901.763 309.573 900.45 321.327 907.829 325.536C925.159 335.051 929.104 301.66 909.99 307.197ZM931.564 320.095C922.84 321.845 920.753 333.353 927.912 338.268C943.768 349.413 951.012 316.227 931.564 320.095ZM972.512 352.131C972.183 344.664 967.642 342.033 962.904 342.381C962.425 337.656 959.046 333.641 951.636 334.614C943.306 335.709 939.928 346.881 946.89 352.517C948.827 353.95 950.654 354.722 952.333 354.981C952.879 356.589 953.958 358.255 955.704 359.913C962.464 365.79 972.88 360.524 972.512 352.131ZM990.296 369.377C990.729 349.552 959.304 362.449 973.033 376.128C979.117 382.325 990.087 378.272 990.296 369.377ZM984.616 388.479C984.23 384.713 985.58 380.855 988.595 378.066C979.24 386.555 971.867 374.088 984.616 388.479ZM1006.74 388.383C1008.88 368.598 976.679 378.281 989.059 393.695C994.486 400.232 1005.83 396.898 1006.74 388.383ZM993.4 398.901C1005.53 413.871 994.544 404.458 1004.44 396.643C1004.74 396.286 1000.2 400.69 993.4 398.901ZM1021.71 408.169C1025.23 388.416 992.034 396.808 1003.69 412.27C1008.87 419.348 1020.17 416.741 1021.71 408.169ZM1013.24 426.22C1013.43 422.407 1015.36 418.731 1018.74 416.446C1008.13 423.493 1002.76 409.935 1013.24 426.22ZM1020 418.267C1009.23 425.517 1018.98 441.732 1030.51 435.289C1042.15 428.769 1031.28 410.676 1020 418.267ZM1020.26 437.737C1029.06 452.812 1022.35 445.501 1028.78 439.314C1026.46 439.639 1023.64 439.229 1020.26 437.737ZM1046.84 451.364C1053.55 432.304 1019.13 435.345 1028.49 452.564C1032.24 460.16 1043.94 459.622 1046.84 451.364ZM1035.75 467.882C1036.62 463.753 1039.2 460.606 1042.71 458.966C1031.03 464.376 1027.72 449.876 1035.75 467.882ZM1056.54 465.187C1052.77 458.938 1042.07 457.187 1038.46 466.541C1037.05 469.997 1037.5 473.014 1039 475.314C1040.24 477.761 1042.63 479.667 1046.33 480.174C1056.24 481.72 1060.07 471.575 1056.54 465.187ZM1043.81 481.849C1055.39 497.804 1044.49 487.69 1055.01 480.275C1051.84 482.493 1047.82 483.154 1043.81 481.849ZM1063.66 480.503C1055.06 478.887 1048.74 488.75 1053.45 495.793C1063.68 512.507 1083.52 484.225 1063.66 480.503ZM1062.17 510.333C1062.57 506.661 1063.63 504.017 1065.07 502.17C1056.49 504.645 1053.52 495.174 1062.17 510.333ZM1078.9 520.297C1091.12 514.317 1080.88 495.861 1069.42 502.679C1058.07 509.445 1067.24 525.994 1078.9 520.297ZM1068.64 522.171C1077.5 539.392 1068.44 527.96 1079.85 522.295C1076.18 524.079 1072.04 523.91 1068.64 522.171ZM1088.51 523.859C1080.31 520.91 1072.41 529.392 1075.94 537.416C1083.51 555.243 1107.37 530.691 1088.51 523.859ZM1089.85 544.578C1078.14 549.243 1075.48 535.024 1082.38 553.012C1084.23 546.226 1090.31 544.497 1089.85 544.578ZM1098.16 546.716C1090.33 543.248 1081.77 551.407 1084.71 559.376C1091.87 577.804 1116.36 554.76 1098.16 546.716ZM1087.01 565.832C1093.1 584.067 1085.99 571.45 1098.02 567.592C1094.09 568.808 1090.08 568.048 1087.01 565.832ZM1106.39 570.464C1098.59 566.196 1089.59 573.671 1091.92 582.038C1096.9 600.767 1123.78 580.002 1106.39 570.464ZM1101.49 633.385C1103.38 630.108 1106.8 627.686 1110.9 627.183C1098.47 628.576 1099.52 614.167 1101.49 633.385ZM1097.29 605.152C1097.86 607.494 1098.76 609.26 1099.88 610.538C1099.26 612.121 1099.02 614.09 1099.29 616.483C1100.69 625.331 1112.06 627.991 1117.17 621.325C1121.72 615.394 1119.93 610.46 1116.08 607.682C1118.75 603.753 1118.74 598.506 1112.44 594.487C1105.35 589.974 1095.58 596.359 1097.29 605.152ZM1104.54 591.128C1100.52 592.057 1096.48 590.951 1093.57 588.521C1098.3 607.252 1092.38 594.072 1104.54 591.128ZM1089.52 596.8C1079.43 552.486 1059.98 512.457 1033.7 478.373C1017.32 438.573 992.38 401.719 959.05 370.822C1001.39 424.85 948.673 468.718 958.386 466.292C982.7 460.232 1007.92 466.86 1026.03 482.805C1030.78 506.46 1023.91 531.614 1006.51 549.64C999.549 556.839 1063.9 533.121 1089.52 596.8ZM987.101 557.712C1019.11 539.368 1027.29 511.157 1021.23 485.575C1002.1 467.541 973.586 460.511 941.694 479.063C930.365 486.653 920.854 494.219 913.558 510.064C930.277 501.765 945.519 509.684 958.596 521.736C962.495 539.087 961.732 556.247 946.185 566.577C963.556 568.182 974.865 563.729 987.101 557.712ZM881.531 489.385C878.945 488.731 876.389 487.938 873.865 487C877.691 491.342 876.158 490.907 881.531 489.385ZM892.086 491.349C872.809 500.49 878.597 485.067 897.429 523.683C899.949 520.679 902.334 518.093 905.491 515.431C911.334 497.903 917.498 491.331 919.908 489.428C917.247 490.681 909.175 493.141 892.086 491.349ZM925.456 568.292C926.017 568.197 926.473 568.045 927.016 567.941C918.268 564.774 923.322 568.668 925.456 568.292ZM951.657 594.53C958.651 578.834 964.816 573.074 967.233 571.395C964.379 572.532 955.606 574.583 937.504 570.881C933.622 572.283 930.188 573.055 926.327 573.736C950.352 609.352 934.103 606.654 951.657 594.53ZM948.08 604.653C944.076 608.546 944.466 607.001 946.313 612.484C946.763 609.829 947.354 607.219 948.08 604.653ZM911.358 597.525C912.573 612.1 927.855 621.461 941.575 618.381C919.765 547.666 910.488 588.043 911.358 597.525ZM885.858 548.949C883.221 554.089 883.036 559.593 884.281 564.643C888.032 568.245 892.891 570.837 898.661 571.123C904.828 571.331 910.13 569.874 914.491 566.924C910.352 561.712 906.575 557.354 903.147 553.75C901.74 548.979 899.854 543.53 897.41 537.339C892.675 539.641 888.761 543.504 885.858 548.949ZM908.81 550.48C935.467 573.596 959.812 568.216 952.645 525.172C918.952 497.443 902.12 515.837 908.81 550.48ZM902.79 525.984C902.429 526.402 902.07 526.721 901.708 527.16C900.315 528.82 901.161 535.142 902.79 525.984ZM869.342 524.751C877.119 530.246 916.724 542.4 866.388 488.154C856.862 498.496 857.327 516.412 869.342 524.751ZM841.145 487.49C852.918 489.902 862.731 485.248 852.245 474.261C839.605 465.842 836.726 476.314 841.145 487.49ZM799.553 466.192C809.852 476.576 827.577 473.923 836.107 462.745C773.944 422.594 792.791 459.487 799.553 466.192ZM748.795 445.371C750.079 451.004 753.474 455.34 757.674 458.407C762.863 458.756 768.252 457.618 772.855 454.129C777.714 450.324 780.839 445.8 782.283 440.736C775.762 439.405 770.069 438.494 765.125 437.936C760.98 435.187 756.033 432.225 750.181 429.053C748.033 433.859 747.519 439.334 748.795 445.371ZM720.589 437.451C730.078 436.661 768.231 420.514 694.802 411.314C694.152 425.36 706.025 438.785 720.589 437.451ZM675.037 427.031C685.606 421.311 690.132 411.439 675.037 409.763C659.942 411.439 664.468 421.311 675.037 427.031ZM629.486 437.451C644.05 438.785 655.922 425.36 655.272 411.314C581.843 420.514 619.996 436.661 629.486 437.451ZM577.219 454.129C581.823 457.618 587.211 458.757 592.4 458.407C596.599 455.34 599.996 451.004 601.28 445.371C602.555 439.334 602.042 433.859 599.894 429.052C594.042 432.224 589.096 435.186 584.95 437.936C580.006 438.494 574.313 439.405 567.792 440.736C569.236 445.799 572.361 450.324 577.219 454.129ZM550.521 466.192C557.283 459.487 576.13 422.594 513.967 462.745C522.498 473.923 540.222 476.575 550.521 466.192ZM508.929 487.49C513.348 476.314 510.469 465.843 497.829 474.261C487.343 485.247 497.156 489.902 508.929 487.49ZM430.166 489.428C432.576 491.331 438.74 497.903 444.583 515.431C447.74 518.092 450.125 520.679 452.645 523.683C471.477 485.067 477.264 500.49 457.988 491.349C440.899 493.141 432.827 490.681 430.166 489.428ZM468.544 489.385C473.917 490.907 472.384 491.342 476.209 487C473.684 487.938 471.129 488.732 468.544 489.385ZM480.732 524.751C492.747 516.411 493.212 498.495 483.685 488.154C433.349 542.4 472.956 530.246 480.732 524.751ZM448.366 527.159C448.004 526.721 447.645 526.402 447.284 525.984C448.913 535.142 449.759 528.82 448.366 527.159ZM397.429 525.172C390.262 568.217 414.607 573.596 441.264 550.481C447.954 515.837 431.122 497.443 397.429 525.172ZM465.794 564.643C467.038 559.593 466.853 554.089 464.216 548.949C461.312 543.504 457.399 539.641 452.664 537.339C450.22 543.53 448.334 548.979 446.927 553.75C443.499 557.354 439.723 561.712 435.583 566.924C439.944 569.874 445.246 571.331 451.413 571.123C457.183 570.837 462.043 568.245 465.794 564.643ZM438.715 597.525C439.586 588.043 430.309 547.665 408.498 618.381C422.218 621.462 437.501 612.1 438.715 597.525ZM403.761 612.483C405.609 607 405.999 608.545 401.994 604.652C402.72 607.219 403.311 609.829 403.761 612.483ZM398.417 594.53C415.972 606.654 399.722 609.353 423.746 573.735C419.886 573.055 416.453 572.283 412.57 570.88C394.467 574.583 385.694 572.531 382.84 571.394C385.258 573.074 391.423 578.834 398.417 594.53ZM424.618 568.292C426.753 568.668 431.805 564.774 423.058 567.941C423.601 568.046 424.057 568.197 424.618 568.292ZM362.973 557.712C375.209 563.729 386.518 568.182 403.888 566.578C388.341 556.249 387.578 539.088 391.477 521.737C404.555 509.684 419.797 501.766 436.516 510.065C429.22 494.219 419.709 486.653 408.38 479.064C376.488 460.511 347.97 467.542 328.844 485.576C322.789 511.156 330.96 539.368 362.973 557.712ZM239.175 627.183C243.274 627.687 246.693 630.108 248.589 633.385C250.559 614.167 251.608 628.576 239.175 627.183ZM237.637 594.488C231.335 598.507 231.327 603.754 233.998 607.683C230.145 610.46 228.357 615.394 232.904 621.326C238.017 627.992 249.382 625.331 250.782 616.484C251.054 614.091 250.81 612.123 250.194 610.539C251.314 609.261 252.216 607.495 252.78 605.153C254.49 596.359 244.721 589.973 237.637 594.488ZM245.532 591.128C257.691 594.072 251.777 607.252 256.499 588.521C253.597 590.951 249.556 592.057 245.532 591.128ZM243.681 570.464C226.295 580.001 253.177 600.767 258.159 582.038C260.483 573.671 251.488 566.196 243.681 570.464ZM252.056 567.592C264.085 571.449 256.975 584.067 263.064 565.832C259.996 568.048 255.98 568.808 252.056 567.592ZM251.916 546.716C233.716 554.761 258.2 577.804 265.36 559.376C268.307 551.407 259.746 543.248 251.916 546.716ZM267.697 553.012C274.597 535.023 271.938 549.243 260.22 544.578C259.76 544.497 265.845 546.226 267.697 553.012ZM261.567 523.859C242.702 530.691 266.568 555.243 274.129 537.416C277.669 529.391 269.762 520.909 261.567 523.859ZM270.222 522.295C281.628 527.96 272.574 539.392 281.436 522.171C278.037 523.91 273.89 524.079 270.222 522.295ZM271.17 520.297C282.832 525.994 292.002 509.446 280.654 502.679C269.189 495.861 258.953 514.317 271.17 520.297ZM285.006 502.17C286.448 504.016 287.501 506.66 287.899 510.333C296.555 495.174 293.58 504.645 285.006 502.17ZM286.411 480.503C266.553 484.225 286.393 512.507 296.625 495.793C301.331 488.749 295.015 478.887 286.411 480.503ZM306.263 481.849C302.249 483.154 298.234 482.493 295.06 480.275C305.586 487.689 294.683 497.803 306.263 481.849ZM293.53 465.187C290.003 471.575 293.838 481.72 303.747 480.174C307.445 479.668 309.829 477.761 311.072 475.314C312.57 473.014 313.028 469.997 311.618 466.541C308.002 457.187 297.3 458.938 293.53 465.187ZM307.362 458.966C310.87 460.606 313.449 463.753 314.326 467.882C322.354 449.876 319.046 464.376 307.362 458.966ZM303.235 451.364C306.138 459.622 317.837 460.161 321.584 452.563C330.943 435.345 296.53 432.303 303.235 451.364ZM321.297 439.313C327.727 445.5 321.013 452.811 329.813 437.736C326.434 439.229 323.618 439.639 321.297 439.313ZM319.562 435.289C331.096 441.732 340.842 425.517 330.077 418.267C318.79 410.676 307.925 428.769 319.562 435.289ZM336.834 426.22C347.317 409.934 341.943 423.493 331.334 416.446C334.713 418.731 336.64 422.407 336.834 426.22ZM316.37 478.374C290.093 512.457 270.648 552.487 260.554 596.8C286.176 533.122 350.524 556.84 343.567 549.642C326.16 531.615 319.291 506.462 324.046 482.807C342.155 466.861 367.373 460.234 391.688 466.294C401.401 468.721 348.687 424.853 391.023 370.824C357.694 401.72 332.75 438.574 316.37 478.374ZM361.479 378.066C364.494 380.855 365.844 384.713 365.459 388.479C378.206 374.088 370.833 386.555 361.479 378.066ZM345.63 396.643C355.529 404.458 344.545 413.871 356.674 398.901C349.869 400.69 345.33 396.286 345.63 396.643ZM328.36 408.169C329.904 416.741 341.204 419.348 346.382 412.27C358.04 396.807 324.844 388.415 328.36 408.169ZM343.33 388.383C344.241 396.897 355.589 400.231 361.015 393.695C373.395 378.282 341.197 368.598 343.33 388.383ZM359.778 369.377C359.986 378.272 370.957 382.324 377.041 376.128C390.77 362.449 359.345 349.551 359.778 369.377ZM398.438 334.614C391.028 333.641 387.649 337.657 387.17 342.381C382.433 342.034 377.892 344.664 377.563 352.13C377.195 360.523 387.61 365.79 394.369 359.913C396.116 358.255 397.195 356.59 397.742 354.981C399.42 354.722 401.247 353.949 403.185 352.517C410.146 346.881 406.768 335.709 398.438 334.614ZM418.51 320.095C399.061 316.227 406.306 349.413 422.161 338.268C429.32 333.353 427.234 321.845 418.51 320.095ZM442.245 325.535C449.625 321.326 448.311 309.572 440.084 307.196C420.97 301.661 424.915 335.051 442.245 325.535ZM462.168 295.89C443.326 288.998 445.826 323.146 463.078 314.35C470.948 310.479 470.343 298.898 462.168 295.89ZM471.815 299.334C477.086 311.194 494.748 304.412 490.404 291.934C486.004 279.342 466.299 286.901 471.815 299.334ZM509.069 278.647C491.465 268.734 488.483 303.152 507.065 296.925C515.198 294.555 516.7 282.94 509.069 278.647ZM524.368 271.49C517.56 274.117 513.976 284.354 522.561 289.539C525.719 291.527 528.772 291.6 531.297 290.524C533.922 289.725 536.213 287.708 537.354 284.154C540.597 274.664 531.272 269.126 524.368 271.49ZM540.688 267.139C537.603 275.332 546.219 283.265 553.972 279.854C572.21 272.678 547.803 248.228 540.688 267.139ZM569.807 273.784C566.259 272.755 563.838 271.259 562.27 269.518C563.219 278.392 553.375 279.676 569.807 273.784ZM563.527 265.32C568.221 277.67 586.11 271.513 582.524 259.039C578.756 245.97 558.804 252.846 563.527 265.32ZM587.699 250.201C583.371 257.759 590.352 267.019 598.869 264.926C617.739 260.575 597.704 232.809 587.699 250.201ZM611.885 244.666C607.11 251.775 613.659 261.623 622.017 260.104C641.409 256.253 622.969 228.139 611.885 244.666ZM636.703 240.679C631.144 247.628 636.943 257.784 645.587 256.948C664.897 255.293 649.114 225.214 636.703 240.679ZM669.285 255.664C671.689 255.517 673.585 254.935 675.037 254.053C676.49 254.935 678.386 255.517 680.79 255.664C689.746 255.822 694.339 245.091 688.663 238.898C683.612 233.39 678.442 234.294 675.037 237.606C671.633 234.294 666.463 233.39 661.412 238.898C655.735 245.092 660.329 255.822 669.285 255.664Z" fill="url(#paint0_linear_126_64)"/>
<path d="M752.354 473.02C779.904 474.293 806.506 485.68 827.731 503.475C848.941 521.288 864.775 545.508 870.812 572.418C889.699 589.813 902.226 613.416 907.769 638.597L904.534 638.597C898.304 610.354 884.899 589.08 867.387 574.396C863.139 550.259 850.118 526.381 825.702 505.894C801.286 485.407 775.51 476.729 751.001 476.738C732.232 460.977 706.91 451.056 675.037 451.056C643.164 451.056 617.841 460.977 599.072 476.738C574.564 476.729 548.787 485.407 524.371 505.894C499.955 526.381 486.934 550.259 482.686 574.396C465.174 589.08 451.769 610.354 445.538 638.597L442.304 638.597C447.847 613.416 460.374 589.813 479.261 572.418C485.299 545.508 501.132 521.288 522.342 503.475C543.567 485.68 570.169 474.294 597.719 473.02C619.642 456.287 647.339 447.91 675.038 447.898C702.734 447.91 730.432 456.286 752.354 473.02Z" fill="url(#paint1_linear_126_64)"/>
<path d="M713.755 474.763C726.487 474.891 738.16 479.267 747.429 486.551C759.211 486.929 770.967 491.079 780.802 499.165C795.867 498 809.961 502.929 820.657 511.904C831.354 520.879 838.655 533.904 840.124 548.942C849.795 557.223 855.924 568.08 858.341 579.617C867.125 587.48 873.462 598.216 875.798 610.732C885.81 617.894 892.668 627.758 896.2 638.596L893.289 638.596C890.132 629.474 884.445 621.122 876.354 614.676C877.26 622.644 876.439 630.811 873.814 638.596L871.45 638.596C883.412 610.934 861.07 599.963 835.793 603.773C839.015 625.34 839.25 634.641 839.675 638.596L835.925 638.596C831.91 631.097 832.193 633.28 829.458 638.596L826.166 638.596C827.45 636.824 828.733 634.343 830.135 630.694C805.315 602.169 803.249 620.432 800.853 638.596L798.539 638.596C798.814 635.333 798.819 632.06 798.486 628.817C796.619 631.938 795.135 635.221 793.964 638.596L789.929 638.596C791.587 634.747 794.096 630.104 797.894 624.54C797.151 620.541 796.52 617.728 795.658 615.807C794.426 614.101 792.305 612.147 789.212 609.504C776.318 610.48 768.616 609.078 764.305 607.37C766.648 611.195 769.258 618.2 770.584 630.283C774.73 633.323 777.931 636.093 780.459 638.596L775.613 638.596C774.001 636.878 772.3 635.248 770.477 633.764C770.89 635.41 771.404 637.014 771.967 638.596L769.155 638.596C768.545 636.16 768.147 634.18 766.967 632.371C764.227 626.965 757.289 626.281 751.425 607.806C750.226 616.648 742.844 629.496 740.867 638.596L737.067 638.596C737.043 638.436 737.004 638.28 736.981 638.12C736.824 638.29 736.673 638.435 736.517 638.596L732.819 638.596C733.924 637.471 735.114 636.173 736.556 634.484C735.595 621.636 736.985 613.911 738.683 609.597L738.679 609.6L738.681 609.595C734.726 612.016 727.361 614.726 714.541 616.012C705.833 626.565 706.595 627.588 716.565 635.955C717.756 636.954 718.805 637.825 719.772 638.596L715.458 638.596C715.236 638.416 714.995 638.27 714.776 638.087C711.685 635.493 708.952 632.599 706.499 629.412C705.029 632.961 703.979 635.98 703.241 638.596L699.178 638.596C698.849 628.835 698.979 622.995 699.001 619.601C696.415 622.725 691.736 628.588 682.504 638.596L679.159 638.596C681.634 636.001 684.246 630.884 686.951 622.297C683.023 623.163 679.07 623.622 675.034 623.622C670.998 623.622 667.045 623.163 663.117 622.297C665.823 630.884 668.434 636.001 670.909 638.596L667.564 638.596C658.332 628.588 653.653 622.725 651.067 619.601C651.089 622.995 651.22 628.835 650.89 638.596L646.828 638.596C646.091 635.98 645.041 632.961 643.57 629.412C641.117 632.599 638.384 635.493 635.293 638.087C635.074 638.27 634.832 638.416 634.611 638.596L630.298 638.596C631.265 637.826 632.315 636.954 633.505 635.955C643.475 627.588 644.237 626.565 635.528 616.012C622.708 614.726 615.343 612.016 611.388 609.595L611.39 609.6L611.387 609.597C613.084 613.912 614.474 621.636 613.514 634.484C614.955 636.174 616.146 637.472 617.25 638.596L613.552 638.596C613.397 638.436 613.246 638.29 613.088 638.12C613.065 638.28 613.025 638.436 613.002 638.596L609.202 638.596C607.226 629.495 599.843 616.647 598.644 607.806C592.781 626.282 585.843 626.965 583.102 632.371C581.922 634.18 581.524 636.16 580.914 638.596L578.102 638.596C578.665 637.014 579.179 635.41 579.592 633.764C577.769 635.248 576.068 636.878 574.456 638.596L569.611 638.596C572.139 636.093 575.341 633.323 579.485 630.283C580.812 618.2 583.422 611.195 585.765 607.37C581.453 609.078 573.752 610.479 560.857 609.505C557.765 612.147 555.644 614.101 554.412 615.807C553.551 617.727 552.919 620.541 552.176 624.54C555.975 630.104 558.483 634.747 560.141 638.596L556.107 638.596C554.936 635.221 553.452 631.938 551.585 628.817C551.252 632.06 551.257 635.333 551.531 638.596L549.217 638.596C546.821 620.432 544.756 602.169 519.935 630.694C521.338 634.342 522.62 636.824 523.904 638.596L520.614 638.596C517.879 633.28 518.162 631.097 514.147 638.596L510.397 638.596C510.822 634.641 511.056 625.34 514.278 603.773C489.002 599.963 466.659 610.933 478.621 638.596L476.257 638.596C473.631 630.812 472.811 622.644 473.716 614.676C465.626 621.121 459.939 629.474 456.783 638.596L453.872 638.596C457.403 627.758 464.262 617.894 474.274 610.732C476.61 598.216 482.947 587.48 491.73 579.617C494.147 568.08 500.277 557.223 509.948 548.942C511.416 533.904 518.718 520.879 529.415 511.904C540.111 502.929 554.206 498 569.27 499.165C579.104 491.079 590.861 486.928 602.642 486.551C611.91 479.266 623.584 474.89 636.316 474.763C647.106 464.187 661.072 458.903 675.035 458.903C688.999 458.903 702.964 464.187 713.755 474.763ZM746.424 489.311C738.188 482.61 727.847 478.375 716.473 477.672C724.837 487.129 730.017 499.433 730.339 512.943C732.798 513.002 735.218 513.223 737.586 513.594C739.639 514.833 741.634 516.219 743.555 517.754C752.487 507.61 764.363 501.516 776.849 499.647C767.685 492.876 757.04 489.473 746.424 489.311ZM686.953 514.203C683.257 502.47 679.229 495.75 675.036 495.729C670.843 495.749 666.814 502.47 663.118 514.203C667.194 513.304 671.15 512.877 675.036 512.877C678.922 512.878 682.878 513.305 686.953 514.203ZM673.073 492.003C641.778 462.244 623.234 484.154 622.516 512.952C685.299 514.599 643.68 523.002 673.073 492.003ZM727.556 512.952C726.837 484.154 708.293 462.244 676.998 492.003C706.392 523.002 664.773 514.599 727.556 512.952ZM560.218 575.115C558.393 572.689 556.759 570.126 555.347 567.425C548.391 578.364 551.305 574.807 560.218 575.115ZM563.869 575.326C576.684 576.61 584.051 579.315 588.009 581.734C586.313 577.416 584.928 569.691 585.889 556.849C577.046 546.491 575.892 546.997 565.897 555.383C555.903 563.77 555.204 564.819 563.869 575.326ZM587.577 594.61C560.746 586.043 571.421 575.136 550.069 578.507C533.634 626.311 569.28 597.085 587.577 594.61ZM546.943 579.073C519.77 585.067 522.813 593.787 544.872 602.901C543.829 594.905 544.536 586.77 546.943 579.073ZM564.266 606.855C575.621 607.032 586.566 603.577 595.763 596.916C584.111 596.743 573.177 600.415 564.266 606.855ZM800.004 578.507C778.65 575.136 789.326 586.042 762.495 594.61C780.791 597.085 816.439 626.311 800.004 578.507ZM754.309 596.916C763.506 603.577 774.45 607.032 785.806 606.855C776.894 600.415 765.96 596.743 754.309 596.916ZM805.201 602.901C827.258 593.787 830.302 585.068 803.129 579.073C805.536 586.77 806.243 594.905 805.201 602.901ZM794.724 567.425C793.313 570.126 791.678 572.689 789.854 575.115C798.767 574.807 801.681 578.364 794.724 567.425ZM786.202 575.326C794.867 564.819 794.169 563.77 784.174 555.383C774.179 546.996 773.025 546.491 764.183 556.849C765.144 569.691 763.758 577.416 762.063 581.734C766.02 579.315 773.388 576.61 786.202 575.326ZM616.345 542.928C611.198 519.623 603.14 515.111 592.519 540.831C600.517 539.797 608.65 540.513 616.345 542.928ZM600.764 583.545C606.377 565.957 641.351 535.925 591.418 543.81C584.39 564.253 596.985 555.634 600.764 583.545ZM579.588 547.084C582.003 548.944 584.244 550.998 586.316 553.217C587.56 544.385 591.569 542.133 579.588 547.084ZM616.871 562.715C608.981 570.372 603.466 580.502 601.613 592.006C609.771 584.107 615.073 573.929 616.871 562.715ZM566.764 578.523C574.418 586.402 584.537 591.909 596.028 593.758C587.921 585.406 577.606 580.275 566.764 578.523ZM598.456 591.72C598.631 580.082 594.966 569.161 588.534 560.255C588.378 571.236 591.64 582.286 598.456 591.72ZM619.887 547.158C620.269 550.123 620.384 553.132 620.28 556.168C623.038 554.095 625.374 553.012 626.532 552.184C627.949 552.074 630.437 551.402 633.881 551.218C631.85 548.96 630.005 546.581 628.391 544.065C627.045 546.647 626.131 548.453 625.625 549.693C624.439 549.067 622.578 548.272 619.887 547.158ZM666.429 559.644C651.382 535.835 666.571 534.342 648.046 523.199C604.729 549.254 650.823 549.78 666.429 559.644ZM660.826 533.943C661.624 544.9 665.836 555.622 673.451 564.424C672.608 552.816 668.005 542.254 660.826 533.943ZM676.621 564.424C684.235 555.622 688.448 544.899 689.246 533.943C682.067 542.254 677.464 552.816 676.621 564.424ZM678.855 566.673C690.181 565.865 700.786 561.476 709.371 554.041C698.405 554.836 687.669 559.051 678.855 566.673ZM640.7 554.041C649.285 561.476 659.889 565.865 671.216 566.673C662.403 559.051 651.667 554.836 640.7 554.041ZM658.002 527.125C658.163 524.094 658.559 521.079 659.213 518.103C646.853 522.012 651.372 521.16 658.002 527.125ZM660.663 529.634C669.654 538.854 673.559 545.662 675.036 550.059C676.513 545.662 680.417 538.853 689.409 529.634C689.293 516.015 688.084 515.661 675.036 515.661C661.988 515.661 660.778 516.015 660.663 529.634ZM692.07 527.125C698.7 521.16 703.218 522.013 690.858 518.103C691.513 521.08 691.908 524.094 692.07 527.125ZM683.643 559.644C699.249 549.779 745.343 549.254 702.026 523.199C683.501 534.342 698.689 535.835 683.643 559.644ZM748.458 592.006C746.606 580.502 741.091 570.372 733.2 562.715C734.998 573.929 740.301 584.107 748.458 592.006ZM761.537 560.255C755.106 569.161 751.44 580.083 751.615 591.72C758.431 582.286 761.693 571.236 761.537 560.255ZM754.043 593.758C765.534 591.909 775.654 586.402 783.308 578.523C772.466 580.275 762.15 585.406 754.043 593.758ZM749.308 583.545C753.086 555.634 765.68 564.253 758.653 543.81C708.722 535.925 743.694 565.957 749.308 583.545ZM763.756 553.217C765.828 550.998 768.068 548.944 770.483 547.084C758.503 542.133 762.511 544.385 763.756 553.217ZM730.184 547.158C727.493 548.272 725.632 549.068 724.447 549.693C723.941 548.452 723.026 546.647 721.681 544.065C720.068 546.581 718.222 548.96 716.191 551.218C719.636 551.402 722.123 552.074 723.541 552.184C724.698 553.012 727.034 554.095 729.792 556.168C729.687 553.132 729.803 550.123 730.184 547.158ZM733.727 542.928C741.422 540.513 749.555 539.797 757.552 540.831C746.93 515.111 738.873 519.623 733.727 542.928ZM741.769 519.889C740.022 518.498 738.324 517.24 736.669 516.112C734.677 515.914 732.568 515.784 730.336 515.728C730.113 524.286 729.768 530.911 729.415 536.044C732.443 531.885 736.438 526.588 741.769 519.889ZM797.877 535.999C793.032 493.087 764.743 497.951 745.682 519.549C792.718 561.168 755.434 540.852 797.877 535.999ZM775.981 546.607C779.68 548.538 782.986 550.754 785.963 553.253C788.94 555.751 791.696 558.62 794.241 561.928C798.951 550.565 800.185 542.827 796.986 540.116C793.76 537.436 786.353 539.994 775.981 546.607ZM714.927 584.508C724.128 591.167 735.07 594.611 746.427 594.431C736.984 587.607 725.921 584.344 714.927 584.508ZM729.999 559.819C726.86 557.233 724.567 555.484 722.673 554.567C720.633 554.052 717.752 553.918 713.685 553.881C704.434 562.916 697.633 566.793 693.233 568.257C697.486 569.681 703.989 573.368 712.772 581.772C724.902 580.98 732.253 582.334 736.427 583.977C733.996 580.029 731.278 572.687 729.999 559.819ZM678.851 569.836C687.436 577.274 698.032 581.668 709.361 582.483C701.045 575.29 690.473 570.678 678.851 569.836ZM689.242 602.554C688.44 591.602 684.231 580.882 676.621 572.079C677.464 583.683 682.065 594.243 689.242 602.554ZM673.451 572.078C665.841 580.881 661.631 591.602 660.829 602.553C668.007 594.243 672.608 583.683 673.451 572.078ZM671.219 569.836C659.599 570.678 649.026 575.29 640.71 582.483C652.039 581.668 662.635 577.274 671.219 569.836ZM637.3 581.772C646.083 573.368 652.586 569.68 656.838 568.257C652.438 566.794 645.637 562.916 636.386 553.881C632.32 553.918 629.439 554.051 627.398 554.567C625.503 555.484 623.211 557.233 620.071 559.819C618.793 572.687 616.076 580.029 613.645 583.977C617.818 582.334 625.171 580.98 637.3 581.772ZM603.643 594.431C615.001 594.612 625.943 591.167 635.144 584.508C624.151 584.344 613.087 587.607 603.643 594.431ZM564.109 553.251C567.086 550.754 570.391 548.538 574.091 546.606C563.718 539.994 556.313 537.436 553.087 540.115C549.889 542.826 551.122 550.564 555.832 561.927C558.376 558.62 561.132 555.75 564.109 553.251ZM604.389 519.548C585.328 497.951 557.039 493.086 552.194 535.998C594.637 540.852 557.353 561.168 604.389 519.548ZM608.303 519.889C613.633 526.588 617.627 531.885 620.656 536.044C620.303 530.912 619.958 524.287 619.735 515.728C617.503 515.784 615.393 515.914 613.402 516.112C611.749 517.241 610.049 518.498 608.303 519.889ZM628.384 538.546C632.727 531.75 638.496 525.973 645.288 521.625C620.619 508.749 617.346 517.385 628.384 538.546ZM704.783 521.624C711.574 525.973 717.345 531.749 721.687 538.545C732.725 517.385 729.452 508.749 704.783 521.624ZM818.868 514.037C809.382 506.078 797.066 501.491 783.763 501.829C792.917 510.522 799.15 522.323 800.648 535.75C814.132 534.895 826.837 538.982 836.986 546.489C835.009 533.329 828.353 521.996 818.868 514.037ZM800.884 538.522C803.475 581.163 776.994 547.973 826.149 587.067C844.108 564.546 843.986 535.842 800.884 538.522ZM872.46 608.562C869.792 597.482 863.826 588.035 855.797 581.087C853.795 570.66 848.596 560.768 840.334 552.918C840.662 565.54 836.723 578.293 828.283 588.851C830.13 590.476 831.841 592.2 833.417 594.007C834.193 596.275 834.829 598.619 835.315 601.031C848.679 599.002 861.695 601.966 872.46 608.562ZM832.576 601.518C832.133 599.33 831.639 597.274 831.098 595.347C829.699 593.914 828.166 592.459 826.493 590.981C820.821 597.394 816.298 602.247 812.728 605.951C817.722 604.714 824.186 603.223 832.576 601.518ZM831.206 627.706C839.602 601.177 830.529 599.452 811.606 613.998C819.053 617.094 825.744 621.773 831.206 627.706ZM797.854 614.54C798.208 615.917 799.302 618.249 800.082 621.61C801.953 619.217 803.976 616.987 806.174 614.962C803.396 614.085 801.46 613.497 800.15 613.215C800.56 611.94 801.019 609.969 801.649 607.126C798.795 608.016 795.853 608.652 792.845 609.077C795.366 611.431 796.838 613.544 797.854 614.54ZM767.516 628.636C765.769 617.781 760.634 607.452 752.273 599.337C754.068 610.553 759.361 620.73 767.516 628.636ZM739.203 631.08C745.629 622.175 749.294 611.256 749.123 599.621C742.309 609.053 739.046 620.099 739.203 631.08ZM746.695 597.583C735.208 599.435 725.091 604.941 717.438 612.816C728.277 611.063 738.59 605.932 746.695 597.583ZM738.234 596.736C719.02 594.17 717.143 587.457 711.344 585.696C705.769 583.317 700.015 587.252 683.648 576.868C690.245 587.312 692.68 611.327 701.338 613.186C709.166 617.328 726.467 600.497 738.234 596.736ZM692.069 609.376C691.591 618.409 687.795 620.864 699.267 614.876C696.712 613.24 694.316 611.396 692.069 609.376ZM710.887 616.225C707.868 616.328 704.846 616.201 701.837 615.811C706.777 627.773 705.447 623.451 710.887 616.225ZM675.036 620.84C688.051 620.84 689.292 620.544 689.405 606.864C680.411 597.638 676.51 590.828 675.037 586.431L675.036 586.436L675.034 586.431C673.561 590.827 669.661 597.637 660.667 606.864C660.779 620.545 662.02 620.84 675.036 620.84ZM639.184 616.225C644.625 623.452 643.294 627.773 648.234 615.811C645.226 616.201 642.204 616.328 639.184 616.225ZM658.002 609.376C655.756 611.397 653.359 613.24 650.804 614.877C662.278 620.863 658.48 618.409 658.002 609.376ZM648.734 613.186C657.393 611.327 659.827 587.312 666.424 576.868C650.056 587.252 644.303 583.317 638.729 585.696C632.928 587.457 631.05 594.17 611.838 596.736C623.605 600.497 640.905 617.328 648.734 613.186ZM603.376 597.583C611.481 605.932 621.793 611.063 632.634 612.816C624.981 604.942 614.864 599.435 603.376 597.583ZM610.869 631.08C611.026 620.1 607.763 609.053 600.949 599.621C600.777 611.255 604.443 622.175 610.869 631.08ZM597.798 599.337C589.437 607.452 584.303 617.782 582.555 628.636C590.71 620.73 596.003 610.553 597.798 599.337ZM549.989 621.61C550.769 618.249 551.863 615.917 552.218 614.54C553.233 613.544 554.706 611.431 557.227 609.075C554.219 608.652 551.276 608.014 548.422 607.124C549.052 609.967 549.512 611.938 549.922 613.214C548.612 613.495 546.676 614.084 543.898 614.96C546.095 616.987 548.118 619.218 549.989 621.61ZM518.865 627.706C524.327 621.773 531.019 617.094 538.465 613.998C519.543 599.452 510.47 601.177 518.865 627.706ZM537.343 605.952C533.773 602.247 529.25 597.394 523.578 590.982C521.904 592.459 520.371 593.915 518.973 595.348C518.432 597.275 517.937 599.33 517.495 601.519C525.885 603.223 532.349 604.714 537.343 605.952ZM494.274 581.087C486.246 588.035 480.279 597.482 477.612 608.562C488.378 601.967 501.393 599.002 514.755 601.032C515.241 598.621 515.878 596.277 516.654 594.008C518.231 592.201 519.942 590.478 521.787 588.852C513.349 578.294 509.408 565.54 509.737 552.919C501.476 560.768 496.276 570.659 494.274 581.087ZM523.923 587.067C573.076 547.973 546.596 581.163 549.187 538.522C506.085 535.842 505.964 564.546 523.923 587.067ZM531.204 514.037C521.718 521.996 515.063 533.328 513.085 546.489C523.235 538.983 535.939 534.895 549.423 535.75C550.922 522.323 557.154 510.522 566.308 501.829C553.006 501.491 540.689 506.078 531.204 514.037ZM603.647 489.311C593.031 489.473 582.387 492.876 573.222 499.648C585.709 501.516 597.585 507.611 606.517 517.755C608.439 516.22 610.433 514.833 612.486 513.595C614.855 513.224 617.274 513.004 619.732 512.944C620.054 499.433 625.234 487.13 633.599 477.673C622.225 478.376 611.884 482.611 603.647 489.311ZM640.297 474.9C652.897 475.674 665.256 480.709 675.035 490.031C684.814 480.709 697.174 475.674 709.774 474.9C699.8 466.09 687.417 461.686 675.035 461.687C662.654 461.686 650.271 466.09 640.297 474.9Z" fill="url(#paint2_linear_126_64)"/>
<path d="M678.851 8.21638C693.233 40.4977 794.161 98.0349 781.701 170.155C796.922 128.725 845.295 112.5 887.542 101.595C912.894 137.104 939.521 180.627 924.55 222.148C961.365 158.891 1075.66 179.69 1107.43 164.205C1112.75 161.612 1115.05 160.018 1115.63 160.364C1116.08 160.879 1114.91 163.419 1113.28 169.111C1103.54 203.084 1143.87 312.036 1087.97 359.274C1126.26 337.321 1173.75 355.986 1213.12 374.787C1209.72 418.285 1202.14 468.742 1163.98 490.925C1232.84 466.132 1307.03 555.534 1341.32 564.091C1347.06 565.527 1349.85 565.783 1350.07 566.423C1350.08 567.101 1347.55 568.294 1342.64 571.607C1328.82 580.938 1312.79 610.234 1292.03 638.597L1281.68 638.597C1302.6 611.46 1319.17 581.872 1331.97 569.616C1288.96 550.68 1179.37 426.283 1119.02 546.832C1129.59 576.221 1119.18 556.019 1127.25 544.145C1133.17 535.42 1156.05 532.132 1149.89 569.17C1180.38 504.499 1228.5 538.379 1167.16 587.147C1188.58 576.802 1226.32 561.249 1235.29 583.397C1250.27 553.475 1271.02 551.226 1292.7 573.634C1292.83 568.351 1295.89 563.826 1300.49 562.906C1310.27 560.951 1313.2 566.647 1312.49 573.049C1315.34 578.823 1314.54 585.177 1304.68 586.684C1300.04 587.393 1295.63 584.186 1293.69 579.266C1280.98 607.739 1260.71 612.724 1236.41 589.728C1235.55 613.609 1194.76 611.903 1171.1 609.507C1196.76 618.085 1209.54 629.454 1213.2 638.597L1209 638.597C1208.84 637.272 1208.54 636.182 1208.2 635.587C1199.25 620.06 1157.73 609.006 1142.16 605.969C1155.99 621.131 1167.01 631.559 1175.82 638.597L1167.92 638.597C1165.66 636.681 1163.36 634.634 1161.02 632.308C1162.28 634.542 1163.31 636.618 1164.21 638.597L1159.79 638.597C1153.95 626.89 1143.9 614.069 1138.49 608.237C1139.21 621.05 1140.42 630.939 1141.94 638.597L1128.45 638.597C1127.94 627.854 1126.93 616.991 1125.33 606.051C1113.76 550.061 1088.27 501.211 1060.71 462.779C1041.21 419.7 1011.65 373.199 968.944 335.182C924.09 299.731 873.163 278.694 827.351 266.966C784.718 246.502 732.183 229.882 675.035 228.208C617.888 229.882 565.352 246.502 522.72 266.966C476.908 278.693 425.98 299.731 381.125 335.182C338.424 373.199 308.863 419.7 289.358 462.779C261.802 501.211 236.312 550.061 224.739 606.051C223.139 616.991 222.133 627.855 221.622 638.597L208.128 638.597C209.645 630.939 210.863 621.05 211.579 608.237C206.17 614.069 196.117 626.89 190.28 638.597L185.862 638.597C186.758 636.618 187.791 634.542 189.052 632.308C186.707 634.633 184.414 636.681 182.15 638.597L174.247 638.597C183.064 631.56 194.082 621.131 207.911 605.969C192.341 609.006 150.822 620.06 141.871 635.587C141.529 636.181 141.229 637.272 141.065 638.597L136.868 638.597C140.531 629.454 153.312 618.085 178.966 609.507C155.305 611.904 114.517 613.609 113.664 589.728C89.3558 612.723 69.0856 607.739 56.374 579.266C54.4436 584.186 50.0264 587.393 45.3841 586.684C35.5277 585.177 34.7247 578.823 37.5808 573.049C36.8719 566.647 39.7998 560.951 49.577 562.905C54.1817 563.826 57.2354 568.351 57.3671 573.634C79.0506 551.226 99.8026 553.475 114.779 583.397C123.749 561.249 161.494 576.802 182.908 587.147C121.571 538.379 169.695 504.499 200.183 569.17C194.02 532.133 216.904 535.42 222.825 544.145C230.894 556.019 220.482 576.221 231.045 546.832C170.7 426.283 61.1071 550.679 18.1046 569.616C30.9005 581.872 47.4688 611.46 68.3944 638.597L58.0408 638.597C37.2822 610.234 21.2558 580.938 7.42915 571.607C2.52168 568.294 -0.00749587 567.101 7.25521e-05 566.423C0.22517 565.783 3.00947 565.527 8.7541 564.091C43.0426 555.534 117.231 466.131 186.093 490.925C147.935 468.742 140.357 418.285 136.953 374.787C176.325 355.986 223.81 337.321 262.102 359.274C206.198 312.035 246.53 203.085 236.796 169.111C235.167 163.419 233.997 160.879 234.438 160.364C235.022 160.019 237.32 161.613 242.643 164.205C274.41 179.69 388.709 158.891 425.523 222.148C410.552 180.627 437.179 137.103 462.531 101.595C504.778 112.5 553.151 128.725 568.372 170.155C555.912 98.0349 656.84 40.4977 671.221 8.21638C673.632 2.80864 674.368 0.111 675.037 9.35744e-05C675.705 0.110166 676.44 2.80864 678.851 8.21638ZM1290.31 577.034C1290.32 577.021 1290.32 576.997 1290.31 576.961C1290.3 576.924 1290.3 576.9 1290.28 576.891C1291.07 575.946 1259.66 540.712 1237.78 586.233C1273.91 621.505 1291.37 577.654 1290.31 577.034ZM1232.32 587.184C1225.48 560.521 1172.09 588.525 1146.76 602.272C1175.27 606.526 1235.01 614.581 1232.32 587.184ZM1193.1 549.952C1194.12 544.127 1180.24 505.423 1141.17 600.37C1154.76 592.192 1190 567.605 1193.1 549.952ZM1145.26 547.041C1142.82 542.047 1115.33 527.884 1136.95 599.495C1141.63 588.39 1150.89 558.531 1145.26 547.041ZM1115.14 536.285C1125.35 518.094 1137.7 504.857 1151.78 496.613C1087.94 519.374 1087.56 466.688 1115.14 536.285ZM59.7895 576.891C59.7762 576.901 59.7679 576.924 59.7662 576.961C59.7553 576.996 59.7545 577.021 59.7645 577.034C58.703 577.653 76.1662 621.505 112.297 586.213C90.4123 540.712 59.0041 575.946 59.7895 576.891ZM117.747 587.184C115.059 614.58 174.806 606.525 203.314 602.272C177.979 588.525 124.59 560.521 117.747 587.184ZM156.972 549.952C160.073 567.604 195.307 592.192 208.899 600.37C169.826 505.424 155.952 544.127 156.972 549.952ZM204.809 547.041C199.183 558.532 208.445 588.39 213.123 599.495C234.746 527.884 207.254 542.047 204.809 547.041ZM234.927 536.285C262.511 466.689 262.13 519.374 198.295 496.613C212.376 504.857 224.725 518.094 234.927 536.285ZM1082.54 450.178C1087.17 396.425 1049.56 401.416 1073 455.685C1108.28 503.121 1131.41 473.04 1082.54 450.178ZM1117.98 429.716C1139.19 392.175 1106.69 384.238 1089.11 446.385C1151.72 462.228 1161.1 430.115 1117.98 429.716ZM1060.12 434.378C1052.6 404.412 1086.21 394.157 1086.84 437.074C1102.71 377.561 1140.28 388.238 1123.49 426.531C1165.05 431.138 1155.51 469.015 1096.04 453.005C1132.89 475.003 1107.2 498.987 1085.01 477.494C1103.14 505.87 1175 501.241 1194.69 434.535C1200.28 417.855 1202.78 398.619 1204.35 379.847C1187.31 371.826 1169.4 364.368 1152.16 360.875C1084.55 344.574 1044.61 404.487 1060.12 434.378ZM1076.94 366.998C1062.76 375.07 1045.12 379.146 1024.27 378.886C1070.75 437.573 1025.31 410.9 1076.94 366.998ZM1030.01 347.425C1022.88 336.808 992.388 329.899 980.431 328.398C1031.64 382.93 1033.12 352.04 1030.01 347.425ZM1051.41 304.541C1034.57 298.401 995.663 316.621 981.784 324.303C1083.55 337.938 1056.97 306.571 1051.41 304.541ZM984.8 248.648C981.837 243.529 946.33 222.799 977.429 320.649C982.584 305.646 993.771 264.163 984.8 248.648ZM946.283 277.166C941.199 274.912 911.035 281.734 973.631 322.692C970.077 311.178 957.979 282.352 946.283 277.166ZM930.619 286.529C929.546 276.04 944.963 258.812 964.05 291.146C945.836 222.008 1004.48 217.028 988.838 293.813C998.592 272.123 1017.51 235.948 1038.62 247.148C1030.86 214.6 1045.31 199.537 1076.32 202.765C1073.03 198.633 1072.46 193.204 1075.39 189.539C1081.63 181.757 1087.53 184.238 1091.1 189.599C1097 192.185 1100.47 197.57 1093.89 205.06C1090.79 208.587 1085.34 208.969 1080.7 206.442C1089.27 236.425 1076.94 253.272 1043.54 251.281C1058.24 270.124 1025.9 295.034 1006.23 308.408C1079.13 279.672 1084.41 338.288 1013.16 332.356C1048.32 345.538 1034.03 363.713 1023.51 364.477C1009.19 365.528 996.905 346.412 1017.08 370.253C1151.65 378.268 1098.71 221.159 1103.82 174.45C1058.7 187.585 894.788 162.738 926.049 293.873C953.032 309.596 932.07 300.813 930.619 286.529ZM982.93 318.516C1007.5 303.448 1058.45 271.214 1038.78 251.956C1016.4 235.929 993.501 291.7 982.93 318.516ZM1076.67 206.909C1076.67 206.893 1076.66 206.875 1076.62 206.854C1076.6 206.828 1076.58 206.814 1076.56 206.816C1076.56 205.587 1029.85 198.785 1042.35 247.721C1092.69 251.52 1077.88 206.702 1076.67 206.909ZM916.297 288.287C912.42 267.794 913.37 249.715 918.858 234.35C884.589 292.818 850.431 252.702 916.297 288.287ZM835.972 243.283C804.969 199.128 779.363 227.129 832.204 253.632C889.719 267.295 888.103 229.386 835.972 243.283ZM808.64 245.591C783.62 227.469 802.778 198.005 830.843 230.481C804.748 174.688 840.393 158.716 852.146 198.842C886.943 175.659 903.981 210.806 848.129 236.772C890.503 229.935 886.24 264.82 855.425 262.62C887.553 272.702 939.622 222.968 911.827 159.214C905.393 142.839 894.939 126.5 884.079 111.108C865.866 115.919 847.355 121.715 831.901 130.124C769.629 161.096 777.547 232.663 808.64 245.591ZM838.565 236.156C896.715 208.043 883.254 177.417 849.968 204.827C842.087 162.434 812.09 177.243 838.565 236.156ZM778.218 183.161C772.546 198.459 761.653 212.919 745.509 226.125C818.84 241.204 766.888 249.978 778.218 183.161ZM604.561 226.125C588.419 212.919 577.527 198.459 571.853 183.161C583.184 249.978 531.232 241.204 604.561 226.125ZM517.866 253.632C570.708 227.129 545.102 199.127 514.1 243.283C461.97 229.386 460.353 267.295 517.866 253.632ZM431.213 234.35C436.701 249.716 437.652 267.794 433.774 288.287C499.64 252.702 465.483 292.818 431.213 234.35ZM368.287 324.303C354.408 316.621 315.498 298.401 298.66 304.541C293.105 306.571 266.525 337.938 368.287 324.303ZM376.44 322.692C439.036 281.735 408.872 274.913 403.789 277.166C392.093 282.352 379.994 311.178 376.44 322.692ZM372.642 320.648C403.741 222.798 368.235 243.529 365.271 248.647C356.301 264.163 367.487 305.646 372.642 320.648ZM369.639 328.398C357.683 329.899 327.195 336.808 320.056 347.425C316.954 352.039 318.435 382.93 369.639 328.398ZM325.801 378.886C304.947 379.146 287.308 375.07 273.128 366.998C324.758 410.9 279.321 437.573 325.801 378.886ZM277.071 455.684C300.514 401.415 262.9 396.425 267.533 450.177C218.665 473.04 241.795 503.121 277.071 455.684ZM232.093 429.716C188.975 430.114 198.35 462.229 260.966 446.385C243.378 384.237 210.879 392.175 232.093 429.716ZM197.912 360.876C180.669 364.368 162.763 371.828 145.718 379.848C147.294 398.619 149.788 417.856 155.384 434.536C175.073 501.24 246.928 505.87 265.059 477.495C242.867 498.988 217.179 475.004 254.034 453.005C194.558 469.015 185.018 431.139 226.576 426.532C209.787 388.238 247.358 377.562 263.232 437.075C263.856 394.158 297.471 404.413 289.952 434.379C305.462 404.487 265.525 344.574 197.912 360.876ZM246.255 174.449C251.357 221.158 198.425 378.267 332.995 370.252C353.165 346.411 340.876 365.528 326.557 364.476C316.041 363.711 301.753 345.537 336.909 332.356C265.659 338.287 270.937 279.671 343.84 308.407C324.174 295.033 291.832 270.123 306.528 251.28C273.126 253.271 260.802 236.424 269.367 206.441C264.726 208.969 259.28 208.587 256.181 205.059C249.599 197.569 253.068 192.185 258.967 189.598C262.539 184.238 268.444 181.756 274.677 189.539C277.613 193.204 277.043 198.632 273.748 202.764C304.761 199.536 319.213 214.598 311.452 247.147C332.561 235.946 351.477 272.123 361.233 293.812C345.593 217.027 404.236 222.007 386.021 291.145C405.107 258.811 420.525 276.039 419.451 286.528C418 300.811 397.04 309.595 424.021 293.871C455.283 162.738 291.369 187.584 246.255 174.449ZM367.142 318.516C356.571 291.7 333.673 235.929 311.292 251.956C291.621 271.213 342.569 303.448 367.142 318.516ZM307.739 247.709C320.223 198.785 273.515 205.587 273.51 206.816C273.493 206.814 273.472 206.827 273.447 206.854C273.415 206.875 273.399 206.893 273.397 206.909C272.187 206.702 257.377 251.52 307.739 247.709ZM518.17 130.123C502.716 121.715 484.204 115.918 465.991 111.107C455.132 126.5 444.678 142.839 438.244 159.213C410.449 222.968 462.518 272.702 494.646 262.619C463.831 264.819 459.568 229.935 501.942 236.772C446.089 210.805 463.128 175.659 497.924 198.841C509.678 158.715 545.322 174.687 519.227 230.48C547.292 198.005 566.45 227.468 541.43 245.59C572.524 232.663 580.443 161.096 518.17 130.123ZM511.506 236.156C537.981 177.243 507.983 162.434 500.104 204.827C466.818 177.417 453.356 208.044 511.506 236.156ZM615.622 224.135C646.399 218.836 624.695 225.582 614.403 215.573C606.839 208.227 607.575 185.12 642.979 197.621C584.585 156.365 626.307 114.856 663.683 183.731C657.214 160.845 648.452 120.973 671.822 115.985C644.955 96.0395 646.344 75.2114 672.176 57.749C666.996 56.7025 663.07 52.9093 662.963 48.2145C662.736 38.2463 668.853 36.3516 675.035 38.1611C681.217 36.3516 687.335 38.2463 687.107 48.2145C687 52.9093 683.075 56.7017 677.895 57.749C703.728 75.2123 705.116 96.0395 678.249 115.985C701.619 120.973 692.856 160.845 686.387 183.731C723.763 114.856 765.484 156.366 707.09 197.621C742.495 185.12 743.231 208.227 735.667 215.573C725.374 225.582 703.672 218.836 734.448 224.135C842.686 143.773 701.15 57.4463 675.034 18.3846C648.921 57.4463 507.384 143.773 615.622 224.135ZM677.878 211.621C764.598 156.654 724.073 149.711 718.514 151.727C701.668 157.846 683.572 196.814 677.878 211.621ZM631.557 151.727C625.998 149.711 585.474 156.654 672.193 211.621C666.499 196.814 648.403 157.846 631.557 151.727ZM679.475 215.628C753.752 224.489 735.03 199.873 729.688 198.332C717.395 194.786 689.598 209.092 679.475 215.628ZM670.597 215.628C660.473 209.092 632.677 194.787 620.383 198.332C615.041 199.872 596.319 224.488 670.597 215.628ZM675.036 206.451C684.175 179.114 702.483 121.673 675.036 119.563C647.589 121.672 665.897 179.114 675.036 206.451ZM675.036 60.6878C674.999 60.6836 674.974 60.6877 674.964 60.6994C674.169 59.7613 634.017 84.5743 675.045 114.028C716.056 84.5743 675.903 59.7621 675.109 60.6994C675.098 60.6869 675.073 60.6828 675.036 60.6878Z" fill="url(#paint3_linear_126_64)"/>
<defs>
<linearGradient id="paint0_linear_126_64" x1="675.036" y1="231.911" x2="675.036" y2="638.597" gradientUnits="userSpaceOnUse">
<stop stop-color="#C47372" stop-opacity="0.08"/>
<stop offset="1" stop-color="#C47372" stop-opacity="0.3"/>
</linearGradient>
<linearGradient id="paint1_linear_126_64" x1="675.036" y1="231.911" x2="675.036" y2="638.597" gradientUnits="userSpaceOnUse">
<stop stop-color="#C47372" stop-opacity="0.08"/>
<stop offset="1" stop-color="#C47372" stop-opacity="0.3"/>
</linearGradient>
<linearGradient id="paint2_linear_126_64" x1="675.036" y1="231.911" x2="675.036" y2="638.597" gradientUnits="userSpaceOnUse">
<stop stop-color="#C47372" stop-opacity="0.08"/>
<stop offset="1" stop-color="#C47372" stop-opacity="0.3"/>
</linearGradient>
<linearGradient id="paint3_linear_126_64" x1="675.036" y1="231.911" x2="675.036" y2="638.597" gradientUnits="userSpaceOnUse">
<stop stop-color="#C47372" stop-opacity="0.08"/>
<stop offset="1" stop-color="#C47372" stop-opacity="0.3"/>
</linearGradient>
</defs>
</svg>
