<svg width="407" height="839" viewBox="0 0 407 839" fill="none" xmlns="http://www.w3.org/2000/svg">
<g opacity="0.4">
<path d="M155.924 390.499C153.458 385.561 156.098 377.928 163.349 378.339C152.549 377.704 153.945 360.757 164.908 362.198C157.467 361.224 155.485 351.478 161.629 347.349C163.143 346.333 164.276 345.851 165.103 345.654C164.428 345.151 163.589 344.269 162.621 342.756C158.583 336.461 164.428 328.394 171.574 330.483C159.638 327.027 167.53 314.424 174.787 314.106C167.4 309.133 173.832 295.883 182.972 300.141C178.397 297.989 177.604 293.585 179.016 290.01C180.233 286.363 183.67 283.5 188.558 284.791C178.82 282.179 182.41 267.894 191.265 268.833C185.91 263.925 187.966 249.198 199.331 254.222C192.513 251.23 193.221 241.292 200.36 239.066C202.075 238.529 203.284 238.392 204.124 238.44C203.617 237.758 203.059 236.661 202.552 234.909C200.5 227.797 208.283 221.606 214.609 225.642C205.284 219.7 215.109 205.82 223.79 212.276C217.971 207.929 220.855 200.386 225.918 198.188C227.204 192.82 234.132 188.67 239.423 193.646C231.558 186.217 243.521 174.132 250.992 182.284C245.918 176.754 250.664 168.014 258.025 168.8C259.837 168.995 261.015 169.354 261.775 169.735C261.581 168.916 261.506 167.701 261.737 165.92C262.691 158.502 272.354 156.08 276.484 162.273C269.563 151.954 283.71 147.372 289.473 151.793C287.011 143.235 300.455 137.219 304.719 146.357C302.598 141.767 304.821 137.884 308.201 136.053C311.477 134.041 315.952 134.058 318.866 138.189C313.085 129.928 325.017 121.293 331.197 127.704C330.25 120.502 341.291 110.541 346.768 121.695C343.469 115.021 350.399 107.863 357.299 110.747C358.957 111.438 359.972 112.11 360.585 112.687C360.635 111.839 360.913 110.639 361.65 108.972C364.65 102.205 374.592 102.464 376.844 109.623C373.52 99.0772 389.968 94.7591 392.468 105.285C390.804 98.215 397.863 94.2896 403.154 95.8603C407.589 92.5743 415.564 93.8489 416.419 101.061C415.786 95.6245 419.808 92.5483 423.999 92.2549L423.999 93.2056C417.4 93.5056 414.609 106.951 423.999 106.956L423.999 111.014C421.433 111.237 418.869 111.443 416.294 111.767C419.026 111.858 421.585 112.117 423.999 112.505L423.999 116.676C418.386 115.951 412.572 116.098 406.896 117.08C379.752 121.955 356.025 145.657 373.557 181.558C377.948 189.262 382.315 195.61 391.716 201.11C386.262 186.158 398.859 173.8 411.057 164.955C412.924 163.605 406.994 163.681 405.959 157.817C405.278 153.954 407.22 153.216 406.121 153.411C395.736 155.242 392.911 139.51 403.357 137.668C403.658 137.616 397.434 126.738 407.812 124.596C407.829 124.615 407.979 124.624 408.232 124.637C408.461 124.539 408.597 124.479 408.605 124.456C419.09 122.919 416.962 135.27 417.262 135.217C420.14 134.71 422.405 135.562 423.999 137.066L423.999 140.297C422.563 137.31 419.218 135.333 415.259 137.977C409.241 144.074 414.646 150.031 419.728 149.135C421.885 148.754 423.237 147.691 423.999 146.357L423.999 149.123C422.988 149.993 421.703 150.663 420.05 150.955C418.95 151.149 421.027 151.178 421.708 155.041C422.742 160.904 417.143 162.861 419.36 163.491C420.895 163.93 422.449 164.414 423.999 164.93L423.999 168.928C421.119 167.924 418.312 167.067 415.838 166.263C415.759 166.324 415.679 166.386 415.601 166.447C415.506 166.416 415.41 166.386 415.315 166.355C406.559 173.194 392.455 182.916 394.277 196.348C395.639 206.692 409.48 208.981 422.656 206.456C423.106 206.383 423.551 206.292 423.999 206.208L423.999 210.223C423.77 210.23 423.566 210.22 423.322 210.236C414.223 212.903 417.305 218.307 423.999 221.04L423.999 224.821C423.221 224.417 422.446 223.964 421.68 223.442C417.809 220.795 415.98 218.641 415.152 217.199C415.161 218.857 414.68 221.635 412.737 225.882C409.06 234.097 400.166 239.293 390.238 236.633C385.535 235.566 383.055 234.133 381.83 233.072C382.438 234.563 383.055 237.344 382.894 242.177C382.639 247.357 380.458 251.93 377.009 255.229C372.427 256.566 367.377 256.169 362.763 253.8C358.496 251.523 356.397 249.597 355.409 248.326C355.717 249.918 355.717 252.782 354.29 257.388C351.63 267.316 342.683 272.42 333.73 271.497C329.08 271.056 326.434 270.084 325.002 269.247C325.837 270.685 326.788 273.347 327.145 278.022C327.275 279.759 327.207 281.413 326.965 282.976C325.468 283.485 323.85 283.84 322.118 284.014C317.451 284.474 314.665 284 313.104 283.427C314.177 284.692 315.593 287.129 316.835 291.632C319.299 300.288 315.825 309.986 306.511 314.329C302.222 316.535 299.402 317.032 297.781 317.005C299.205 317.757 301.465 319.49 304.448 323.296C307.584 327.428 308.852 332.333 308.331 337.077C305.68 341.046 301.556 343.988 296.498 345.139C291.767 346.137 288.921 346.011 287.347 345.673C288.605 346.694 290.447 348.888 292.315 353.335C296.658 362.65 293.085 372.31 285.634 377.358C281.789 380.009 279.137 380.966 277.501 381.244C279.066 381.81 281.506 383.237 284.784 386.589C285.999 387.836 287.01 389.147 287.83 390.499C287.01 391.852 285.999 393.163 284.784 394.41C281.506 397.762 279.066 399.189 277.501 399.755C279.137 400.033 281.789 400.991 285.634 403.641C293.085 408.689 296.658 418.35 292.315 427.665C290.447 432.111 288.606 434.305 287.347 435.327C288.921 434.988 291.767 434.862 296.498 435.86C301.556 437.011 305.68 439.953 308.331 443.922C308.852 448.666 307.584 453.571 304.448 457.703C301.465 461.509 299.205 463.242 297.781 463.995C299.402 463.968 302.222 464.465 306.512 466.671C315.826 471.015 319.3 480.711 316.836 489.368C315.593 493.871 314.177 496.309 313.104 497.573C314.665 497.001 317.452 496.526 322.118 496.986C323.851 497.16 325.468 497.514 326.965 498.024C327.207 499.587 327.275 501.241 327.146 502.977C326.789 507.652 325.837 510.314 325.002 511.752C326.434 510.915 329.08 509.944 333.73 509.502C342.683 508.579 351.63 513.684 354.291 523.611C355.717 528.217 355.717 531.081 355.41 532.673C356.398 531.402 358.497 529.476 362.763 527.2C367.377 524.83 372.428 524.433 377.01 525.77C380.458 529.069 382.64 533.641 382.894 538.823C383.056 543.656 382.438 546.437 381.831 547.928C383.056 546.866 385.536 545.433 390.239 544.366C400.166 541.707 409.06 546.902 412.737 555.117C414.68 559.365 415.162 562.142 415.152 563.801C415.981 562.359 417.81 560.204 421.681 557.557C422.446 557.035 423.221 556.582 424 556.179L424 559.959C417.306 562.692 414.223 568.096 423.323 570.763C423.566 570.778 423.771 570.769 424 570.776L424 574.791C423.552 574.707 423.107 574.615 422.656 574.543C409.48 572.018 395.64 574.307 394.278 584.651C392.456 598.082 406.56 607.805 415.315 614.644C415.411 614.613 415.506 614.582 415.602 614.552C415.68 614.613 415.759 614.675 415.838 614.736C418.312 613.933 421.12 613.075 423.999 612.072L423.999 616.07C422.449 616.586 420.896 617.07 419.36 617.508C417.144 618.138 422.743 620.096 421.709 625.959C421.027 629.822 418.951 629.851 420.05 630.045C421.704 630.337 422.989 631.007 423.999 631.877L423.999 634.644C423.238 633.309 421.885 632.246 419.729 631.865C414.647 630.97 409.242 636.926 415.26 643.023C419.219 645.668 422.563 643.691 423.999 640.702L423.999 643.934C422.406 645.438 420.141 646.291 417.263 645.783C416.962 645.73 419.091 658.081 408.605 656.543C408.595 656.519 408.459 656.46 408.226 656.362C407.976 656.375 407.829 656.384 407.813 656.403C397.434 654.262 403.658 643.384 403.358 643.331C392.912 641.489 395.736 625.758 406.121 627.589C407.221 627.783 405.279 627.045 405.96 623.182C406.994 617.319 412.925 617.394 411.058 616.045C398.86 607.2 386.263 594.842 391.716 579.89C382.316 585.389 377.949 591.738 373.557 599.441C356.025 635.343 379.752 659.045 406.896 663.919C412.572 664.902 418.386 665.048 423.999 664.323L423.999 668.495C421.585 668.882 419.026 669.141 416.294 669.232C418.869 669.556 421.434 669.762 423.999 669.986L423.999 674.043C414.61 674.048 417.401 687.493 423.999 687.794L423.999 688.744C419.808 688.45 415.787 685.374 416.419 679.938C415.565 687.15 407.59 688.424 403.155 685.138C397.863 686.71 390.805 682.784 392.469 675.714C389.968 686.24 373.52 681.923 376.845 671.376C374.593 678.535 364.651 678.795 361.651 672.027C360.914 670.36 360.635 669.16 360.585 668.312C359.973 668.889 358.958 669.562 357.3 670.252C350.4 673.136 343.47 665.978 346.769 659.304C341.292 670.457 330.251 660.498 331.197 653.296C325.017 659.706 313.085 651.071 318.866 642.81C315.952 646.942 311.478 646.958 308.202 644.946C304.821 643.115 302.599 639.232 304.72 634.643C300.456 643.78 287.011 637.764 289.474 629.206C283.71 633.627 269.564 629.045 276.484 618.725C272.354 624.919 262.691 622.497 261.738 615.079C261.507 613.298 261.582 612.083 261.776 611.264C261.016 611.645 259.838 612.004 258.026 612.198C250.665 612.984 245.919 604.245 250.993 598.715C243.522 606.867 231.558 594.781 239.423 587.353C234.133 592.329 227.204 588.179 225.919 582.81C220.855 580.613 217.972 573.069 223.791 568.723C215.109 575.178 205.285 561.299 214.61 555.356C208.283 559.392 200.5 553.201 202.553 546.088C203.059 544.337 203.618 543.24 204.125 542.558C203.284 542.606 202.075 542.469 200.361 541.933C193.222 539.706 192.514 529.769 199.331 526.777C187.967 531.8 185.91 517.073 191.265 512.165C182.41 513.104 178.82 498.819 188.559 496.207C183.671 497.498 180.233 494.635 179.017 490.988C177.604 487.412 178.398 483.009 182.972 480.857C173.833 485.116 167.4 471.865 174.787 466.893C167.531 466.574 159.639 453.971 171.574 450.515C164.429 452.604 158.583 444.537 162.621 438.242C163.589 436.729 164.428 435.847 165.103 435.344C164.276 435.147 163.143 434.666 161.63 433.65C155.486 429.52 157.468 419.775 164.909 418.8C153.946 420.243 152.549 403.294 163.35 402.66C156.098 403.07 153.458 395.437 155.924 390.499ZM405.8 151.59C410.883 150.694 413.924 143.248 406.184 139.577C396.393 137.183 396.151 153.292 405.8 151.59ZM415.647 131.299C414.927 127.219 411.55 125.776 408.53 126.342C405.498 126.843 402.818 129.354 403.538 133.434C404.243 137.418 407.621 138.88 410.647 138.349C413.672 137.814 416.346 135.284 415.647 131.299ZM414.619 162.497C414.713 162.484 414.806 162.47 414.897 162.456C414.988 162.438 415.08 162.419 415.173 162.399C420.317 161.493 421.769 154.479 417.362 151.393C415.609 150.166 414.036 149.788 412.697 149.984C411.373 150.257 410.024 151.151 408.797 152.903C405.712 157.31 409.474 163.404 414.619 162.497ZM408.529 654.656C411.55 655.222 414.927 653.779 415.646 649.699C416.346 645.714 413.671 643.184 410.646 642.649C407.621 642.117 404.243 643.58 403.537 647.564C402.818 651.643 405.497 654.155 408.529 654.656ZM405.801 629.408C396.151 627.706 396.393 643.815 406.184 641.422C413.924 637.75 410.883 630.304 405.801 629.408ZM408.798 628.095C410.025 629.847 411.374 630.741 412.699 631.014C414.037 631.21 415.61 630.832 417.363 629.605C421.77 626.519 420.319 619.506 415.174 618.599C415.081 618.578 414.989 618.559 414.898 618.542C414.807 618.527 414.714 618.514 414.62 618.501C409.474 617.594 405.712 623.688 408.798 628.095ZM159.8 365.047C149.532 373.288 169.503 383.766 170.602 370.946C171.157 365.207 164.414 361.356 159.8 365.047ZM170.264 375.376C168.646 377.299 166.131 378.488 163.393 378.345C171.683 378.868 169.336 388.168 170.264 375.376ZM163.393 402.653C166.132 402.509 168.646 403.699 170.264 405.623C169.336 392.83 171.683 402.13 163.393 402.653ZM171.94 359.783C170.19 361.587 167.651 362.546 164.945 362.203C173.256 363.338 170.062 372.408 171.94 359.783ZM164.945 418.795C167.651 418.452 170.189 419.412 171.94 421.215C170.062 408.59 173.256 417.66 164.945 418.795ZM172.697 355.296C173.705 349.747 167.167 345.399 162.447 348.569C151.474 355.928 170.14 368.172 172.697 355.296ZM196.713 484.547C202.833 512.459 214.894 539.433 233.125 563.479C211.672 523.27 251.198 500.664 244.568 501.13C227.97 502.29 212.245 495.048 202.242 482.535C201.861 466.519 209.253 450.864 222.712 441.084C228.092 437.179 183.282 445.269 173.87 400.677C175.361 430.815 183.46 459.231 196.713 484.547ZM171.601 450.507C174.205 449.763 176.897 450.353 178.92 451.881C175.111 439.6 179.713 448.119 171.601 450.507ZM182.997 480.847C185.328 479.762 188.03 479.793 190.504 481.109C184.772 469.342 190.735 477.213 182.997 480.847ZM194.166 491.172C193.117 493.77 191.068 495.531 188.585 496.198C196.848 494.008 197.34 503.87 194.166 491.172ZM195.43 510.656C196.985 510.71 198.779 511.303 200.817 512.668C196.8 501.797 200.348 507.351 195.43 510.656ZM204.079 521.008C203.513 523.479 201.829 525.66 199.356 526.765C207.106 523.38 209.056 532.865 204.079 521.008ZM206.421 541.362C206.184 541.561 209.66 539.205 213.902 541.158C207.698 529.972 213.794 537.393 206.421 541.362ZM218.445 548.986C218.262 551.493 216.935 553.859 214.642 555.336C221.738 550.864 225.121 559.865 218.445 548.986ZM227.184 562.008C227.181 564.521 226.019 567.049 223.83 568.699C230.516 563.771 234.696 572.404 227.184 562.008ZM239.454 587.32C241.459 585.45 244.15 584.745 246.626 585.179C237.692 575.975 245.468 581.591 239.454 587.32ZM242.425 568.961C260.218 590.03 292.609 598.728 314.934 565.594C319.409 557.939 322.724 550.983 322.787 540.092C312.564 552.291 295.564 547.561 281.805 541.42C279.703 540.478 282.734 545.576 278.173 549.403C275.168 551.924 273.558 550.612 274.275 551.467C281.054 559.545 268.842 569.856 262.025 561.731C261.829 561.497 255.519 572.327 248.476 564.408C248.484 564.385 248.417 564.251 248.301 564.025C248.102 563.875 247.983 563.788 247.958 563.792C241.385 555.481 253.144 551.149 252.948 550.915C246.13 542.79 258.406 532.554 265.184 540.632C265.902 541.488 264.889 539.674 267.893 537.153C272.454 533.325 276.948 537.195 276.387 534.961C272.728 520.346 271.022 502.781 284.81 494.833C274.074 493.003 266.647 495.06 258.332 498.138C221.825 514.37 224.765 547.779 242.425 568.961ZM283.711 500.127C273.682 509.244 278.237 525.758 280.548 536.625C280.641 536.663 280.734 536.701 280.827 536.738C280.848 536.836 280.869 536.934 280.89 537.032C291.19 541.195 306.663 548.549 317.383 540.255C325.661 533.903 320.723 520.773 311.948 510.625C303.477 500.221 291.403 493.078 283.711 500.127ZM284.819 475.098C278.977 485.886 274.19 489.473 272.394 490.439C274.28 489.926 279.841 489.249 290.808 492.39C304.466 488.635 298.903 498.052 291.042 470.632C289.048 472.306 287.19 473.722 284.819 475.098ZM287.801 468.51C288.085 468.278 288.357 468.111 288.644 467.866C289.747 466.941 289.923 462.709 287.801 468.51ZM291.042 310.366C298.904 282.945 304.466 292.362 290.808 288.608C279.841 291.749 274.28 291.072 272.394 290.559C274.191 291.526 278.977 295.112 284.819 305.899C287.19 307.276 289.048 308.693 291.042 310.366ZM287.801 312.488C289.922 318.289 289.747 314.057 288.644 313.132C288.357 312.887 288.085 312.72 287.801 312.488ZM311.948 270.373C320.723 260.225 325.66 247.094 317.383 240.743C306.662 232.45 291.19 239.803 280.889 243.966C280.868 244.065 280.847 244.162 280.826 244.26C280.734 244.298 280.641 244.335 280.548 244.373C278.236 255.24 273.682 271.754 283.711 280.872C291.403 287.92 303.477 280.777 311.948 270.373ZM246.626 195.82C244.15 196.253 241.459 195.548 239.454 193.679C245.468 199.407 237.692 205.023 246.626 195.82ZM242.425 212.037C224.765 233.219 221.825 266.628 258.332 282.86C266.647 285.938 274.074 287.995 284.81 286.165C271.021 278.217 272.727 260.652 276.386 246.037C276.949 243.803 272.454 247.673 267.893 243.846C264.889 241.325 265.902 239.511 265.184 240.366C258.406 248.444 246.13 238.209 252.948 230.084C253.144 229.849 241.384 225.518 247.959 217.206C247.983 217.21 248.104 217.121 248.306 216.968C248.419 216.745 248.485 216.612 248.476 216.589C255.52 208.672 261.829 219.501 262.025 219.267C268.842 211.142 281.054 221.453 274.275 229.531C273.558 230.386 275.168 229.074 278.173 231.595C282.734 235.423 279.703 240.521 281.805 239.578C295.564 233.437 312.564 228.707 322.787 240.906C322.724 230.015 319.409 223.059 314.934 215.404C292.61 182.27 260.219 190.968 242.425 212.037ZM196.713 296.451C183.46 321.767 175.361 350.182 173.87 380.321C183.282 335.729 228.091 343.819 222.712 339.915C209.253 330.134 201.861 314.479 202.242 298.464C212.245 285.95 227.97 278.708 244.568 279.868C251.198 280.334 211.672 257.728 233.125 217.519C214.894 241.565 202.834 268.539 196.713 296.451ZM223.83 212.299C226.019 213.949 227.181 216.477 227.184 218.991C234.696 208.594 230.516 217.227 223.83 212.299ZM214.643 225.663C216.935 227.139 218.263 229.506 218.445 232.013C225.121 221.133 221.738 230.134 214.643 225.663ZM213.902 239.84C209.66 241.794 206.184 239.438 206.421 239.637C213.794 243.605 207.698 251.026 213.902 239.84ZM199.357 254.234C201.83 255.338 203.513 257.519 204.08 259.991C209.056 248.134 207.106 257.618 199.357 254.234ZM200.817 268.33C198.779 269.695 196.985 270.288 195.43 270.343C200.348 273.647 196.8 279.202 200.817 268.33ZM188.585 284.8C191.068 285.468 193.117 287.228 194.166 289.826C197.34 277.128 196.848 286.99 188.585 284.8ZM190.504 299.889C188.03 301.205 185.328 301.236 182.997 300.151C190.735 303.785 184.772 311.656 190.504 299.889ZM178.92 329.116C176.897 330.645 174.205 331.234 171.601 330.491C179.713 332.879 175.111 341.398 178.92 329.116ZM278.926 477.678C267.037 481.177 257.983 474.241 250.822 464.853C250.273 453.058 252.751 441.926 264.107 436.964C252.934 433.912 245.027 435.52 236.331 438.043C213.285 446.347 204.689 463.852 205.699 481.277C216.126 495.274 233.962 503.158 256.955 494.705C265.237 491.048 272.328 487.197 278.926 477.678ZM257.588 420.04C241.916 422.814 231.933 408.262 225.341 394.715C224.336 392.642 223.381 398.495 217.426 398.495C213.504 398.495 213.115 396.455 213.115 397.571C213.115 408.117 197.132 408.166 197.132 397.559C197.132 397.254 185.338 401.495 185.032 390.901C185.053 390.889 185.088 390.743 185.145 390.496C185.088 390.252 185.053 390.109 185.032 390.096C185.339 379.504 197.132 383.745 197.132 383.439C197.132 372.832 213.115 372.882 213.115 383.427C213.115 384.544 213.504 382.503 217.426 382.503C223.381 382.503 224.336 388.356 225.341 386.283C231.933 372.735 241.917 358.184 257.588 360.958C250.54 352.655 243.529 349.457 235.18 346.469C196.78 335.438 177.558 362.92 177.471 390.498C177.558 418.076 196.78 445.559 235.18 434.527C243.529 431.541 250.539 428.343 257.588 420.04ZM269.316 406.933C268.716 408.617 268.028 410.255 267.258 411.849C270.326 409.766 269.892 410.731 269.316 406.933ZM267.258 369.149C268.029 370.744 268.717 372.382 269.317 374.066C269.892 370.267 270.326 371.232 267.258 369.149ZM268.225 390.499C268.424 377.085 263.766 363.852 253.343 364.307C239.799 364.845 232.674 380.424 227.459 390.234C227.506 390.322 227.552 390.411 227.599 390.499C227.552 390.587 227.506 390.676 227.459 390.765C232.674 400.575 239.799 416.153 253.343 416.691C263.766 417.147 268.424 403.913 268.225 390.499ZM199.068 390.499C199.066 387.427 197.039 384.354 192.993 384.351C188.85 384.351 186.843 387.425 186.876 390.499C186.843 393.572 188.85 396.647 192.993 396.647C197.039 396.644 199.066 393.57 199.068 390.499ZM211.266 397.571C211.266 392.41 204.461 388.122 199.502 395.107C195.444 404.334 211.266 407.37 211.266 397.571ZM199.502 385.891C204.461 392.877 211.266 388.588 211.266 383.427C211.266 373.628 195.444 376.664 199.502 385.891ZM210.882 390.499C210.921 391.851 211.566 393.334 213.079 394.847C216.883 398.651 223.538 396.004 223.538 390.781C223.542 390.685 223.545 390.592 223.546 390.499C223.545 390.406 223.542 390.313 223.538 390.218C223.538 384.994 216.883 382.346 213.079 386.151C211.567 387.663 210.921 389.147 210.882 390.499ZM250.822 316.145C257.983 306.756 267.037 299.821 278.926 303.32C272.328 293.801 265.237 289.949 256.954 286.293C233.962 277.84 216.125 285.724 205.699 299.721C204.688 317.146 213.284 334.651 236.331 342.954C245.026 345.477 252.933 347.086 264.106 344.034C252.751 339.072 250.273 327.94 250.822 316.145ZM256.341 229.729C247.301 234.189 257.47 246.685 263.769 239.178C267.085 235.225 264.629 227.565 256.341 229.729ZM258.268 217.306C255.094 214.642 251.58 215.708 249.63 218.083C247.629 220.416 247.191 224.061 250.364 226.724C253.465 229.323 256.994 228.272 258.969 225.919C260.943 223.566 261.366 219.909 258.268 217.306ZM272.86 228.343C279.159 220.837 265.087 212.993 262.264 222.669C261.573 231.208 269.543 232.297 272.86 228.343ZM272.499 231.596C270.368 231.782 268.919 232.504 268.02 233.515C267.181 234.575 266.722 236.127 266.908 238.258C267.377 243.617 274.176 245.867 277.534 241.865C277.598 241.795 277.66 241.725 277.721 241.655C277.78 241.583 277.838 241.509 277.896 241.434C281.254 237.432 277.858 231.127 272.499 231.596ZM297.483 286.106C301.172 286.482 300.22 286.943 302.22 283.663C300.678 284.568 299.098 285.381 297.483 286.106ZM255.109 317.705C255.386 346.677 271.924 347.388 286.69 329.2C287.07 305.776 273.944 295.69 255.109 317.705ZM276.799 342.716C277.166 342.721 277.482 342.768 277.859 342.765C279.298 342.765 282.153 339.637 276.799 342.716ZM270.28 345.847C258.869 350.356 252.897 350.025 250.9 349.611C252.673 350.43 257.369 353.485 263.752 362.942C276.628 368.846 266.314 372.484 277.917 346.425C275.315 346.425 272.98 346.316 270.28 345.847ZM263.752 418.056C257.369 427.513 252.674 430.568 250.9 431.387C252.897 430.973 258.87 430.643 270.28 435.152C272.98 434.682 275.314 434.573 277.917 434.573C266.314 408.514 276.628 412.153 263.752 418.056ZM277.859 438.233C277.482 438.229 277.166 438.276 276.799 438.282C282.153 441.361 279.298 438.233 277.859 438.233ZM255.109 463.293C273.944 485.308 287.07 475.222 286.69 451.799C271.924 433.61 255.386 434.321 255.109 463.293ZM297.483 494.892C299.098 495.618 300.678 496.43 302.22 497.335C300.219 494.055 301.172 494.516 297.483 494.892ZM256.341 551.269C264.629 553.433 267.086 545.773 263.769 541.82C257.47 534.314 247.301 546.809 256.341 551.269ZM250.365 554.274C247.191 556.937 247.63 560.583 249.631 562.915C251.581 565.291 255.095 566.356 258.268 563.693C261.366 561.09 260.943 557.432 258.97 555.078C256.994 552.726 253.466 551.675 250.365 554.274ZM262.264 558.329C265.087 568.006 279.159 560.161 272.86 552.655C269.543 548.702 261.573 549.79 262.264 558.329ZM268.02 547.484C268.919 548.495 270.368 549.216 272.499 549.403C277.858 549.872 281.254 543.566 277.897 539.565C277.839 539.489 277.78 539.416 277.722 539.344C277.661 539.273 277.599 539.203 277.535 539.133C274.177 535.131 267.378 537.381 266.909 542.741C266.722 544.872 267.181 546.424 268.02 547.484ZM173.492 430.131C171.497 434.355 167.321 434.785 167.63 434.785C175.829 433.084 175.929 442.689 173.492 430.131ZM167.63 346.214C167.321 346.214 171.497 346.643 173.492 350.867C175.929 338.309 175.829 347.914 167.63 346.214ZM166.122 332.51C154.575 339.153 173.01 352.456 175.899 339.927C177.289 334.272 171.14 329.638 166.122 332.51ZM171.99 329.074C180.272 331.455 184.361 319.578 176.16 316.461C167.878 313.325 163.313 326.574 171.99 329.074ZM181.781 320.631C185.692 309.721 184.84 316.257 178.948 315.627C180.104 316.668 181.097 318.275 181.781 320.631ZM177.368 301.297C164.813 306.021 181.046 322.226 185.81 310.118C188.075 304.97 182.808 299.249 177.368 301.297ZM180.257 290.462C178.688 295.046 182.365 301.237 188.666 299.084C191.025 298.326 192.364 296.805 192.895 295.061C193.61 293.385 193.561 291.358 192.241 289.262C188.798 283.562 182.001 285.941 180.257 290.462ZM185.009 280.304C187.859 285.37 195.571 284.373 197.145 278.974C201.279 266.636 178.427 268.615 185.009 280.304ZM198.744 255.569C190.489 251.907 185.471 264.99 193.831 267.911C202.116 270.795 206.619 259.069 198.744 255.569ZM196.458 249.164C198.455 254.591 206.144 254.993 208.715 249.768C214.555 238.313 191.882 236.653 196.458 249.164ZM203.965 234.501C205.543 239.963 213.346 240.835 216.141 235.936C222.459 224.43 200.289 221.81 203.965 234.501ZM212.529 220.177C213.69 225.969 221.331 227.355 224.595 222.601C231.994 212.074 209.96 207.264 212.529 220.177ZM233.799 192.989C228.841 193.207 227.094 196.223 227.326 199.368C224.188 199.686 221.522 201.93 222.169 206.85C222.896 212.38 230.313 214.623 234.056 210.001C235.007 208.715 235.52 207.502 235.691 206.387C236.759 206.024 237.865 205.308 238.966 204.149C242.868 199.66 239.371 192.745 233.799 192.989ZM245.25 181.181C232.087 180.894 240.65 201.758 249.732 192.643C253.846 188.604 251.156 181.32 245.25 181.181ZM257.932 184.952C255.432 185.209 252.871 184.312 251.019 182.311C256.655 188.522 248.378 193.417 257.932 184.952ZM257.869 170.26C244.732 168.844 251.162 190.222 261.396 182.002C265.736 178.399 263.522 170.866 257.869 170.26ZM264.853 179.12C274.792 171.067 268.542 178.36 263.353 171.787C263.116 171.589 266.04 174.602 264.853 179.12ZM271.006 160.321C257.891 157.987 263.463 180.027 273.729 172.287C278.428 168.848 276.697 161.346 271.006 160.321ZM282.991 165.947C280.459 165.818 278.019 164.539 276.502 162.295C281.18 169.34 272.179 172.907 282.991 165.947ZM277.71 161.461C282.524 168.608 293.29 162.138 289.012 154.479C284.684 146.753 272.67 153.967 277.71 161.461ZM290.638 161.285C300.647 155.442 295.793 159.901 291.685 155.631C291.901 157.172 291.628 159.042 290.638 161.285ZM299.685 143.639C287.031 139.187 289.049 162.036 300.482 155.821C305.526 153.334 305.169 145.566 299.685 143.639ZM310.653 151.003C307.911 150.422 305.822 148.709 304.733 146.38C308.325 154.137 298.697 156.334 310.653 151.003ZM308.863 137.196C304.715 139.698 303.551 146.804 309.762 149.206C312.057 150.141 314.06 149.837 315.587 148.842C317.212 148.018 318.477 146.434 318.814 143.98C319.841 137.4 313.105 134.854 308.863 137.196ZM319.926 145.649C330.52 137.961 323.804 145.201 318.881 138.211C320.354 140.319 320.792 142.985 319.926 145.649ZM319.032 132.469C317.959 138.182 324.508 142.375 329.184 139.25C340.282 132.457 321.504 119.284 319.032 132.469ZM338.838 133.457C336.4 133.193 334.644 132.494 333.418 131.536C335.061 137.229 328.773 139.204 338.838 133.457ZM345.454 122.349C341.483 114.238 329.23 121.034 333.756 128.646C338.249 136.181 349.236 130.092 345.454 122.349ZM346.698 129.166C358.132 123.282 350.542 129.294 346.781 121.72C347.965 124.155 347.853 126.909 346.698 129.166ZM347.819 115.973C345.861 121.415 351.492 126.664 356.82 124.314C368.656 119.294 352.355 103.448 347.819 115.973ZM361.575 115.079C364.673 122.859 355.232 124.625 367.175 120.044C362.67 118.813 361.521 114.775 361.575 115.079ZM362.995 109.566C360.693 114.765 366.11 120.448 371.4 118.492C383.636 113.739 368.336 97.4815 362.995 109.566ZM375.687 116.967C387.794 112.925 379.417 117.645 376.856 109.659C377.663 112.264 377.158 114.93 375.687 116.967ZM378.762 104.098C375.929 109.282 380.892 115.254 386.447 113.71C398.882 110.403 385.095 92.5545 378.762 104.098ZM420.539 107.357C418.364 106.098 416.755 103.828 416.421 101.106C417.346 109.361 407.779 108.664 420.539 107.357ZM401.794 110.14C403.349 109.766 404.521 109.167 405.37 108.423C406.421 108.832 407.728 108.994 409.317 108.813C415.192 107.884 416.958 100.338 412.532 96.9433C408.594 93.9242 405.318 95.1107 403.473 97.6687C400.865 95.8958 397.381 95.9014 394.713 100.085C391.716 104.789 395.956 111.275 401.794 110.14ZM392.483 105.327C393.099 107.999 392.365 110.681 390.751 112.609C403.188 109.474 394.437 113.4 392.483 105.327ZM396.248 115.302C366.826 122.003 340.249 134.914 317.618 152.362C291.193 163.236 266.723 179.798 246.209 201.927C282.081 173.817 311.208 208.817 309.597 202.368C305.573 186.225 309.974 169.481 320.561 157.457C336.267 154.301 352.968 158.862 364.936 170.418C369.716 175.037 353.968 132.313 396.248 115.302ZM370.296 183.302C358.116 162.047 339.385 156.622 322.4 160.643C310.426 173.342 305.759 192.276 318.076 213.451C323.115 220.973 328.139 227.288 338.659 232.132C333.149 221.031 338.407 210.911 346.409 202.228C357.93 199.64 369.323 200.146 376.182 210.469C377.247 198.936 374.291 191.427 370.296 183.302ZM324.93 253.397C324.495 255.113 323.969 256.81 323.346 258.486C326.229 255.946 325.94 256.964 324.93 253.397ZM326.234 246.388C332.303 259.187 322.063 255.344 347.702 242.84C345.708 241.167 343.99 239.584 342.223 237.488C330.585 233.608 326.222 229.516 324.958 227.915C325.79 229.683 327.424 235.042 326.234 246.388ZM377.32 224.232C377.258 223.86 377.156 223.557 377.088 223.197C374.985 229.004 377.57 225.649 377.32 224.232ZM394.741 206.836C384.32 202.192 380.495 198.098 379.381 196.494C380.135 198.389 381.498 204.214 379.039 216.233C379.971 218.81 380.483 221.09 380.935 223.654C404.582 207.702 402.791 218.491 394.741 206.836ZM401.463 209.21C404.047 211.869 403.022 211.61 406.662 210.384C404.899 210.085 403.166 209.693 401.463 209.21ZM396.73 233.593C406.407 232.786 412.622 222.639 410.577 213.53C363.626 228.011 390.434 234.17 396.73 233.593ZM364.477 250.523C367.89 252.274 371.545 252.397 374.897 251.571C377.289 249.08 379.01 245.854 379.2 242.023C379.338 237.928 378.371 234.408 376.412 231.512C372.952 234.26 370.058 236.768 367.665 239.044C364.497 239.979 360.88 241.23 356.769 242.853C358.297 245.997 360.863 248.596 364.477 250.523ZM365.494 235.284C380.842 217.585 377.27 201.421 348.69 206.18C330.28 228.55 342.493 239.726 365.494 235.284ZM349.229 239.281C349.507 239.521 349.719 239.759 350.01 240C351.113 240.925 355.31 240.363 349.229 239.281ZM348.411 261.489C352.06 256.326 360.129 230.03 324.112 263.45C330.979 269.776 342.875 269.467 348.411 261.489ZM323.671 280.211C325.273 272.394 322.183 265.879 314.888 272.841C309.298 281.234 316.251 283.145 323.671 280.211ZM309.53 307.826C316.425 300.988 314.664 289.22 307.242 283.556C280.583 324.829 305.079 312.316 309.53 307.826ZM295.707 341.527C299.447 340.675 302.325 338.42 304.362 335.632C304.593 332.187 303.838 328.609 301.521 325.552C298.995 322.326 295.991 320.251 292.629 319.292C291.745 323.623 291.14 327.402 290.77 330.684C288.945 333.437 286.978 336.721 284.872 340.607C288.063 342.033 291.698 342.374 295.707 341.527ZM290.448 360.254C289.923 353.954 279.202 328.623 273.094 377.376C282.42 377.808 291.334 369.925 290.448 360.254ZM283.53 390.499C279.732 383.482 273.177 380.477 272.064 390.499C273.177 400.521 279.732 397.516 283.53 390.499ZM290.448 420.743C291.334 411.073 282.42 403.19 273.094 403.622C279.202 452.375 289.923 427.044 290.448 420.743ZM301.521 455.446C303.838 452.389 304.594 448.812 304.362 445.366C302.325 442.578 299.447 440.323 295.707 439.471C291.698 438.624 288.063 438.965 284.871 440.39C286.977 444.276 288.944 447.56 290.77 450.313C291.14 453.595 291.745 457.375 292.629 461.705C295.991 460.746 298.995 458.671 301.521 455.446ZM309.53 473.172C305.079 468.682 280.583 456.169 307.242 497.442C314.663 491.778 316.425 480.01 309.53 473.172ZM323.671 500.787C316.251 497.853 309.299 499.765 314.888 508.157C322.182 515.119 325.273 508.604 323.671 500.787ZM324.958 553.083C326.222 551.482 330.585 547.39 342.223 543.51C343.99 541.414 345.708 539.831 347.702 538.158C322.063 525.654 332.303 521.811 326.234 534.61C327.424 545.957 325.79 551.315 324.958 553.083ZM324.93 527.601C325.94 524.034 326.229 525.052 323.346 522.512C323.969 524.188 324.496 525.885 324.93 527.601ZM348.411 519.509C342.874 511.531 330.979 511.223 324.112 517.548C360.129 550.969 352.06 524.672 348.411 519.509ZM350.01 540.998C349.719 541.239 349.507 541.477 349.23 541.717C355.31 540.635 351.113 540.073 350.01 540.998ZM348.691 574.818C377.27 579.577 380.842 563.413 365.494 545.714C342.493 541.272 330.28 552.448 348.691 574.818ZM374.897 529.427C371.545 528.601 367.89 528.724 364.477 530.475C360.863 532.403 358.297 535.001 356.769 538.145C360.88 539.768 364.497 541.02 367.665 541.954C370.058 544.23 372.952 546.737 376.412 549.486C378.371 546.59 379.338 543.07 379.2 538.975C379.01 535.144 377.289 531.917 374.897 529.427ZM396.73 547.406C390.434 546.828 363.625 552.987 410.577 567.469C412.623 558.36 406.407 548.212 396.73 547.406ZM406.661 570.614C403.021 569.388 404.047 569.128 401.462 571.788C403.166 571.305 404.899 570.913 406.661 570.614ZM394.741 574.162C402.791 562.507 404.583 573.296 380.935 557.345C380.483 559.908 379.97 562.187 379.039 564.766C381.498 576.785 380.135 582.61 379.38 584.505C380.495 582.9 384.32 578.806 394.741 574.162ZM377.32 556.766C377.57 555.349 374.985 551.994 377.088 557.802C377.157 557.441 377.258 557.138 377.32 556.766ZM370.296 597.696C374.29 589.571 377.247 582.062 376.182 570.53C369.324 580.852 357.93 581.359 346.41 578.77C338.408 570.087 333.15 559.967 338.66 548.867C328.14 553.711 323.116 560.026 318.077 567.548C305.759 588.722 310.427 607.657 322.401 620.356C339.385 624.376 358.116 618.951 370.296 597.696ZM416.421 679.892C416.756 677.171 418.364 674.9 420.539 673.641C407.779 672.334 417.346 671.637 416.421 679.892ZM394.713 680.913C397.382 685.097 400.866 685.102 403.474 683.33C405.318 685.887 408.594 687.074 412.532 684.055C416.958 680.661 415.192 673.115 409.318 672.185C407.729 672.005 406.422 672.167 405.37 672.576C404.522 671.832 403.349 671.233 401.794 670.859C395.956 669.723 391.716 676.209 394.713 680.913ZM392.483 675.671C394.437 667.598 403.188 671.525 390.751 668.389C392.365 670.316 393.1 672.999 392.483 675.671ZM378.762 676.9C385.095 688.444 398.882 670.595 386.447 667.287C380.892 665.744 375.929 671.716 378.762 676.9ZM376.856 671.339C379.416 663.353 387.794 668.073 375.687 664.031C377.159 666.068 377.663 668.734 376.856 671.339ZM362.995 671.432C368.336 683.517 383.636 667.26 371.4 662.506C366.11 660.55 360.693 666.234 362.995 671.432ZM367.175 660.954C355.231 656.373 364.673 658.139 361.575 665.919C361.521 666.224 362.67 662.184 367.175 660.954ZM347.819 665.025C352.355 677.55 368.656 661.705 356.82 656.684C351.492 654.334 345.86 659.583 347.819 665.025ZM346.781 659.278C350.542 651.705 358.132 657.717 346.698 651.832C347.853 654.089 347.965 656.843 346.781 659.278ZM345.454 658.649C349.236 650.906 338.249 644.817 333.756 652.352C329.23 659.964 341.483 666.761 345.454 658.649ZM333.418 649.462C334.644 648.505 336.4 647.805 338.838 647.541C328.773 641.794 335.061 643.769 333.418 649.462ZM319.032 648.529C321.504 661.714 340.282 648.541 329.184 641.748C324.508 638.623 317.959 642.816 319.032 648.529ZM319.926 635.349C320.792 638.013 320.354 640.679 318.881 642.787C323.804 635.798 330.519 643.037 319.926 635.349ZM308.863 643.802C313.105 646.144 319.841 643.598 318.814 637.019C318.478 634.564 317.212 632.981 315.587 632.156C314.06 631.161 312.057 630.857 309.762 631.793C303.551 634.194 304.714 641.3 308.863 643.802ZM304.733 634.619C305.822 632.29 307.911 630.577 310.653 629.995C298.697 624.665 308.325 626.861 304.733 634.619ZM299.685 637.359C305.169 635.432 305.526 627.664 300.482 625.176C289.049 618.962 287.03 641.811 299.685 637.359ZM291.684 625.367C295.792 621.097 300.646 625.555 290.637 619.713C291.628 621.956 291.901 623.826 291.684 625.367ZM289.012 626.519C293.29 618.861 282.524 612.39 277.71 619.537C272.67 627.031 284.684 634.245 289.012 626.519ZM282.991 615.051C272.178 608.091 281.18 611.658 276.502 618.703C278.019 616.459 280.459 615.18 282.991 615.051ZM317.619 628.638C340.249 646.085 366.827 658.995 396.249 665.697C353.969 648.685 369.717 605.961 364.938 610.58C352.968 622.138 336.268 626.698 320.562 623.541C309.975 611.518 305.574 594.774 309.598 578.63C311.21 572.181 282.083 607.181 246.21 579.072C266.724 601.201 291.194 617.763 317.619 628.638ZM251.019 598.687C252.871 596.686 255.432 595.789 257.932 596.045C248.378 587.581 256.655 592.477 251.019 598.687ZM263.353 609.211C268.542 602.638 274.792 609.931 264.853 601.878C266.04 606.396 263.116 609.41 263.353 609.211ZM271.006 620.677C276.698 619.652 278.428 612.15 273.729 608.711C263.462 600.971 257.89 623.011 271.006 620.677ZM257.869 610.738C263.522 610.133 265.736 602.598 261.396 598.996C251.162 590.776 244.732 612.154 257.869 610.738ZM245.25 599.817C251.156 599.679 253.846 592.394 249.732 588.355C240.65 579.239 232.086 600.104 245.25 599.817ZM222.169 574.148C221.522 579.068 224.189 581.312 227.326 581.63C227.095 584.775 228.841 587.79 233.799 588.009C239.371 588.253 242.868 581.338 238.966 576.85C237.865 575.69 236.76 574.974 235.691 574.611C235.52 573.496 235.006 572.283 234.056 570.997C230.313 566.375 222.896 568.618 222.169 574.148ZM212.529 560.821C209.96 573.735 231.994 568.925 224.595 558.397C221.331 553.644 213.69 555.029 212.529 560.821ZM216.141 545.062C213.346 540.162 205.542 541.035 203.964 546.497C200.289 559.188 222.459 556.569 216.141 545.062ZM196.458 531.834C191.882 544.345 214.555 542.685 208.715 531.23C206.144 526.005 198.455 526.407 196.458 531.834ZM198.744 525.43C206.619 521.93 202.116 510.203 193.831 513.087C185.471 516.008 190.489 529.091 198.744 525.43ZM185.009 500.694C178.427 512.383 201.279 514.363 197.145 502.025C195.571 496.625 187.859 495.628 185.009 500.694ZM180.257 490.537C182.002 495.057 188.798 497.436 192.241 491.736C193.561 489.64 193.609 487.613 192.895 485.936C192.364 484.193 191.025 482.672 188.665 481.914C182.365 479.761 178.688 485.952 180.257 490.537ZM177.368 479.701C182.808 481.749 188.075 476.028 185.81 470.881C181.046 458.771 164.813 474.977 177.368 479.701ZM181.781 460.367C181.097 462.723 180.104 464.33 178.948 465.372C184.84 464.742 185.692 471.277 181.781 460.367ZM176.16 464.537C184.361 461.42 180.272 449.543 171.99 451.924C163.313 454.425 167.878 467.673 176.16 464.537ZM166.122 448.488C171.14 451.361 177.289 446.726 175.899 441.071C173.01 428.543 154.575 441.845 166.122 448.488ZM162.447 432.429C167.167 435.6 173.706 431.252 172.697 425.702C170.14 412.826 151.474 425.07 162.447 432.429ZM159.8 415.951C164.414 419.642 171.157 415.792 170.602 410.052C169.503 397.232 149.532 407.711 159.8 415.951ZM169.75 394.319C169.652 392.722 169.265 391.463 168.68 390.499C169.265 389.534 169.652 388.275 169.75 386.679C169.854 380.733 162.73 377.683 158.618 381.452C154.961 384.805 155.561 388.238 157.759 390.499C155.561 392.759 154.961 396.192 158.618 399.546C162.73 403.315 169.854 400.265 169.75 394.319Z" fill="url(#paint0_linear_126_96)"/>
<path d="M314.064 339.164C314.909 320.872 322.47 303.209 334.284 289.117C346.112 275.035 362.193 264.522 380.06 260.513C391.61 247.973 407.281 239.656 424 235.975L424 238.123C405.247 242.26 391.123 251.16 381.373 262.787C365.347 265.607 349.494 274.253 335.891 290.464C322.288 306.675 316.527 323.79 316.532 340.062C306.068 352.524 299.481 369.337 299.481 390.499C299.481 411.661 306.068 428.475 316.532 440.937C316.527 457.209 322.288 474.323 335.891 490.534C349.494 506.746 365.347 515.391 381.373 518.211C391.123 529.839 405.247 538.739 424 542.876L424 545.023C407.281 541.343 391.61 533.026 380.06 520.486C362.193 516.477 346.112 505.964 334.284 491.882C322.47 477.789 314.91 460.127 314.064 441.835C302.954 427.279 297.392 408.889 297.384 390.499C297.392 372.109 302.953 353.719 314.064 339.164Z" fill="url(#paint1_linear_126_96)"/>
<path d="M315.221 364.792C315.306 356.339 318.212 348.588 323.048 342.434C323.299 334.611 326.054 326.806 331.423 320.276C330.65 310.273 333.922 300.915 339.881 293.814C345.84 286.712 354.488 281.864 364.473 280.889C369.971 274.468 377.179 270.398 384.84 268.793C390.06 262.961 397.188 258.754 405.499 257.203C410.254 250.555 416.803 246.002 423.999 243.657L423.999 245.59C417.942 247.686 412.397 251.462 408.117 256.833C413.408 256.232 418.83 256.777 423.999 258.52L423.999 260.09C405.633 252.147 398.349 266.982 400.878 283.764C415.198 281.625 421.373 281.469 423.999 281.187L423.999 283.677C419.02 286.342 420.47 286.155 423.999 287.97L423.999 290.156C422.822 289.304 421.175 288.452 418.753 287.521C399.813 304 411.939 305.372 423.999 306.963L423.999 308.499C421.832 308.317 419.659 308.313 417.506 308.534C419.578 309.774 421.758 310.76 423.999 311.537L423.999 314.216C421.444 313.115 418.361 311.449 414.667 308.927C412.011 309.421 410.143 309.84 408.868 310.412C407.735 311.23 406.438 312.639 404.684 314.692C405.331 323.253 404.4 328.367 403.266 331.229C405.806 329.674 410.457 327.941 418.479 327.06C420.498 324.308 422.337 322.182 423.999 320.503L423.999 323.721C422.858 324.792 421.776 325.921 420.791 327.131C421.884 326.857 422.949 326.516 423.999 326.142L423.999 328.009C422.382 328.414 421.067 328.678 419.866 329.462C416.276 331.281 415.822 335.888 403.556 339.781C409.426 340.577 417.957 345.479 423.999 346.791L423.999 349.314C423.893 349.33 423.789 349.356 423.683 349.371C423.796 349.476 423.892 349.576 423.999 349.679L423.999 352.134C423.252 351.401 422.39 350.61 421.269 349.653C412.738 350.291 407.609 349.368 404.745 348.241L404.747 348.244L404.744 348.242C406.351 350.868 408.15 355.758 409.005 364.27C416.011 370.052 416.69 369.546 422.245 362.926C422.909 362.136 423.487 361.439 423.999 360.797L423.999 363.661C423.88 363.809 423.783 363.969 423.661 364.114C421.939 366.167 420.017 367.981 417.901 369.609C420.258 370.586 422.262 371.283 423.999 371.773L423.999 374.471C417.518 374.689 413.641 374.603 411.387 374.588C413.461 376.305 417.354 379.411 423.999 385.541L423.999 387.762C422.276 386.119 418.879 384.385 413.177 382.589C413.752 385.197 414.057 387.822 414.057 390.501C414.057 393.18 413.752 395.805 413.177 398.413C418.879 396.617 422.276 394.883 423.999 393.24L423.999 395.461C417.354 401.591 413.461 404.697 411.387 406.414C413.641 406.399 417.518 406.313 423.999 406.531L423.999 409.228C422.262 409.718 420.258 410.415 417.901 411.392C420.017 413.02 421.939 414.835 423.661 416.887C423.783 417.033 423.88 417.193 423.999 417.34L423.999 420.204C423.488 419.562 422.909 418.865 422.245 418.075C416.69 411.455 416.011 410.949 409.005 416.731C408.151 425.243 406.351 430.134 404.744 432.759L404.747 432.758L404.745 432.76C407.61 431.633 412.738 430.71 421.269 431.348C422.391 430.391 423.252 429.6 423.999 428.867L423.999 431.322C423.893 431.425 423.796 431.525 423.683 431.631C423.789 431.646 423.893 431.672 423.999 431.688L423.999 434.211C417.957 435.522 409.426 440.424 403.556 441.221C415.823 445.113 416.276 449.72 419.866 451.54C421.067 452.323 422.382 452.587 423.999 452.993L423.999 454.859C422.949 454.486 421.884 454.145 420.791 453.87C421.776 455.08 422.858 456.21 423.999 457.281L423.999 460.497C422.337 458.819 420.498 456.693 418.479 453.941C410.457 453.06 405.806 451.327 403.266 449.772C404.4 452.634 405.331 457.748 404.684 466.309C406.438 468.362 407.735 469.771 408.868 470.588C410.143 471.16 412.011 471.58 414.667 472.073C418.361 469.551 421.444 467.886 423.999 466.785L423.999 469.463C421.758 470.241 419.578 471.226 417.506 472.466C419.659 472.687 421.832 472.684 423.999 472.501L423.999 474.038C411.939 475.629 399.813 477 418.753 493.48C421.175 492.548 422.822 491.697 423.999 490.845L423.999 493.029C420.47 494.845 419.02 494.657 423.999 497.323L423.999 499.812C421.373 499.531 415.198 499.375 400.878 497.236C398.349 514.018 405.632 528.853 423.999 520.91L423.999 522.48C418.831 524.223 413.408 524.768 408.117 524.167C412.397 529.538 417.942 533.314 423.999 535.41L423.999 537.343C416.803 534.998 410.254 530.444 405.499 523.797C397.188 522.246 390.06 518.038 384.84 512.207C377.179 510.602 369.971 506.532 364.473 500.111C354.488 499.136 345.84 494.288 339.881 487.186C333.922 480.084 330.65 470.726 331.423 460.724C326.054 454.194 323.298 446.388 323.048 438.566C318.211 432.412 315.306 424.662 315.221 416.208C308.199 409.044 304.691 399.771 304.691 390.5C304.691 381.229 308.199 371.957 315.221 364.792ZM324.88 343.101C320.431 348.57 317.62 355.436 317.153 362.988C323.432 357.434 331.601 353.994 340.571 353.781C340.611 352.148 340.757 350.542 341.003 348.969C341.826 347.606 342.746 346.282 343.765 345.006C337.03 339.076 332.984 331.191 331.743 322.9C327.247 328.985 324.988 336.053 324.88 343.101ZM341.408 382.587C333.617 385.041 329.156 387.716 329.142 390.5C329.155 393.283 333.617 395.959 341.408 398.413C340.811 395.706 340.528 393.08 340.528 390.5C340.528 387.92 340.812 385.293 341.408 382.587ZM326.668 391.803C306.909 412.581 321.457 424.894 340.577 425.371C341.67 383.686 347.25 411.319 326.668 391.803ZM340.577 355.629C321.457 356.106 306.909 368.418 326.668 389.197C347.25 369.681 341.67 397.314 340.577 355.629ZM381.851 466.734C380.24 467.945 378.538 469.031 376.745 469.968C384.008 474.586 381.646 472.651 381.851 466.734ZM381.991 464.309C382.843 455.801 384.639 450.91 386.246 448.282C383.378 449.408 378.249 450.327 369.723 449.689C362.845 455.56 363.181 456.327 368.749 462.963C374.318 469.599 375.015 470.063 381.991 464.309ZM394.794 448.569C389.106 466.383 381.865 459.295 384.103 473.472C415.842 484.385 396.438 460.717 394.794 448.569ZM384.478 475.548C388.458 493.589 394.248 491.569 400.299 476.923C394.99 477.615 389.589 477.146 384.478 475.548ZM402.925 464.046C403.042 456.507 400.748 449.24 396.326 443.133C396.21 450.87 398.649 458.129 402.925 464.046ZM384.103 307.527C381.865 321.704 389.106 314.616 394.794 332.431C396.437 320.283 415.842 296.615 384.103 307.527ZM396.326 337.866C400.748 331.759 403.042 324.493 402.925 316.953C398.649 322.87 396.21 330.13 396.326 337.866ZM400.299 304.076C394.248 289.431 388.459 287.41 384.478 305.452C389.589 303.854 394.99 303.384 400.299 304.076ZM376.745 311.032C378.538 311.969 380.24 313.054 381.851 314.266C381.646 308.348 384.008 306.413 376.745 311.032ZM381.991 316.69C375.015 310.937 374.318 311.401 368.749 318.037C363.181 324.673 362.845 325.439 369.723 331.31C378.249 330.672 383.378 331.592 386.246 332.718C384.639 330.09 382.843 325.199 381.991 316.69ZM360.48 429.468C345.006 432.885 342.011 438.235 359.088 445.287C358.401 439.977 358.877 434.577 360.48 429.468ZM387.448 439.813C375.77 436.086 355.83 412.865 361.066 446.018C374.639 450.684 368.916 442.322 387.448 439.813ZM363.239 453.873C364.474 452.269 365.838 450.782 367.311 449.406C361.447 448.58 359.952 445.918 363.239 453.873ZM373.617 429.119C378.701 434.357 385.427 438.019 393.066 439.249C387.821 433.833 381.063 430.312 373.617 429.119ZM384.113 462.388C389.345 457.306 393.001 450.587 394.228 442.957C388.683 448.34 385.277 455.189 384.113 462.388ZM392.875 441.345C385.148 441.229 377.897 443.663 371.984 447.933C379.275 448.037 386.612 445.871 392.875 441.345ZM363.289 427.116C365.257 426.862 367.255 426.786 369.271 426.855C367.894 425.024 367.175 423.473 366.626 422.704C366.553 421.763 366.106 420.112 365.984 417.824C364.485 419.173 362.905 420.398 361.235 421.47C362.949 422.363 364.148 422.97 364.972 423.306C364.556 424.094 364.028 425.329 363.289 427.116ZM371.579 396.215C355.77 406.205 354.779 396.12 347.38 408.42C364.68 437.181 365.029 406.576 371.579 396.215ZM354.514 399.935C361.789 399.405 368.908 396.608 374.752 391.552C367.045 392.112 360.033 395.168 354.514 399.935ZM374.752 389.448C368.908 384.392 361.788 381.595 354.514 381.065C360.033 385.832 367.045 388.888 374.752 389.448ZM376.245 387.964C375.709 380.444 372.795 373.403 367.859 367.703C368.386 374.984 371.184 382.112 376.245 387.964ZM367.859 413.297C372.795 407.597 375.709 400.556 376.245 393.036C371.184 398.888 368.386 406.016 367.859 413.297ZM349.987 401.81C347.975 401.702 345.973 401.44 343.997 401.005C346.592 409.212 346.027 406.211 349.987 401.81ZM351.653 400.043C357.775 394.073 362.295 391.481 365.215 390.5C362.295 389.519 357.774 386.927 351.653 380.957C342.611 381.034 342.376 381.836 342.376 390.5C342.376 399.163 342.611 399.966 351.653 400.043ZM349.987 379.19C346.027 374.788 346.593 371.788 343.997 379.994C345.973 379.56 347.975 379.297 349.987 379.19ZM371.579 384.785C365.029 374.424 364.68 343.819 347.38 372.58C354.779 384.879 355.77 374.795 371.579 384.785ZM393.066 341.751C385.427 342.98 378.701 346.642 373.617 351.881C381.063 350.687 387.821 347.167 393.066 341.751ZM371.984 333.067C377.897 337.337 385.149 339.771 392.875 339.655C386.612 335.129 379.275 332.963 371.984 333.067ZM394.228 338.042C393.001 330.413 389.345 323.694 384.113 318.612C385.277 325.811 388.683 332.66 394.228 338.042ZM387.448 341.187C368.916 338.678 374.639 330.316 361.066 334.982C355.83 368.134 375.77 344.914 387.448 341.187ZM367.311 331.594C365.838 330.218 364.474 328.73 363.239 327.127C359.952 335.081 361.447 332.42 367.311 331.594ZM363.289 353.884C364.028 355.67 364.557 356.906 364.972 357.693C364.147 358.029 362.949 358.636 361.235 359.529C362.905 360.601 364.485 361.826 365.984 363.175C366.106 360.887 366.553 359.236 366.626 358.295C367.175 357.526 367.894 355.975 369.271 354.144C367.254 354.214 365.257 354.137 363.289 353.884ZM360.48 351.532C358.877 346.423 358.401 341.023 359.088 335.713C342.011 342.765 345.006 348.115 360.48 351.532ZM345.183 346.192C344.259 347.352 343.424 348.479 342.675 349.578C342.543 350.901 342.457 352.301 342.42 353.783C348.102 353.931 352.501 354.16 355.909 354.395C353.148 352.384 349.631 349.732 345.183 346.192ZM355.879 308.939C327.387 312.155 330.617 330.938 344.957 343.594C372.59 312.364 359.101 337.119 355.879 308.939ZM362.923 323.477C364.205 321.021 365.676 318.826 367.335 316.849C368.994 314.873 370.899 313.043 373.095 311.353C365.55 308.225 360.413 307.407 358.613 309.53C356.833 311.673 358.532 316.59 362.923 323.477ZM388.087 364.014C392.508 357.905 394.795 350.64 394.676 343.099C390.145 349.369 387.978 356.715 388.087 364.014ZM371.695 354.007C369.978 356.091 368.816 357.613 368.207 358.871C367.866 360.225 367.777 362.138 367.752 364.838C373.751 370.981 376.325 375.496 377.297 378.418C378.242 375.594 380.691 371.276 386.271 365.445C385.745 357.391 386.644 352.51 387.734 349.739C385.113 351.353 380.239 353.158 371.695 354.007ZM378.346 387.967C383.284 382.267 386.201 375.231 386.742 367.71C381.967 373.231 378.905 380.25 378.346 387.967ZM400.069 381.067C392.797 381.6 385.679 384.395 379.835 389.448C387.54 388.888 394.551 385.833 400.069 381.067ZM379.834 391.552C385.679 396.605 392.797 399.4 400.068 399.932C394.551 395.167 387.54 392.112 379.834 391.552ZM378.346 393.034C378.905 400.749 381.967 407.769 386.742 413.291C386.201 405.769 383.284 398.733 378.346 393.034ZM386.271 415.554C380.691 409.723 378.242 405.406 377.297 402.582C376.326 405.504 373.751 410.02 367.752 416.161C367.777 418.862 367.865 420.774 368.207 422.129C368.816 423.387 369.978 424.909 371.695 426.994C380.239 427.842 385.113 429.647 387.734 431.261C386.644 428.49 385.745 423.608 386.271 415.554ZM394.676 437.901C394.796 430.361 392.508 423.095 388.087 416.986C387.978 424.285 390.145 431.631 394.676 437.901ZM367.334 464.151C365.676 462.173 364.204 459.979 362.922 457.523C358.532 464.41 356.833 469.327 358.612 471.468C360.412 473.592 365.55 472.773 373.095 469.646C370.899 467.957 368.993 466.127 367.334 464.151ZM344.957 437.406C330.617 450.062 327.387 468.844 355.879 472.061C359.101 443.881 372.59 468.636 344.957 437.406ZM345.183 434.808C349.631 431.269 353.148 428.617 355.909 426.606C352.502 426.84 348.103 427.069 342.42 427.217C342.458 428.699 342.543 430.1 342.675 431.422C343.425 432.52 344.259 433.648 345.183 434.808ZM357.57 421.474C353.058 418.591 349.223 414.761 346.335 410.251C337.786 426.63 343.521 428.803 357.57 421.474ZM346.335 370.749C349.222 366.24 353.057 362.408 357.57 359.526C343.521 352.197 337.786 354.37 346.335 370.749ZM341.297 295.002C336.013 301.3 332.968 309.477 333.192 318.31C338.963 312.232 346.799 308.094 355.714 307.099C355.146 298.146 357.86 289.711 362.844 282.972C354.107 284.285 346.582 288.704 341.297 295.002ZM357.554 306.942C385.866 305.222 363.829 322.804 389.786 290.168C374.833 278.244 355.775 278.324 357.554 306.942ZM404.058 259.419C396.702 261.19 390.429 265.152 385.815 270.482C378.892 271.812 372.325 275.264 367.113 280.749C375.493 280.531 383.961 283.147 390.971 288.75C392.05 287.525 393.194 286.388 394.394 285.342C395.9 284.827 397.456 284.404 399.057 284.081C397.71 275.208 399.679 266.567 404.058 259.419ZM399.381 285.9C397.928 286.194 396.563 286.522 395.284 286.882C394.333 287.81 393.366 288.828 392.385 289.939C396.643 293.705 399.865 296.708 402.324 299.078C401.503 295.763 400.513 291.471 399.381 285.9ZM416.768 286.81C399.154 281.236 398.009 287.259 407.667 299.823C409.723 294.879 412.829 290.436 416.768 286.81ZM408.027 308.954C408.941 308.719 410.489 307.992 412.721 307.475C411.132 306.233 409.652 304.89 408.307 303.43C407.725 305.274 407.335 306.56 407.148 307.43C406.3 307.157 404.992 306.852 403.104 306.434C403.695 308.329 404.118 310.283 404.4 312.28C405.963 310.606 407.366 309.628 408.027 308.954ZM417.386 329.097C410.179 330.257 403.321 333.666 397.933 339.218C405.38 338.026 412.137 334.512 417.386 329.097ZM419.009 347.896C413.096 343.629 405.846 341.195 398.122 341.309C404.384 345.834 411.718 348 419.009 347.896ZM396.769 342.921C397.998 350.548 401.654 357.266 406.882 362.347C405.719 355.15 402.312 348.303 396.769 342.921ZM396.206 348.539C394.502 361.296 390.045 362.542 388.876 366.393C387.296 370.094 389.909 373.915 383.014 384.782C389.949 380.402 405.893 378.785 407.128 373.037C409.878 367.839 398.703 356.352 396.206 348.539ZM404.598 379.191C410.596 379.508 412.226 382.029 408.25 374.411C407.164 376.108 405.939 377.699 404.598 379.191ZM409.146 366.696C409.214 368.701 409.13 370.707 408.871 372.705C416.813 369.425 413.944 370.308 409.146 366.696ZM412.21 390.5C412.21 381.858 412.014 381.034 402.93 380.959C396.805 386.931 392.283 389.521 389.364 390.499L389.367 390.5L389.364 390.501C392.283 391.479 396.804 394.069 402.93 400.04C412.014 399.966 412.21 399.142 412.21 390.5ZM409.146 414.304C413.944 410.691 416.813 411.575 408.871 408.295C409.13 410.292 409.214 412.298 409.146 414.304ZM404.598 401.809C405.94 403.301 407.164 404.892 408.25 406.588C412.225 398.971 410.596 401.492 404.598 401.809ZM407.128 407.963C405.893 402.214 389.949 400.598 383.014 396.218C389.909 407.085 387.296 410.905 388.876 414.606C390.045 418.457 394.502 419.704 396.206 432.461C398.703 424.648 409.878 413.161 407.128 407.963ZM396.769 438.079C402.312 432.698 405.719 425.85 406.882 418.653C401.654 423.734 397.998 430.451 396.769 438.079ZM419.009 433.104C411.718 433 404.384 435.166 398.122 439.69C405.846 439.804 413.096 437.37 419.009 433.104ZM397.933 441.783C403.321 447.334 410.179 450.742 417.386 451.903C412.137 446.488 405.38 442.974 397.933 441.783ZM412.721 473.525C410.489 473.007 408.941 472.281 408.027 472.046C407.366 471.371 405.963 470.394 404.399 468.72C404.117 470.717 403.694 472.671 403.103 474.565C404.991 474.147 406.299 473.842 407.146 473.57C407.333 474.44 407.724 475.725 408.306 477.57C409.652 476.111 411.133 474.767 412.721 473.525ZM416.768 494.191C412.829 490.563 409.723 486.121 407.667 481.177C398.009 493.74 399.154 499.764 416.768 494.191ZM402.325 481.922C399.865 484.292 396.643 487.295 392.385 491.061C393.366 492.172 394.333 493.19 395.284 494.119C396.564 494.478 397.928 494.806 399.381 495.1C400.513 489.529 401.503 485.237 402.325 481.922ZM385.815 510.517C390.429 515.848 396.702 519.81 404.058 521.581C399.679 514.432 397.71 505.791 399.058 496.919C397.457 496.597 395.901 496.174 394.394 495.658C393.195 494.611 392.051 493.475 390.971 492.25C383.961 497.853 375.493 500.469 367.113 500.251C372.325 505.736 378.892 509.188 385.815 510.517ZM389.786 490.832C363.829 458.196 385.866 475.778 357.554 474.058C355.775 502.675 374.833 502.756 389.786 490.832ZM341.297 485.998C346.582 492.296 354.106 496.715 362.844 498.028C357.861 491.289 355.146 482.854 355.714 473.901C346.799 472.906 338.963 468.768 333.192 462.69C332.968 471.523 336.013 479.7 341.297 485.998ZM324.88 437.899C324.988 444.947 327.247 452.015 331.744 458.1C332.984 449.809 337.031 441.924 343.766 435.993C342.747 434.717 341.826 433.393 341.004 432.03C340.758 430.457 340.612 428.851 340.572 427.219C331.601 427.005 323.432 423.566 317.154 418.012C317.62 425.564 320.432 432.43 324.88 437.899ZM315.312 413.565C315.826 405.199 319.169 396.993 325.359 390.5C319.169 384.007 315.826 375.801 315.312 367.435C309.463 374.058 306.539 382.279 306.539 390.5C306.539 398.721 309.463 406.943 315.312 413.565Z" fill="url(#paint2_linear_126_96)"/>
<path d="M5.45527 387.967C26.8886 378.418 65.0907 311.406 112.975 319.679C85.4677 309.573 74.6951 277.455 67.4543 249.406C91.0309 232.573 119.928 214.894 147.496 224.833C105.496 200.39 119.306 124.501 109.025 103.409C107.303 99.8754 106.245 98.3495 106.475 97.9619C106.816 97.6685 108.503 98.4458 112.282 99.5277C134.839 105.99 207.178 79.2121 238.542 116.329C223.966 90.906 236.359 59.3777 248.842 33.236C277.722 35.4961 311.223 40.5283 325.952 65.8627C309.49 20.1419 368.85 -29.1163 374.531 -51.8817C375.485 -55.6959 375.654 -57.5446 376.079 -57.6941C376.529 -57.6991 377.322 -56.0193 379.521 -52.7616C385.717 -43.5813 405.168 -32.9404 424 -19.1576L424 -12.2822C405.982 -26.1752 386.337 -37.1759 378.199 -45.6724C365.627 -17.1201 283.033 55.6449 363.072 95.7112C382.585 88.698 369.172 95.611 361.288 90.2527C355.495 86.3222 353.312 71.1281 377.904 75.2202C334.965 54.9772 357.46 23.0254 389.839 63.7511C382.971 49.5325 372.644 24.4721 387.35 18.5163C367.483 8.57257 365.989 -5.20641 380.867 -19.6033C377.359 -19.6908 374.355 -21.7182 373.744 -24.775C372.446 -31.2667 376.228 -33.2112 380.479 -32.7406C384.312 -34.6363 388.531 -34.1031 389.532 -27.5589C390.003 -24.4772 387.873 -21.5444 384.607 -20.2621C403.512 -11.8221 406.821 1.63628 391.553 17.7755C407.409 18.3425 406.276 45.4238 404.685 61.1334C410.38 44.1 417.929 35.614 424 33.1823L424 35.9683C423.12 36.0774 422.396 36.2762 422.001 36.5037C411.692 42.4467 404.353 70.0135 402.336 80.3509C412.403 71.169 419.327 63.8535 424 57.9996L424 63.2472C422.728 64.7499 421.368 66.2719 419.824 67.8293C421.307 66.9922 422.686 66.3057 424 65.7111L424 68.6444C416.227 72.5206 407.715 79.1949 403.842 82.7871C412.349 82.3115 418.915 81.5032 424 80.4955L424 89.4537C416.867 89.7937 409.654 90.4619 402.39 91.5244C365.216 99.2081 332.781 116.133 307.265 134.428C278.662 147.378 247.787 167.006 222.546 195.358C199.008 225.139 185.04 258.952 177.253 289.369C163.666 317.676 152.631 352.557 151.52 390.5C152.631 428.444 163.666 463.325 177.253 491.631C185.04 522.048 199.008 555.862 222.546 585.643C247.788 613.995 278.662 633.622 307.265 646.573C332.781 664.869 365.216 681.793 402.391 689.476C409.655 690.539 416.868 691.207 424 691.547L424 700.506C418.915 699.498 412.349 698.689 403.842 698.214C407.715 701.806 416.227 708.48 424 712.356L424 715.289C422.686 714.695 421.307 714.009 419.824 713.172C421.368 714.728 422.728 716.251 424 717.754L424 723.001C419.328 717.147 412.403 709.832 402.336 700.65C404.353 710.987 411.692 738.554 422.001 744.497C422.396 744.724 423.12 744.924 424 745.033L424 747.819C417.929 745.387 410.38 736.901 404.685 719.868C406.277 735.578 407.409 762.659 391.553 763.226C406.821 779.365 403.512 792.824 384.607 801.264C387.873 802.545 390.003 805.478 389.532 808.56C388.531 815.105 384.312 815.638 380.479 813.741C376.228 814.212 372.446 812.268 373.744 805.777C374.355 802.719 377.359 800.692 380.867 800.604C365.989 786.207 367.483 772.429 387.35 762.485C372.644 756.529 382.971 731.468 389.839 717.25C357.46 757.976 334.965 726.024 377.904 705.781C353.312 709.873 355.495 694.679 361.288 690.748C369.172 685.39 382.585 692.303 363.072 685.29C283.033 725.356 365.626 798.121 378.199 826.673C386.337 818.177 405.982 807.176 424 793.283L424 800.157C405.168 813.94 385.717 824.581 379.522 833.761C377.322 837.019 376.53 838.698 376.079 838.693C375.655 838.544 375.485 836.695 374.531 832.881C368.85 810.115 309.49 760.857 325.952 715.136C311.223 740.471 277.722 745.503 248.842 747.763C236.359 721.622 223.966 690.093 238.542 664.67C207.178 701.787 134.839 675.009 112.282 681.471C108.503 682.553 106.816 683.33 106.475 683.037C106.246 682.649 107.304 681.123 109.025 677.589C119.306 656.498 105.496 580.608 147.496 556.165C119.928 566.105 91.0304 548.426 67.4543 531.593C74.6951 503.544 85.4677 471.426 112.975 461.32C65.0908 469.593 26.8886 402.581 5.45527 393.033C1.86477 391.432 0.0736567 390.943 1.95911e-05 390.499C0.0731029 390.056 1.86477 389.567 5.45527 387.967ZM383.125 -18.0126C383.116 -18.0192 383.1 -18.0193 383.076 -18.0115C383.052 -18.0098 383.036 -18.0048 383.03 -17.996C382.402 -18.5181 359.009 2.33611 389.232 16.8642C412.651 -7.12321 383.536 -18.7179 383.125 -18.0126ZM389.864 20.4852C372.161 25.0291 390.754 60.4773 399.882 77.2981C402.706 58.3695 408.054 18.6996 389.864 20.4852ZM365.143 46.5289C361.276 45.8518 335.578 55.0636 398.619 81.006C393.189 71.9813 376.864 48.588 365.143 46.5289ZM363.21 78.2903C359.895 79.9142 350.491 98.1673 398.038 83.8097C390.664 80.7042 370.839 74.5547 363.21 78.2903ZM356.069 98.288C343.991 91.5145 335.202 83.3147 329.729 73.9661C344.841 116.349 309.86 116.602 356.069 98.288ZM383.03 798.996C383.036 799.005 383.052 799.01 383.076 799.011C383.1 799.019 383.116 799.019 383.125 799.012C383.536 799.717 412.651 788.122 389.219 764.133C359.008 778.664 382.402 799.517 383.03 798.996ZM389.864 760.515C408.054 762.3 402.706 722.63 399.882 703.702C390.754 720.523 372.161 755.971 389.864 760.515ZM365.143 734.471C376.863 732.412 393.189 709.018 398.619 699.994C335.579 725.937 361.276 735.148 365.143 734.471ZM363.211 702.71C370.84 706.445 390.664 700.296 398.038 697.19C350.491 682.833 359.895 701.086 363.211 702.71ZM356.069 682.712C309.86 664.398 344.841 664.651 329.729 707.034C335.202 697.685 343.991 689.486 356.069 682.712ZM298.898 119.936C263.208 116.859 266.522 141.834 302.554 126.269C334.05 102.847 314.077 87.4899 298.898 119.936ZM285.312 96.4055C260.387 82.3209 255.116 103.898 296.38 115.576C306.899 74.0016 285.577 67.7773 285.312 96.4055ZM288.407 134.822C268.512 139.814 261.703 117.496 290.198 117.081C250.684 106.542 257.772 81.5962 283.198 92.7431C286.257 65.1508 311.405 71.4852 300.775 110.975C315.381 86.5044 331.305 103.561 317.035 118.295C335.875 106.257 332.801 58.5483 288.512 45.4758C277.437 41.7596 264.665 40.1037 252.201 39.0578C246.876 50.3746 241.924 62.264 239.605 73.712C228.782 118.603 268.561 145.119 288.407 134.822ZM243.67 123.652C249.03 133.066 251.736 144.778 251.564 158.624C290.529 127.763 272.819 157.931 243.67 123.652ZM230.674 154.81C223.625 159.549 219.038 179.793 218.041 187.731C254.248 153.733 233.738 152.75 230.674 154.81ZM202.202 140.603C198.125 151.783 210.222 177.618 215.322 186.833C224.375 119.266 203.549 136.915 202.202 140.603ZM165.091 184.83C161.693 186.797 147.928 210.372 212.896 189.724C202.935 186.301 175.392 178.874 165.091 184.83ZM184.026 210.404C182.529 213.779 187.059 233.807 214.253 192.246C206.608 194.606 187.469 202.638 184.026 210.404ZM190.242 220.804C183.278 221.517 171.84 211.28 193.308 198.608C147.403 210.701 144.097 171.765 195.078 182.149C180.678 175.673 156.659 163.112 164.095 149.098C142.484 154.25 132.484 144.655 134.627 124.063C131.883 126.251 128.278 126.629 125.846 124.68C120.678 120.542 122.326 116.621 125.885 114.25C127.602 110.333 131.177 108.03 136.15 112.4C138.492 114.458 138.746 118.073 137.068 121.155C156.975 115.468 168.161 123.651 166.839 145.828C179.35 136.07 195.889 157.544 204.769 170.601C185.689 122.197 224.608 118.692 220.67 166C229.422 142.657 241.489 152.144 241.996 159.127C242.694 168.633 230.002 176.793 245.831 163.401C251.153 74.052 146.839 109.197 115.827 105.809C124.548 135.763 108.051 244.594 195.118 223.839C205.558 205.923 199.726 219.841 190.242 220.804ZM211.48 186.072C201.476 169.757 180.074 135.93 167.287 148.99C156.646 163.85 193.675 179.053 211.48 186.072ZM137.378 123.831C137.368 123.831 137.356 123.842 137.342 123.863C137.324 123.88 137.315 123.894 137.316 123.904C136.5 123.908 131.984 154.92 164.475 146.622C166.998 113.194 137.241 123.026 137.378 123.831ZM191.409 230.313C177.803 232.888 165.8 232.256 155.598 228.613C194.418 251.366 167.783 274.045 191.409 230.313ZM161.529 283.646C132.212 304.23 150.804 321.231 168.4 286.147C177.472 247.96 152.302 249.033 161.529 283.646ZM163.061 301.793C151.029 318.405 131.467 305.685 153.029 287.051C115.985 304.377 105.38 280.71 132.022 272.906C116.63 249.803 139.966 238.491 157.206 275.574C152.667 247.44 175.829 250.27 174.368 270.73C181.062 249.398 148.041 214.827 105.711 233.281C94.8389 237.553 83.99 244.494 73.7705 251.704C76.9651 263.797 80.8136 276.088 86.3961 286.349C106.96 327.695 154.478 322.437 163.061 301.793ZM156.797 281.924C138.131 243.315 117.797 252.253 135.996 274.353C107.849 279.585 117.681 299.502 156.797 281.924ZM121.611 321.991C131.768 325.758 141.369 332.99 150.137 343.709C160.148 295.021 165.974 329.514 121.611 321.991ZM150.137 437.292C141.369 448.01 131.768 455.242 121.611 459.009C165.974 451.486 160.148 485.979 150.137 437.292ZM168.4 494.853C150.804 459.769 132.211 476.77 161.529 497.354C152.302 531.966 177.472 533.04 168.4 494.853ZM155.598 552.387C165.8 548.743 177.803 548.112 191.409 550.687C167.783 506.955 194.418 529.634 155.598 552.387ZM215.323 594.167C210.222 603.382 198.125 629.217 202.202 640.397C203.549 644.085 224.375 661.733 215.323 594.167ZM214.253 588.754C187.059 547.193 182.53 567.221 184.026 570.596C187.469 578.362 206.608 586.394 214.253 588.754ZM212.896 591.276C147.928 570.627 161.692 594.202 165.09 596.17C175.392 602.125 202.935 594.698 212.896 591.276ZM218.041 593.27C219.038 601.208 223.625 621.451 230.674 626.19C233.738 628.25 254.248 627.267 218.041 593.27ZM251.564 622.376C251.736 636.223 249.03 647.934 243.671 657.349C272.819 623.069 290.529 653.237 251.564 622.376ZM302.554 654.73C266.522 639.165 263.208 664.14 298.897 661.064C314.078 693.509 334.05 678.152 302.554 654.73ZM285.312 684.594C285.577 713.223 306.899 706.998 296.38 665.424C255.116 677.102 260.387 698.679 285.312 684.594ZM239.606 707.288C241.924 718.737 246.877 730.626 252.202 741.943C264.665 740.897 277.438 739.241 288.512 735.525C332.801 722.453 335.875 674.744 317.035 662.706C331.306 677.44 315.381 694.496 300.775 670.026C311.405 709.516 286.257 715.85 283.198 688.257C257.773 699.404 250.684 674.458 290.198 663.92C261.703 663.505 268.512 641.186 288.408 646.178C268.561 635.88 228.782 662.396 239.606 707.288ZM115.826 675.191C146.839 671.804 251.152 706.948 245.831 617.6C230.001 604.208 242.694 612.367 241.996 621.874C241.488 628.856 229.421 638.343 220.669 615.001C224.607 662.308 185.689 658.803 204.769 610.399C195.889 623.456 179.349 644.93 166.839 635.172C168.16 657.35 156.975 665.532 137.068 659.846C138.746 662.927 138.492 666.543 136.15 668.601C131.177 672.971 127.602 670.668 125.884 666.751C122.326 664.379 120.678 660.459 125.845 656.32C128.278 654.371 131.883 654.749 134.626 656.937C132.483 636.346 142.484 626.75 164.094 631.903C156.658 617.888 180.677 605.328 195.078 598.851C144.096 609.235 147.403 570.299 193.307 582.393C171.839 569.721 183.278 559.484 190.242 560.197C199.725 561.16 205.557 575.077 195.117 557.162C108.051 536.406 124.547 645.237 115.826 675.191ZM211.48 594.928C193.676 601.946 156.646 617.149 167.287 632.01C180.074 645.07 201.476 611.243 211.48 594.928ZM164.468 634.368C131.984 626.08 136.5 657.092 137.316 657.095C137.315 657.106 137.324 657.12 137.342 657.137C137.356 657.158 137.368 657.169 137.378 657.17C137.241 657.974 166.998 667.807 164.468 634.368ZM86.3956 494.652C80.8131 504.912 76.9646 517.204 73.7699 529.296C83.99 536.506 94.8384 543.447 105.71 547.719C148.041 566.174 181.062 531.602 174.367 510.271C175.828 530.731 152.666 533.561 157.206 505.427C139.965 542.51 116.629 531.197 132.022 508.094C105.38 500.29 115.984 476.624 153.028 493.95C131.467 475.316 151.028 462.596 163.061 479.208C154.478 458.563 106.96 453.305 86.3956 494.652ZM156.797 499.076C117.681 481.498 107.849 501.415 135.996 506.647C117.797 528.747 138.132 537.685 156.797 499.076ZM148.815 429.948C145.298 409.514 149.776 423.924 143.131 430.758C138.253 435.78 122.911 435.291 131.211 411.784C103.819 450.555 76.2592 422.853 121.989 398.038C106.794 402.333 80.3209 408.15 77.0089 392.634C63.7659 410.472 49.937 409.55 38.3427 392.399C37.6479 395.838 35.1294 398.445 32.0122 398.516C25.3938 398.667 24.1358 394.605 25.3372 390.5C24.1358 386.396 25.3938 382.334 32.0122 382.485C35.1294 382.556 37.6473 385.162 38.3427 388.602C49.9375 371.45 63.7659 370.528 77.0089 388.366C80.3204 372.85 106.794 378.668 121.989 382.963C76.2592 358.148 103.82 330.446 131.211 369.217C122.911 345.71 138.253 345.221 143.131 350.243C149.776 357.077 145.298 371.487 148.815 351.053C95.4591 279.188 38.1417 373.161 12.2065 390.501C38.1417 407.839 95.4591 501.813 148.815 429.948ZM140.507 388.613C104.011 331.035 99.4017 357.941 100.74 361.632C104.803 372.817 130.676 384.832 140.507 388.613ZM100.74 419.368C99.4011 423.059 104.011 449.965 140.507 392.387C130.676 396.168 104.803 408.183 100.74 419.368ZM143.167 387.553C149.05 338.236 132.707 350.666 131.684 354.213C129.329 362.375 138.827 380.831 143.167 387.553ZM143.167 393.447C138.827 400.169 129.33 418.624 131.684 426.787C132.706 430.333 149.05 442.764 143.167 393.447ZM137.074 390.5C118.924 384.432 80.7854 372.276 79.3847 390.5C80.7849 408.723 118.924 396.568 137.074 390.5ZM40.2939 390.5C40.2912 390.524 40.2939 390.541 40.3016 390.548C39.6788 391.075 56.1535 417.735 75.7094 390.494C56.1535 363.265 39.6793 389.924 40.3016 390.452C40.2933 390.459 40.2906 390.475 40.2939 390.5Z" fill="url(#paint3_linear_126_96)"/>
</g>
<defs>
<linearGradient id="paint0_linear_126_96" x1="153.979" y1="390.5" x2="424" y2="390.5" gradientUnits="userSpaceOnUse">
<stop stop-color="#C47372" stop-opacity="0.08"/>
<stop offset="1" stop-color="#C47372" stop-opacity="0.3"/>
</linearGradient>
<linearGradient id="paint1_linear_126_96" x1="153.979" y1="390.5" x2="424" y2="390.5" gradientUnits="userSpaceOnUse">
<stop stop-color="#C47372" stop-opacity="0.08"/>
<stop offset="1" stop-color="#C47372" stop-opacity="0.3"/>
</linearGradient>
<linearGradient id="paint2_linear_126_96" x1="153.979" y1="390.5" x2="424" y2="390.5" gradientUnits="userSpaceOnUse">
<stop stop-color="#C47372" stop-opacity="0.08"/>
<stop offset="1" stop-color="#C47372" stop-opacity="0.3"/>
</linearGradient>
<linearGradient id="paint3_linear_126_96" x1="153.979" y1="390.5" x2="424" y2="390.5" gradientUnits="userSpaceOnUse">
<stop stop-color="#C47372" stop-opacity="0.08"/>
<stop offset="1" stop-color="#C47372" stop-opacity="0.3"/>
</linearGradient>
</defs>
</svg>
