<svg width="752" height="1185" viewBox="0 0 752 1185" fill="none" xmlns="http://www.w3.org/2000/svg">
<path d="M209.372 541.75C207.156 535.11 197.944 530.633 191.81 537.504C200.926 527.25 184.476 513.305 175.938 524.429C181.737 516.882 174.776 506.366 165.563 508.172C163.295 508.618 161.846 509.202 160.928 509.767C161.083 508.711 161.043 507.168 160.555 504.943C158.531 495.677 146.056 493.685 141.522 501.966C149.125 488.164 130.747 483.939 123.955 490.161C126.12 479.078 108.47 472.964 104.093 484.978C106.265 478.947 103.027 474.286 98.555 472.347C94.1935 470.167 88.5436 470.682 85.3184 476.224C91.7091 465.148 75.6802 455.558 68.5815 464.341C68.9817 455.138 53.932 443.775 48.2463 458.471C51.6765 449.674 42.1306 441.398 33.7321 445.803C31.7139 446.86 30.5061 447.821 29.7966 448.618C29.6397 447.551 29.1561 446.067 28.0395 444.042C23.5022 435.824 10.9716 437.251 8.91767 446.544C11.9516 432.853 -9.30515 429.217 -11.301 442.79C-9.98037 433.675 -19.3306 429.496 -25.8424 432.066C-31.8081 428.405 -41.7427 430.896 -42.0247 440.103C-41.633 426.389 -63.1986 426.279 -62.5879 440.289C-62.997 430.78 -75.0898 427.199 -80.9854 434.505C-82.4362 436.304 -83.1699 437.682 -83.51 438.705C-84.0705 437.797 -85.0924 436.64 -86.8971 435.25C-94.4038 429.453 -105.24 435.946 -103.391 445.204C-106.439 429.744 -123.232 438.321 -124.436 447.454C-129.902 437.571 -147.352 444.233 -142.982 456.25C-145.196 450.233 -150.671 448.744 -155.345 450.133C-160.087 451.267 -164.084 455.294 -162.992 461.611C-165.216 449.02 -183.659 451.976 -183.452 463.267C-189.061 455.959 -207.894 456.929 -202.803 471.841C-205.83 462.899 -218.462 462.694 -222.064 471.467C-222.932 473.574 -223.238 475.087 -223.27 476.154C-224.076 475.438 -225.401 474.612 -227.557 473.778C-236.316 470.4 -244.998 479.547 -240.598 487.986C-247.074 475.549 -265.695 486.426 -258.499 498.106C-263.346 490.275 -273.196 493.084 -276.532 499.237C-283.455 500.268 -289.464 508.562 -283.763 515.796C-288.071 510.354 -294.436 511.202 -298.457 514.696L-297.605 515.549C-291.418 509.901 -276.859 519.455 -285.275 527.879L-281.636 531.518C-279.135 529.418 -276.65 527.303 -274.051 525.284C-276.419 527.816 -278.482 530.343 -280.299 532.855L-276.558 536.595C-272.175 530.912 -266.83 525.83 -260.859 521.621C-232.147 501.652 -189.616 501.63 -173.144 549.544C-170.175 560.39 -168.398 569.999 -171.896 583.36C-180.413 565.062 -202.791 565.276 -221.66 568.283C-224.545 568.747 -219.159 563.497 -223.49 557.311C-226.343 553.237 -228.746 554.316 -227.586 553.504C-216.631 545.834 -228.205 529.195 -239.224 536.91C-239.541 537.132 -243.714 521.796 -254.942 529.183C-254.94 529.214 -255.065 529.357 -255.281 529.595C-255.575 529.714 -255.75 529.781 -255.778 529.769C-266.558 537.792 -253.574 546.959 -253.892 547.181C-256.927 549.307 -258.194 552.102 -258.274 554.879L-255.376 557.777C-256.768 553.81 -255.542 549.038 -249.62 547.859C-238.757 547.93 -238.262 558.119 -243.622 561.872C-245.897 563.465 -248.063 563.724 -249.943 563.211L-247.463 565.691C-245.776 565.565 -244.023 565.014 -242.278 563.792C-241.119 562.98 -242.954 564.869 -240.102 568.944C-235.771 575.128 -228.996 571.863 -230.418 574.416C-231.402 576.186 -232.361 578.013 -233.288 579.866L-229.703 583.451C-228.02 579.968 -226.272 576.682 -224.774 573.743C-224.648 573.727 -224.522 573.711 -224.397 573.696C-224.339 573.582 -224.281 573.47 -224.223 573.356C-210.239 571.637 -188.873 567.709 -178.463 581.387C-170.408 591.883 -180.767 606.348 -194.846 615.898C-195.315 616.238 -195.797 616.554 -196.274 616.881L-192.673 620.481C-192.461 620.281 -192.287 620.09 -192.054 619.886C-181.504 614.118 -179.421 621.728 -182.973 630.181L-179.583 633.572C-179.247 632.512 -178.958 631.41 -178.739 630.256C-177.642 624.411 -177.934 620.839 -178.484 618.803C-177.005 620.299 -174.083 622.357 -168.532 624.424C-157.868 628.493 -145.233 625.177 -138.716 613.89C-135.456 608.715 -134.517 605.206 -134.37 603.156C-133.578 605.038 -131.638 608.086 -127.16 612.275C-122.286 616.692 -116.229 618.836 -110.178 618.702C-104.871 615.793 -100.698 610.908 -98.685 604.645C-96.9006 598.778 -96.7452 595.169 -96.9989 593.143C-95.8476 594.846 -93.2793 597.415 -87.8692 600.266C-76.5817 606.782 -63.9815 603.337 -56.7806 594.481C-53.0068 589.915 -51.5054 586.672 -50.9722 584.636C-50.431 586.675 -48.8975 589.914 -45.0249 594.427C-43.5841 596.1 -42.0396 597.523 -40.4211 598.707C-38.6219 597.822 -36.8538 596.689 -35.1439 595.292C-30.547 591.52 -28.4737 588.596 -27.587 586.683C-27.4157 588.779 -26.5002 592.235 -23.576 597.386C-18.0223 607.357 -6.21206 612.939 6.0351 608.482C11.8583 606.613 14.8331 604.53 16.263 603.053C15.6602 605.004 15.1876 608.584 15.9253 614.672C16.8195 621.189 20.081 626.725 24.802 630.511C30.7379 631.694 37.0745 630.634 42.6415 627.13C47.7796 623.783 50.2188 621.118 51.3264 619.403C51.1139 621.447 51.4296 625.065 53.7422 630.728C58.2001 642.976 70.0671 648.435 81.2751 646.28C87.1008 645.209 90.3364 643.689 92.0527 642.472C91.1575 644.382 90.249 647.849 90.315 653.796C90.3438 656.003 90.6128 658.085 91.0905 660.032C93.0382 660.511 95.1204 660.78 97.3278 660.809C103.274 660.875 106.742 659.966 108.652 659.071C107.435 660.787 105.915 664.023 104.844 669.848C102.688 681.056 108.148 692.923 120.396 697.382C126.057 699.693 129.676 700.01 131.72 699.797C130.005 700.905 127.34 703.344 123.993 708.482C120.49 714.049 119.43 720.386 120.612 726.322C124.399 731.043 129.935 734.304 136.451 735.198C142.539 735.936 146.12 735.463 148.071 734.861C146.594 736.291 144.511 739.266 142.642 745.089C138.185 757.337 143.766 769.147 153.738 774.701C158.89 777.625 162.345 778.54 164.442 778.711C162.529 779.599 159.604 781.672 155.832 786.269C154.434 787.978 153.302 789.746 152.416 791.546C153.601 793.164 155.023 794.709 156.696 796.149C161.208 800.021 164.448 801.555 166.487 802.096C164.452 802.629 161.208 804.131 156.642 807.905C147.786 815.105 144.341 827.705 150.857 838.993C153.708 844.403 156.277 846.972 157.98 848.123C155.954 847.869 152.345 848.024 146.478 849.809C140.215 851.822 135.33 855.995 132.421 861.302C132.287 867.353 134.431 873.409 138.848 878.283C143.037 882.762 146.085 884.702 147.967 885.494C145.916 885.64 142.408 886.58 137.233 889.84C125.946 896.358 122.63 908.992 126.699 919.656C128.766 925.207 130.824 928.129 132.321 929.609C130.284 929.059 126.712 928.766 120.867 929.863C119.713 930.082 118.612 930.371 117.552 930.707L120.942 934.097C129.395 930.545 137.005 932.627 131.237 943.178C131.032 943.41 130.841 943.586 130.642 943.797L134.241 947.397C134.568 946.92 134.885 946.439 135.224 945.97C144.775 931.89 159.239 921.532 169.736 929.586C183.414 939.996 179.485 961.362 177.766 975.346C177.653 975.405 177.54 975.463 177.427 975.521C177.412 975.646 177.396 975.772 177.38 975.898C174.441 977.396 171.155 979.145 167.672 980.827L171.257 984.412C173.111 983.485 174.937 982.526 176.708 981.542C179.26 980.119 175.995 986.896 182.18 991.226C186.255 994.079 188.143 992.243 187.331 993.403C186.11 995.147 185.558 996.901 185.433 998.587L187.913 1001.07C187.4 999.188 187.659 997.022 189.251 994.747C193.005 989.387 203.194 989.882 203.265 1000.75C202.086 1006.67 197.314 1007.89 193.346 1006.5L196.244 1009.4C199.022 1009.32 201.817 1008.05 203.943 1005.02C204.165 1004.7 213.332 1017.68 221.355 1006.9C221.343 1006.87 221.412 1006.7 221.533 1006.4C221.768 1006.19 221.909 1006.06 221.941 1006.07C229.327 994.839 213.991 990.666 214.213 990.349C221.929 979.33 205.29 967.756 197.619 978.71C196.807 979.87 197.886 977.467 193.812 974.614C187.627 970.284 182.377 975.669 182.84 972.785C185.847 953.915 186.061 931.538 167.763 923.02C181.124 919.522 190.734 921.299 201.579 924.269C249.494 940.741 249.471 983.272 229.502 1011.98C225.293 1017.95 220.211 1023.3 214.528 1027.68L218.268 1031.42C220.78 1029.61 223.307 1027.54 225.839 1025.17C223.82 1027.77 221.705 1030.26 219.605 1032.76L223.244 1036.4C231.668 1027.98 241.221 1042.54 235.574 1048.73L236.426 1049.58C239.921 1045.56 240.769 1039.19 235.327 1034.89C242.561 1040.59 250.854 1034.58 251.885 1027.66C258.039 1024.32 260.848 1014.47 253.016 1009.62C264.697 1016.82 275.575 998.198 263.137 991.722C271.576 996.122 280.724 987.44 277.345 978.681C276.512 976.526 275.685 975.2 274.969 974.394C276.036 974.362 277.549 974.056 279.655 973.188C288.429 969.586 288.224 956.954 279.282 953.927C294.193 959.018 295.163 940.186 287.856 934.576C299.147 934.783 302.103 916.34 289.512 914.116C295.829 915.208 299.856 911.211 300.989 906.468C302.379 901.795 300.89 896.32 294.873 894.106C306.89 898.476 313.552 881.026 303.669 875.56C312.801 874.356 321.379 857.562 305.919 854.514C315.177 856.365 321.67 845.527 315.873 838.021C314.483 836.216 313.326 835.195 312.417 834.634C313.44 834.294 314.819 833.56 316.618 832.109C323.923 826.213 320.342 814.12 310.834 813.711C324.843 814.322 324.734 792.757 311.02 793.148C320.226 792.866 322.718 782.932 319.056 776.965C321.626 770.454 317.447 761.103 308.332 762.424C321.905 760.428 318.269 739.172 304.578 742.205C313.871 740.151 315.298 727.621 307.08 723.083C305.055 721.966 303.57 721.483 302.504 721.326C303.301 720.616 304.263 719.409 305.319 717.391C309.724 708.992 301.447 699.446 292.651 702.877C307.347 697.191 295.985 682.141 286.781 682.541C295.564 675.443 285.974 659.414 274.898 665.805C280.44 662.579 280.955 656.929 278.775 652.568C276.835 648.095 272.175 644.858 266.144 647.03C278.158 642.654 272.044 625.003 260.961 627.169C267.182 620.375 262.958 601.998 249.156 609.601C257.437 605.067 255.445 592.592 246.179 590.568C243.954 590.079 242.412 590.04 241.355 590.195C241.92 589.276 242.504 587.828 242.95 585.56C244.756 576.348 234.24 569.386 226.694 575.185C237.818 566.648 223.873 550.198 213.619 559.314C220.49 553.179 216.012 543.967 209.372 541.75ZM-228.931 551.585C-234.292 555.338 -243.697 551.389 -240.048 541.156C-233.415 530.23 -218.752 544.457 -228.931 551.585ZM-255.956 542.219C-258.969 537.915 -257.235 533.592 -254.019 531.392C-250.85 529.122 -246.197 528.971 -243.183 533.275C-240.243 537.479 -241.961 541.821 -245.15 544.057C-248.343 546.29 -253.01 546.419 -255.956 542.219ZM-227.058 569.272C-227.154 569.345 -227.25 569.416 -227.345 569.485C-227.442 569.551 -227.542 569.617 -227.643 569.682C-233.069 573.482 -240.66 568.494 -239.475 561.775C-239.003 559.103 -237.933 557.353 -236.556 556.329C-235.123 555.386 -233.112 554.978 -230.441 555.449C-223.722 556.635 -221.631 565.473 -227.058 569.272ZM219.731 1005.14C217.53 1008.36 213.208 1010.09 208.904 1007.08C204.703 1004.13 204.833 999.465 207.066 996.272C209.302 993.083 213.644 991.365 217.848 994.305C222.151 997.318 222.001 1001.97 219.731 1005.14ZM199.538 980.054C206.665 969.875 220.893 984.537 209.967 991.171C199.734 994.819 195.784 985.414 199.538 980.054ZM195.672 981.564C196.144 984.236 195.736 986.247 194.792 987.679C193.768 989.056 192.018 990.127 189.346 990.598C182.627 991.783 177.639 984.193 181.439 978.766C181.504 978.665 181.57 978.565 181.636 978.468C181.704 978.373 181.776 978.278 181.849 978.182C185.65 972.754 194.488 974.845 195.672 981.564ZM183.073 522.402C199.671 520.584 191.158 547.889 178.677 537.378C173.033 532.73 175.627 523.23 183.073 522.402ZM182.952 541.047C186.128 541.321 189.449 540.133 191.776 537.549C184.811 545.451 195.255 551.686 182.952 541.047ZM213.573 559.346C210.989 561.673 209.801 564.995 210.075 568.17C199.436 555.867 205.671 566.311 213.573 559.346ZM167.467 528.568C170.654 528.616 173.791 527.2 175.909 524.466C169.475 532.936 180.473 538.205 167.467 528.568ZM226.656 575.213C223.923 577.332 222.507 580.468 222.554 583.655C212.917 570.65 218.186 581.647 226.656 575.213ZM162.765 525.223C156.884 521.152 158.849 511.389 165.924 509.999C182.362 506.759 176.603 534.477 162.765 525.223ZM257.131 662.661C276.672 693.178 290.045 728.181 295.259 766.092C278.441 710.799 222.726 725.971 229.089 720.444C245.013 706.601 252.62 686.005 250.368 665.815C236.349 651.111 215.682 643.701 194.842 647C186.517 648.323 233.954 615.395 202.407 566.969C228.096 595.332 246.314 628.075 257.131 662.661ZM249.125 609.618C246.123 611.287 244.238 614.229 243.794 617.413C236.197 602.984 239.709 614.751 249.125 609.618ZM266.113 647.044C263.05 648.161 260.655 650.612 259.617 654.01C254.204 638.318 255.915 650.724 266.113 647.044ZM265.355 666.318C268.626 667.707 272.042 667.448 274.867 665.82C265.494 671.266 273.897 680.551 265.355 666.318ZM281.694 684.923C280.349 686.366 279.271 688.506 278.668 691.558C272.521 678.207 274.32 686.37 281.694 684.923ZM283.221 701.962C285.944 703.67 289.41 704.116 292.619 702.889C282.634 706.803 289.391 717.056 283.221 701.962ZM299.373 722.313C299.764 722.279 294.534 723.283 292.482 728.84C288.014 713.244 289.202 725.366 299.373 722.313ZM295.428 739.932C297.839 742.017 301.151 742.949 304.532 742.216C294.158 744.569 299.196 755.674 295.428 739.932ZM299.268 759.445C301.524 761.696 304.833 762.921 308.276 762.437C297.861 764.014 301.854 775.504 299.268 759.445ZM310.963 793.146C307.488 793.267 304.443 795.048 302.612 797.658C302.369 781.393 300.433 793.401 310.963 793.146ZM291.835 779.347C294.773 814.196 273.527 851.041 223.796 841.348C212.919 838.497 203.709 835.232 193.887 825.522C213.992 827.295 224.996 807.808 231.826 789.964C232.867 787.234 234.721 794.523 242.242 793.865C247.198 793.432 247.464 790.811 247.588 792.221C248.753 805.543 268.95 803.839 267.777 790.439C267.743 790.054 283.112 794.108 282.328 780.691C282.299 780.677 282.239 780.497 282.14 780.191C282.185 779.877 282.213 779.692 282.239 779.674C280.681 766.326 266.251 772.987 266.217 772.602C265.045 759.201 244.859 761.031 246.024 774.354C246.148 775.764 245.43 773.229 240.475 773.662C232.953 774.32 232.393 781.821 230.894 779.313C221.068 762.926 206.848 745.646 187.356 750.883C195.343 739.615 203.847 734.8 214.063 730.103C261.356 711.922 288.677 744.517 291.835 779.347ZM193.088 754.645C210.258 753.826 220.982 772.72 228.654 784.537C228.604 784.655 228.555 784.772 228.505 784.888C228.574 784.995 228.643 785.102 228.712 785.208C223.209 798.178 215.928 818.647 198.878 820.823C185.759 822.55 178.413 806.348 177.182 789.379C175.449 772.454 179.87 755.222 193.088 754.645ZM169.651 733.195C184.564 737.629 192.072 736.553 194.549 735.809C192.399 737.04 186.805 741.419 179.787 754.07C164.173 762.951 177.605 766.407 160.066 734.77C163.355 734.483 166.291 734.086 169.651 733.195ZM161.07 729.96C160.607 730.007 160.213 730.101 159.736 730.139C157.918 730.299 153.965 726.662 161.07 729.96ZM16.3524 591.056C-15.2863 573.517 -11.8297 586.95 -2.94818 571.335C9.70309 564.318 14.0824 558.724 15.3132 556.573C14.569 559.051 13.4932 566.559 17.9272 581.471C17.0361 584.831 16.6403 587.768 16.3524 591.056ZM21.1623 590.053C24.4614 597.157 20.8237 593.204 20.9831 591.387C21.0208 590.909 21.1146 590.515 21.1623 590.053ZM-38.2559 573.94C-55.2246 572.709 -71.4272 565.362 -69.6999 552.244C-67.5233 535.194 -47.055 527.913 -34.0855 522.41C-33.9777 522.479 -33.872 522.548 -33.7653 522.617C-33.6486 522.568 -33.5318 522.518 -33.4142 522.468C-21.597 530.14 -2.70449 540.864 -3.52171 558.034C-4.09913 571.253 -21.331 575.674 -38.2559 573.94ZM-46.5348 448.511C-43.9257 446.68 -42.1448 443.635 -42.0232 440.16C-42.2789 450.69 -30.2706 448.753 -46.5348 448.511ZM-28.225 459.287C6.60555 462.445 39.2005 489.767 21.0194 537.059C16.3227 547.276 11.5078 555.78 0.239688 563.766C5.47657 544.274 -11.8035 530.054 -28.1908 520.229C-30.6985 518.73 -23.1976 518.17 -22.5393 510.648C-22.1064 505.693 -24.6405 504.975 -23.2305 505.099C-9.90844 506.264 -8.07892 486.078 -21.4789 484.906C-21.8647 484.871 -15.2034 470.441 -28.5522 468.884C-28.5706 468.909 -28.7587 468.937 -29.077 468.982C-29.3784 468.884 -29.5562 468.823 -29.5696 468.795C-42.9849 468.012 -38.9312 483.38 -39.317 483.345C-52.717 482.173 -54.4208 502.369 -41.0988 503.535C-39.6882 503.658 -42.3092 503.925 -42.7426 508.88C-43.4004 516.402 -36.1111 518.256 -38.8412 519.296C-56.6857 526.127 -76.172 537.13 -74.3996 557.236C-84.1093 547.414 -87.3747 538.204 -90.2259 527.326C-99.9192 477.596 -63.0744 456.35 -28.225 459.287ZM88.4617 493.991C123.047 504.808 155.79 523.026 184.154 548.716C135.728 517.169 102.8 564.605 104.122 556.28C107.421 535.44 100.011 514.773 85.308 500.754C65.1172 498.502 44.5221 506.109 30.6788 522.033C25.152 528.397 40.3239 472.682 -14.9696 455.863C22.9411 461.078 57.944 474.451 88.4617 493.991ZM-11.3149 442.847C-11.7985 446.289 -10.5737 449.599 -8.3222 451.855C-24.3813 449.268 -12.8918 453.261 -11.3149 442.847ZM8.90621 446.592C8.1744 449.972 9.10584 453.284 11.1905 455.696C-4.55182 451.926 6.55389 456.964 8.90621 446.592ZM22.2833 458.641C27.8399 456.589 28.8439 451.36 28.8101 451.75C25.7563 461.921 37.8782 463.108 22.2833 458.641ZM48.2338 458.505C47.0065 461.713 47.4529 465.178 49.1607 467.903C34.0663 461.732 44.3196 468.488 48.2338 458.505ZM59.565 472.455C62.6168 471.851 64.7572 470.774 66.1999 469.429C64.7527 476.802 72.9153 478.602 59.565 472.455ZM85.303 476.255C83.675 479.081 83.4154 482.497 84.805 485.767C70.5719 477.226 79.8566 485.629 85.303 476.255ZM97.1122 491.506C100.511 490.468 102.961 488.074 104.079 485.01C100.399 495.208 112.804 496.918 97.1122 491.506ZM133.709 507.328C136.893 506.885 139.835 504.999 141.504 501.997C136.371 511.413 148.138 514.925 133.709 507.328ZM177.25 730.223C191.048 722.7 192.947 708.362 190.951 693.522C180.866 682.453 168.661 674.692 154.029 680.425C161.311 667.67 169.844 662.021 179.904 656.487C208.016 643.266 231.421 651.255 246.14 667.786C249.342 689.688 240.418 712.752 212.22 725.789C201.514 729.937 191.702 732.843 177.25 730.223ZM144.698 659.404C161.239 647.838 157.143 625.837 150.905 607.778C149.948 605.018 156.053 609.41 161.393 604.071C164.91 600.554 163.43 598.375 164.43 599.376C173.887 608.832 188.263 594.544 178.751 585.033C178.478 584.759 192.856 577.987 183.631 568.213C183.601 568.22 183.439 568.121 183.167 567.95C182.999 567.681 182.902 567.521 182.909 567.491C173.136 558.268 166.364 572.645 166.09 572.371C156.578 562.86 142.291 577.236 151.747 586.692C152.748 587.693 150.569 586.213 147.052 589.73C141.713 595.069 146.105 601.174 143.344 600.217C125.285 593.979 103.284 589.883 91.7181 606.424C90.5931 592.658 94.0123 583.504 98.8197 573.338C123.361 529.012 165.242 536.419 190.05 561.071C214.702 585.879 222.109 627.76 177.783 652.301C167.618 657.11 158.464 660.528 144.698 659.404ZM122.428 658.167C124.476 659.139 126.561 659.991 128.682 660.73C124.063 661.613 125.317 662.089 122.428 658.167ZM90.3919 622.441C91.1307 624.562 91.9831 626.647 92.9547 628.695C89.0331 625.805 89.5097 627.059 90.3919 622.441ZM108.669 642.453C96.4629 630.602 88.7729 614.559 98.5283 605.621C111.155 593.958 131.515 601.538 144.988 605.659C145.025 605.78 145.063 605.901 145.099 606.022C145.221 606.06 145.342 606.097 145.464 606.135C149.585 619.608 157.165 639.967 145.502 652.594C136.564 662.35 120.521 654.66 108.669 642.453ZM170.685 580.437C167.932 577.681 166.994 573.108 170.619 569.477C174.334 565.762 178.891 566.719 181.617 569.505C184.403 572.231 185.36 576.788 181.645 580.503C178.014 584.129 173.44 583.191 170.685 580.437ZM166.087 597.718C161.46 593.09 163.717 583.143 174.427 584.959C186.34 589.594 174.874 606.505 166.087 597.718ZM166.163 576.695C167.98 587.406 158.032 589.663 153.404 585.035C144.617 576.248 161.528 564.782 166.163 576.695ZM160.09 591.032C161.268 592.279 162.019 594.188 162.02 596.901C162.02 603.724 153.678 607.318 148.994 602.633C148.905 602.551 148.819 602.47 148.734 602.388C148.652 602.304 148.571 602.217 148.489 602.128C143.805 597.444 147.398 589.102 154.221 589.103C156.934 589.103 158.843 589.855 160.09 591.032ZM57.601 560.172C42.7602 558.175 28.4229 560.074 20.8997 573.873C18.2793 559.42 21.1847 549.608 25.3333 538.902C38.3703 510.704 61.4353 501.78 83.3365 504.982C99.8678 519.701 107.857 543.106 94.6358 571.218C89.1011 581.277 83.4526 589.81 70.697 597.093C76.4309 582.461 68.67 570.257 57.601 560.172ZM-24.839 487.629C-12.7339 483.523 -10.6471 503.847 -23.0269 502.764C-29.5457 502.193 -34.2116 493.122 -24.839 487.629ZM-37.7073 478.218C-37.2495 472.984 -33.1427 470.787 -29.2647 471.169C-25.3788 471.467 -21.7162 474.343 -22.174 479.576C-22.6248 484.687 -26.7312 486.909 -30.6121 486.571C-34.4926 486.23 -38.1506 483.33 -37.7073 478.218ZM-40.8946 501.201C-53.2734 500.118 -47.689 480.465 -36.4815 486.611C-28.2047 493.648 -34.3744 501.771 -40.8946 501.201ZM-37.6542 503.793C-35.5759 502.049 -33.6302 501.397 -31.9173 501.498C-30.2134 501.696 -28.4107 502.676 -26.667 504.754C-22.2816 509.98 -26.3613 518.094 -32.9605 517.517C-33.0811 517.512 -33.1997 517.504 -33.3169 517.497C-33.4341 517.485 -33.5523 517.471 -33.672 517.455C-40.2717 516.878 -42.8806 508.178 -37.6542 503.793ZM-11.1774 575.078C-14.1484 578.723 -12.8813 578.282 -17.6162 577.135C-15.4218 576.563 -13.2765 575.875 -11.1774 575.078ZM55.1557 565.416C80.8868 591.643 66.6945 607.112 37.1445 604.042C15.7988 583.378 18.5249 562.564 55.1557 565.416ZM58.1337 607.293C57.809 607.627 57.5682 607.952 57.2276 608.287C55.9368 609.578 50.5713 609.332 58.1337 607.293ZM66.7868 604.254C81.0621 598.065 86.1212 592.414 87.5406 590.251C86.6847 592.576 85.2136 599.526 87.9701 613.73C81.7175 630.571 94.2288 624.584 60.4572 611.621C62.7907 609.288 64.786 607.097 66.7868 604.254ZM137.392 663.152C151.596 665.909 158.546 664.438 160.871 663.582C158.709 665.001 153.057 670.061 146.869 684.336C144.026 686.337 141.835 688.331 139.501 690.665C126.538 656.893 120.552 669.405 137.392 663.152ZM142.835 693.895C143.17 693.554 143.495 693.313 143.83 692.989C141.79 700.551 141.544 695.186 142.835 693.895ZM185.707 695.967C188.559 732.598 167.744 735.324 147.081 713.978C144.011 684.428 159.479 670.236 185.707 695.967ZM176.045 762.3C175.247 764.399 174.559 766.545 173.988 768.739C172.841 764.003 172.4 765.27 176.045 762.3ZM263.493 775.962C258 785.334 248.929 780.668 248.358 774.149C247.276 761.77 267.599 763.856 263.493 775.962ZM271.546 773.297C276.779 772.839 279.655 776.502 279.953 780.388C280.335 784.267 278.138 788.373 272.904 788.83C267.793 789.274 264.892 785.615 264.551 781.735C264.213 777.854 266.435 773.748 271.546 773.297ZM264.512 787.604C270.658 798.812 251.005 804.396 249.922 792.017C249.352 785.497 257.474 779.327 264.512 787.604ZM249.625 783.04C249.726 784.753 249.074 786.699 247.33 788.777C242.944 794.003 234.244 791.394 233.667 784.795C233.652 784.676 233.638 784.557 233.626 784.44C233.617 784.323 233.61 784.205 233.604 784.083C233.027 777.484 241.142 773.405 246.368 777.791C248.447 779.534 249.427 781.337 249.625 783.04ZM229.158 593.042C234.734 595.042 238.865 591.681 238.587 591.959C229.71 597.786 238.233 606.489 229.158 593.042ZM159.164 512.536C159.442 512.258 156.081 516.388 158.081 521.964C144.633 512.889 153.336 521.412 159.164 512.536ZM148.228 498.895C164.539 494.497 159.937 522.957 146.111 514.313C139.794 510.488 141.152 500.819 148.228 498.895ZM139.885 501.076C134.593 510.638 120.276 503.653 124.835 493.505C129.449 483.266 145.424 491.052 139.885 501.076ZM123.534 502.284C110.244 496.008 116.869 501.105 121.587 495.257C121.484 497.227 122.035 499.559 123.534 502.284ZM110.154 480.99C125.648 473.967 125.623 503.056 110.493 496.47C103.846 493.885 103.439 484.031 110.154 480.99ZM97.8471 473.865C103.365 476.568 105.62 485.417 98.0387 489.137C95.2435 490.573 92.6783 490.409 90.6387 489.322C88.4954 488.459 86.721 486.599 86.0249 483.535C84.0012 475.337 92.2294 471.375 97.8471 473.865ZM84.4774 469.017C86.4643 476.116 78.6547 482.137 72.402 478.706C57.6307 471.35 79.8979 452.633 84.4774 469.017ZM49.98 459.153C54.0988 448.467 70.3306 455.698 65.4532 465.815C60.6101 475.83 46.0573 469.353 49.98 459.153ZM46.2872 451.359C49.3628 458.016 42.8282 465.272 35.8378 462.892C20.3293 457.857 39.1721 436.037 46.2872 451.359ZM26.4066 444.942C29.8899 451.255 23.674 459.035 16.7744 457.148C0.79177 452.495 18.3229 430.266 26.4066 444.942ZM5.8826 439.777C10.0351 446.013 4.42547 454.107 -2.76308 452.771C-18.8391 449.966 -3.39364 425.895 5.8826 439.777ZM-37.5703 434.471C-32.9292 430.221 -28.6589 431.358 -26.0459 434.386C-22.9469 431.858 -18.5447 431.479 -14.7123 436.471C-10.4049 442.082 -15.0455 450.745 -22.5463 449.955C-24.5521 449.656 -26.0996 449.028 -27.2534 448.182C-28.5363 448.814 -30.1698 449.164 -32.1969 449.112C-39.7211 448.586 -42.7868 439.249 -37.5703 434.471ZM-58.4269 434.151C-46.8812 422.09 -35.8504 448.477 -52.1682 448.448C-59.4799 448.515 -63.5987 439.571 -58.4269 434.151ZM-66.4182 448.905C-63.9462 446.893 -62.4533 443.792 -62.5873 440.337C-62.072 450.96 -50.2598 447.928 -66.4182 448.905ZM-79.5362 435.673C-69.0262 422.624 -55.6213 447.559 -72.1695 449.366C-79.2925 450.027 -84.0626 441.285 -79.5362 435.673ZM-77.8537 449.881C-93.9878 451.572 -81.8429 452.507 -83.0846 441.961C-83.0503 441.57 -82.9699 446.894 -77.8537 449.881ZM-100.229 438.541C-90.5611 424.688 -75.7938 449.448 -91.9408 451.713C-99.2385 452.843 -104.413 444.563 -100.229 438.541ZM-105.931 454.333C-103.776 451.947 -102.735 448.612 -103.387 445.24C-101.265 455.751 -89.9946 450.878 -105.931 454.333ZM-105.219 445.575C-103.126 456.301 -118.583 460.153 -121.614 449.449C-124.661 438.639 -107.419 434.336 -105.219 445.575ZM-116.968 457.01C-131.184 460.745 -122.833 460.391 -122.978 452.878C-121.789 454.454 -119.868 455.886 -116.968 457.01ZM-140.905 449.299C-133.55 433.959 -114.871 456.259 -130.695 460.938C-137.449 463.23 -144.094 455.945 -140.905 449.299ZM-144.136 465.738C-142.2 462.758 -141.862 459.348 -142.974 456.283C-139.239 466.46 -128.636 459.797 -144.136 465.738ZM-154.913 451.751C-148.949 450.275 -141.534 455.604 -144.95 463.327C-146.168 466.224 -148.238 467.747 -150.499 468.225C-152.696 468.942 -155.25 468.657 -157.753 466.758C-164.574 461.778 -160.816 453.455 -154.913 451.751ZM-157.253 469.252C-173.647 471.857 -161.133 472.327 -162.986 461.645C-162.417 464.856 -160.419 467.64 -157.253 469.252ZM-168.271 456.632C-162.186 460.792 -164.298 470.425 -171.293 471.816C-187.336 475.676 -182.311 447.024 -168.271 456.632ZM-185.145 475.278C-183.196 472.855 -182.248 470.654 -182.007 468.695C-178.376 475.274 -170.966 471.406 -185.145 475.278ZM-201.038 471.25C-204.751 460.415 -187.668 455.522 -184.902 466.407C-182.174 477.192 -197.486 481.585 -201.038 471.25ZM-196.041 478.478C-211.57 483.454 -199.373 482.04 -202.792 471.875C-201.67 475.121 -199.1 477.489 -196.041 478.478ZM-208.876 467.653C-202.241 470.776 -202.583 480.534 -209.468 483.204C-224.584 489.316 -224.176 460.489 -208.876 467.653ZM-222.013 479.187C-217.815 488.941 -207.765 482.059 -222.583 488.661C-219.647 483.517 -222.238 478.866 -222.013 479.187ZM-228.23 475.516C-221.504 478.113 -221.265 488.068 -227.764 491.057C-242.998 497.767 -243.856 469.469 -228.23 475.516ZM-232.975 493.534C-247.457 500.766 -235.711 497.487 -240.576 488.029C-238.964 491.088 -236.122 493.027 -232.975 493.534ZM-247.273 484.752C-240.083 486.859 -239.178 496.665 -245.544 500.263C-259.661 508.448 -263.303 480.079 -247.273 484.752ZM-281.813 525.136C-280.991 522.056 -281.584 518.578 -283.725 515.839C-277.152 524.07 -269.198 514.867 -281.813 525.136ZM-262.507 510.822C-264.238 511.881 -265.826 512.396 -267.254 512.49C-267.83 513.799 -268.857 515.116 -270.444 516.379C-276.545 520.814 -284.895 515.631 -283.97 508.618C-283.146 502.379 -279.144 500.506 -275.197 501.146C-274.448 497.217 -271.318 494.098 -265.174 495.456C-258.269 496.987 -256.255 506.605 -262.507 510.822ZM-258.473 498.158C-256.631 501.106 -253.567 502.853 -250.392 503.134C-264.355 511.476 -252.987 507.149 -258.473 498.158ZM-252.906 510.478C-220.513 490.104 -185.103 477.849 -149.165 473.202C-115.717 459.257 -78.9236 452.166 -40.6842 453.614C-98.0584 460.575 -92.7912 518.078 -97.13 510.851C-107.998 492.766 -126.958 481.698 -147.234 480.41C-164.148 491.663 -175.035 510.729 -175.404 531.825C-175.548 540.253 -199.738 487.82 -252.906 510.478ZM-168.656 548.184C-176.795 518.203 -164.863 496.541 -146.027 484.916C-123.902 485.566 -102.738 498.359 -94.795 528.392C-92.5688 539.656 -91.4114 549.824 -96.5009 563.602C-101.514 548.706 -115.304 544.346 -130.265 543.736C-142.917 551.745 -152.68 562.416 -149.574 577.823C-160.871 568.436 -164.953 559.052 -168.656 548.184ZM-65.1209 570.358C-63.1916 571.508 -61.1982 572.558 -59.1368 573.503C-63.9993 573.809 -62.8282 574.463 -65.1209 570.358ZM-72.5746 565.243C-66.5399 582.163 -60.8035 569.534 -95.007 581.313C-94.719 578.024 -94.5989 575.064 -94.8933 571.6C-87.9366 557.685 -87.6934 550.102 -87.9958 547.534C-87.1572 549.865 -83.8159 556.136 -72.5746 565.243ZM-138.253 591.185C-138.53 590.795 -138.711 590.433 -138.973 590.048C-131.879 593.371 -137.206 592.68 -138.253 591.185ZM-169.474 591.208C-164.293 577.698 -164.535 570.598 -164.974 568.16C-163.952 570.536 -159.95 576.98 -146.968 585.554C-145.491 588.7 -143.906 591.204 -142.013 593.908C-177.522 600.809 -166.241 608.877 -169.474 591.208ZM-173.372 599.364C-173.305 604.066 -172.618 602.914 -176.982 605.079C-175.669 603.23 -174.467 601.324 -173.372 599.364ZM-147.264 616.984C-156.665 624.938 -171.337 621.413 -177.672 611.411C-122.584 582.294 -141.101 611.857 -147.264 616.984ZM-103.161 603.245C-104.651 607.875 -107.818 611.263 -111.565 613.528C-115.943 613.439 -120.379 612.089 -123.985 608.824C-127.781 605.277 -130.07 601.252 -130.91 596.899C-125.343 596.261 -120.5 595.915 -116.312 595.809C-112.634 593.807 -108.267 591.686 -103.126 589.454C-101.677 593.645 -101.647 598.275 -103.161 603.245ZM-117.737 590.491C-147.371 588.383 -158.663 570.685 -128.768 549.324C-92.1985 552.876 -93.1283 573.849 -117.737 590.491ZM-99.5686 579.491C-99.6029 579.955 -99.5787 580.358 -99.6243 580.835C-99.7832 582.653 -104.051 585.913 -99.5686 579.491ZM-78.9201 598.671C-86.822 597.313 -117.639 580.969 -55.3721 578.641C-55.8581 590.47 -66.802 600.86 -78.9201 598.671ZM-39.9475 593.275C-48.3931 587.701 -51.4643 579.088 -38.6805 578.79C-26.1419 581.303 -30.6628 589.252 -39.9475 593.275ZM-2.50395 605.357C-14.8186 605.408 -23.792 593.276 -22.2156 581.542C38.7004 594.647 5.51371 605.391 -2.50395 605.357ZM40.1129 623.182C35.9946 625.771 31.3917 626.331 27.0649 625.657C23.7678 622.775 21.2373 618.889 20.5735 614.07C19.9464 608.912 20.779 604.358 22.9338 600.484C27.6096 603.574 31.5412 606.421 34.8164 609.032C38.9214 609.863 43.63 611.045 49.0029 612.641C47.4207 616.781 44.467 620.347 40.1129 623.182ZM61.6214 635.259C56.4422 629.14 43.3405 596.81 92.5362 635.051C84.5608 643.801 69.4986 644.725 61.6214 635.259ZM94.9457 656.176C92.0592 646.478 95.2426 637.906 105.227 645.895C113.217 655.88 104.644 659.063 94.9457 656.176ZM115.863 689.501C106.397 681.624 107.322 666.562 116.072 658.586C154.312 707.782 121.983 694.68 115.863 689.501ZM137.052 730.549C132.233 729.885 128.347 727.355 125.466 724.058C124.792 719.731 125.351 715.127 127.941 711.01C130.776 706.655 134.341 703.701 138.481 702.118C140.077 707.491 141.259 712.2 142.09 716.305C144.701 719.581 147.548 723.512 150.639 728.188C146.764 730.342 142.21 731.176 137.052 730.549ZM145.765 753.626C145.731 745.609 156.475 712.422 169.581 773.338C157.847 774.914 145.715 765.941 145.765 753.626ZM157.848 791.07C161.871 781.785 169.819 777.265 172.333 789.803C172.035 802.586 163.422 799.516 157.848 791.07ZM203.588 839.118C201.02 838.816 193.438 839.059 179.523 846.016C176.059 845.721 173.099 845.842 169.81 846.129C181.588 811.926 168.96 817.663 185.879 823.697C194.987 834.939 201.257 838.28 203.588 839.118ZM180.764 816.243C176.659 813.95 177.313 815.122 177.62 810.259C178.565 812.321 179.614 814.315 180.764 816.243ZM152.451 830.043C150.263 817.924 160.653 806.98 172.482 806.495C170.154 868.762 153.809 837.945 152.451 830.043ZM170.287 850.747C170.764 850.701 171.168 850.725 171.632 850.691C165.209 855.174 168.469 850.906 170.287 850.747ZM201.798 879.891C180.437 909.786 162.74 898.494 160.631 868.86C177.274 844.251 198.247 843.321 201.798 879.891ZM137.594 862.687C139.86 858.94 143.247 855.773 147.878 854.283C152.848 852.77 157.478 852.8 161.668 854.248C159.437 859.39 157.315 863.757 155.313 867.435C155.208 871.622 154.861 876.465 154.223 882.033C149.87 881.193 145.846 878.904 142.298 875.108C139.033 871.502 137.683 867.065 137.594 862.687ZM134.139 898.387C139.266 892.223 168.829 873.706 139.712 928.795C129.71 922.461 126.184 907.787 134.139 898.387ZM146.044 928.104C148.209 923.74 147.057 924.427 151.759 924.494C149.798 925.59 147.892 926.792 146.044 928.104ZM159.915 920.597C142.245 917.363 150.313 928.645 157.215 893.135C159.918 895.028 162.422 896.613 165.569 898.09C174.143 911.073 180.588 915.074 182.964 916.096C180.524 915.657 173.424 915.415 159.915 920.597ZM159.937 889.375C158.442 888.328 157.752 883.002 161.074 890.095C160.689 889.834 160.327 889.653 159.937 889.375ZM202.938 919.779C192.071 916.076 182.686 911.994 173.3 900.697C188.706 903.804 199.377 894.041 207.387 881.389C206.776 866.427 202.416 852.637 187.521 847.624C201.299 842.534 211.466 843.692 222.73 845.919C252.764 853.861 265.557 875.026 266.207 897.15C254.582 915.985 232.92 927.917 202.938 919.779ZM235.284 1034.85C232.543 1032.71 229.066 1032.11 225.986 1032.94C236.256 1020.32 227.052 1028.27 235.284 1034.85ZM255.666 1016.3C257.025 1022.44 253.905 1025.57 249.976 1026.32C250.616 1030.27 248.743 1034.27 242.504 1035.09C235.492 1036.02 230.309 1027.67 234.743 1021.57C236.006 1019.98 237.323 1018.95 238.633 1018.38C238.727 1016.95 239.241 1015.36 240.3 1013.63C244.517 1007.38 254.135 1009.39 255.666 1016.3ZM252.965 1009.6C243.973 1004.11 239.647 1015.48 247.988 1001.51C248.269 1004.69 250.016 1007.75 252.965 1009.6ZM266.371 998.395C271.044 1014.42 242.675 1010.78 250.859 996.666C254.457 990.301 264.263 991.206 266.371 998.395ZM263.094 991.699C253.636 986.833 250.356 998.579 257.588 984.097C258.095 987.244 260.034 990.087 263.094 991.699ZM275.607 979.353C281.653 994.979 253.356 994.121 260.065 978.886C263.055 972.387 273.009 972.627 275.607 979.353ZM262.462 973.706C269.065 958.888 262.181 968.937 271.936 973.136C272.257 973.361 267.605 970.769 262.462 973.706ZM283.469 959.999C290.634 975.298 261.807 975.707 267.918 960.591C270.589 953.705 280.347 953.363 283.469 959.999ZM279.247 953.915C269.083 950.496 267.668 962.693 272.644 947.164C273.633 950.223 276.001 952.793 279.247 953.915ZM279.873 952.16C269.538 948.609 273.93 933.297 284.715 936.024C295.601 938.791 290.707 955.874 279.873 952.16ZM282.427 933.13C280.47 933.37 278.268 934.318 275.845 936.268C279.717 922.089 275.849 929.498 282.427 933.13ZM294.491 919.393C304.098 933.433 275.447 938.459 279.306 922.416C280.698 915.42 290.33 913.308 294.491 919.393ZM281.87 908.375C283.483 911.542 286.267 913.539 289.477 914.109C278.796 912.256 279.266 924.769 281.87 908.375ZM299.371 906.036C297.668 911.939 289.344 915.696 284.365 908.876C282.465 906.373 282.181 903.818 282.897 901.622C283.375 899.361 284.899 897.291 287.796 896.073C295.518 892.656 300.848 900.071 299.371 906.036ZM294.84 894.097C291.775 892.985 288.365 893.323 285.385 895.259C291.326 879.759 284.662 890.361 294.84 894.097ZM301.823 892.028C295.178 895.217 287.892 888.572 290.184 881.817C294.864 865.994 317.164 884.672 301.823 892.028ZM298.244 874.099C290.732 873.955 290.377 882.305 294.113 868.09C295.236 870.991 296.668 872.912 298.244 874.099ZM301.673 872.736C290.97 869.705 294.822 854.249 305.547 856.341C316.787 858.542 312.483 875.783 301.673 872.736ZM296.789 857.054C300.244 841.116 295.371 852.388 305.883 854.509C302.511 853.858 299.175 854.899 296.789 857.054ZM277.921 900.288C273.274 936.226 261.018 971.637 240.644 1004.03C263.302 950.861 210.87 926.671 219.297 926.528C240.394 926.159 259.459 915.272 270.712 898.358C269.424 878.083 258.355 859.122 240.27 848.254C233.043 843.916 290.546 849.182 297.508 791.808C298.957 830.047 291.865 866.841 277.921 900.288ZM310.786 813.71C307.33 813.576 304.23 815.069 302.217 817.54C303.195 801.383 300.163 813.195 310.786 813.71ZM309.162 834.207C298.616 832.966 299.55 845.11 301.242 828.976C304.228 834.092 309.553 834.173 309.162 834.207ZM312.582 851.351C306.559 855.536 298.279 850.361 299.41 843.063C301.675 826.916 326.436 841.684 312.582 851.351ZM315.449 830.658C309.837 835.185 301.096 830.414 301.757 823.292C303.563 806.744 328.499 820.149 315.449 830.658ZM316.972 809.549C311.552 814.722 302.607 810.602 302.674 803.291C302.645 786.972 329.033 798.003 316.972 809.549ZM314.652 765.835C319.643 769.667 319.264 774.07 316.736 777.168C319.763 779.781 320.901 784.051 316.652 788.693C311.874 793.908 302.537 790.844 302.011 783.32C301.959 781.292 302.308 779.659 302.94 778.375C302.095 777.222 301.467 775.674 301.166 773.668C300.378 766.168 309.041 761.527 314.652 765.835ZM311.345 745.24C325.228 754.517 301.156 769.962 298.352 753.886C297.016 746.698 305.11 741.088 311.345 745.24ZM293.975 734.348C292.087 727.448 299.868 721.232 306.181 724.715C320.856 732.8 298.627 750.331 293.975 734.348ZM299.763 704.835C315.085 711.95 293.265 730.793 288.231 715.285C285.851 708.294 293.106 701.759 299.763 704.835ZM291.97 701.143C281.77 705.066 275.292 690.512 285.308 685.669C295.424 680.792 302.656 697.024 291.97 701.143ZM282.106 666.645C298.489 671.225 279.773 693.492 272.417 678.721C268.986 672.468 275.007 664.658 282.106 666.645ZM277.258 653.276C279.747 658.893 275.786 667.122 267.588 665.098C264.524 664.401 262.664 662.627 261.801 660.483C260.713 658.444 260.55 655.879 261.987 653.084C265.706 645.503 274.555 647.758 277.258 653.276ZM270.132 640.969C267.091 647.684 257.238 647.276 254.653 640.629C248.066 625.498 277.155 625.473 270.132 640.969ZM248.839 627.588C251.564 629.088 253.896 629.639 255.866 629.536C250.018 634.254 255.114 640.879 248.839 627.588ZM257.617 626.287C247.469 630.846 240.485 616.53 250.046 611.238C260.071 605.699 267.856 621.673 257.617 626.287ZM252.228 602.894C250.304 609.971 240.634 611.328 236.81 605.011C228.166 591.186 256.625 586.583 252.228 602.894ZM241.123 585.199C239.733 592.274 229.971 594.239 225.899 588.358C216.646 574.519 244.363 568.76 241.123 585.199ZM228.72 568.049C227.893 575.496 218.393 578.09 213.745 572.446C203.233 559.964 230.538 551.452 228.72 568.049ZM200.4 557.572C199.056 556.053 198.274 554.578 197.934 553.188C196.544 552.848 195.069 552.066 193.55 550.722C188.123 545.484 191.778 536.36 198.844 536.053C205.131 535.781 207.671 539.397 207.726 543.395C211.725 543.451 215.342 545.991 215.069 552.278C214.762 559.345 205.638 562.999 200.4 557.572Z" fill="url(#paint0_linear_126_101)" fill-opacity="0.6"/>
<path d="M21.5321 637.524C4.3718 621.879 -18.2468 612.821 -41.4781 610.778C-64.7119 608.756 -88.5593 613.749 -108.176 626.176C-129.777 625.288 -151.289 631.882 -169.581 643.574L-167.655 645.5C-147.13 632.394 -126.483 627.71 -107.314 629.393C-90.4142 617.551 -68.4454 611.087 -41.7104 613.426C-14.976 615.766 5.53701 625.946 20.1241 640.543C40.6823 642.334 61.6661 651.504 80.6425 670.48C99.619 689.457 108.789 710.441 110.58 730.999C125.177 745.586 135.357 766.099 137.697 792.833C140.036 819.568 133.572 841.537 121.73 858.437C123.414 877.606 118.729 898.253 105.623 918.778L107.549 920.704C119.241 902.412 125.835 880.9 124.947 859.299C137.374 839.682 142.367 815.835 140.345 792.601C138.302 769.37 129.243 746.752 113.599 729.591C110.509 706.576 99.0058 685.098 82.5222 668.6C66.0247 652.117 44.5474 640.613 21.5321 637.524Z" fill="url(#paint1_linear_126_101)" fill-opacity="0.6"/>
<path d="M43.4754 661.543C35.8191 654.039 26.2634 649.694 16.4083 648.512C9.16857 641.723 -0.301734 637.194 -10.9716 636.153C-19.2474 626.49 -30.5735 621.033 -42.285 620.009C-53.9975 618.984 -66.0991 622.391 -75.9269 630.47C-86.6157 629.643 -96.7285 632.457 -105.037 637.887C-114.948 637.339 -125.113 639.958 -133.956 646.019C-144.18 644.322 -154.137 646.111 -162.692 650.462L-160.959 652.195C-153.648 648.643 -145.289 647.057 -136.635 648.036C-141.918 652.241 -146.292 657.592 -149.364 663.79L-147.957 665.198C-138.609 641.606 -118.775 648.376 -105.994 665.694C-120.753 676.616 -126.431 682.014 -129.038 684.116L-126.806 686.349C-119.95 684.274 -121.418 685.406 -122.956 690.199L-120.995 692.159C-120.705 690.339 -119.991 688.098 -118.654 685.091C-86.8928 682.885 -96.5364 694.988 -105.925 707.23L-104.547 708.607C-102.767 706.501 -100.822 704.549 -98.6926 702.816C-99.4393 705.786 -100.51 708.625 -101.823 711.332L-99.4205 713.734C-98.1162 710.455 -96.8452 706.197 -95.7941 700.623C-92.9706 698.684 -90.9197 697.385 -89.2629 696.755C-87.5138 696.472 -85.0875 696.572 -81.6732 696.84C-74.577 705.098 -69.1565 708.848 -65.5729 710.398C-69.2449 711.281 -74.9694 713.897 -82.9532 720.301C-87.2314 719.644 -90.7867 719.387 -93.7819 719.372L-90.8969 722.257C-88.914 722.194 -86.9309 722.237 -84.9619 722.438C-86.1882 723.172 -87.4489 723.821 -88.7258 724.428L-87.0516 726.102C-85.238 725.015 -83.8225 724.073 -82.0426 723.698C-77.1925 722.111 -72.6547 725.835 -58.1639 718.326C-62.7142 724.305 -65.9686 736.35 -70.2096 742.944L-67.9471 745.206C-67.8379 745.126 -67.7217 745.056 -67.613 744.975C-67.6199 745.169 -67.6165 745.345 -67.6195 745.534L-65.418 747.735C-65.4061 746.408 -65.342 744.927 -65.1951 743.063C-56.9734 735.985 -53.2016 730.558 -51.6441 726.979L-51.6431 726.983L-51.6412 726.979C-50.7281 730.776 -47.9564 736.774 -41.0901 745.172C-42.1883 756.64 -43.2507 756.796 -54.1683 755.84C-55.4721 755.726 -56.6155 755.621 -57.6501 755.504L-55.0818 758.073C-54.8425 758.097 -54.6121 758.154 -54.3723 758.175C-50.9873 758.471 -47.6376 758.375 -44.2799 757.938C-45.5171 760.927 -46.6893 763.349 -47.8079 765.347L-45.3891 767.765C-39.3812 762.15 -35.9818 758.595 -33.9745 756.561C-34.2947 759.961 -34.9997 766.237 -35.462 777.693L-33.4701 779.684C-33.3981 776.665 -31.9071 772.064 -28.4049 765.341C-26.5819 768.195 -24.5016 770.822 -22.0992 773.225C-19.6962 775.628 -17.0688 777.708 -14.215 779.531C-20.9383 783.033 -25.5393 784.524 -28.5584 784.596L-26.5665 786.588C-15.1113 786.126 -8.8347 785.421 -5.43529 785.1C-7.46939 787.108 -11.0237 790.507 -16.6394 796.515L-14.221 798.933C-12.2242 797.814 -9.80132 796.643 -6.81252 795.405C-7.24993 798.763 -7.34527 802.113 -7.04989 805.498C-7.02853 805.738 -6.97147 805.969 -6.94717 806.207L-4.37934 808.775C-4.49604 807.741 -4.60177 806.597 -4.7155 805.293C-5.67068 794.376 -5.51479 793.313 5.95286 792.215C14.3514 799.082 20.3504 801.854 24.1464 802.767L24.1426 802.769L24.146 802.769C20.5668 804.328 15.1403 808.099 8.06206 816.32C6.19826 816.468 4.71664 816.532 3.39003 816.544L5.59141 818.745C5.77911 818.742 5.95545 818.745 6.151 818.738C6.06961 818.847 5.99999 818.964 5.91911 819.073L8.18156 821.335C14.7758 817.093 26.8215 813.839 32.7991 809.289C25.2898 823.78 29.0139 828.318 27.4272 833.168C27.0523 834.948 26.1105 836.364 25.0237 838.177L26.6978 839.851C27.3045 838.574 27.9535 837.314 28.6873 836.087C28.8889 838.056 28.9315 840.039 28.8689 842.022L31.7535 844.907C31.738 841.912 31.4809 838.356 30.8235 834.078C37.2276 826.094 39.8441 820.37 40.7269 816.698C42.2769 820.282 46.0279 825.702 54.2853 832.798C54.5529 836.213 54.6527 838.639 54.3702 840.388C53.7402 842.044 52.4409 844.096 50.5021 846.919C44.9277 847.97 40.6698 849.241 37.391 850.546L39.793 852.947C42.4998 851.635 45.3382 850.564 48.3081 849.817C46.5754 851.946 44.6237 853.892 42.5171 855.672L43.8949 857.049C56.1366 847.661 68.2393 838.017 66.0335 869.779C63.0268 871.115 60.7861 871.83 58.966 872.121L60.9246 874.079C65.7181 872.543 66.8492 871.074 64.7749 877.929L67.0075 880.162C69.1096 877.554 74.5078 871.877 85.4303 857.118C102.748 869.899 109.519 889.733 85.9263 899.081L87.3339 900.488C93.532 897.417 98.8835 893.043 103.089 887.759C104.068 896.414 102.481 904.773 98.9287 912.083L100.662 913.816C105.013 905.261 106.801 895.305 105.105 885.08C111.166 876.236 113.785 866.072 113.237 856.161C118.667 847.853 121.481 837.739 120.654 827.051C128.733 817.223 132.14 805.121 131.115 793.409C130.09 781.697 124.633 770.371 114.971 762.096C113.93 751.426 109.402 741.955 102.612 734.716C101.431 724.861 97.0863 715.305 89.5815 707.649C89.4539 694.928 84.2845 683.467 75.971 675.154C67.6574 666.84 56.1972 661.671 43.4754 661.543ZM15.3633 650.754C24.2567 651.668 32.9347 655.304 40.1252 661.657C29.5144 662.307 19.1052 666.549 10.8696 674.401C9.37025 672.972 7.79883 671.663 6.1679 670.474C4.2078 669.989 2.19504 669.627 0.137144 669.397C0.859032 658.039 -2.5835 647.34 -8.90516 638.793C0.582538 640.218 8.94626 644.53 15.3633 650.754ZM35.9507 700.982C45.1371 696.197 51.5363 694.595 54.045 697.079C56.5294 699.587 54.9272 705.987 50.1416 715.173C48.25 712.211 46.149 709.602 43.8354 707.288C41.5213 704.975 38.9117 702.874 35.9507 700.982ZM57.4325 696.028C93.7828 696.943 91.7789 721.029 75.0609 738.602C36.7004 702.203 56.4767 731.985 57.4325 696.028ZM12.5219 676.063C30.0953 659.346 54.181 657.341 55.0955 693.691C19.139 694.647 48.9213 714.424 12.5219 676.063ZM75.1409 812.704C77.6715 812.346 80.1707 811.793 82.6194 811.026C80.2482 821.68 80.631 817.827 75.1409 812.704ZM72.8412 810.656C64.4477 803.79 58.4503 801.015 54.6537 800.099C58.2343 798.537 63.6582 794.762 70.7321 786.545C82.164 785.642 82.5498 786.631 83.5076 797.575C84.4642 808.518 84.2558 809.559 72.8412 810.656ZM47.2451 808.022C68.3207 818.896 68.4582 806.046 79.1638 820.767C60.4877 859.013 56.6648 820.389 47.2451 808.022ZM80.688 822.964C93.2976 842.711 86.2944 846.091 67.7344 838.384C73.1158 834.244 77.5388 828.98 80.688 822.964ZM53.833 829.191C46.9672 822.536 42.5078 813.963 40.998 804.521C48.0386 811.355 52.3619 820.052 53.833 829.191ZM-69.643 671.96C-54.9224 682.666 -67.7718 682.803 -56.8979 703.879C-69.2648 694.459 -107.889 690.636 -69.643 671.96ZM-53.3977 710.125C-62.8393 708.616 -71.4119 704.157 -78.0677 697.29C-68.9276 698.762 -60.2313 703.085 -53.3977 710.125ZM-87.2606 683.389C-94.9669 664.83 -91.5879 657.826 -71.8404 670.435C-77.8558 673.585 -83.1204 678.008 -87.2606 683.389ZM-59.9016 668.505C-60.6692 670.953 -61.2222 673.453 -61.5802 675.983C-66.7033 670.492 -70.5561 670.876 -59.9016 668.505ZM-59.5317 678.283C-58.435 666.868 -57.395 666.659 -46.4505 667.616C-35.5061 668.574 -34.5182 668.96 -35.4208 680.392C-43.639 687.465 -47.4131 692.89 -48.975 696.47C-49.891 692.674 -52.6664 686.676 -59.5317 678.283ZM60.8875 760.124C77.8273 749.312 85.3107 751.424 76.3215 773.06C72.1754 767.683 66.9067 763.267 60.8875 760.124ZM45.9816 793.583C53.1111 779.769 50.1689 741.066 75.2029 775.49C67.216 791.845 64.8489 779.215 45.9816 793.583ZM80.2973 784.482C77.7524 784.152 75.195 784.041 72.6407 784.128C77.1581 778.129 76.1115 774.401 80.2973 784.482ZM48.7937 771.591C48.9322 780.848 46.1847 790.163 40.438 798.115C40.2846 788.555 43.1874 779.338 48.7937 771.591ZM69.2149 810.836C59.9665 810.97 50.6629 808.224 42.7207 802.483C52.5197 802.337 61.7161 805.424 69.2149 810.836ZM42.4884 799.824C49.3136 792.791 57.9979 788.471 67.1296 786.998C60.6843 793.629 52.1633 798.265 42.4884 799.824ZM56.2598 760.533C54.2673 762.071 52.4071 763.794 50.6615 765.664C50.2544 762.787 49.5081 760.751 49.3115 759.57C48.533 758.66 47.4522 756.779 45.5105 754.618C48.0644 754.483 50.58 754.165 53.0386 753.628C52.3023 755.967 51.7715 757.586 51.3341 758.626C52.413 758.959 53.9943 759.594 56.2598 760.533ZM21.116 740.257C44.2499 735.04 36.0962 725.108 53.7599 729.503C64.0371 770.806 36.2805 743.676 21.116 740.257ZM39.7537 728.291C32.7554 734.339 23.8634 738.215 14.0892 738.922C21.5022 732.513 30.5311 728.965 39.7537 728.291ZM12.2021 737.035C12.9096 727.261 16.7856 718.368 22.8332 711.37C22.159 720.593 18.6111 729.622 12.2021 737.035ZM9.53305 737.044C3.27042 729.819 -0.430238 720.892 -1.11492 711.354C4.94067 718.356 8.82356 727.258 9.53305 737.044ZM39.7702 752.239C30.2324 751.555 21.3055 747.854 14.0808 741.591C23.8664 742.3 32.7679 746.183 39.7702 752.239ZM45.4946 725.913C47.2029 724.012 48.7624 721.982 50.1446 719.82C55.1764 729.506 52.9929 726.309 45.4946 725.913ZM42.4159 725.822C31.5738 725.958 25.196 727.687 21.6978 729.426C23.437 725.928 25.1662 719.55 25.3012 708.708C33.4788 700.668 34.4097 701.177 42.1781 708.945C49.9465 716.714 50.4559 717.645 42.4159 725.822ZM25.2109 705.629C24.8147 698.131 21.6174 695.948 31.3037 700.979C29.1421 702.362 27.1119 703.921 25.2109 705.629ZM10.8671 730.008C7.44888 714.843 -19.6818 687.087 21.6213 697.364C26.0161 715.028 16.0842 706.874 10.8671 730.008ZM-46.9907 710.686C-39.0385 704.939 -29.7236 702.192 -20.4667 702.33C-28.2138 707.937 -37.4309 710.839 -46.9907 710.686ZM-35.873 683.995C-37.3466 693.126 -41.6669 701.811 -48.6995 708.636C-47.1411 698.961 -42.5045 690.44 -35.873 683.995ZM-51.3587 708.403C-57.0996 700.461 -59.8456 691.158 -59.7115 681.909C-54.2999 689.408 -51.2133 698.604 -51.3587 708.403ZM-42.4588 705.142C-28.0907 686.275 -40.7207 683.908 -24.3656 675.921C10.0573 700.955 -28.6448 698.013 -42.4588 705.142ZM-33.0038 678.483C-32.9169 675.929 -33.0276 673.372 -33.3583 670.827C-23.2778 675.012 -27.0048 673.966 -33.0038 678.483ZM-9.40912 694.864C-8.4703 697.13 -7.83583 698.711 -7.50269 699.789C-6.46205 699.351 -4.84305 698.822 -2.50464 698.085C-3.04182 700.543 -3.35996 703.059 -3.495 705.613C-5.65568 703.671 -7.53644 702.591 -8.44598 701.812C-9.62759 701.615 -11.6631 700.87 -14.5402 700.462C-12.6695 698.716 -10.9472 696.856 -9.40912 694.864ZM-8.99955 690.237C-12.1433 684.217 -16.559 678.949 -21.9364 674.803C-0.299273 665.814 1.81229 673.297 -8.99955 690.237ZM-0.0703831 671.731C1.79738 671.943 3.5574 672.205 5.21419 672.519C6.51843 673.587 7.85192 674.765 9.21376 676.061C4.25098 681.289 0.512061 685.439 -2.33374 688.705C-1.66053 684.426 -0.885105 678.894 -0.0703831 671.731ZM-43.0684 647.917C-14.6346 625.252 -0.687397 644.991 -2.1982 669.199C-54.9814 665.974 -20.6876 676.076 -43.0684 647.917ZM-36.3476 667.269C-39.6998 666.217 -42.9871 665.568 -46.247 665.283C-49.5069 664.998 -52.856 665.066 -56.3408 665.52C-52.3799 655.95 -48.5074 650.608 -44.9888 650.899C-41.4723 651.224 -38.5857 657.157 -36.3476 667.269ZM-22.5624 726.186C-32.0049 724.672 -40.5707 720.208 -47.2255 713.339C-37.5396 714.898 -29.0102 719.542 -22.5624 726.186ZM-16.837 702.513C-13.4282 702.842 -11.0217 703.165 -9.34812 703.747C-7.82687 704.655 -6.03159 706.291 -3.58844 708.69C-3.45983 719.578 -1.71867 725.935 0.0294207 729.426C-3.35059 727.742 -9.4176 726.066 -19.6505 725.84C-26.4007 718.146 -31.5839 714.576 -35.0469 713.069C-31.2488 712.165 -25.2593 709.413 -16.837 702.513ZM7.65184 738.929C-1.888 738.246 -10.8127 734.553 -18.0425 728.294C-8.80944 728.963 0.230992 732.511 7.65184 738.929ZM-18.0146 752.222C-11.0162 746.179 -2.12729 742.302 7.64446 741.592C0.233452 748 -8.79297 751.547 -18.0146 752.222ZM9.53205 743.479C8.82212 753.251 4.94563 762.141 -1.09753 769.138C-0.422814 759.917 3.12452 750.891 9.53205 743.479ZM12.1956 743.473C18.6127 750.893 22.1615 759.933 22.8307 769.167C16.5706 761.937 12.8778 753.012 12.1956 743.473ZM25.2839 770.774C25.0585 760.542 23.3828 754.474 21.6983 751.095C25.189 752.844 31.547 754.584 42.4338 754.712C44.8333 757.156 46.4691 758.95 47.3772 760.472C47.9591 762.146 48.2823 764.553 48.6119 767.962C41.7118 776.384 38.9589 782.373 38.0553 786.171C36.5485 782.708 32.9773 777.524 25.2839 770.774ZM37.7858 798.35C30.916 791.696 26.4526 783.129 24.9388 773.687C31.5817 780.134 36.2263 788.664 37.7858 798.35ZM85.8416 797.37C85.5556 794.111 84.9077 790.823 83.8546 787.471C93.9674 789.709 99.8994 792.596 100.225 796.111C100.515 799.63 95.1739 803.502 85.6037 807.463C86.0585 803.98 86.1266 800.63 85.8416 797.37ZM81.9253 753.322C106.133 751.812 125.872 765.758 103.207 794.192C75.048 771.812 85.1505 806.105 81.9253 753.322ZM79.3927 751.194C72.2304 752.01 66.6988 752.785 62.4191 753.458C65.685 750.612 69.835 746.874 75.0634 741.91C76.3587 743.273 77.5379 744.606 78.6053 745.91C78.9176 747.567 79.1812 749.327 79.3927 751.194ZM56.3284 750.346C57.7895 743.715 57.7934 736.841 56.3388 730.208C78.6923 737.229 75.4989 744.32 56.3284 750.346ZM20.9169 694.785C14.2845 693.331 7.40963 693.334 0.778175 694.795C6.80444 675.625 13.8952 672.432 20.9169 694.785ZM-42.4896 622.343C-32.1037 623.253 -22.04 627.855 -14.3207 635.976C-24.9464 635.701 -35.6834 639.017 -44.5699 646.119C-52.0886 637.581 -62.0862 632.451 -72.5981 630.878C-63.586 624.22 -52.8759 621.435 -42.4896 622.343ZM-46.3607 647.629C-73.2912 671.474 -37.764 667.479 -90.3055 661.49C-87.5893 637.388 -70.4271 620.371 -46.3607 647.629ZM-130.676 646.715C-122.491 641.706 -113.314 639.633 -104.397 640.277C-96.9971 635.261 -88.0123 632.467 -78.4193 632.712C-86.1297 640.032 -91.3775 649.97 -92.6385 661.281C-94.7054 661.149 -96.7503 661.157 -98.7646 661.294C-100.577 662.182 -102.352 663.199 -104.077 664.346C-110.826 655.181 -120.34 649.197 -130.676 646.715ZM-102.736 666.267C-101.169 665.227 -99.6514 664.298 -98.1818 663.473C-96.4962 663.452 -94.7168 663.499 -92.8406 663.615C-93.282 670.81 -93.4785 676.393 -93.5584 680.723C-95.7951 677.013 -98.7561 672.277 -102.736 666.267ZM-117.512 682.674C-106.716 661.881 -100.287 666.256 -97.6812 686.182C-103.958 683.592 -110.728 682.394 -117.512 682.674ZM-89.816 694.692C-90.8472 695.302 -92.8867 696.038 -95.3522 697.575C-95.0409 695.037 -94.9179 692.505 -95.0207 689.99C-92.8451 691.122 -91.3422 691.925 -90.3944 692.537C-89.8791 691.533 -88.9795 690.087 -87.6613 688.019C-86.4926 690.248 -85.1193 692.379 -83.5812 694.422C-86.4836 694.323 -88.6185 694.704 -89.816 694.692ZM-80.1461 721.147C-72.6428 715.725 -63.4361 712.632 -53.6266 712.779C-61.3732 718.388 -70.5839 721.296 -80.1461 721.147ZM-64.7437 739.46C-63.2677 730.332 -58.9494 721.649 -51.9207 714.824C-53.4787 724.496 -58.1128 733.016 -64.7437 739.46ZM-49.2616 715.056C-43.5243 722.998 -40.7793 732.299 -40.9113 741.545C-46.3214 734.047 -49.4066 724.853 -49.2616 715.056ZM-43.7194 719.589C-30.7523 729.501 -25.6376 726.622 -21.1365 729.027C-16.4006 730.929 -15.3182 736.698 0.60934 740.26C-9.5367 742.551 -25.284 755.399 -31.5462 751.351C-38.6731 749.156 -38.9527 728.834 -43.7194 719.589ZM-23.7594 754.601C-28.8528 760.263 -28.0539 763.985 -31.3198 753.59C-28.8245 754.137 -26.2994 754.466 -23.7594 754.601ZM-39.0409 747.474C-37.3048 749.334 -35.4297 751.057 -33.4066 752.616C-43.4692 756.797 -40.1045 755.016 -39.0409 747.474ZM-20.4433 771.567C-28.1924 763.818 -28.7554 762.903 -20.6772 754.691C-9.82961 754.553 -3.45286 752.821 0.0423466 751.08L0.039865 751.084L0.0438571 751.082C-1.69629 754.576 -3.42899 760.953 -3.56699 771.801C-11.7797 779.88 -12.6938 779.316 -20.4433 771.567ZM3.6498 790.165C-3.89268 791.229 -5.67223 794.594 -1.49234 784.531C0.0670979 786.554 1.79002 788.428 3.6498 790.165ZM-3.47672 774.883C-3.3422 777.424 -3.01299 779.949 -2.46587 782.444C-12.8612 779.177 -9.13906 779.977 -3.47672 774.883ZM-0.226681 782.67C-4.27502 776.408 8.57387 760.66 10.8642 750.515C14.4264 766.442 20.1954 767.525 22.0969 772.26C24.5024 776.762 21.6233 781.877 31.5346 794.843C22.2896 790.077 1.96822 789.797 -0.226681 782.67ZM36.0679 800.386C26.2719 800.531 17.0771 797.446 9.5792 792.035C18.8242 791.904 28.1257 794.649 36.0679 800.386ZM11.664 815.868C18.1078 809.237 26.6278 804.603 36.2997 803.044C29.4756 810.073 20.7918 814.392 11.664 815.868ZM38.3453 804.751C38.4918 814.56 35.3982 823.767 29.9766 831.27C29.8276 821.708 32.736 812.497 38.3453 804.751ZM53.5485 846.476C55.0856 844.011 55.8224 841.971 56.4315 840.94C56.4196 839.742 56.8009 837.608 56.7026 834.704C58.7456 836.243 60.8771 837.616 63.1062 838.784C61.0384 840.102 59.5917 841.002 58.5878 841.517C59.2 842.465 60.0026 843.968 61.1346 846.144C58.6195 846.042 56.087 846.166 53.5485 846.476ZM68.4503 868.637C68.7303 861.852 67.5323 855.082 64.9422 848.805C84.8684 851.411 89.2434 857.84 68.4503 868.637ZM70.4004 844.684C74.7317 844.603 80.3143 844.406 87.5092 843.966C87.6259 845.842 87.6715 847.621 87.6511 849.307C86.826 850.776 85.8966 852.295 84.8575 853.861C78.8471 849.88 74.1106 846.919 70.4004 844.684ZM110.847 855.521C111.491 864.438 109.418 873.615 104.409 881.8C101.926 871.464 95.9424 861.949 86.7784 855.202C87.9248 853.478 88.9411 851.703 89.8298 849.889C89.9668 847.875 89.9736 845.83 89.8431 843.764C101.153 842.502 111.093 837.254 118.412 829.544C118.657 839.136 115.864 848.121 110.847 855.521ZM89.6342 841.429C83.6451 788.889 79.6504 824.415 103.495 797.485C130.753 821.551 113.736 838.713 89.6342 841.429ZM128.781 793.614C129.689 804 126.904 814.71 120.247 823.723C118.672 813.211 113.543 803.213 105.005 795.694C112.107 786.807 115.423 776.07 115.148 765.445C123.269 773.164 127.872 783.228 128.781 793.614ZM100.37 735.761C106.594 742.178 110.906 750.541 112.33 760.03C103.784 753.707 93.0842 750.265 81.7267 750.987C81.4963 748.929 81.1349 746.916 80.6498 744.957C79.4598 743.326 78.1505 741.754 76.7227 740.255C84.5755 732.019 88.8164 721.61 89.4663 710.999C95.8202 718.189 99.4555 726.868 100.37 735.761ZM87.1299 705.36C79.1669 698.32 68.8108 693.958 57.4379 693.687C57.1664 682.314 52.8048 671.958 45.7642 663.995C56.9479 664.688 66.9425 669.439 74.3137 676.811C81.686 684.182 86.4368 694.177 87.1299 705.36Z" fill="url(#paint2_linear_126_101)" fill-opacity="0.6"/>
<path d="M342.03 404.551C314.248 415.208 219.901 389.374 184.38 439.731C199.984 406.002 180.843 367.542 162.184 335.896C125.948 341.943 84.1819 352.003 68.3745 385.637C84.1178 326.056 3.68311 270.388 -6.01115 242.255C-7.63613 237.542 -8.05567 235.225 -8.60925 235.084C-9.17871 235.127 -9.99394 237.336 -12.4128 241.695C-26.845 267.717 -115.725 308.573 -110.566 369.981C-120.293 334.113 -159.678 316.954 -194.314 304.706C-218.185 332.631 -243.713 367.184 -234.203 403.11C-260.44 347.349 -357.84 356.407 -383.349 341.088C-387.624 338.522 -389.434 337.017 -389.949 337.264C-390.357 337.663 -389.561 339.88 -388.612 344.774C-385.936 358.561 -393.836 385.546 -398.364 414.792L-392.199 420.957C-388.5 392.342 -380.748 364.861 -381.07 349.945C-344.192 364.274 -204.879 355.461 -240.723 463.162C-264.51 474.37 -246.283 468.541 -244.018 456.667C-242.348 447.947 -254.015 432.365 -272.398 458.087C-252.046 401.43 -300.87 392.95 -293.385 458.505C-299.976 439.596 -313.189 407.864 -331.716 415.71C-322.817 388.978 -333.834 375.283 -360.086 375.714C-357.018 372.49 -356.143 367.978 -358.336 364.689C-362.993 357.704 -368.128 359.352 -371.518 363.585C-376.655 365.323 -379.96 369.584 -374.989 376.35C-372.648 379.536 -368.109 380.256 -364.03 378.477C-373.414 402.997 -364.313 418.033 -336.149 418.815C-349.859 433.541 -324.559 456.81 -309.046 469.47C-329.427 459.303 -343.805 458.462 -351.43 461.726L-348.931 464.224C-348.045 463.533 -347.217 463.062 -346.659 462.912C-332.085 458.997 -300.784 477.135 -289.706 484.597C-306.967 485.39 -319.736 485.039 -329.175 483.98L-324.47 488.686C-321.981 488.892 -319.398 489.038 -316.616 489.05C-318.697 489.629 -320.549 490.25 -322.26 490.895L-319.63 493.525C-309.184 490.031 -295.566 488.383 -288.872 488.132C-296.927 495.334 -303.54 500.496 -309.003 504.153L-300.97 512.186C-294.269 506.094 -287.202 500.226 -279.735 494.665C-239.51 468.22 -195.249 454.311 -155.961 447.836C-118.7 433.8 -73.4142 423.715 -25.3559 426.504C22.4571 432.102 65.3027 449.899 99.5613 470.191C137.128 483.391 178.301 504.774 213.323 537.801C246.351 572.823 267.734 613.997 280.933 651.563C301.226 685.821 319.023 728.668 324.621 776.481C327.41 824.539 317.324 869.825 303.289 907.087C296.814 946.374 282.905 990.635 256.46 1030.86C250.899 1038.33 245.03 1045.39 238.939 1052.09L246.973 1060.13C250.629 1054.67 255.791 1048.05 262.994 1040C262.742 1046.69 261.094 1060.31 257.599 1070.75L260.23 1073.39C260.874 1071.67 261.495 1069.82 262.075 1067.74C262.087 1070.52 262.233 1073.11 262.439 1075.59L267.145 1080.3C266.085 1070.86 265.735 1058.09 266.528 1040.83C273.99 1051.91 292.128 1083.21 288.213 1097.78C288.063 1098.34 287.592 1099.17 286.901 1100.06L289.4 1102.56C292.663 1094.93 291.822 1080.55 281.655 1060.17C294.315 1075.69 317.584 1100.98 332.311 1087.27C333.092 1115.44 348.128 1124.54 372.649 1115.16C370.869 1119.23 371.59 1123.77 374.776 1126.11C381.541 1131.09 385.803 1127.78 387.54 1122.64C391.773 1119.25 393.422 1114.12 386.437 1109.46C383.147 1107.27 378.635 1108.14 375.411 1111.21C375.842 1084.96 362.148 1073.94 335.416 1082.84C343.262 1064.31 311.529 1051.1 292.621 1044.51C358.175 1051.99 349.695 1003.17 293.038 1023.52C318.76 1005.14 303.178 993.473 294.458 995.143C282.584 997.408 276.755 1015.63 287.963 991.849C395.664 956.004 386.851 1095.32 401.18 1132.19C386.264 1131.87 358.783 1139.62 330.168 1143.32L336.332 1149.49C365.578 1144.96 392.562 1137.06 406.35 1139.74C411.244 1140.69 413.461 1141.48 413.86 1141.07C414.106 1140.56 412.601 1138.75 410.036 1134.47C394.716 1108.96 403.775 1011.56 348.013 985.326C383.939 994.837 418.492 969.308 446.417 945.437C434.169 910.802 417.01 871.417 381.142 861.689C442.551 866.848 483.405 777.969 509.428 763.536C513.787 761.117 515.996 760.301 516.039 759.732C515.897 759.179 513.58 758.76 508.868 757.134C480.735 747.44 425.067 667.005 365.486 682.749C399.12 666.941 409.181 625.175 415.227 588.939C383.582 570.28 345.121 551.139 311.392 566.743C361.749 531.223 335.915 436.876 346.573 409.094C348.357 404.438 349.525 402.394 349.193 401.93C348.73 401.598 346.685 402.766 342.03 404.551ZM-360.683 379.165C-360.682 379.151 -360.667 379.136 -360.639 379.122C-360.615 379.102 -360.597 379.092 -360.584 379.095C-360.489 378.064 -320.811 375.787 -334.885 415.916C-377.396 415.407 -361.685 378.901 -360.683 379.165ZM-332.205 419.73C-312.255 407.929 -297.141 456.39 -290.243 479.658C-309.749 465.217 -350.117 434.44 -332.205 419.73ZM-286.684 420.916C-283.822 416.841 -252.519 402.058 -285.786 481.851C-289.009 468.889 -295.347 433.273 -286.684 420.916ZM-256.469 447.664C-252.04 446.147 -227.24 454.082 -282.75 483.843C-278.923 474.447 -266.66 451.155 -256.469 447.664ZM-232.133 459.193C-227.377 442.288 -226.848 427.054 -230.323 413.763C-205.869 465.32 -174.274 434.178 -232.133 459.193ZM372.029 1111.71C372.032 1111.72 372.023 1111.74 372.002 1111.76C371.987 1111.79 371.973 1111.81 371.959 1111.81C372.223 1112.81 335.717 1128.52 335.217 1086C375.338 1071.93 373.06 1111.61 372.029 1111.71ZM331.394 1083.33C316.684 1101.24 285.907 1060.87 271.466 1041.37C294.735 1048.27 343.195 1063.38 331.394 1083.33ZM330.208 1037.81C317.852 1046.47 282.235 1040.13 269.273 1036.91C349.066 1003.64 334.283 1034.95 330.208 1037.81ZM303.46 1007.59C299.968 1017.78 276.677 1030.05 267.28 1033.87C297.042 978.364 304.978 1003.16 303.46 1007.59ZM291.932 983.258C316.945 925.398 285.804 956.993 337.362 981.448C324.07 977.972 308.836 978.501 291.932 983.258ZM-161.454 427.338C-132.209 392.576 -112.786 417.943 -159.054 436.296C-208.299 443.536 -204.161 411.855 -161.454 427.338ZM-170.372 394.055C-160.651 359.074 -136.576 373.697 -163.106 421.17C-209.819 393.322 -196.281 368.621 -170.372 394.055ZM-138.698 431.28C-116.381 417.915 -130.289 391.796 -156.213 416.976C-130.23 372.093 -158.956 356.08 -171.76 388.875C-199.246 366.875 -216.117 395.107 -171.173 420.985C-206.214 412.14 -205.199 441.714 -179.189 442.13C-206.878 448.23 -246.904 402.692 -218.911 351.255C-212.312 337.992 -202.345 325.054 -192.106 312.939C-177.182 318.312 -162.08 324.533 -149.735 332.719C-99.7748 363.269 -111.669 422.717 -138.698 431.28ZM-108.599 381.147C-104.963 394.395 -96.8869 407.323 -84.316 419.585C-146.931 426.852 -103.998 438.024 -108.599 381.147ZM-69.0051 397.433C-58.434 395.361 -36.1678 409.401 -28.1556 415.626C-91.1098 417.606 -73.5995 398.333 -69.0051 397.433ZM-56.2122 359.162C-42.5312 365.53 -30.2125 399.545 -26.5227 412.382C-95.229 359.912 -60.7282 357.062 -56.2122 359.162ZM16.7252 365.543C21.5365 364.259 55.0192 373.057 -21.7545 412.799C-15.8916 400.798 2.14653 369.439 16.7252 365.543ZM22.6785 405.454C27.047 407.139 40.9445 429.16 -20.7094 416.277C-11.7385 411.538 12.6273 401.578 22.6785 405.454ZM26.4299 420.355C33.3135 414.749 34.3919 395.313 3.77693 403.2C55.7847 372.88 23.8352 335.001 -12.5692 390.029C-5.46359 371.308 4.81157 338.507 -14.424 332.607C9.57482 317.849 9.93877 300.277 -10.4482 283.734C-6.02604 283.236 -2.45481 280.342 -2.02089 276.413C-1.09793 268.068 -6.09154 266.03 -11.4093 267.095C-16.4615 265.123 -21.7327 266.263 -22.2733 274.641C-22.528 278.587 -19.5133 282.056 -15.2456 283.315C-38.1959 296.067 -40.8888 313.435 -19.8167 332.137C-39.7851 334.605 -35.3606 368.692 -31.6146 388.363C-57.9102 327.85 -95.9524 359.605 -49.9993 398.496C-78.7797 385.412 -81.0933 404.74 -75.2865 411.456C-67.3875 420.607 -48.6891 416.542 -74.8928 418.728C-159.785 343.379 -34.7305 281.354 -9.95813 250.507C9.08086 285.187 121.466 367.985 24.7785 427.448C-0.647756 420.744 17.0613 427.995 26.4299 420.355ZM-23.7593 408.254C-29.4187 384.653 -40.5602 335.129 -17.383 335.374C5.48432 339.156 -14.0874 385.995 -23.7593 408.254ZM-13.1242 285.993C-13.1148 285.983 -13.0939 285.982 -13.0627 285.989C-13.0314 285.988 -13.011 285.993 -13.0025 286.003C-12.2673 285.275 19.5917 309.034 -16.9849 330.729C-49.2228 303.015 -13.722 285.148 -13.1242 285.993ZM33.9102 429.928C48.4199 420.036 58.6176 408.706 64.4984 396.291C50.0911 451.505 94.312 447.957 33.9102 429.928ZM108.529 450.958C153.276 443.127 151.85 475.044 104.611 459.363C62.2325 433.255 85.7651 411.646 108.529 450.958ZM123.428 468.605C149.114 472.712 155.249 443.764 119.205 446.39C167.959 428.708 156.246 397.976 125.358 414.869C118.443 380.349 87.3738 391.131 105.167 439.844C84.0091 410.545 65.7773 433.852 85.4344 450.889C60.3026 437.763 58.9125 377.152 113.42 355.742C126.999 349.824 142.952 346.32 158.581 343.621C166.56 357.329 174.131 371.802 178.326 386.009C196.961 441.525 149.637 479.42 123.428 468.605ZM111.228 445.171C93.3444 393.812 119.593 383.592 123.092 419.73C153.024 399.181 162.067 425.858 111.228 445.171ZM178.71 449.548C172.979 462.034 170.855 477.129 172.604 494.603C119.967 459.921 145.674 496.076 178.71 449.548ZM256.522 578.521C273.996 580.269 289.09 578.144 301.576 572.415C255.048 605.45 291.204 631.157 256.522 578.521ZM291.762 646.514C276.08 599.274 307.997 597.847 300.166 642.595C339.477 665.359 317.869 688.892 291.762 646.514ZM354.833 686.626C342.417 692.507 331.088 702.704 321.196 717.214C303.167 656.812 299.619 701.033 354.833 686.626ZM338.742 777.647C351.579 781.337 385.594 793.655 391.963 807.336C394.062 811.852 391.212 846.353 338.742 777.647ZM334.847 771.834C321.964 710.18 343.985 724.078 345.67 728.446C349.546 738.497 339.586 762.863 334.847 771.834ZM338.325 772.878C378.068 696.104 386.865 729.587 385.582 734.398C381.684 748.977 350.326 767.016 338.325 772.878ZM335.499 779.28C341.724 787.292 355.763 809.558 353.691 820.129C352.791 824.724 333.518 842.233 335.499 779.28ZM331.539 835.441C343.801 848.011 356.729 856.087 369.978 859.723C313.1 855.122 324.272 898.055 331.539 835.441ZM314.828 910.177C333.181 863.909 358.548 883.333 323.786 912.578C339.269 955.285 307.588 959.423 314.828 910.177ZM357.069 921.496C382.503 947.405 357.801 960.943 329.954 914.23C377.427 887.7 392.05 911.775 357.069 921.496ZM418.405 900.86C426.592 913.206 432.812 928.308 438.185 943.231C426.071 953.469 413.133 963.437 399.87 970.036C348.433 998.029 302.895 958.004 308.994 930.315C309.41 956.324 338.984 957.339 330.139 922.299C356.018 967.242 384.249 950.371 362.249 922.885C395.044 910.081 379.031 881.356 334.148 907.338C359.328 881.414 333.209 867.506 319.844 889.823C328.407 862.793 387.855 850.899 418.405 900.86ZM500.618 761.082C469.771 785.855 407.746 910.909 332.397 826.017C334.583 799.813 330.518 818.512 339.669 826.411C346.385 832.216 365.713 829.903 352.629 801.123C391.519 847.076 423.276 809.034 362.762 782.739C382.433 786.485 416.52 790.909 418.988 770.941C437.69 792.013 455.058 789.32 467.81 766.37C469.068 770.638 472.538 773.653 476.484 773.397C484.862 772.857 486.002 767.586 484.03 762.533C485.094 757.216 483.057 752.222 474.712 753.145C470.782 753.579 467.889 757.15 467.391 761.572C450.848 741.185 433.276 741.549 418.518 765.548C412.619 746.312 379.818 756.588 361.096 763.693C416.124 727.289 378.244 695.339 347.925 747.347C355.813 716.733 336.376 717.811 330.77 724.694C323.13 734.062 330.38 751.771 323.678 726.346C383.14 629.659 465.938 742.043 500.618 761.082ZM342.87 774.883C365.129 765.212 411.967 745.64 415.75 768.507C415.996 791.684 366.471 780.543 342.87 774.883ZM420.394 768.094C442.09 731.532 465.849 763.391 465.12 764.126C465.131 764.135 465.136 764.155 465.135 764.187C465.142 764.218 465.14 764.238 465.132 764.249C465.976 764.846 448.11 800.347 420.394 768.094ZM365.116 572.798C379.323 576.993 393.796 584.564 407.504 592.543C404.805 608.172 401.301 624.125 395.383 637.705C373.973 692.212 313.361 690.822 300.236 665.69C317.273 685.347 340.58 667.115 311.281 645.957C359.995 663.751 370.776 632.681 336.256 625.766C353.149 594.878 322.417 583.165 304.736 631.92C307.361 595.876 278.413 602.011 282.52 627.697C271.704 601.487 309.599 554.163 365.116 572.798ZM305.953 639.896C325.266 589.057 351.943 598.101 331.395 628.032C367.532 631.531 357.312 657.78 305.953 639.896ZM251.122 570.75C235.952 549.272 244.858 566.21 256.945 566.378C265.822 566.508 279.141 552.313 250.62 538.676C309.949 548.88 309.822 499.326 246.563 518.08C264.04 508.305 292.996 489.783 282.052 472.9C309.923 477.02 321.497 463.793 316.514 438.016C320.221 440.477 324.817 440.556 327.675 437.824C333.746 432.025 331.232 427.255 326.473 424.651C323.87 419.893 319.1 417.379 313.3 423.449C310.569 426.308 310.648 430.903 313.109 434.611C287.331 429.628 274.104 441.201 278.225 469.073C261.342 458.128 242.82 487.085 233.045 504.562C251.799 441.303 202.245 441.177 212.449 500.506C198.813 471.984 184.617 485.303 184.747 494.18C184.916 506.267 201.853 515.172 180.375 500.003C163.778 387.715 299.443 420.585 338.249 412.877C330.54 451.681 363.411 587.348 251.122 570.75ZM221.506 526.233C202.601 441.876 230.862 461.87 232.972 466.38C239.359 480.053 226.932 514.028 221.506 526.233ZM284.744 518.152C289.255 520.262 309.248 548.523 224.891 529.618C237.097 524.193 271.071 511.765 284.744 518.152ZM218.17 527.668C168.671 488.72 194.473 485.212 198.571 487.475C208.001 492.683 216.034 517.75 218.17 527.668ZM223.455 532.954C233.375 535.09 258.44 543.123 263.649 552.553C265.913 556.65 262.404 582.453 223.455 532.954ZM226.276 524.848C237.111 503.131 260.41 458.031 278.008 473.116C293.094 490.713 247.993 514.013 226.276 524.848ZM313.061 438.063C313.085 438.082 313.098 438.099 313.097 438.113C314.129 438.027 323.262 476.707 281.298 469.815C274.417 427.862 313.096 436.995 313.011 438.026C313.025 438.025 313.042 438.038 313.061 438.063Z" fill="url(#paint3_linear_126_101)" fill-opacity="0.6"/>
<defs>
<linearGradient id="paint0_linear_126_101" x1="211.118" y1="540.006" x2="-31.016" y2="782.14" gradientUnits="userSpaceOnUse">
<stop stop-color="#C47372" stop-opacity="0.08"/>
<stop offset="1" stop-color="#C47372" stop-opacity="0.2"/>
</linearGradient>
<linearGradient id="paint1_linear_126_101" x1="211.118" y1="540.006" x2="-31.016" y2="782.14" gradientUnits="userSpaceOnUse">
<stop stop-color="#C47372" stop-opacity="0.08"/>
<stop offset="1" stop-color="#C47372" stop-opacity="0.2"/>
</linearGradient>
<linearGradient id="paint2_linear_126_101" x1="211.118" y1="540.006" x2="-31.016" y2="782.14" gradientUnits="userSpaceOnUse">
<stop stop-color="#C47372" stop-opacity="0.08"/>
<stop offset="1" stop-color="#C47372" stop-opacity="0.2"/>
</linearGradient>
<linearGradient id="paint3_linear_126_101" x1="211.118" y1="540.006" x2="-31.016" y2="782.14" gradientUnits="userSpaceOnUse">
<stop stop-color="#C47372" stop-opacity="0.08"/>
<stop offset="1" stop-color="#C47372" stop-opacity="0.2"/>
</linearGradient>
</defs>
</svg>
