<svg width="219" height="463" viewBox="0 0 219 463" fill="none" xmlns="http://www.w3.org/2000/svg">
<path d="M80.6346 231.75C79.3638 234.295 80.7242 238.228 84.461 238.016C78.8953 238.344 79.6149 247.077 85.2645 246.334C81.4298 246.837 80.4084 251.859 83.5746 253.987C84.3546 254.51 84.9386 254.759 85.3646 254.86C85.0168 255.119 84.5849 255.574 84.0856 256.354C82.0047 259.598 85.0171 263.755 88.6994 262.678C82.5488 264.459 86.6157 270.954 90.3551 271.118C86.5484 273.68 89.8633 280.509 94.5731 278.314C92.2157 279.423 91.8069 281.693 92.5347 283.535C93.1616 285.415 94.9331 286.89 97.4522 286.225C92.4334 287.571 94.2835 294.932 98.8468 294.448C96.0875 296.978 97.1469 304.567 103.003 301.978C99.4902 303.52 99.8549 308.641 103.534 309.788C104.417 310.065 105.041 310.136 105.474 310.111C105.212 310.462 104.925 311.028 104.664 311.93C103.606 315.596 107.617 318.786 110.877 316.706C106.071 319.768 111.134 326.921 115.608 323.594C112.609 325.834 114.095 329.721 116.705 330.854C117.367 333.62 120.938 335.759 123.664 333.195C119.611 337.023 125.776 343.251 129.626 339.05C127.012 341.9 129.457 346.403 133.251 345.998C134.184 345.898 134.791 345.713 135.183 345.517C135.083 345.939 135.044 346.565 135.163 347.483C135.655 351.305 140.634 352.553 142.763 349.362C139.196 354.68 146.486 357.041 149.457 354.763C148.188 359.173 155.116 362.273 157.313 357.564C156.22 359.929 157.366 361.93 159.108 362.874C160.796 363.911 163.102 363.902 164.603 361.773C161.624 366.031 167.773 370.48 170.958 367.177C170.47 370.888 176.16 376.021 178.982 370.273C177.282 373.712 180.853 377.401 184.409 375.915C185.264 375.559 185.787 375.212 186.102 374.915C186.128 375.352 186.272 375.97 186.652 376.83C188.198 380.317 193.321 380.183 194.481 376.494C192.768 381.929 201.245 384.154 202.533 378.73C201.675 382.373 205.313 384.396 208.04 383.586C210.325 385.28 214.435 384.623 214.875 380.906C214.55 383.708 216.622 385.293 218.782 385.444L218.782 384.955C215.381 384.8 213.943 377.871 218.782 377.869L218.782 375.778C217.46 375.662 216.138 375.556 214.811 375.389C216.219 375.342 217.538 375.209 218.782 375.009L218.782 372.86C215.889 373.233 212.893 373.157 209.968 372.651C195.98 370.139 183.753 357.925 192.787 339.424C195.051 335.454 197.301 332.182 202.145 329.348C199.335 337.053 205.827 343.422 212.112 347.98C213.075 348.675 210.018 348.636 209.485 351.658C209.135 353.649 210.135 354.029 209.569 353.929C204.217 352.985 202.761 361.092 208.144 362.041C208.299 362.069 205.092 367.675 210.44 368.778C210.449 368.768 210.526 368.764 210.656 368.757C210.775 368.808 210.845 368.838 210.849 368.85C216.252 369.642 215.155 363.277 215.31 363.305C216.793 363.566 217.961 363.127 218.782 362.352L218.782 360.687C218.042 362.226 216.318 363.245 214.278 361.883C211.177 358.741 213.962 355.671 216.581 356.133C217.692 356.329 218.389 356.877 218.782 357.564L218.782 356.139C218.261 355.69 217.599 355.345 216.747 355.195C216.18 355.095 217.25 355.08 217.601 353.089C218.134 350.067 215.249 349.059 216.391 348.734C217.183 348.508 217.983 348.259 218.782 347.993L218.782 345.933C217.298 346.45 215.851 346.892 214.576 347.306C214.535 347.274 214.494 347.242 214.454 347.211C214.405 347.227 214.356 347.243 214.307 347.259C209.794 343.734 202.526 338.724 203.465 331.802C204.167 326.472 211.3 325.292 218.09 326.593C218.322 326.631 218.551 326.678 218.782 326.721L218.782 324.652C218.664 324.648 218.559 324.653 218.433 324.645C213.744 323.271 215.332 320.486 218.782 319.078L218.782 317.129C218.381 317.337 217.981 317.571 217.587 317.84C215.592 319.204 214.649 320.314 214.223 321.057C214.228 320.202 213.979 318.771 212.978 316.582C211.083 312.349 206.5 309.671 201.384 311.042C198.96 311.592 197.682 312.33 197.051 312.877C197.364 312.109 197.682 310.676 197.599 308.185C197.468 305.516 196.344 303.159 194.566 301.459C192.205 300.77 189.603 300.974 187.225 302.196C185.026 303.369 183.945 304.361 183.435 305.016C183.594 304.196 183.594 302.72 182.859 300.346C181.488 295.23 176.877 292.6 172.263 293.075C169.867 293.303 168.504 293.803 167.766 294.235C168.196 293.494 168.686 292.122 168.87 289.713C168.937 288.818 168.902 287.966 168.777 287.16C168.006 286.898 167.172 286.715 166.279 286.625C163.875 286.388 162.439 286.633 161.634 286.928C162.187 286.276 162.917 285.02 163.557 282.699C164.826 278.238 163.037 273.241 158.237 271.003C156.027 269.866 154.573 269.61 153.738 269.624C154.472 269.236 155.636 268.343 157.174 266.382C158.789 264.252 159.443 261.725 159.174 259.28C157.809 257.235 155.683 255.718 153.077 255.126C150.638 254.611 149.172 254.676 148.361 254.851C149.009 254.324 149.958 253.194 150.921 250.902C153.159 246.102 151.318 241.123 147.478 238.522C145.496 237.156 144.13 236.663 143.287 236.519C144.093 236.228 145.351 235.493 147.04 233.765C147.666 233.122 148.187 232.447 148.61 231.75C148.187 231.053 147.666 230.377 147.04 229.735C145.351 228.007 144.093 227.272 143.287 226.98C144.13 226.837 145.496 226.343 147.478 224.978C151.318 222.376 153.159 217.398 150.921 212.597C149.958 210.306 149.01 209.176 148.361 208.649C149.172 208.824 150.639 208.889 153.077 208.374C155.683 207.781 157.809 206.265 159.174 204.22C159.443 201.775 158.789 199.247 157.174 197.118C155.636 195.156 154.471 194.263 153.738 193.876C154.573 193.889 156.027 193.633 158.237 192.497C163.037 190.258 164.827 185.261 163.557 180.8C162.917 178.479 162.187 177.223 161.634 176.572C162.439 176.866 163.875 177.111 166.28 176.874C167.172 176.784 168.006 176.602 168.777 176.339C168.902 175.534 168.937 174.681 168.87 173.787C168.686 171.378 168.196 170.006 167.766 169.265C168.504 169.696 169.867 170.197 172.264 170.424C176.877 170.9 181.488 168.269 182.859 163.154C183.594 160.78 183.594 159.304 183.436 158.484C183.945 159.139 185.027 160.131 187.225 161.304C189.603 162.525 192.206 162.73 194.567 162.041C196.344 160.341 197.468 157.985 197.599 155.314C197.683 152.824 197.364 151.391 197.051 150.622C197.682 151.17 198.961 151.908 201.384 152.458C206.5 153.828 211.083 151.151 212.978 146.918C213.98 144.729 214.228 143.297 214.223 142.442C214.65 143.186 215.592 144.296 217.587 145.66C217.982 145.929 218.381 146.162 218.782 146.37L218.782 144.422C215.333 143.014 213.744 140.229 218.433 138.855C218.559 138.847 218.664 138.851 218.782 138.848L218.782 136.779C218.552 136.822 218.322 136.869 218.09 136.907C211.3 138.208 204.167 137.028 203.466 131.698C202.527 124.776 209.795 119.766 214.307 116.241C214.356 116.257 214.405 116.273 214.454 116.289C214.495 116.257 214.536 116.226 214.576 116.194C215.851 116.608 217.298 117.05 218.782 117.567L218.782 115.507C217.983 115.241 217.183 114.991 216.391 114.765C215.249 114.441 218.135 113.432 217.602 110.41C217.25 108.42 216.18 108.405 216.747 108.305C217.599 108.154 218.261 107.809 218.782 107.361L218.782 105.935C218.389 106.623 217.693 107.171 216.581 107.367C213.962 107.828 211.177 104.759 214.278 101.617C216.319 100.254 218.042 101.273 218.782 102.813L218.782 101.147C217.961 100.372 216.794 99.9329 215.311 100.195C215.156 100.222 216.252 93.8568 210.849 94.6497C210.844 94.6617 210.773 94.6925 210.653 94.743C210.525 94.7362 210.449 94.7313 210.44 94.7216C205.092 95.8249 208.3 101.431 208.145 101.458C202.762 102.407 204.217 110.514 209.569 109.57C210.135 109.471 209.135 109.851 209.486 111.841C210.019 114.863 213.075 114.824 212.113 115.52C205.827 120.078 199.336 126.446 202.146 134.151C197.301 131.317 195.051 128.045 192.788 124.076C183.753 105.575 195.98 93.3604 209.968 90.8484C212.893 90.342 215.89 90.2666 218.782 90.6401L218.782 88.4905C217.538 88.2908 216.219 88.1576 214.811 88.1105C216.138 87.9436 217.46 87.8374 218.782 87.7222L218.782 85.6311C213.943 85.6288 215.382 78.7001 218.782 78.5451L218.782 78.0556C216.622 78.2068 214.55 79.792 214.876 82.5935C214.435 78.8767 210.326 78.2202 208.04 79.9136C205.313 79.1038 201.676 81.1267 202.533 84.77C201.245 79.3458 192.769 81.5707 194.482 87.0054C193.321 83.3163 188.198 83.1824 186.652 86.6702C186.272 87.529 186.129 88.1476 186.103 88.5847C185.787 88.2874 185.264 87.9404 184.41 87.5846C180.854 86.0987 177.283 89.7873 178.983 93.2265C176.161 87.4791 170.471 92.6117 170.958 96.3231C167.774 93.0194 161.625 97.4692 164.604 101.726C163.102 99.5974 160.796 99.5888 159.108 100.626C157.366 101.57 156.221 103.57 157.314 105.935C155.116 101.227 148.188 104.327 149.457 108.737C146.487 106.459 139.197 108.82 142.763 114.138C140.635 110.946 135.655 112.195 135.164 116.017C135.045 116.935 135.084 117.561 135.183 117.983C134.792 117.787 134.185 117.602 133.251 117.502C129.458 117.097 127.012 121.6 129.626 124.45C125.777 120.249 119.611 126.477 123.664 130.305C120.938 127.741 117.367 129.88 116.705 132.646C114.096 133.779 112.61 137.666 115.608 139.906C111.135 136.579 106.072 143.732 110.877 146.794C107.617 144.714 103.606 147.905 104.664 151.57C104.925 152.473 105.213 153.038 105.474 153.39C105.041 153.365 104.418 153.435 103.534 153.712C99.8552 154.859 99.4905 159.98 103.004 161.522C97.1472 158.933 96.0875 166.523 98.8471 169.052C94.2837 168.568 92.4337 175.93 97.4524 177.276C94.9334 176.61 93.1616 178.086 92.535 179.965C91.8072 181.808 92.216 184.077 94.5733 185.186C89.8636 182.991 86.5488 189.82 90.3555 192.382C86.6158 192.547 82.5491 199.041 88.6997 200.822C85.0174 199.745 82.005 203.903 84.0859 207.147C84.5849 207.926 85.0168 208.381 85.3649 208.64C84.9386 208.742 84.3546 208.99 83.5748 209.513C80.4089 211.641 81.4301 216.663 85.2648 217.166C79.6152 216.422 78.8956 225.156 84.4613 225.483C80.7242 225.272 79.3638 229.205 80.6346 231.75ZM209.404 354.867C212.023 355.329 213.59 359.166 209.601 361.058C204.556 362.292 204.431 353.99 209.404 354.867ZM214.478 365.324C214.107 367.426 212.367 368.17 210.81 367.878C209.247 367.62 207.867 366.326 208.237 364.224C208.601 362.171 210.342 361.417 211.901 361.691C213.46 361.966 214.838 363.27 214.478 365.324ZM213.948 349.247C213.996 349.253 214.044 349.26 214.091 349.268C214.138 349.277 214.186 349.287 214.233 349.297C216.885 349.764 217.632 353.379 215.361 354.969C214.458 355.601 213.648 355.796 212.958 355.695C212.275 355.554 211.58 355.094 210.948 354.191C209.358 351.919 211.297 348.779 213.948 349.247ZM210.81 95.6221C212.367 95.3302 214.107 96.074 214.477 98.1765C214.838 100.23 213.46 101.534 211.901 101.809C210.342 102.084 208.601 101.33 208.237 99.2767C207.867 97.1745 209.247 95.8803 210.81 95.6221ZM209.404 108.633C204.431 109.51 204.555 101.209 209.601 102.442C213.59 104.334 212.023 108.171 209.404 108.633ZM210.948 109.31C211.581 108.407 212.276 107.946 212.958 107.805C213.648 107.704 214.459 107.899 215.362 108.532C217.633 110.122 216.885 113.736 214.234 114.203C214.186 114.214 214.139 114.224 214.092 114.233C214.045 114.24 213.997 114.247 213.948 114.254C211.297 114.721 209.358 111.581 210.948 109.31ZM82.6322 244.866C77.3406 240.62 87.6324 235.22 88.1985 241.827C88.4846 244.784 85.0097 246.768 82.6322 244.866ZM88.0244 239.544C87.1907 238.553 85.8948 237.94 84.4839 238.013C88.7557 237.744 87.5462 232.951 88.0244 239.544ZM84.4839 225.487C85.8951 225.561 87.1907 224.948 88.0244 223.957C87.5462 230.549 88.7557 225.756 84.4839 225.487ZM88.8881 247.579C87.9862 246.65 86.678 246.155 85.2836 246.332C89.5663 245.747 87.9203 241.073 88.8881 247.579ZM85.2836 217.168C86.678 217.345 87.9859 216.851 88.8881 215.921C87.9203 222.427 89.5663 217.753 85.2836 217.168ZM89.2781 249.891C89.7979 252.751 86.4283 254.992 83.996 253.358C78.3415 249.566 87.9608 243.256 89.2781 249.891ZM101.654 183.284C104.808 168.901 111.024 155 120.419 142.608C109.363 163.329 129.732 174.979 126.315 174.738C117.762 174.141 109.658 177.873 104.504 184.321C104.307 192.575 108.117 200.642 115.053 205.682C117.825 207.694 94.7328 203.526 89.8826 226.505C90.651 210.974 94.8247 196.331 101.654 183.284ZM88.7134 200.826C90.0556 201.209 91.4428 200.906 92.4851 200.118C90.5221 206.447 92.8939 202.057 88.7134 200.826ZM94.5862 185.191C95.7873 185.75 97.1797 185.734 98.4545 185.056C95.5006 191.12 98.5738 187.064 94.5862 185.191ZM100.342 179.87C99.8012 178.531 98.7453 177.624 97.4656 177.28C101.724 178.409 101.977 173.326 100.342 179.87ZM100.993 169.83C101.794 169.802 102.719 169.496 103.769 168.793C101.699 174.395 103.528 171.533 100.993 169.83ZM105.451 164.495C105.159 163.222 104.291 162.097 103.017 161.528C107.01 163.272 108.015 158.385 105.451 164.495ZM106.657 154.006C106.535 153.903 108.326 155.118 110.513 154.111C107.315 159.876 110.457 156.051 106.657 154.006ZM112.853 150.077C112.76 148.785 112.076 147.566 110.894 146.805C114.55 149.109 116.294 144.471 112.853 150.077ZM117.357 143.366C117.355 142.071 116.757 140.769 115.628 139.918C119.074 142.458 121.228 138.009 117.357 143.366ZM123.68 130.322C124.714 131.286 126.1 131.649 127.376 131.426C122.772 136.169 126.779 133.275 123.68 130.322ZM125.211 139.783C134.381 128.926 151.073 124.444 162.577 141.518C164.883 145.463 166.592 149.048 166.624 154.66C161.356 148.374 152.595 150.811 145.505 153.976C144.422 154.461 145.984 151.834 143.633 149.862C142.085 148.563 141.255 149.239 141.625 148.798C145.118 144.636 138.825 139.322 135.311 143.509C135.21 143.63 131.959 138.049 128.329 142.129C128.333 142.142 128.299 142.21 128.24 142.327C128.137 142.404 128.075 142.449 128.063 142.447C124.675 146.73 130.735 148.962 130.634 149.083C127.121 153.27 133.447 158.545 136.94 154.382C137.31 153.941 136.788 154.876 138.336 156.175C140.686 158.147 143.002 156.153 142.713 157.304C140.827 164.836 139.948 173.888 147.053 177.984C141.521 178.927 137.694 177.867 133.409 176.281C114.595 167.916 116.111 150.699 125.211 139.783ZM146.487 175.256C141.319 170.557 143.666 162.047 144.857 156.447C144.905 156.427 144.953 156.408 145.001 156.389C145.012 156.338 145.023 156.288 145.033 156.237C150.341 154.092 158.315 150.302 163.84 154.576C168.105 157.85 165.561 164.616 161.039 169.846C156.673 175.207 150.451 178.888 146.487 175.256ZM147.058 188.154C144.048 182.594 141.581 180.746 140.655 180.248C141.627 180.512 144.493 180.861 150.144 179.243C157.183 181.177 154.316 176.325 150.265 190.455C149.238 189.593 148.28 188.863 147.058 188.154ZM148.595 191.549C148.741 191.668 148.881 191.755 149.03 191.881C149.598 192.357 149.688 194.538 148.595 191.549ZM150.265 273.045C154.317 287.176 157.183 282.323 150.144 284.258C144.493 282.639 141.627 282.988 140.655 283.252C141.581 282.754 144.048 280.906 147.058 275.347C148.28 274.637 149.238 273.907 150.265 273.045ZM148.595 271.951C149.688 268.962 149.598 271.143 149.03 271.62C148.881 271.746 148.741 271.832 148.595 271.951ZM161.038 293.655C165.56 298.884 168.105 305.651 163.839 308.924C158.315 313.198 150.341 309.408 145.033 307.263C145.022 307.212 145.011 307.162 145.001 307.112C144.953 307.092 144.905 307.073 144.857 307.053C143.666 301.453 141.319 292.943 146.487 288.245C150.451 284.612 156.673 288.293 161.038 293.655ZM127.376 332.074C126.1 331.851 124.714 332.214 123.68 333.178C126.779 330.226 122.772 327.332 127.376 332.074ZM125.211 323.717C116.111 312.801 114.595 295.585 133.409 287.22C137.694 285.634 141.521 284.574 147.053 285.517C139.948 289.613 140.827 298.664 142.713 306.196C143.002 307.347 140.686 305.353 138.336 307.325C136.788 308.624 137.31 309.559 136.94 309.118C133.447 304.955 127.121 310.23 130.634 314.417C130.735 314.538 124.675 316.77 128.063 321.053C128.075 321.051 128.138 321.097 128.242 321.176C128.3 321.291 128.334 321.359 128.33 321.371C131.96 325.451 135.21 319.87 135.311 319.991C138.825 324.179 145.118 318.865 141.625 314.702C141.255 314.261 142.085 314.938 143.633 313.638C145.984 311.666 144.422 309.039 145.505 309.524C152.595 312.689 161.356 315.126 166.624 308.84C166.592 314.452 164.884 318.037 162.577 321.982C151.073 339.057 134.381 334.575 125.211 323.717ZM101.654 280.216C94.8247 267.17 90.651 252.527 89.8826 236.995C94.7328 259.975 117.824 255.806 115.053 257.818C108.117 262.858 104.307 270.926 104.504 279.179C109.658 285.628 117.762 289.36 126.315 288.762C129.732 288.521 109.363 300.171 120.419 320.892C111.024 308.5 104.809 294.6 101.654 280.216ZM115.628 323.582C116.757 322.732 117.355 321.429 117.357 320.134C121.228 325.491 119.074 321.043 115.628 323.582ZM110.894 316.695C112.076 315.934 112.76 314.715 112.854 313.423C116.294 319.03 114.55 314.391 110.894 316.695ZM110.513 309.389C108.326 308.382 106.535 309.596 106.657 309.494C110.457 307.449 107.315 303.625 110.513 309.389ZM103.017 301.972C104.291 301.403 105.159 300.279 105.451 299.005C108.015 305.115 107.01 300.228 103.017 301.972ZM103.769 294.708C102.719 294.004 101.794 293.698 100.993 293.67C103.528 291.968 101.699 289.105 103.769 294.708ZM97.4656 286.22C98.7452 285.876 99.8015 284.969 100.342 283.63C101.977 290.174 101.724 285.092 97.4656 286.22ZM98.4545 278.444C97.1797 277.766 95.7876 277.75 94.5861 278.309C98.5738 276.436 95.5006 272.38 98.4545 278.444ZM92.4851 263.382C91.4428 262.595 90.0556 262.291 88.7134 262.674C92.8939 261.443 90.5221 257.053 92.4851 263.382ZM144.021 186.824C137.894 185.021 133.229 188.595 129.538 193.433C129.256 199.512 130.532 205.248 136.385 207.805C130.627 209.378 126.552 208.55 122.071 207.249C110.194 202.97 105.765 193.949 106.285 184.97C111.658 177.756 120.85 173.693 132.699 178.05C136.967 179.934 140.621 181.918 144.021 186.824ZM133.025 216.527C124.949 215.097 119.804 222.596 116.407 229.578C115.889 230.646 115.397 227.629 112.329 227.629C110.308 227.629 110.107 228.681 110.107 228.106C110.107 222.671 101.87 222.646 101.87 228.112C101.87 228.269 95.7928 226.084 95.635 231.543C95.6458 231.549 95.6638 231.624 95.6932 231.752C95.6638 231.877 95.6458 231.951 95.635 231.958C95.7931 237.416 101.87 235.231 101.87 235.388C101.87 240.855 110.107 240.829 110.107 235.395C110.107 234.819 110.308 235.871 112.329 235.871C115.397 235.871 115.889 232.854 116.407 233.923C119.804 240.904 124.949 248.403 133.025 246.974C129.393 251.252 125.78 252.9 121.478 254.44C101.689 260.125 91.7835 245.962 91.7387 231.751C91.7835 217.539 101.689 203.376 121.478 209.061C125.78 210.6 129.393 212.248 133.025 216.527ZM139.069 223.281C138.76 222.414 138.405 221.57 138.008 220.748C139.589 221.821 139.366 221.324 139.069 223.281ZM138.009 242.752C138.406 241.931 138.76 241.087 139.069 240.219C139.366 242.176 139.589 241.679 138.009 242.752ZM138.507 231.75C138.609 238.663 136.209 245.482 130.838 245.248C123.858 244.971 120.186 236.942 117.499 231.887C117.523 231.841 117.547 231.796 117.571 231.75C117.547 231.705 117.523 231.659 117.499 231.613C120.186 226.558 123.858 218.53 130.838 218.253C136.209 218.018 138.609 224.837 138.507 231.75ZM102.868 231.75C102.867 233.333 101.822 234.917 99.7373 234.918C97.6025 234.918 96.568 233.334 96.5851 231.75C96.568 230.166 97.6025 228.582 99.7373 228.582C101.822 228.584 102.867 230.167 102.868 231.75ZM109.154 228.106C109.154 230.765 105.647 232.975 103.092 229.376C101.001 224.621 109.154 223.056 109.154 228.106ZM103.092 234.125C105.647 230.525 109.154 232.735 109.154 235.395C109.154 240.444 101.001 238.88 103.092 234.125ZM108.956 231.75C108.976 231.054 109.309 230.289 110.088 229.509C112.049 227.549 115.478 228.913 115.478 231.605C115.48 231.654 115.482 231.702 115.482 231.75C115.482 231.798 115.48 231.846 115.478 231.895C115.478 234.587 112.049 235.952 110.088 233.991C109.309 233.211 108.976 232.447 108.956 231.75ZM129.538 270.067C133.229 274.905 137.894 278.479 144.021 276.676C140.621 281.582 136.967 283.566 132.698 285.451C120.85 289.807 111.658 285.744 106.285 278.531C105.764 269.551 110.194 260.53 122.071 256.251C126.552 254.951 130.627 254.122 136.384 255.695C130.532 258.252 129.256 263.989 129.538 270.067ZM132.382 314.6C127.724 312.302 132.964 305.862 136.21 309.731C137.92 311.768 136.654 315.715 132.382 314.6ZM133.376 321.002C131.74 322.374 129.929 321.825 128.924 320.601C127.893 319.399 127.667 317.521 129.303 316.148C130.901 314.809 132.719 315.351 133.737 316.563C134.754 317.776 134.972 319.66 133.376 321.002ZM140.895 315.314C144.141 319.182 136.89 323.224 135.435 318.238C135.079 313.838 139.186 313.276 140.895 315.314ZM140.709 313.638C139.611 313.542 138.864 313.17 138.401 312.649C137.969 312.102 137.732 311.303 137.828 310.205C138.07 307.443 141.574 306.284 143.304 308.346C143.337 308.382 143.369 308.418 143.4 308.454C143.431 308.491 143.461 308.529 143.491 308.568C145.221 310.63 143.471 313.88 140.709 313.638ZM153.584 285.547C155.485 285.353 154.995 285.116 156.026 286.806C155.231 286.34 154.417 285.921 153.584 285.547ZM131.748 269.263C131.89 254.333 140.413 253.966 148.022 263.339C148.218 275.41 141.454 280.608 131.748 269.263ZM142.925 256.374C143.114 256.372 143.277 256.347 143.471 256.349C144.213 256.349 145.684 257.961 142.925 256.374ZM139.566 254.761C133.685 252.437 130.608 252.608 129.579 252.821C130.492 252.399 132.912 250.825 136.202 245.951C142.837 242.909 137.522 241.034 143.501 254.463C142.16 254.463 140.957 254.519 139.566 254.761ZM136.202 217.549C132.912 212.676 130.493 211.101 129.579 210.679C130.608 210.893 133.686 211.063 139.566 208.739C140.957 208.981 142.16 209.037 143.501 209.037C137.522 222.467 142.837 220.591 136.202 217.549ZM143.471 207.151C143.277 207.153 143.114 207.129 142.925 207.126C145.684 205.539 144.213 207.151 143.471 207.151ZM131.748 194.237C141.454 182.892 148.218 188.09 148.022 200.161C140.413 209.534 131.89 209.167 131.748 194.237ZM153.584 177.953C154.417 177.579 155.231 177.161 156.026 176.694C154.994 178.385 155.485 178.147 153.584 177.953ZM132.382 148.9C136.654 147.785 137.92 151.733 136.21 153.77C132.964 157.638 127.724 151.199 132.382 148.9ZM129.303 147.352C127.667 145.98 127.893 144.101 128.925 142.899C129.929 141.675 131.74 141.126 133.376 142.498C134.972 143.84 134.754 145.724 133.737 146.938C132.719 148.15 130.901 148.691 129.303 147.352ZM135.435 145.262C136.89 140.276 144.141 144.318 140.895 148.186C139.186 150.224 135.079 149.663 135.435 145.262ZM138.401 150.851C138.865 150.33 139.611 149.958 140.709 149.862C143.471 149.621 145.221 152.87 143.491 154.932C143.461 154.971 143.431 155.009 143.401 155.046C143.369 155.082 143.337 155.118 143.304 155.155C141.574 157.217 138.07 156.057 137.829 153.295C137.732 152.197 137.969 151.397 138.401 150.851ZM89.6878 211.327C88.6601 209.15 86.5077 208.928 86.6672 208.928C90.8924 209.805 90.9441 204.855 89.6878 211.327ZM86.6672 254.572C86.5077 254.572 88.6601 254.351 89.6878 252.174C90.9441 258.645 90.8924 253.696 86.6672 254.572ZM85.8899 261.633C79.9393 258.21 89.4395 251.355 90.9283 257.812C91.6445 260.726 88.476 263.114 85.8899 261.633ZM88.914 263.404C93.1821 262.177 95.2889 268.298 91.0631 269.904C86.795 271.52 84.4422 264.693 88.914 263.404ZM93.9593 267.755C95.9751 273.377 95.5357 270.009 92.4996 270.334C93.0954 269.798 93.6072 268.969 93.9593 267.755ZM91.6856 277.719C85.2151 275.285 93.581 266.933 96.0359 273.173C97.2031 275.826 94.4888 278.774 91.6856 277.719ZM93.1744 283.302C92.3655 280.94 94.2603 277.749 97.5075 278.859C98.7233 279.25 99.4134 280.034 99.6871 280.932C100.055 281.796 100.03 282.84 99.3501 283.921C97.5757 286.858 94.0731 285.632 93.1744 283.302ZM95.623 288.537C97.0918 285.926 101.066 286.44 101.877 289.223C104.008 295.581 92.2311 294.561 95.623 288.537ZM102.701 301.284C98.447 303.171 95.861 296.429 100.169 294.924C104.439 293.437 106.759 299.48 102.701 301.284ZM101.523 304.585C102.552 301.788 106.514 301.581 107.839 304.273C110.849 310.176 99.1647 311.032 101.523 304.585ZM105.391 312.141C106.205 309.326 110.226 308.877 111.666 311.401C114.922 317.331 103.497 318.681 105.391 312.141ZM109.805 319.522C110.403 316.537 114.341 315.823 116.023 318.273C119.836 323.698 108.481 326.177 109.805 319.522ZM120.766 333.533C118.211 333.421 117.311 331.867 117.43 330.246C115.813 330.082 114.439 328.926 114.772 326.39C115.147 323.54 118.97 322.384 120.898 324.767C121.388 325.429 121.653 326.054 121.741 326.629C122.291 326.816 122.861 327.185 123.429 327.782C125.44 330.095 123.638 333.659 120.766 333.533ZM126.667 339.618C119.884 339.766 124.296 329.014 128.977 333.711C131.097 335.793 129.71 339.547 126.667 339.618ZM133.203 337.675C131.914 337.543 130.594 338.004 129.64 339.036C132.544 335.835 128.279 333.312 133.203 337.675ZM133.17 345.246C126.4 345.976 129.713 334.959 134.988 339.195C137.224 341.052 136.083 344.934 133.17 345.246ZM136.769 340.68C141.891 344.83 138.67 341.072 135.996 344.459C135.874 344.561 137.381 343.008 136.769 340.68ZM139.94 350.368C133.181 351.571 136.053 340.213 141.343 344.202C143.765 345.974 142.873 349.84 139.94 350.368ZM146.116 347.469C144.811 347.535 143.554 348.194 142.772 349.35C145.183 345.72 140.544 343.882 146.116 347.469ZM143.395 349.78C145.876 346.097 151.424 349.432 149.219 353.378C146.988 357.36 140.797 353.642 143.395 349.78ZM150.057 349.871C155.215 352.882 152.713 350.584 150.596 352.785C150.707 351.991 150.567 351.027 150.057 349.871ZM154.719 358.965C148.198 361.259 149.238 349.484 155.13 352.687C157.729 353.968 157.545 357.971 154.719 358.965ZM160.371 355.17C158.958 355.469 157.882 356.352 157.32 357.552C159.171 353.555 154.21 352.423 160.371 355.17ZM159.449 362.285C157.311 360.995 156.711 357.333 159.912 356.096C161.095 355.614 162.127 355.771 162.914 356.283C163.751 356.708 164.403 357.524 164.577 358.789C165.106 362.18 161.635 363.492 159.449 362.285ZM165.15 357.929C170.609 361.891 167.148 358.16 164.611 361.762C165.37 360.676 165.596 359.302 165.15 357.929ZM164.689 364.721C164.136 361.777 167.511 359.616 169.921 361.226C175.64 364.727 165.963 371.516 164.689 364.721ZM174.896 364.212C173.639 364.348 172.735 364.708 172.103 365.202C172.95 362.268 169.709 361.25 174.896 364.212ZM178.305 369.936C176.259 374.116 169.944 370.614 172.277 366.691C174.592 362.808 180.254 365.946 178.305 369.936ZM178.946 366.423C184.838 369.455 180.927 366.357 178.989 370.26C179.599 369.005 179.541 367.586 178.946 366.423ZM179.524 373.222C178.515 370.418 181.417 367.712 184.163 368.923C190.262 371.511 181.861 379.676 179.524 373.222ZM186.613 373.682C188.209 369.673 183.344 368.763 189.499 371.124C187.177 371.758 186.585 373.839 186.613 373.682ZM187.344 376.524C186.158 373.845 188.95 370.915 191.676 371.924C197.981 374.373 190.097 382.751 187.344 376.524ZM193.885 372.71C200.124 374.793 195.807 372.36 194.487 376.476C194.903 375.133 194.643 373.76 193.885 372.71ZM195.47 379.341C194.01 376.67 196.567 373.592 199.43 374.388C205.838 376.092 198.734 385.29 195.47 379.341ZM216.999 377.662C215.878 378.311 215.049 379.481 214.877 380.883C215.353 376.629 210.423 376.988 216.999 377.662ZM207.339 376.228C208.14 376.421 208.744 376.729 209.182 377.113C209.723 376.902 210.397 376.818 211.216 376.911C214.243 377.39 215.153 381.279 212.872 383.028C210.843 384.584 209.155 383.973 208.204 382.655C206.86 383.568 205.065 383.565 203.69 381.409C202.145 378.985 204.33 375.643 207.339 376.228ZM202.541 378.708C202.858 377.331 202.48 375.949 201.648 374.956C208.057 376.571 203.548 374.548 202.541 378.708ZM204.481 373.568C189.319 370.114 175.623 363.461 163.961 354.47C150.343 348.866 137.733 340.331 127.161 328.927C145.647 343.413 160.657 325.376 159.827 328.7C157.753 337.019 160.021 345.648 165.477 351.844C173.571 353.47 182.177 351.12 188.345 345.165C190.808 342.784 182.693 364.801 204.481 373.568ZM191.107 338.525C184.831 349.478 175.178 352.274 166.425 350.202C160.254 343.658 157.849 333.9 164.196 322.988C166.793 319.112 169.382 315.858 174.804 313.361C171.964 319.082 174.674 324.297 178.797 328.772C184.734 330.106 190.606 329.845 194.14 324.525C194.689 330.469 193.166 334.338 191.107 338.525ZM167.728 302.403C167.505 301.518 167.233 300.644 166.912 299.78C168.398 301.089 168.249 300.565 167.728 302.403ZM168.4 306.015C171.528 299.419 166.251 301.399 179.464 307.843C178.436 308.705 177.551 309.521 176.64 310.601C170.643 312.601 168.394 314.71 167.743 315.534C168.172 314.624 169.014 311.862 168.4 306.015ZM194.727 317.433C194.695 317.624 194.642 317.781 194.607 317.966C193.523 314.973 194.855 316.702 194.727 317.433ZM203.704 326.397C198.334 328.79 196.363 330.9 195.789 331.727C196.178 330.751 196.88 327.749 195.613 321.555C196.093 320.227 196.357 319.052 196.59 317.731C208.776 325.951 207.853 320.391 203.704 326.397ZM207.168 325.174C208.5 323.804 207.972 323.937 209.847 324.569C208.939 324.723 208.046 324.925 207.168 325.174ZM204.729 312.609C209.716 313.025 212.919 318.254 211.865 322.948C187.67 315.485 201.485 312.311 204.729 312.609ZM188.109 303.884C189.867 302.982 191.751 302.918 193.478 303.344C194.711 304.628 195.598 306.29 195.695 308.265C195.767 310.374 195.268 312.189 194.259 313.681C192.476 312.265 190.985 310.973 189.751 309.8C188.119 309.318 186.254 308.673 184.136 307.837C184.924 306.216 186.246 304.877 188.109 303.884ZM188.632 311.737C196.542 320.858 194.701 329.188 179.973 326.736C170.486 315.207 176.779 309.448 188.632 311.737ZM180.251 309.677C180.394 309.554 180.503 309.431 180.653 309.307C181.221 308.83 183.384 309.12 180.251 309.677ZM179.829 298.233C181.709 300.894 185.868 314.445 167.307 297.222C170.846 293.963 176.976 294.122 179.829 298.233ZM167.08 288.585C167.905 292.613 166.313 295.971 162.554 292.383C159.673 288.058 163.256 287.073 167.08 288.585ZM159.793 274.354C163.346 277.878 162.438 283.943 158.613 286.861C144.875 265.592 157.499 272.04 159.793 274.354ZM152.669 256.987C154.596 257.426 156.08 258.588 157.129 260.025C157.248 261.8 156.859 263.644 155.665 265.219C154.363 266.882 152.815 267.951 151.083 268.445C150.627 266.214 150.316 264.266 150.125 262.574C149.184 261.156 148.171 259.464 147.085 257.461C148.73 256.726 150.603 256.55 152.669 256.987ZM149.959 247.336C149.689 250.583 144.164 263.637 141.016 238.513C145.822 238.29 150.415 242.353 149.959 247.336ZM146.394 231.75C144.436 235.366 141.059 236.915 140.485 231.75C141.059 226.585 144.436 228.134 146.394 231.75ZM149.959 216.164C150.415 221.148 145.822 225.21 141.016 224.987C144.164 199.863 149.689 212.918 149.959 216.164ZM155.665 198.281C156.859 199.856 157.249 201.7 157.129 203.475C156.08 204.912 154.596 206.074 152.669 206.514C150.603 206.95 148.73 206.774 147.085 206.04C148.17 204.037 149.184 202.345 150.125 200.926C150.316 199.235 150.627 197.287 151.083 195.055C152.815 195.55 154.363 196.619 155.665 198.281ZM159.793 189.146C157.499 191.46 144.875 197.909 158.613 176.639C162.438 179.558 163.345 185.622 159.793 189.146ZM167.08 174.915C163.256 176.427 159.673 175.442 162.554 171.117C166.312 167.53 167.905 170.887 167.08 174.915ZM167.743 147.966C168.394 148.791 170.643 150.899 176.64 152.899C177.551 153.979 178.436 154.795 179.464 155.657C166.251 162.101 171.528 164.081 168.4 157.485C169.014 151.638 168.172 148.877 167.743 147.966ZM167.729 161.097C168.249 162.936 168.398 162.411 166.912 163.72C167.233 162.856 167.505 161.982 167.729 161.097ZM179.829 165.267C176.976 169.378 170.846 169.538 167.307 166.278C185.868 149.055 181.709 162.607 179.829 165.267ZM180.653 154.193C180.503 154.069 180.394 153.946 180.251 153.823C183.385 154.38 181.221 154.67 180.653 154.193ZM179.973 136.765C194.701 134.312 196.542 142.642 188.633 151.763C176.779 154.052 170.486 148.293 179.973 136.765ZM193.478 160.156C191.751 160.582 189.867 160.519 188.109 159.616C186.246 158.623 184.924 157.284 184.136 155.664C186.255 154.827 188.119 154.182 189.751 153.701C190.985 152.528 192.476 151.236 194.259 149.819C195.268 151.311 195.767 153.126 195.695 155.236C195.598 157.21 194.711 158.873 193.478 160.156ZM204.729 150.891C201.485 151.189 187.669 148.015 211.865 140.552C212.919 145.246 209.716 150.476 204.729 150.891ZM209.847 138.931C207.971 139.563 208.5 139.697 207.168 138.327C208.046 138.575 208.939 138.777 209.847 138.931ZM203.704 137.103C207.853 143.109 208.776 137.549 196.589 145.769C196.357 144.449 196.092 143.274 195.612 141.945C196.88 135.751 196.177 132.749 195.788 131.773C196.363 132.6 198.334 134.71 203.704 137.103ZM194.727 146.068C194.855 146.798 193.523 148.527 194.607 145.534C194.643 145.72 194.695 145.876 194.727 146.068ZM191.107 124.975C193.166 129.162 194.689 133.032 194.14 138.975C190.606 133.655 184.735 133.394 178.798 134.728C174.674 139.203 171.965 144.418 174.804 150.139C169.383 147.642 166.794 144.388 164.197 140.512C157.849 129.6 160.255 119.842 166.425 113.298C175.178 111.226 184.831 114.022 191.107 124.975ZM214.877 82.6172C215.049 84.0196 215.878 85.1894 216.999 85.8382C210.423 86.5121 215.353 86.8711 214.877 82.6172ZM203.69 82.0908C205.065 79.9347 206.861 79.9321 208.205 80.8457C209.155 79.5275 210.843 78.9158 212.873 80.4717C215.154 82.2209 214.243 86.1095 211.216 86.5886C210.397 86.6816 209.724 86.598 209.182 86.3874C208.745 86.7706 208.14 87.0793 207.339 87.2722C204.33 87.8574 202.145 84.5149 203.69 82.0908ZM202.541 84.7922C203.548 88.9525 208.057 86.929 201.648 88.5447C202.48 87.5518 202.858 86.1692 202.541 84.7922ZM195.47 84.1588C198.733 78.2102 205.839 87.408 199.43 89.1128C196.567 89.908 194.01 86.8302 195.47 84.1588ZM194.487 87.0245C195.807 91.1403 200.124 88.7077 193.885 90.7908C194.644 89.7411 194.903 88.367 194.487 87.0245ZM187.344 86.9766C190.097 80.7492 197.981 89.1268 191.676 91.5765C188.95 92.5848 186.158 89.6558 187.344 86.9766ZM189.499 92.3763C183.344 94.737 188.209 93.8271 186.613 89.8178C186.585 89.6606 187.177 91.7423 189.499 92.3763ZM179.524 90.2786C181.862 83.8238 190.262 91.9897 184.163 94.5769C181.417 95.7881 178.514 93.0827 179.524 90.2786ZM178.989 93.2399C180.927 97.1428 184.838 94.0448 178.946 97.0772C179.541 95.914 179.599 94.495 178.989 93.2399ZM178.305 93.5644C180.254 97.5545 174.592 100.692 172.277 96.8096C169.944 92.8867 176.259 89.3842 178.305 93.5644ZM172.103 98.2987C172.734 98.792 173.639 99.1523 174.896 99.2884C169.709 102.25 172.95 101.232 172.103 98.2987ZM164.689 98.7794C165.963 91.9845 175.64 98.7731 169.921 102.274C167.511 103.884 164.136 101.723 164.689 98.7794ZM165.15 105.572C165.596 104.198 165.37 102.825 164.611 101.738C167.148 105.34 170.609 101.609 165.15 105.572ZM159.449 101.215C161.635 100.008 165.106 101.32 164.577 104.711C164.404 105.976 163.751 106.792 162.914 107.217C162.127 107.73 161.095 107.886 159.912 107.404C156.711 106.167 157.311 102.505 159.449 101.215ZM157.32 105.948C157.882 107.148 158.958 108.031 160.371 108.33C154.21 111.077 159.172 109.946 157.32 105.948ZM154.719 104.536C157.545 105.529 157.729 109.532 155.13 110.814C149.238 114.016 148.198 102.241 154.719 104.536ZM150.596 110.716C152.713 112.916 155.214 110.618 150.056 113.629C150.567 112.473 150.708 111.51 150.596 110.716ZM149.219 110.122C151.424 114.068 145.876 117.403 143.395 113.72C140.798 109.858 146.988 106.14 149.219 110.122ZM146.116 116.032C140.544 119.619 145.183 117.78 142.772 114.15C143.554 115.306 144.811 115.965 146.116 116.032ZM163.961 109.03C175.623 100.039 189.319 93.3857 204.481 89.9322C182.693 98.699 190.809 120.716 188.346 118.335C182.178 112.38 173.571 110.03 165.478 111.656C160.022 117.852 157.754 126.481 159.828 134.801C160.658 138.124 145.648 120.087 127.162 134.573C137.733 123.169 150.343 114.634 163.961 109.03ZM129.64 124.464C130.594 125.496 131.914 125.958 133.203 125.826C128.279 130.188 132.544 127.665 129.64 124.464ZM135.996 119.041C138.67 122.428 141.891 118.67 136.769 122.82C137.381 120.492 135.874 118.939 135.996 119.041ZM139.94 113.132C142.873 113.66 143.765 117.527 141.343 119.299C136.052 123.287 133.181 111.929 139.94 113.132ZM133.17 118.254C136.083 118.566 137.224 122.449 134.988 124.305C129.714 128.541 126.4 117.525 133.17 118.254ZM126.667 123.882C129.71 123.953 131.097 127.707 128.977 129.789C124.296 134.486 119.883 123.734 126.667 123.882ZM114.772 137.11C114.44 134.575 115.814 133.419 117.43 133.254C117.311 131.634 118.211 130.08 120.766 129.967C123.637 129.841 125.44 133.405 123.429 135.718C122.861 136.316 122.292 136.685 121.741 136.872C121.653 137.446 121.388 138.071 120.898 138.734C118.97 141.116 115.147 139.96 114.772 137.11ZM109.805 143.978C108.481 137.323 119.836 139.802 116.023 145.227C114.341 147.676 110.403 146.963 109.805 143.978ZM111.666 152.099C110.226 154.624 106.204 154.174 105.391 151.359C103.497 144.82 114.922 146.169 111.666 152.099ZM101.523 158.916C99.1647 152.469 110.849 153.324 107.839 159.227C106.514 161.92 102.552 161.713 101.523 158.916ZM102.701 162.216C106.759 164.02 104.439 170.063 100.169 168.577C95.861 167.071 98.4471 160.329 102.701 162.216ZM95.623 174.963C92.2311 168.94 104.008 167.919 101.877 174.277C101.066 177.06 97.0918 177.574 95.623 174.963ZM93.1744 180.198C94.0732 177.868 97.5757 176.642 99.3499 179.579C100.03 180.66 100.055 181.705 99.6868 182.568C99.4135 183.467 98.7233 184.251 97.5073 184.641C94.2603 185.751 92.3655 182.56 93.1744 180.198ZM91.6856 185.782C94.4889 184.726 97.2031 187.674 96.0359 190.327C93.5807 196.567 85.2151 188.216 91.6856 185.782ZM93.9593 195.745C93.6072 194.531 93.0954 193.703 92.4996 193.166C95.5357 193.491 95.9751 190.123 93.9593 195.745ZM91.0631 193.596C95.2889 195.202 93.1821 201.323 88.9141 200.096C84.4422 198.807 86.795 191.98 91.0631 193.596ZM85.8899 201.867C88.4761 200.386 91.6445 202.775 90.9284 205.689C89.4396 212.145 79.9393 205.29 85.8899 201.867ZM83.9963 210.142C86.4286 208.509 89.7982 210.749 89.2784 213.609C87.9608 220.244 78.3415 213.935 83.9963 210.142ZM82.6322 218.634C85.0097 216.732 88.4846 218.716 88.1985 221.674C87.6324 228.281 77.3406 222.881 82.6322 218.634ZM87.7593 229.782C87.7088 230.604 87.5097 231.253 87.2081 231.75C87.5097 232.247 87.7088 232.896 87.7593 233.719C87.8133 236.783 84.1418 238.355 82.0227 236.412C80.1382 234.684 80.4475 232.915 81.5805 231.75C80.4475 230.585 80.1382 228.816 82.0227 227.088C84.1421 225.146 87.8133 226.718 87.7593 229.782Z" fill="url(#paint0_linear_126_146)"/>
<path d="M162.129 258.205C162.564 267.631 166.461 276.733 172.549 283.995C178.644 291.252 186.931 296.67 196.139 298.736C202.091 305.198 210.167 309.484 218.782 311.381L218.782 310.274C209.119 308.142 201.84 303.556 196.816 297.564C188.557 296.111 180.387 291.655 173.377 283.301C166.367 274.947 163.398 266.128 163.401 257.742C158.009 251.32 154.614 242.656 154.614 231.75C154.614 220.845 158.009 212.18 163.401 205.758C163.398 197.373 166.367 188.553 173.377 180.199C180.387 171.845 188.557 167.39 196.816 165.936C201.84 159.944 209.119 155.358 218.782 153.226L218.782 152.119C210.167 154.016 202.091 158.302 196.139 164.764C186.931 166.83 178.644 172.247 172.549 179.504C166.461 186.767 162.565 195.869 162.129 205.295C156.404 212.796 153.538 222.273 153.533 231.75C153.538 241.227 156.403 250.704 162.129 258.205Z" fill="url(#paint1_linear_126_146)"/>
<path d="M162.725 244.998C162.769 249.354 164.266 253.348 166.759 256.52C166.888 260.551 168.308 264.573 171.075 267.938C170.676 273.093 172.363 277.915 175.433 281.575C178.504 285.235 182.961 287.733 188.106 288.236C190.94 291.545 194.654 293.642 198.602 294.469C201.292 297.474 204.965 299.643 209.248 300.442C211.698 303.867 215.073 306.214 218.782 307.422L218.782 306.426C215.661 305.346 212.803 303.4 210.597 300.632C213.324 300.942 216.118 300.661 218.782 299.763L218.782 298.954C209.317 303.047 205.563 295.403 206.867 286.754C214.246 287.856 217.429 287.937 218.782 288.082L218.782 286.799C216.216 285.425 216.963 285.522 218.782 284.586L218.782 283.46C218.175 283.899 217.327 284.338 216.078 284.818C206.318 276.326 212.567 275.619 218.782 274.799L218.782 274.007C217.665 274.101 216.545 274.103 215.436 273.989C216.504 273.35 217.627 272.842 218.782 272.442L218.782 271.061C217.465 271.629 215.876 272.487 213.973 273.786C212.604 273.532 211.642 273.316 210.985 273.021C210.401 272.6 209.732 271.874 208.828 270.816C209.162 266.404 208.682 263.769 208.098 262.294C209.406 263.095 211.803 263.988 215.937 264.442C216.978 265.861 217.925 266.956 218.782 267.821L218.782 266.163C218.194 265.611 217.636 265.029 217.129 264.405C217.692 264.547 218.24 264.723 218.782 264.915L218.782 263.953C217.948 263.744 217.271 263.608 216.652 263.205C214.802 262.267 214.568 259.893 208.247 257.887C211.272 257.476 215.668 254.951 218.782 254.274L218.782 252.974C218.727 252.966 218.674 252.952 218.619 252.945C218.677 252.891 218.727 252.839 218.782 252.786L218.782 251.521C218.397 251.899 217.953 252.306 217.375 252.799C212.979 252.471 210.336 252.946 208.86 253.527L208.861 253.526L208.859 253.526C209.687 252.173 210.614 249.653 211.055 245.267C214.665 242.287 215.016 242.548 217.878 245.959C218.22 246.367 218.518 246.726 218.782 247.056L218.782 245.58C218.72 245.505 218.67 245.422 218.608 245.347C217.72 244.289 216.73 243.354 215.639 242.515C216.854 242.012 217.887 241.653 218.782 241.4L218.782 240.01C215.442 239.897 213.444 239.942 212.283 239.95C213.352 239.065 215.358 237.464 218.782 234.305L218.782 233.16C217.894 234.007 216.143 234.901 213.205 235.827C213.501 234.483 213.659 233.13 213.659 231.749C213.659 230.368 213.501 229.016 213.205 227.672C216.143 228.597 217.894 229.491 218.782 230.338L218.782 229.193C215.358 226.034 213.352 224.433 212.283 223.549C213.444 223.556 215.442 223.601 218.782 223.488L218.782 222.098C217.887 221.846 216.854 221.487 215.639 220.983C216.73 220.144 217.72 219.209 218.608 218.152C218.67 218.077 218.72 217.994 218.782 217.918L218.782 216.442C218.518 216.773 218.22 217.132 217.878 217.54C215.016 220.951 214.665 221.212 211.055 218.232C210.615 213.846 209.687 211.325 208.859 209.972L208.861 209.973L208.86 209.972C210.336 210.552 212.979 211.028 217.375 210.7C217.953 211.193 218.397 211.6 218.782 211.978L218.782 210.713C218.727 210.66 218.677 210.608 218.619 210.554C218.674 210.546 218.727 210.532 218.782 210.524L218.782 209.224C215.668 208.548 211.272 206.022 208.247 205.612C214.568 203.606 214.802 201.232 216.652 200.294C217.271 199.89 217.948 199.754 218.782 199.545L218.782 198.583C218.24 198.776 217.692 198.952 217.129 199.093C217.636 198.469 218.194 197.887 218.782 197.336L218.782 195.678C217.926 196.543 216.978 197.639 215.937 199.057C211.803 199.511 209.406 200.404 208.098 201.205C208.682 199.73 209.162 197.095 208.828 192.683C209.732 191.625 210.401 190.899 210.985 190.478C211.641 190.183 212.604 189.967 213.973 189.712C215.876 191.012 217.465 191.871 218.782 192.438L218.782 191.057C217.627 190.657 216.504 190.149 215.436 189.51C216.545 189.396 217.665 189.398 218.782 189.492L218.782 188.7C212.567 187.88 206.318 187.174 216.078 178.681C217.326 179.161 218.175 179.6 218.782 180.039L218.782 178.913C216.963 177.978 216.216 178.075 218.782 176.701L218.782 175.418C217.429 175.563 214.246 175.643 206.867 176.746C205.563 168.097 209.317 160.452 218.782 164.545L218.782 163.736C216.119 162.838 213.324 162.557 210.597 162.867C212.803 160.099 215.661 158.153 218.782 157.073L218.782 156.077C215.073 157.285 211.699 159.632 209.248 163.058C204.965 163.857 201.292 166.025 198.602 169.03C194.654 169.858 190.94 171.955 188.106 175.264C182.961 175.766 178.504 178.265 175.433 181.925C172.363 185.584 170.676 190.407 171.075 195.561C168.308 198.926 166.888 202.949 166.759 206.98C164.266 210.151 162.769 214.145 162.725 218.501C159.107 222.193 157.299 226.972 157.299 231.75C157.299 236.527 159.107 241.305 162.725 244.998ZM167.703 256.176C165.41 253.358 163.961 249.819 163.721 245.928C166.957 248.79 171.166 250.562 175.789 250.672C175.809 251.514 175.885 252.341 176.012 253.152C176.436 253.854 176.91 254.537 177.435 255.194C173.964 258.25 171.879 262.314 171.24 266.586C168.923 263.45 167.758 259.808 167.703 256.176ZM176.22 235.827C172.205 234.563 169.906 233.184 169.899 231.75C169.906 230.315 172.205 228.937 176.22 227.672C175.913 229.067 175.766 230.42 175.766 231.75C175.767 233.079 175.913 234.433 176.22 235.827ZM168.624 231.078C158.442 220.37 165.939 214.025 175.792 213.78C176.355 235.261 179.231 221.021 168.624 231.078ZM175.792 249.72C165.939 249.474 158.442 243.129 168.624 232.421C179.23 242.478 176.355 228.238 175.792 249.72ZM197.061 192.464C196.232 191.84 195.354 191.28 194.43 190.797C198.173 188.417 196.956 189.415 197.061 192.464ZM197.134 193.713C197.573 198.098 198.499 200.619 199.326 201.973C197.849 201.393 195.206 200.919 190.812 201.248C187.267 198.222 187.441 197.827 190.31 194.407C193.18 190.988 193.539 190.749 197.134 193.713ZM203.732 201.825C200.8 192.645 197.069 196.297 198.222 188.991C214.578 183.368 204.579 195.565 203.732 201.825ZM198.416 187.922C200.467 178.625 203.45 179.666 206.569 187.213C203.833 186.857 201.049 187.098 198.416 187.922ZM207.922 193.849C207.982 197.734 206.8 201.479 204.521 204.626C204.462 200.639 205.718 196.898 207.922 193.849ZM198.222 274.508C197.069 267.202 200.8 270.855 203.732 261.674C204.579 267.935 214.578 280.132 198.222 274.508ZM204.521 258.874C206.8 262.02 207.982 265.765 207.922 269.65C205.718 266.601 204.462 262.86 204.521 258.874ZM206.569 276.286C203.45 283.834 200.467 284.875 198.416 275.578C201.049 276.401 203.833 276.643 206.569 276.286ZM194.43 272.702C195.354 272.219 196.232 271.66 197.061 271.035C196.956 274.085 198.173 275.082 194.43 272.702ZM197.134 269.786C193.539 272.751 193.18 272.512 190.31 269.092C187.44 265.672 187.267 265.277 190.812 262.252C195.206 262.581 197.849 262.107 199.326 261.527C198.499 262.881 197.573 265.402 197.134 269.786ZM186.049 211.668C178.074 209.907 176.531 207.15 185.331 203.516C184.977 206.253 185.222 209.035 186.049 211.668ZM199.946 206.337C193.928 208.258 183.652 220.224 186.35 203.139C193.345 200.735 190.396 205.044 199.946 206.337ZM187.471 199.092C188.107 199.918 188.81 200.685 189.569 201.394C186.547 201.819 185.777 203.191 187.471 199.092ZM192.819 211.848C195.439 209.149 198.905 207.262 202.841 206.628C200.138 209.419 196.656 211.233 192.819 211.848ZM198.227 194.704C200.923 197.323 202.808 200.785 203.44 204.717C200.583 201.943 198.827 198.413 198.227 194.704ZM202.743 205.548C198.761 205.607 195.024 204.353 191.977 202.153C195.734 202.099 199.515 203.215 202.743 205.548ZM187.496 212.88C188.51 213.011 189.54 213.05 190.579 213.015C189.869 213.958 189.499 214.758 189.216 215.154C189.178 215.639 188.948 216.49 188.885 217.669C188.112 216.973 187.298 216.342 186.437 215.79C187.321 215.329 187.939 215.017 188.363 214.844C188.149 214.438 187.877 213.801 187.496 212.88ZM191.768 228.805C183.622 223.656 183.111 228.853 179.298 222.515C188.213 207.694 188.393 223.465 191.768 228.805ZM182.974 226.888C186.723 227.161 190.392 228.602 193.403 231.207C189.432 230.919 185.818 229.344 182.974 226.888ZM193.403 232.292C190.392 234.897 186.723 236.339 182.974 236.612C185.818 234.155 189.432 232.58 193.403 232.292ZM194.173 233.056C193.897 236.932 192.395 240.56 189.851 243.498C190.123 239.746 191.565 236.072 194.173 233.056ZM189.851 220.002C192.395 222.939 193.897 226.567 194.173 230.443C191.565 227.427 190.123 223.754 189.851 220.002ZM180.641 225.921C179.604 225.977 178.573 226.112 177.555 226.336C178.892 222.107 178.601 223.653 180.641 225.921ZM181.5 226.832C184.654 229.908 186.984 231.244 188.489 231.75C186.984 232.255 184.654 233.591 181.5 236.668C176.84 236.628 176.719 236.214 176.719 231.75C176.719 227.285 176.84 226.871 181.5 226.832ZM180.641 237.578C178.601 239.847 178.892 241.392 177.555 237.163C178.573 237.387 179.604 237.523 180.641 237.578ZM191.768 234.695C188.393 240.034 188.213 255.806 179.298 240.984C183.111 234.646 183.622 239.843 191.768 234.695ZM202.841 256.872C198.905 256.238 195.439 254.351 192.819 251.651C196.656 252.266 200.138 254.081 202.841 256.872ZM191.977 261.347C195.024 259.146 198.761 257.892 202.743 257.952C199.515 260.284 195.734 261.4 191.977 261.347ZM203.44 258.783C202.808 262.714 200.923 266.177 198.227 268.796C198.827 265.086 200.583 261.557 203.44 258.783ZM199.946 257.162C190.396 258.455 193.345 262.764 186.35 260.36C183.652 243.276 193.928 255.242 199.946 257.162ZM189.569 262.106C188.81 262.815 188.107 263.581 187.471 264.408C185.777 260.309 186.547 261.68 189.569 262.106ZM187.496 250.619C187.877 249.698 188.149 249.062 188.363 248.656C187.938 248.483 187.321 248.17 186.437 247.71C187.298 247.158 188.112 246.526 188.885 245.831C188.948 247.01 189.178 247.861 189.216 248.346C189.499 248.742 189.869 249.541 190.579 250.485C189.54 250.449 188.51 250.489 187.496 250.619ZM186.049 251.831C185.222 254.464 184.977 257.247 185.331 259.983C176.531 256.349 178.074 253.592 186.049 251.831ZM178.165 254.583C177.69 253.985 177.259 253.404 176.873 252.838C176.805 252.156 176.761 251.435 176.742 250.671C179.67 250.595 181.937 250.477 183.693 250.356C182.27 251.392 180.458 252.759 178.165 254.583ZM183.678 273.781C168.995 272.123 170.659 262.444 178.049 255.922C192.289 272.015 185.338 259.259 183.678 273.781ZM187.307 266.289C187.968 267.555 188.726 268.686 189.581 269.704C190.436 270.723 191.418 271.666 192.549 272.536C188.661 274.148 186.014 274.57 185.086 273.476C184.169 272.372 185.045 269.838 187.307 266.289ZM200.275 245.399C202.554 248.547 203.732 252.291 203.671 256.177C201.336 252.946 200.219 249.16 200.275 245.399ZM191.828 250.556C190.943 249.482 190.345 248.697 190.031 248.049C189.855 247.351 189.809 246.365 189.796 244.974C192.888 241.808 194.214 239.481 194.715 237.976C195.202 239.431 196.464 241.656 199.339 244.661C199.068 248.812 199.532 251.327 200.094 252.755C198.743 251.923 196.231 250.993 191.828 250.556ZM195.255 233.055C197.8 235.993 199.304 239.618 199.582 243.494C197.121 240.649 195.543 237.032 195.255 233.055ZM206.45 236.611C202.703 236.336 199.035 234.896 196.023 232.292C199.993 232.58 203.606 234.155 206.45 236.611ZM196.022 231.207C199.034 228.604 202.703 227.163 206.45 226.889C203.606 229.345 199.993 230.919 196.022 231.207ZM195.255 230.444C195.543 226.468 197.121 222.85 199.582 220.005C199.304 223.881 197.8 227.507 195.255 230.444ZM199.339 218.838C196.464 221.843 195.202 224.068 194.715 225.523C194.214 224.018 192.888 221.691 189.796 218.526C189.809 217.134 189.854 216.148 190.031 215.45C190.345 214.802 190.943 214.018 191.828 212.943C196.231 212.506 198.743 211.576 200.094 210.744C199.532 212.172 199.068 214.688 199.339 218.838ZM203.671 207.322C203.733 211.208 202.554 214.952 200.275 218.1C200.219 214.339 201.336 210.554 203.671 207.322ZM189.581 193.795C188.726 194.814 187.968 195.945 187.307 197.211C185.044 193.662 184.169 191.128 185.086 190.024C186.014 188.93 188.661 189.352 192.549 190.964C191.418 191.834 190.436 192.777 189.581 193.795ZM178.049 207.578C170.659 201.056 168.995 191.376 183.678 189.719C185.338 204.241 192.289 191.484 178.049 207.578ZM178.165 208.917C180.458 210.74 182.27 212.107 183.693 213.143C181.937 213.023 179.67 212.905 176.742 212.828C176.761 212.065 176.805 211.343 176.873 210.661C177.26 210.096 177.69 209.514 178.165 208.917ZM184.549 215.788C182.224 217.273 180.247 219.247 178.759 221.571C174.354 213.131 177.309 212.011 184.549 215.788ZM178.759 241.928C180.247 244.252 182.223 246.226 184.549 247.712C177.309 251.489 174.354 250.369 178.759 241.928ZM176.163 280.963C173.44 277.717 171.871 273.503 171.986 268.951C174.96 272.084 178.998 274.216 183.593 274.729C183.3 279.342 184.698 283.689 187.267 287.162C182.764 286.485 178.886 284.208 176.163 280.963ZM184.541 274.81C199.131 275.696 187.775 266.636 201.151 283.454C193.445 289.599 183.624 289.557 184.541 274.81ZM208.506 299.3C204.715 298.387 201.482 296.346 199.105 293.598C195.537 292.913 192.153 291.134 189.467 288.307C193.785 288.42 198.149 287.072 201.761 284.184C202.317 284.816 202.907 285.402 203.525 285.941C204.301 286.206 205.104 286.424 205.929 286.59C205.234 291.163 206.249 295.616 208.506 299.3ZM206.095 285.653C205.347 285.502 204.643 285.332 203.984 285.147C203.494 284.669 202.996 284.144 202.49 283.572C204.684 281.631 206.345 280.083 207.612 278.862C207.189 280.571 206.679 282.783 206.095 285.653ZM215.056 285.184C205.979 288.057 205.389 284.953 210.365 278.478C211.425 281.026 213.026 283.316 215.056 285.184ZM210.551 273.773C211.022 273.894 211.82 274.268 212.97 274.535C212.151 275.175 211.388 275.867 210.695 276.619C210.395 275.669 210.194 275.006 210.098 274.558C209.661 274.699 208.987 274.856 208.014 275.071C208.319 274.095 208.536 273.088 208.682 272.059C209.487 272.921 210.21 273.425 210.551 273.773ZM215.374 263.393C211.66 262.795 208.126 261.038 205.349 258.177C209.187 258.791 212.669 260.602 215.374 263.393ZM216.21 253.705C213.163 255.904 209.427 257.158 205.446 257.099C208.673 254.768 212.453 253.651 216.21 253.705ZM204.749 256.268C205.383 252.338 207.267 248.876 209.961 246.258C209.361 249.967 207.606 253.495 204.749 256.268ZM204.459 253.373C203.581 246.799 201.284 246.157 200.682 244.173C199.868 242.265 201.214 240.297 197.661 234.696C201.235 236.954 209.451 237.787 210.088 240.749C211.505 243.428 205.746 249.347 204.459 253.373ZM208.784 237.578C211.875 237.414 212.715 236.115 210.666 240.041C210.106 239.166 209.475 238.346 208.784 237.578ZM211.127 244.017C211.163 242.983 211.119 241.949 210.986 240.92C215.079 242.61 213.6 242.155 211.127 244.017ZM212.706 231.75C212.706 236.203 212.605 236.628 207.924 236.666C204.768 233.589 202.438 232.254 200.933 231.75L200.935 231.75L200.933 231.749C202.437 231.245 204.768 229.911 207.924 226.833C212.606 226.872 212.706 227.296 212.706 231.75ZM211.127 219.483C213.6 221.345 215.079 220.889 210.986 222.579C211.119 221.55 211.163 220.516 211.127 219.483ZM208.784 225.922C209.475 225.153 210.106 224.333 210.666 223.459C212.714 227.384 211.875 226.085 208.784 225.922ZM210.088 222.75C209.451 225.713 201.235 226.546 197.661 228.803C201.214 223.203 199.868 221.234 200.682 219.327C201.284 217.342 203.581 216.7 204.459 210.126C205.746 214.152 211.505 220.072 210.088 222.75ZM204.749 207.231C207.606 210.004 209.361 213.533 209.961 217.242C207.267 214.623 205.383 211.162 204.749 207.231ZM216.21 209.795C212.453 209.848 208.673 208.732 205.447 206.4C209.427 206.342 213.163 207.596 216.21 209.795ZM205.349 205.322C208.126 202.462 211.66 200.705 215.374 200.107C212.669 202.897 209.187 204.708 205.349 205.322ZM212.97 188.964C211.82 189.231 211.022 189.605 210.551 189.727C210.21 190.074 209.487 190.578 208.681 191.441C208.536 190.411 208.318 189.405 208.013 188.428C208.986 188.644 209.661 188.801 210.097 188.941C210.194 188.493 210.395 187.83 210.695 186.88C211.388 187.632 212.151 188.324 212.97 188.964ZM215.056 178.315C213.026 180.184 211.425 182.473 210.365 185.021C205.389 178.547 205.979 175.442 215.056 178.315ZM207.613 184.637C206.345 183.416 204.684 181.868 202.49 179.927C202.996 179.355 203.494 178.83 203.984 178.352C204.644 178.167 205.347 177.997 206.096 177.846C206.679 180.717 207.189 182.929 207.613 184.637ZM199.105 169.901C201.482 167.154 204.715 165.112 208.506 164.2C206.249 167.883 205.234 172.337 205.929 176.909C205.104 177.075 204.302 177.293 203.526 177.558C202.907 178.098 202.318 178.683 201.762 179.315C198.149 176.427 193.785 175.079 189.467 175.192C192.153 172.365 195.537 170.586 199.105 169.901ZM201.151 180.046C187.775 196.864 199.131 187.803 184.541 188.69C183.624 173.942 193.445 173.901 201.151 180.046ZM176.163 182.537C178.886 179.291 182.764 177.014 187.267 176.337C184.699 179.81 183.3 184.157 183.593 188.771C178.998 189.283 174.96 191.416 171.986 194.548C171.871 189.996 173.44 185.782 176.163 182.537ZM167.703 207.324C167.758 203.691 168.923 200.049 171.24 196.914C171.879 201.186 173.964 205.249 177.435 208.305C176.91 208.963 176.436 209.645 176.012 210.348C175.885 211.158 175.81 211.986 175.789 212.827C171.166 212.937 166.957 214.71 163.721 217.572C163.961 213.68 165.411 210.142 167.703 207.324ZM162.772 219.863C163.037 224.175 164.76 228.404 167.95 231.75C164.76 235.095 163.037 239.325 162.772 243.636C159.758 240.223 158.251 235.986 158.251 231.75C158.251 227.513 159.758 223.276 162.772 219.863Z" fill="url(#paint2_linear_126_146)"/>
<path d="M3.09349 233.055C14.1388 237.976 33.8255 272.509 58.5018 268.246C44.3264 273.454 38.7749 290.005 35.0435 304.46C47.1932 313.134 62.0848 322.245 76.2914 317.123C54.6477 329.719 61.7642 368.827 56.4661 379.696C55.5787 381.517 55.0335 382.304 55.1519 382.503C55.328 382.655 56.197 382.254 58.1446 381.697C69.7688 378.366 107.047 392.166 123.21 373.038C115.699 386.14 122.085 402.387 128.518 415.859C143.401 414.694 160.665 412.101 168.255 399.045C159.772 422.607 190.362 447.991 193.29 459.722C193.781 461.688 193.868 462.641 194.087 462.718C194.319 462.72 194.728 461.855 195.861 460.176C199.054 455.445 209.078 449.961 218.782 442.859L218.782 439.316C209.497 446.475 199.373 452.144 195.18 456.523C188.701 441.809 146.138 404.311 187.384 383.663C197.44 387.277 190.528 383.715 186.465 386.476C183.479 388.502 182.354 396.332 195.027 394.223C172.9 404.655 184.492 421.121 201.178 400.133C197.639 407.461 192.317 420.375 199.895 423.444C189.657 428.569 188.888 435.669 196.555 443.088C194.747 443.133 193.199 444.178 192.884 445.754C192.215 449.099 194.164 450.101 196.355 449.858C198.33 450.835 200.504 450.561 201.02 447.188C201.263 445.6 200.165 444.089 198.482 443.428C208.224 439.079 209.929 432.143 202.061 423.826C210.232 423.534 209.649 409.578 208.829 401.482C211.764 410.26 215.654 414.633 218.782 415.886L218.782 414.451C218.329 414.394 217.956 414.292 217.752 414.175C212.44 411.112 208.657 396.906 207.618 391.579C212.806 396.311 216.374 400.081 218.782 403.097L218.782 400.393C218.127 399.619 217.426 398.834 216.63 398.032C217.395 398.463 218.105 398.817 218.782 399.123L218.782 397.612C214.777 395.614 210.39 392.175 208.394 390.324C212.778 390.569 216.162 390.985 218.782 391.504L218.782 386.888C215.107 386.713 211.39 386.368 207.646 385.821C188.489 381.861 171.775 373.14 158.625 363.711C143.885 357.038 127.975 346.923 114.967 332.312C102.837 316.965 95.6392 299.54 91.6262 283.865C84.6245 269.278 78.9378 251.303 78.3649 231.75C78.9378 212.196 84.6245 194.221 91.6262 179.634C95.6389 163.959 102.837 146.534 114.967 131.186C127.975 116.576 143.885 106.461 158.625 99.7875C171.775 90.3592 188.489 81.6376 207.646 77.6779C211.39 77.1304 215.107 76.786 218.782 76.6111L218.782 71.9941C216.162 72.5133 212.778 72.9302 208.394 73.175C210.39 71.3244 214.777 67.8846 218.782 65.8874L218.782 64.3757C218.105 64.6822 217.395 65.0357 216.63 65.4671C217.426 64.6648 218.127 63.8802 218.782 63.1058L218.782 60.4016C216.375 63.4185 212.806 67.1882 207.618 71.9199C208.657 66.5927 212.44 52.3867 217.752 49.3241C217.956 49.2071 218.329 49.1044 218.782 49.0481L218.782 47.6121C215.654 48.8655 211.764 53.2386 208.829 62.0162C209.649 53.9205 210.232 39.9647 202.062 39.6726C209.929 31.3555 208.224 24.42 198.482 20.0706C200.165 19.4101 201.263 17.8987 201.02 16.3104C200.504 12.9379 198.33 12.6632 196.355 13.6404C194.164 13.3978 192.215 14.3996 192.884 17.745C193.199 19.3205 194.747 20.3653 196.555 20.4104C188.888 27.8296 189.657 34.93 199.895 40.0543C192.317 43.1235 197.639 56.0382 201.178 63.3652C184.492 42.3782 172.9 58.844 195.028 69.2758C182.355 67.167 183.48 74.997 186.465 77.0228C190.528 79.7839 197.44 76.2213 187.384 79.8355C146.138 59.1881 188.701 21.6901 195.18 6.97645C199.373 11.3547 209.497 17.0237 218.782 24.1835L218.782 20.6409C209.078 13.5382 199.054 8.05467 195.861 3.3238C194.728 1.64469 194.319 0.779338 194.087 0.781902C193.869 0.858928 193.781 1.8116 193.29 3.77714C190.362 15.5092 159.772 40.8932 168.255 64.4548C160.665 51.3989 143.401 48.8059 128.518 47.6412C122.085 61.1126 115.699 77.3601 123.21 90.4616C107.047 71.3338 69.7691 85.1335 58.1447 81.8033C56.1971 81.2458 55.328 80.8455 55.1519 80.9964C55.0338 81.1961 55.5791 81.9825 56.4661 83.8037C61.7642 94.6729 54.6477 133.781 76.2914 146.377C62.0848 141.255 47.193 150.365 35.0435 159.04C38.7749 173.495 44.3264 190.046 58.5019 195.254C33.8255 190.991 14.1388 225.524 3.09349 230.444C1.2432 231.269 0.320187 231.521 0.282239 231.75C0.319901 231.979 1.2432 232.23 3.09349 233.055ZM197.718 442.269C197.714 442.272 197.705 442.272 197.693 442.268C197.68 442.267 197.672 442.265 197.669 442.26C197.346 442.529 185.29 431.782 200.865 424.296C212.934 436.657 197.93 442.632 197.718 442.269ZM201.191 422.43C192.068 420.088 201.65 401.82 206.354 393.152C207.809 402.907 210.565 423.35 201.191 422.43ZM188.452 409.008C186.459 409.357 173.216 404.61 205.703 391.241C202.905 395.892 194.492 407.947 188.452 409.008ZM187.456 392.641C185.747 391.804 180.901 382.398 205.403 389.797C201.604 391.397 191.387 394.566 187.456 392.641ZM183.776 382.335C177.551 385.826 173.022 390.052 170.202 394.869C177.989 373.028 159.962 372.898 183.776 382.335ZM197.669 21.2393C197.672 21.2347 197.68 21.2319 197.693 21.2313C197.705 21.2276 197.714 21.2273 197.718 21.2307C197.93 20.8675 212.934 26.8426 200.859 39.2049C185.29 31.717 197.346 20.9705 197.669 21.2393ZM201.191 41.0698C210.565 40.1499 207.809 60.593 206.354 70.3472C201.65 61.6786 192.068 43.4111 201.191 41.0698ZM188.452 54.4909C194.491 55.552 202.904 67.6076 205.703 72.258C173.216 58.8888 186.459 54.1419 188.452 54.4909ZM187.456 70.8585C191.387 68.9338 201.604 72.1025 205.403 73.7031C180.901 81.1018 185.747 71.695 187.456 70.8585ZM183.776 81.1636C159.963 90.6017 177.989 90.4713 170.202 68.6299C173.022 73.4478 177.551 77.673 183.776 81.1636ZM154.313 371.179C135.921 372.765 137.629 359.895 156.198 367.916C172.428 379.986 162.136 387.9 154.313 371.179ZM147.312 383.306C134.467 390.564 131.751 379.444 153.016 373.426C158.437 394.851 147.449 398.059 147.312 383.306ZM148.907 363.508C138.654 360.936 135.146 372.437 149.83 372.651C129.467 378.082 133.12 390.937 146.223 385.193C147.799 399.412 160.759 396.148 155.281 375.798C162.808 388.408 171.014 379.618 163.66 372.025C173.369 378.229 171.785 402.815 148.961 409.551C143.254 411.466 136.672 412.32 130.249 412.859C127.505 407.027 124.953 400.9 123.758 395C118.181 371.866 138.68 358.202 148.907 363.508ZM125.853 369.265C128.615 364.413 130.009 358.378 129.921 351.242C150 367.146 140.874 351.599 125.853 369.265ZM119.156 353.208C115.523 350.766 113.159 340.334 112.646 336.243C131.304 353.763 120.735 354.269 119.156 353.208ZM104.483 360.529C102.382 354.768 108.616 341.454 111.244 336.706C115.91 371.525 105.177 362.43 104.483 360.529ZM85.3586 337.738C83.6073 336.724 76.5143 324.575 109.994 335.216C104.861 336.979 90.6672 340.807 85.3586 337.738ZM95.1162 324.559C94.345 322.819 96.6792 312.498 110.693 333.916C106.754 332.7 96.8906 328.561 95.1162 324.559ZM98.3198 319.199C94.731 318.832 88.8364 324.107 99.8996 330.638C76.2435 324.406 74.5396 344.47 100.812 339.119C93.3909 342.457 81.0132 348.929 84.8454 356.152C73.7088 353.497 68.555 358.441 69.6595 369.053C68.2457 367.925 66.388 367.731 65.1343 368.735C62.4714 370.867 63.3206 372.888 65.1546 374.11C66.0396 376.128 67.882 377.315 70.4447 375.063C71.6516 374.003 71.7823 372.14 70.9177 370.551C81.1764 373.482 86.9407 369.265 86.2596 357.837C92.7067 362.865 101.23 351.799 105.806 345.07C95.9736 370.014 116.03 371.821 114 347.442C118.51 359.471 124.729 354.582 124.99 350.983C125.35 346.084 118.809 341.879 126.967 348.781C129.709 394.825 75.9531 376.714 59.9712 378.459C64.4655 363.024 55.9639 306.939 100.833 317.635C106.212 326.868 103.207 319.696 98.3198 319.199ZM109.264 337.098C104.109 345.505 93.0799 362.937 86.4905 356.207C81.0066 348.549 100.089 340.715 109.264 337.098ZM71.0775 369.173C71.0721 369.173 71.0659 369.167 71.0587 369.156C71.0496 369.147 71.045 369.14 71.0456 369.135C70.625 369.133 68.2977 353.151 85.0414 357.427C86.3413 374.654 71.0065 369.587 71.0775 369.173ZM98.9213 314.299C91.9096 312.972 85.7238 313.297 80.4665 315.175C100.472 303.45 86.7459 291.762 98.9213 314.299ZM83.5229 286.815C68.415 276.207 77.996 267.446 87.064 285.526C91.7389 305.205 78.7681 304.652 83.5229 286.815ZM84.3126 277.463C78.1121 268.902 68.0309 275.458 79.1427 285.06C60.0528 276.131 54.5878 288.328 68.3173 292.349C60.3852 304.255 72.4108 310.085 81.2954 290.975C78.956 305.473 90.8921 304.015 90.1392 293.471C93.5889 304.464 76.5722 322.28 54.7581 312.769C49.1556 310.568 43.5648 306.991 38.2984 303.275C39.9447 297.044 41.9279 290.71 44.8048 285.422C55.4021 264.115 79.8893 266.825 84.3126 277.463ZM81.0845 287.702C71.4656 307.599 60.9866 302.993 70.3651 291.604C55.86 288.907 60.927 278.644 81.0845 287.702ZM62.9519 267.054C68.1861 265.113 73.1338 261.386 77.6524 255.863C82.8115 280.953 85.8137 263.177 62.9519 267.054ZM77.6524 207.636C73.1338 202.113 68.1861 198.386 62.9519 196.445C85.8137 200.322 82.8116 182.546 77.6524 207.636ZM87.064 177.973C77.996 196.053 68.4147 187.292 83.5229 176.684C78.7681 158.848 91.7389 158.294 87.064 177.973ZM80.4665 148.324C85.7241 150.202 91.9096 150.527 98.9213 149.201C86.7459 171.737 100.472 160.05 80.4665 148.324ZM111.244 126.794C108.616 122.045 102.382 108.731 104.483 102.97C105.177 101.069 115.91 91.975 111.244 126.794ZM110.693 129.583C96.6795 151.001 94.3453 140.68 95.1162 138.941C96.8906 134.939 106.754 130.799 110.693 129.583ZM109.994 128.284C76.514 138.924 83.6071 126.776 85.3583 125.762C90.6673 122.693 104.861 126.52 109.994 128.284ZM112.646 127.256C113.159 123.165 115.523 112.734 119.156 110.291C120.735 109.23 131.304 109.737 112.646 127.256ZM129.921 112.257C130.009 105.121 128.615 99.0862 125.853 94.2344C140.874 111.9 150 96.3532 129.921 112.257ZM156.197 95.5837C137.629 103.605 135.921 90.7347 154.313 92.3199C162.136 75.5996 172.428 83.5136 156.197 95.5837ZM147.312 80.1939C147.449 65.4409 158.437 68.6487 153.016 90.073C131.752 84.0551 134.467 72.9353 147.312 80.1939ZM123.758 68.4989C124.953 62.5991 127.505 56.4724 130.25 50.6402C136.672 51.1795 143.254 52.0329 148.961 53.9476C171.785 60.6843 173.369 85.27 163.66 91.4736C171.014 83.8804 162.808 75.0912 155.281 87.7011C160.759 67.3511 147.799 64.087 146.223 78.3062C133.12 72.5618 129.468 85.4172 149.83 90.8482C135.146 91.0619 138.655 102.563 148.908 99.991C138.68 105.298 118.181 91.6331 123.758 68.4989ZM59.971 85.0397C75.9528 86.7853 129.709 68.6741 126.966 114.718C118.809 121.62 125.35 117.415 124.99 112.516C124.728 108.917 118.51 104.029 114 116.058C116.029 91.6788 95.9734 93.4849 105.806 118.429C101.23 111.7 92.7064 100.634 86.2594 105.663C86.9404 94.2338 81.1761 90.0171 70.9175 92.9476C71.7823 91.3595 71.6516 89.4964 70.4444 88.4358C67.8817 86.1838 66.0394 87.3707 65.1543 89.3891C63.3206 90.6114 62.4712 92.6317 65.1341 94.7642C66.388 95.7688 68.2455 95.5739 69.6593 94.4464C68.5548 105.058 73.7085 110.003 84.845 107.347C81.0126 114.57 93.3907 121.042 100.812 124.38C74.5394 119.029 76.2433 139.094 99.8994 132.861C88.8361 139.392 94.7308 144.667 98.3195 144.3C103.207 143.803 106.212 136.632 100.832 145.863C55.964 156.56 64.4653 100.476 59.971 85.0397ZM109.264 126.402C100.089 122.785 81.0069 114.95 86.4905 107.292C93.0796 100.562 104.109 117.994 109.264 126.402ZM85.0374 106.077C68.2977 110.348 70.625 94.3668 71.0456 94.3651C71.045 94.3593 71.0493 94.3522 71.0588 94.3434C71.0659 94.3325 71.0721 94.3271 71.0776 94.3265C71.0065 93.9123 86.3413 88.845 85.0374 106.077ZM44.8045 178.077C41.9277 172.79 39.9444 166.455 38.2981 160.224C43.5648 156.508 49.1554 152.931 54.7579 150.73C76.5722 141.22 93.589 159.035 90.1389 170.028C90.8918 159.485 78.9558 158.026 81.2951 172.524C72.4106 153.414 60.3849 159.244 68.3171 171.15C54.5875 175.171 60.0526 187.367 79.1424 178.439C68.031 188.041 78.1118 194.596 84.3123 186.036C79.8893 196.675 55.4021 199.384 44.8045 178.077ZM81.0845 175.797C60.927 184.856 55.86 174.592 70.3651 171.896C60.9867 160.507 71.4659 155.901 81.0845 175.797ZM76.9714 211.421C75.1585 221.951 77.4665 214.525 74.0418 211.004C71.5284 208.416 63.6222 208.668 67.8994 220.781C53.7835 200.802 39.5809 215.077 63.1468 227.865C55.3163 225.652 41.674 222.654 39.9673 230.65C33.1427 221.457 26.0163 221.933 20.0414 230.771C19.6833 228.999 18.3855 227.656 16.7791 227.619C13.3684 227.541 12.7201 229.634 13.3393 231.75C12.7201 233.865 13.3684 235.958 16.7791 235.88C18.3855 235.843 19.683 234.5 20.0414 232.728C26.0166 241.567 33.1427 242.042 39.9673 232.849C41.6738 240.845 55.3163 237.847 63.1468 235.634C39.5809 248.422 53.7838 262.697 67.8994 242.717C63.6222 254.831 71.5284 255.083 74.0418 252.495C77.4665 248.973 75.1585 241.548 76.9714 252.078C49.4752 289.112 19.9378 240.685 6.57263 231.749C19.9378 222.814 49.4752 174.386 76.9714 211.421ZM72.6896 232.722C53.8823 262.394 51.5069 248.528 52.1966 246.626C54.2902 240.862 67.6235 234.67 72.6896 232.722ZM52.1966 216.873C51.5067 214.971 53.8823 201.105 72.6896 230.777C67.6235 228.829 54.2902 222.637 52.1966 216.873ZM74.0606 233.269C77.0924 258.683 68.6701 252.277 68.1428 250.449C66.9296 246.243 71.8242 236.732 74.0606 233.269ZM74.0606 230.231C71.8242 226.767 66.9299 217.256 68.1428 213.05C68.6698 211.222 77.0924 204.816 74.0606 230.231ZM70.9209 231.75C61.5673 234.877 41.9134 241.141 41.1916 231.75C41.9131 222.359 61.5673 228.623 70.9209 231.75ZM21.0469 231.75C21.0455 231.737 21.0469 231.729 21.0509 231.725C20.7299 231.453 29.2198 217.715 39.2976 231.753C29.2198 245.785 20.7302 232.047 21.0509 231.775C21.0466 231.771 21.0452 231.762 21.0469 231.75Z" fill="url(#paint3_linear_126_146)"/>
<defs>
<linearGradient id="paint0_linear_126_146" x1="8.33754" y1="231.75" x2="250.396" y2="223.634" gradientUnits="userSpaceOnUse">
<stop stop-color="#D41875" stop-opacity="0.02"/>
<stop offset="1" stop-color="#D41875" stop-opacity="0.2"/>
</linearGradient>
<linearGradient id="paint1_linear_126_146" x1="8.33754" y1="231.75" x2="250.396" y2="223.634" gradientUnits="userSpaceOnUse">
<stop stop-color="#D41875" stop-opacity="0.02"/>
<stop offset="1" stop-color="#D41875" stop-opacity="0.2"/>
</linearGradient>
<linearGradient id="paint2_linear_126_146" x1="8.33754" y1="231.75" x2="250.396" y2="223.634" gradientUnits="userSpaceOnUse">
<stop stop-color="#D41875" stop-opacity="0.02"/>
<stop offset="1" stop-color="#D41875" stop-opacity="0.2"/>
</linearGradient>
<linearGradient id="paint3_linear_126_146" x1="8.33754" y1="231.75" x2="250.396" y2="223.634" gradientUnits="userSpaceOnUse">
<stop stop-color="#D41875" stop-opacity="0.02"/>
<stop offset="1" stop-color="#D41875" stop-opacity="0.2"/>
</linearGradient>
</defs>
</svg>
