<svg width="206" height="463" viewBox="0 0 206 463" fill="none" xmlns="http://www.w3.org/2000/svg">
<path d="M125.43 231.75C126.701 234.295 125.34 238.228 121.603 238.016C127.169 238.344 126.45 247.077 120.8 246.334C124.635 246.837 125.656 251.859 122.49 253.987C121.71 254.51 121.126 254.759 120.7 254.86C121.048 255.119 121.48 255.574 121.979 256.354C124.06 259.598 121.047 263.755 117.365 262.678C123.516 264.459 119.449 270.954 115.709 271.118C119.516 273.68 116.201 280.509 111.491 278.314C113.849 279.423 114.258 281.693 113.53 283.535C112.903 285.415 111.131 286.89 108.612 286.225C113.631 287.571 111.781 294.932 107.218 294.448C109.977 296.978 108.918 304.567 103.061 301.978C106.574 303.52 106.21 308.641 102.53 309.788C101.647 310.065 101.024 310.136 100.591 310.111C100.852 310.462 101.14 311.028 101.401 311.93C102.459 315.596 98.4478 318.786 95.1875 316.706C99.9931 319.768 94.9301 326.921 90.4563 323.594C93.455 325.834 91.9691 329.721 89.3596 330.854C88.6973 333.62 85.1268 335.759 82.4003 333.195C86.4535 337.023 80.2884 343.251 76.4383 339.05C79.0529 341.9 76.6072 346.403 72.8139 345.998C71.8801 345.898 71.2732 345.713 70.8815 345.517C70.9813 345.939 71.0201 346.565 70.9011 347.483C70.4098 351.305 65.4301 352.553 63.3016 349.362C66.8681 354.68 59.578 357.041 56.6078 354.763C57.8769 359.173 50.9485 362.273 48.7513 357.564C49.8441 359.929 48.6988 361.93 46.9566 362.874C45.2684 363.911 42.9627 363.902 41.4611 361.773C44.4401 366.031 38.2911 370.48 35.1064 367.177C35.5946 370.888 29.9045 376.021 27.0822 370.273C28.7821 373.712 25.2111 377.401 21.6551 375.915C20.8006 375.559 20.2779 375.212 19.962 374.915C19.936 375.352 19.7928 375.97 19.4128 376.83C17.8669 380.317 12.7438 380.183 11.5831 376.494C13.2961 381.929 4.8199 384.154 3.53138 378.73C4.38906 382.373 0.751522 384.396 -1.97527 383.586C-4.26069 385.28 -8.37072 384.623 -8.81096 380.906C-8.48513 383.708 -10.5577 385.293 -12.7173 385.444L-12.7173 384.955C-9.31687 384.8 -7.87858 377.871 -12.7173 377.869L-12.7173 375.778C-11.3951 375.662 -10.0735 375.556 -8.74651 375.389C-10.1546 375.342 -11.4733 375.209 -12.7173 375.009L-12.7173 372.86C-9.82474 373.233 -6.82857 373.157 -3.90349 372.651C10.0845 370.139 22.3119 357.925 13.277 339.424C11.0139 335.454 8.76353 332.182 3.91909 329.348C6.72949 337.053 0.237878 343.422 -6.04798 347.98C-7.01008 348.675 -3.95402 348.636 -3.42104 351.658C-3.07009 353.649 -4.07072 354.029 -3.50408 353.929C1.84765 352.985 3.30314 361.092 -2.07998 362.041C-2.2349 362.069 0.97262 367.675 -4.37597 368.778C-4.38453 368.768 -4.4616 368.764 -4.59199 368.757C-4.71039 368.808 -4.78023 368.838 -4.78452 368.85C-10.1876 369.642 -9.0909 363.277 -9.24584 363.305C-10.7289 363.566 -11.8962 363.127 -12.7173 362.352L-12.7173 360.687C-11.9772 362.226 -10.2538 363.245 -8.21351 361.883C-5.11237 358.741 -7.89767 355.671 -10.5166 356.133C-11.6279 356.329 -12.3247 356.877 -12.7173 357.564L-12.7173 356.139C-12.1966 355.69 -11.5344 355.345 -10.6821 355.195C-10.1155 355.095 -11.1856 355.08 -11.5369 353.089C-12.0696 350.067 -9.18445 349.059 -10.3266 348.734C-11.118 348.508 -11.9187 348.259 -12.7173 347.993L-12.7173 345.933C-11.2331 346.45 -9.78652 346.892 -8.51171 347.306C-8.47091 347.274 -8.43004 347.242 -8.38953 347.211C-8.34046 347.227 -8.29142 347.243 -8.24207 347.259C-3.73003 343.734 3.5382 338.724 2.59922 331.802C1.89762 326.472 -5.2351 325.292 -12.0251 326.593C-12.2574 326.631 -12.4868 326.678 -12.7176 326.721L-12.7176 324.652C-12.5992 324.648 -12.4941 324.653 -12.3686 324.645C-7.67966 323.271 -9.2678 320.486 -12.7176 319.078L-12.7176 317.129C-12.3164 317.337 -11.9169 317.571 -11.5223 317.84C-9.52766 319.204 -8.58505 320.314 -8.1582 321.057C-8.16305 320.202 -7.9148 318.771 -6.91361 316.582C-5.01881 312.349 -0.435449 309.671 4.68059 311.042C7.1041 311.592 8.38233 312.33 9.01345 312.877C8.70046 312.109 8.38207 310.676 8.46538 308.185C8.59664 305.516 9.72077 303.159 11.498 301.459C13.859 300.77 16.4614 300.974 18.8395 302.196C21.0382 303.369 22.1198 304.361 22.6291 305.016C22.4705 304.196 22.4705 302.72 23.2058 300.346C24.5767 295.23 29.1872 292.6 33.8011 293.075C36.1975 293.303 37.5608 293.803 38.2989 294.235C37.8686 293.494 37.3784 292.122 37.1944 289.713C37.1276 288.818 37.1627 287.966 37.2874 287.16C38.0589 286.898 38.8924 286.715 39.7851 286.625C42.1898 286.388 43.6258 286.633 44.4304 286.928C43.8772 286.276 43.1473 285.02 42.5073 282.699C41.238 278.238 43.0278 273.241 47.8277 271.003C50.0378 269.866 51.4911 269.61 52.3265 269.624C51.5927 269.236 50.428 268.343 48.8907 266.382C47.275 264.252 46.6216 261.725 46.8901 259.28C48.2559 257.235 50.3813 255.718 52.9877 255.126C55.426 254.611 56.8925 254.676 57.7037 254.851C57.0552 254.324 56.1062 253.194 55.1435 250.902C52.9052 246.102 54.7464 241.123 58.5862 238.522C60.568 237.156 61.9344 236.663 62.7772 236.519C61.9712 236.228 60.7138 235.493 59.0241 233.765C58.3982 233.122 57.8772 232.447 57.4549 231.75C57.8772 231.053 58.3982 230.377 59.0241 229.735C60.7138 228.007 61.9712 227.272 62.7772 226.98C61.9344 226.837 60.568 226.343 58.5862 224.978C54.7464 222.376 52.9052 217.398 55.1435 212.597C56.1062 210.306 57.0549 209.176 57.7034 208.649C56.8923 208.824 55.4257 208.889 52.9877 208.374C50.3813 207.781 48.2559 206.265 46.8901 204.22C46.6216 201.775 47.275 199.247 48.8907 197.118C50.428 195.156 51.593 194.263 52.3265 193.876C51.4911 193.889 50.0378 193.633 47.8274 192.497C43.0275 190.258 41.2374 185.261 42.5071 180.8C43.1473 178.479 43.8772 177.223 44.4304 176.572C43.6255 176.866 42.1895 177.111 39.7848 176.874C38.8921 176.784 38.0586 176.602 37.2871 176.339C37.1624 175.534 37.1273 174.681 37.1941 173.787C37.3781 171.378 37.8684 170.006 38.2986 169.265C37.5608 169.696 36.1972 170.197 33.8008 170.424C29.1872 170.9 24.5767 168.269 23.2055 163.154C22.4702 160.78 22.4702 159.304 22.6289 158.484C22.1196 159.139 21.0379 160.131 18.8392 161.304C16.4614 162.525 13.8587 162.73 11.4977 162.041C9.72047 160.341 8.59634 157.985 8.46509 155.314C8.38177 152.824 8.70016 151.391 9.01315 150.622C8.38203 151.17 7.1038 151.908 4.6803 152.458C-0.435747 153.828 -5.01883 151.151 -6.91391 146.918C-7.9151 144.729 -8.16333 143.297 -8.15848 142.442C-8.5856 143.186 -9.52803 144.296 -11.5227 145.66C-11.9173 145.929 -12.3164 146.162 -12.7179 146.37L-12.7179 144.422C-9.2681 143.014 -7.67969 140.229 -12.3689 138.855C-12.4944 138.847 -12.5998 138.851 -12.7179 138.848L-12.7179 136.779C-12.4871 136.822 -12.2577 136.869 -12.0254 136.907C-5.23538 138.208 1.89703 137.028 2.59892 131.698C3.5379 124.776 -3.73034 119.766 -8.24237 116.241C-8.29174 116.257 -8.34082 116.273 -8.3899 116.289C-8.43041 116.257 -8.47121 116.226 -8.51201 116.194C-9.78682 116.608 -11.2337 117.05 -12.7176 117.567L-12.7176 115.507C-11.9187 115.241 -11.1184 114.991 -10.3269 114.765C-9.18476 114.441 -12.0701 113.432 -11.5372 110.41C-11.1859 108.42 -10.1158 108.405 -10.6824 108.305C-11.5347 108.154 -12.1969 107.809 -12.7176 107.361L-12.7176 105.935C-12.325 106.623 -11.6282 107.171 -10.5169 107.367C-7.89797 107.828 -5.11268 104.759 -8.21381 101.617C-10.2541 100.254 -11.9775 101.273 -12.7176 102.813L-12.7176 101.147C-11.8965 100.372 -10.7292 99.9329 -9.24613 100.195C-9.09121 100.222 -10.1879 93.8568 -4.78428 94.6497C-4.77942 94.6617 -4.70899 94.6925 -4.58887 94.743C-4.46047 94.7362 -4.38428 94.7313 -4.376 94.7216C0.9723 95.8249 -2.23528 101.431 -2.08036 101.458C3.30276 102.407 1.84736 110.514 -3.50437 109.57C-4.071 109.471 -3.07041 109.851 -3.42135 111.841C-3.95432 114.863 -7.01036 114.824 -6.04827 115.52C0.237591 120.078 6.72889 126.446 3.91879 134.151C8.76323 131.317 11.0136 128.045 13.2767 124.076C22.3116 105.575 10.0842 93.3604 -3.9038 90.8484C-6.82889 90.342 -9.82505 90.2666 -12.7176 90.6401L-12.7176 88.4905C-11.4736 88.2908 -10.1549 88.1576 -8.74682 88.1105C-10.0738 87.9436 -11.3954 87.8374 -12.7176 87.7222L-12.7176 85.6311C-7.87888 85.6288 -9.31718 78.7001 -12.7176 78.5451L-12.7176 78.0556C-10.5577 78.2068 -8.48543 79.792 -8.81127 82.5935C-8.37102 78.8767 -4.26127 78.2202 -1.97559 79.9136C0.751215 79.1038 4.38867 81.1267 3.531 84.77C4.81979 79.3458 13.2958 81.5707 11.5828 87.0054C12.7432 83.3163 17.8666 83.1824 19.4125 86.6702C19.7925 87.529 19.9358 88.1476 19.9617 88.5847C20.2773 88.2874 20.8002 87.9404 21.6547 87.5846C25.2107 86.0987 28.7817 89.7873 27.0818 93.2265C29.9039 87.4791 35.5937 92.6117 35.1061 96.3231C38.2908 93.0194 44.4398 97.4692 41.4608 101.726C42.9624 99.5974 45.2681 99.5888 46.9563 100.626C48.6985 101.57 49.8437 103.57 48.7509 105.935C50.9481 101.227 57.8766 104.327 56.6075 108.737C59.5776 106.459 66.8678 108.82 63.3013 114.138C65.4298 110.946 70.4098 112.195 70.9008 116.017C71.0198 116.935 70.981 117.561 70.8811 117.983C71.2728 117.787 71.8798 117.602 72.8136 117.502C76.6069 117.097 79.0526 121.6 76.438 124.45C80.2878 120.249 86.4532 126.477 82.4 130.305C85.1265 127.741 88.697 129.88 89.3593 132.646C91.9688 133.779 93.4547 137.666 90.456 139.906C94.9298 136.579 99.9928 143.732 95.1872 146.794C98.4475 144.714 102.458 147.905 101.401 151.57C101.14 152.473 100.852 153.038 100.591 153.39C101.024 153.365 101.647 153.435 102.53 153.712C106.209 154.859 106.574 159.98 103.061 161.522C108.917 158.933 109.977 166.523 107.217 169.052C111.781 168.568 113.631 175.93 108.612 177.276C111.131 176.61 112.903 178.086 113.529 179.965C114.257 181.808 113.848 184.077 111.491 185.186C116.201 182.991 119.516 189.82 115.709 192.382C119.449 192.547 123.515 199.041 117.365 200.822C121.047 199.745 124.059 203.903 121.979 207.147C121.48 207.926 121.048 208.381 120.7 208.64C121.126 208.742 121.71 208.99 122.49 209.513C125.656 211.641 124.634 216.663 120.8 217.166C126.449 216.422 127.169 225.156 121.603 225.483C125.34 225.272 126.701 229.205 125.43 231.75ZM-3.33912 354.867C-5.95806 355.329 -7.52563 359.166 -3.53687 361.058C1.50871 362.292 1.63369 353.99 -3.33912 354.867ZM-8.4132 365.324C-8.04229 367.426 -6.30214 368.17 -4.74572 367.878C-3.18303 367.62 -1.80242 366.326 -2.17304 364.224C-2.53654 362.171 -4.27752 361.417 -5.83649 361.691C-7.39548 361.966 -8.77357 363.27 -8.4132 365.324ZM-7.88338 349.247C-7.93189 349.253 -7.97982 349.26 -8.02689 349.268C-8.07369 349.277 -8.12133 349.287 -8.16898 349.297C-10.8202 349.764 -11.568 353.379 -9.29688 354.969C-8.39358 355.601 -7.58326 355.796 -6.89335 355.695C-6.21058 355.554 -5.51557 355.094 -4.88329 354.191C-3.29351 351.919 -5.2322 348.779 -7.88338 349.247ZM-4.74546 95.6221C-6.30216 95.3302 -8.04233 96.074 -8.41295 98.1765C-8.77332 100.23 -7.39522 101.534 -5.83623 101.809C-4.27726 102.084 -2.53629 101.33 -2.1728 99.2767C-1.80216 97.1745 -3.18277 95.8803 -4.74546 95.6221ZM-3.33913 108.633C1.63368 109.51 1.50897 101.209 -3.5369 102.442C-7.52565 104.334 -5.95807 108.171 -3.33913 108.633ZM-4.88389 109.31C-5.51615 108.407 -6.21117 107.946 -6.89393 107.805C-7.58384 107.704 -8.39415 107.899 -9.29747 108.532C-11.5686 110.122 -10.8207 113.736 -8.16956 114.203C-8.12192 114.214 -8.07433 114.224 -8.02753 114.233C-7.98046 114.24 -7.93247 114.247 -7.88398 114.254C-5.23221 114.721 -3.29351 111.581 -4.88389 109.31ZM123.432 244.866C128.724 240.62 118.432 235.22 117.866 241.827C117.58 244.784 121.055 246.768 123.432 244.866ZM118.04 239.544C118.874 238.553 120.17 237.94 121.581 238.013C117.309 237.744 118.518 232.951 118.04 239.544ZM121.581 225.487C120.169 225.561 118.874 224.948 118.04 223.957C118.518 230.549 117.309 225.756 121.581 225.487ZM117.176 247.579C118.078 246.65 119.386 246.155 120.781 246.332C116.498 245.747 118.144 241.073 117.176 247.579ZM120.781 217.168C119.386 217.345 118.079 216.851 117.176 215.921C118.144 222.427 116.498 217.753 120.781 217.168ZM116.786 249.891C116.267 252.751 119.636 254.992 122.068 253.358C127.723 249.566 118.104 243.256 116.786 249.891ZM104.41 183.284C101.256 168.901 95.0408 155 85.6458 142.608C96.7013 163.329 76.3324 174.979 79.7491 174.738C88.3021 174.141 96.406 177.873 101.561 184.321C101.757 192.575 97.9479 200.642 91.0118 205.682C88.2397 207.694 111.332 203.526 116.182 226.505C115.413 210.974 111.24 196.331 104.41 183.284ZM117.351 200.826C116.009 201.209 114.622 200.906 113.579 200.118C115.542 206.447 113.171 202.057 117.351 200.826ZM111.478 185.191C110.277 185.75 108.885 185.734 107.61 185.056C110.564 191.12 107.491 187.064 111.478 185.191ZM105.723 179.87C106.263 178.531 107.319 177.624 108.599 177.28C104.34 178.409 104.087 173.326 105.723 179.87ZM105.071 169.83C104.27 169.802 103.346 169.496 102.295 168.793C104.365 174.395 102.537 171.533 105.071 169.83ZM100.614 164.495C100.906 163.222 101.773 162.097 103.048 161.528C99.0543 163.272 98.0495 158.385 100.614 164.495ZM99.4073 154.006C99.5295 153.903 97.7382 155.118 95.5518 154.111C98.7493 159.876 95.6075 156.051 99.4073 154.006ZM93.2111 150.077C93.3049 148.785 93.9888 147.566 95.1706 146.805C91.514 149.109 89.7704 144.471 93.2111 150.077ZM88.7075 143.366C88.709 142.071 89.3079 140.769 90.436 139.918C86.9905 142.458 84.8363 138.009 88.7075 143.366ZM82.3843 130.322C81.3509 131.286 79.9642 131.649 78.6883 131.426C83.2922 136.169 79.2852 133.275 82.3843 130.322ZM80.853 139.783C71.6838 128.926 54.9917 124.444 43.4871 141.518C41.1811 145.463 39.4727 149.048 39.4404 154.66C44.7083 148.374 53.4693 150.811 60.5595 153.976C61.6428 154.461 60.0809 151.834 62.4314 149.862C63.9798 148.563 64.8095 149.239 64.4398 148.798C60.9466 144.636 67.2396 139.322 70.753 143.509C70.854 143.63 74.1053 138.049 77.7351 142.129C77.7311 142.142 77.7653 142.21 77.8249 142.327C77.9279 142.404 77.9892 142.449 78.0018 142.447C81.3894 146.73 75.3292 148.962 75.4302 149.083C78.9439 153.27 72.6178 158.545 69.1247 154.382C68.7549 153.941 69.2768 154.876 67.7287 156.175C65.3782 158.147 63.0622 156.153 63.3518 157.304C65.2372 164.836 66.1163 173.888 59.011 177.984C64.5437 178.927 68.3707 177.867 72.6559 176.281C91.4692 167.916 89.9539 150.699 80.853 139.783ZM59.5771 175.256C64.7456 170.557 62.3983 162.047 61.2071 156.447C61.1591 156.427 61.1115 156.408 61.0636 156.389C61.0527 156.338 61.0419 156.288 61.031 156.237C55.723 154.092 47.7495 150.302 42.2249 154.576C37.9591 157.85 40.5038 164.616 45.0258 169.846C49.3912 175.207 55.6131 178.888 59.5771 175.256ZM59.0062 188.154C62.0169 182.594 64.4837 180.746 65.4093 180.248C64.4375 180.512 61.5718 180.861 55.9202 179.243C48.8816 181.177 51.7482 176.325 55.7995 190.455C56.8269 189.593 57.7844 188.863 59.0062 188.154ZM57.4697 191.549C57.3231 191.668 57.183 191.755 57.0349 191.881C56.4668 192.357 56.3761 194.538 57.4697 191.549ZM55.7995 273.045C51.7479 287.176 48.8814 282.323 55.9202 284.258C61.5718 282.639 64.4375 282.988 65.4093 283.252C64.4834 282.754 62.0169 280.906 59.0062 275.347C57.7844 274.637 56.8269 273.907 55.7995 273.045ZM57.4697 271.951C56.3764 268.962 56.4668 271.143 57.0349 271.62C57.183 271.746 57.3231 271.832 57.4697 271.951ZM45.0261 293.655C40.5041 298.884 37.9596 305.651 42.2252 308.924C47.7498 313.198 55.7233 309.408 61.0313 307.263C61.0425 307.212 61.053 307.162 61.0639 307.112C61.1115 307.092 61.1592 307.073 61.2074 307.053C62.3986 301.453 64.7456 292.943 59.5774 288.245C55.6131 284.612 49.3912 288.293 45.0261 293.655ZM78.6883 332.074C79.9642 331.851 81.3509 332.214 82.3844 333.178C79.2852 330.226 83.2922 327.332 78.6883 332.074ZM80.8531 323.717C89.9539 312.801 91.4692 295.585 72.6559 287.22C68.3707 285.634 64.5437 284.574 59.0111 285.517C66.1166 289.613 65.2375 298.664 63.3518 306.196C63.062 307.347 65.3782 305.353 67.7287 307.325C69.2768 308.624 68.7549 309.559 69.1247 309.118C72.6179 304.955 78.9437 310.23 75.4303 314.417C75.3293 314.538 81.3897 316.77 78.0015 321.053C77.989 321.051 77.9268 321.097 77.8227 321.176C77.7642 321.291 77.7305 321.359 77.7347 321.371C74.1049 325.451 70.854 319.87 70.753 319.991C67.2396 324.179 60.9466 318.865 64.4398 314.702C64.8095 314.261 63.9798 314.938 62.4314 313.638C60.0809 311.666 61.6428 309.039 60.5595 309.524C53.4693 312.689 44.7083 315.126 39.4405 308.84C39.4727 314.452 41.1809 318.037 43.4871 321.982C54.9914 339.057 71.6835 334.575 80.8531 323.717ZM104.41 280.216C111.24 267.17 115.413 252.527 116.182 236.995C111.332 259.975 88.24 255.806 91.0118 257.818C97.9479 262.858 101.757 270.926 101.561 279.179C96.4061 285.628 88.3024 289.36 79.7491 288.762C76.3324 288.521 96.7011 300.171 85.6458 320.892C95.0408 308.5 101.256 294.6 104.41 280.216ZM90.436 323.582C89.3079 322.732 88.709 321.429 88.7076 320.134C84.8363 325.491 86.9905 321.043 90.436 323.582ZM95.1703 316.695C93.9888 315.934 93.3047 314.715 93.2108 313.423C89.7704 319.03 91.514 314.391 95.1703 316.695ZM95.5518 309.389C97.7382 308.382 99.5292 309.596 99.4074 309.494C95.6075 307.449 98.7494 303.625 95.5518 309.389ZM103.048 301.972C101.773 301.403 100.906 300.279 100.614 299.005C98.0495 305.115 99.0544 300.228 103.048 301.972ZM102.295 294.708C103.346 294.004 104.27 293.698 105.071 293.67C102.537 291.968 104.365 289.105 102.295 294.708ZM108.599 286.22C107.319 285.876 106.263 284.969 105.723 283.63C104.087 290.174 104.34 285.092 108.599 286.22ZM107.61 278.444C108.885 277.766 110.277 277.75 111.478 278.309C107.491 276.436 110.564 272.38 107.61 278.444ZM113.579 263.382C114.622 262.595 116.009 262.291 117.351 262.674C113.171 261.443 115.542 257.053 113.579 263.382ZM62.0434 186.824C68.17 185.021 72.8356 188.595 76.5262 193.433C76.8089 199.512 75.5321 205.248 69.6799 207.805C75.4377 209.378 79.5126 208.55 83.9935 207.249C95.8702 202.97 100.3 193.949 99.7791 184.97C94.406 177.756 85.2144 173.693 73.3657 178.05C69.0976 179.934 65.4433 181.918 62.0434 186.824ZM73.0393 216.527C81.1155 215.097 86.2601 222.596 89.6571 229.578C90.175 230.646 90.6674 227.629 93.7357 227.629C95.7569 227.629 95.9578 228.681 95.9578 228.106C95.9578 222.671 104.194 222.646 104.194 228.112C104.194 228.269 110.272 226.084 110.429 231.543C110.419 231.549 110.401 231.624 110.371 231.752C110.401 231.877 110.419 231.951 110.429 231.958C110.271 237.416 104.194 235.231 104.194 235.388C104.194 240.855 95.9578 240.829 95.9578 235.395C95.9578 234.819 95.7569 235.871 93.7357 235.871C90.6674 235.871 90.1753 232.854 89.6571 233.923C86.2601 240.904 81.1153 248.403 73.0393 246.974C76.6714 251.252 80.2844 252.9 84.5867 254.44C104.375 260.125 114.281 245.962 114.326 231.751C114.281 217.539 104.375 203.376 84.5867 209.061C80.2844 210.6 76.6717 212.248 73.0393 216.527ZM66.9954 223.281C67.3047 222.414 67.659 221.57 68.0562 220.748C66.4752 221.821 66.6986 221.324 66.9954 223.281ZM68.0559 242.752C67.6588 241.931 67.3044 241.087 66.9951 240.219C66.6987 242.176 66.4753 241.679 68.0559 242.752ZM67.5575 231.75C67.4553 238.663 69.8554 245.482 75.2269 245.248C82.2063 244.971 85.8784 236.942 88.5658 231.887C88.5415 231.841 88.5175 231.796 88.4933 231.75C88.5175 231.705 88.5415 231.659 88.5658 231.613C85.8784 226.558 82.2063 218.53 75.2268 218.253C69.8554 218.018 67.4553 224.837 67.5575 231.75ZM103.197 231.75C103.198 233.333 104.242 234.917 106.327 234.918C108.462 234.918 109.496 233.334 109.479 231.75C109.496 230.166 108.462 228.582 106.327 228.582C104.242 228.584 103.197 230.167 103.197 231.75ZM96.9102 228.106C96.9102 230.765 100.417 232.975 102.973 229.376C105.064 224.621 96.9102 223.056 96.9102 228.106ZM102.973 234.125C100.417 230.525 96.9102 232.735 96.9102 235.395C96.9102 240.444 105.064 238.88 102.973 234.125ZM97.1082 231.75C97.0882 231.054 96.7556 230.289 95.9761 229.509C94.0157 227.549 90.5861 228.913 90.5861 231.605C90.5842 231.654 90.5827 231.702 90.5821 231.75C90.5827 231.798 90.5842 231.846 90.5861 231.895C90.5861 234.587 94.0157 235.952 95.9761 233.991C96.7553 233.211 97.088 232.447 97.1082 231.75ZM76.5262 270.067C72.8356 274.905 68.17 278.479 62.0434 276.676C65.4433 281.582 69.0976 283.566 73.366 285.451C85.2145 289.807 94.4063 285.744 99.7794 278.531C100.3 269.551 95.8705 260.53 83.9938 256.251C79.5129 254.951 75.4379 254.122 69.6802 255.695C75.5321 258.252 76.8089 263.989 76.5262 270.067ZM73.6821 314.6C78.3402 312.302 73.1001 305.862 69.854 309.731C68.145 311.768 69.4106 315.715 73.6821 314.6ZM72.6889 321.002C74.3244 322.374 76.1356 321.825 77.1402 320.601C78.1713 319.399 78.3973 317.521 76.7618 316.148C75.1638 314.809 73.3454 315.351 72.3274 316.563C71.3102 317.776 71.0926 319.66 72.6889 321.002ZM65.1691 315.314C61.9233 319.182 69.1749 323.224 70.6295 318.238C70.9856 313.838 66.8787 313.276 65.1691 315.314ZM65.3554 313.638C66.4535 313.542 67.2 313.17 67.6633 312.649C68.0959 312.102 68.3324 311.303 68.2363 310.205C67.9946 307.443 64.4909 306.284 62.7604 308.346C62.7273 308.382 62.6954 308.418 62.664 308.454C62.6337 308.491 62.6037 308.529 62.5738 308.568C60.8433 310.63 62.5935 313.88 65.3554 313.638ZM52.4801 285.547C50.579 285.353 51.0698 285.116 50.0389 286.806C50.8338 286.34 51.6478 285.921 52.4801 285.547ZM74.3166 269.263C74.174 254.333 65.6513 253.966 58.0424 263.339C57.8464 275.41 64.6107 280.608 74.3166 269.263ZM63.1393 256.374C62.9502 256.372 62.7875 256.347 62.5932 256.349C61.8514 256.349 60.3803 257.961 63.1393 256.374ZM66.4989 254.761C72.3791 252.437 75.4568 252.608 76.4859 252.821C75.572 252.399 73.1523 250.825 69.8628 245.951C63.2272 242.909 68.5424 241.034 62.5633 254.463C63.9043 254.463 65.1071 254.519 66.4989 254.761ZM69.8628 217.549C73.152 212.676 75.5718 211.101 76.4856 210.679C75.4568 210.893 72.3788 211.063 66.4989 208.739C65.1071 208.981 63.9045 209.037 62.5632 209.037C68.5424 222.467 63.2272 220.591 69.8628 217.549ZM62.5932 207.151C62.7875 207.153 62.9502 207.129 63.1393 207.126C60.3803 205.539 61.8514 207.151 62.5932 207.151ZM74.3166 194.237C64.6107 182.892 57.8464 188.09 58.0424 200.161C65.6513 209.534 74.174 209.167 74.3166 194.237ZM52.4801 177.953C51.6478 177.579 50.8335 177.161 50.0389 176.694C51.07 178.385 50.5793 178.147 52.4801 177.953ZM73.6821 148.9C69.4106 147.785 68.1449 151.733 69.854 153.77C73.1001 157.638 78.3402 151.199 73.6821 148.9ZM76.7615 147.352C78.397 145.98 78.171 144.101 77.1399 142.899C76.135 141.675 74.3241 141.126 72.6886 142.498C71.0926 143.84 71.3103 145.724 72.3271 146.938C73.3452 148.15 75.1635 148.691 76.7615 147.352ZM70.6295 145.262C69.1749 140.276 61.9233 144.318 65.1691 148.186C66.8787 150.224 70.9856 149.663 70.6295 145.262ZM67.6633 150.851C67.1999 150.33 66.4535 149.958 65.3553 149.862C62.5935 149.621 60.8433 152.87 62.5735 154.932C62.6034 154.971 62.6337 155.009 62.6637 155.046C62.6951 155.082 62.727 155.118 62.7601 155.155C64.4906 157.217 67.9942 156.057 68.2359 153.295C68.3323 152.197 68.0959 151.397 67.6633 150.851ZM116.377 211.327C117.404 209.15 119.557 208.928 119.397 208.928C115.172 209.805 115.12 204.855 116.377 211.327ZM119.397 254.572C119.557 254.572 117.404 254.351 116.377 252.174C115.12 258.645 115.172 253.696 119.397 254.572ZM120.175 261.633C126.125 258.21 116.625 251.355 115.136 257.812C114.42 260.726 117.588 263.114 120.175 261.633ZM117.15 263.404C112.882 262.177 110.776 268.298 115.001 269.904C119.269 271.52 121.622 264.693 117.15 263.404ZM112.105 267.755C110.089 273.377 110.529 270.009 113.565 270.334C112.969 269.798 112.457 268.969 112.105 267.755ZM114.379 277.719C120.849 275.285 112.483 266.933 110.029 273.173C108.861 275.826 111.576 278.774 114.379 277.719ZM112.89 283.302C113.699 280.94 111.804 277.749 108.557 278.859C107.341 279.25 106.651 280.034 106.377 280.932C106.009 281.796 106.034 282.84 106.714 283.921C108.489 286.858 111.991 285.632 112.89 283.302ZM110.441 288.537C108.973 285.926 104.998 286.44 104.188 289.223C102.057 295.581 113.833 294.561 110.441 288.537ZM103.363 301.284C107.617 303.171 110.203 296.429 105.895 294.924C101.626 293.437 99.3052 299.48 103.363 301.284ZM104.542 304.585C103.512 301.788 99.55 301.581 98.2253 304.273C95.2157 310.176 106.9 311.032 104.542 304.585ZM100.673 312.141C99.8598 309.326 95.8383 308.877 94.398 311.401C91.1425 317.331 102.567 318.681 100.673 312.141ZM96.2597 319.522C95.6611 316.537 91.7234 315.823 90.0417 318.273C86.2284 323.698 97.5833 326.177 96.2597 319.522ZM85.2986 333.533C87.8533 333.421 88.7535 331.867 88.6343 330.246C90.2512 330.082 91.625 328.926 91.292 326.39C90.9174 323.54 87.0947 322.384 85.1662 324.767C84.676 325.429 84.4118 326.054 84.3234 326.629C83.773 326.816 83.2032 327.185 82.6357 327.782C80.6248 330.095 82.4268 333.659 85.2986 333.533ZM79.3976 339.618C86.1808 339.766 81.7681 329.014 77.0877 333.711C74.9675 335.793 76.3541 339.547 79.3976 339.618ZM72.8618 337.675C74.1503 337.543 75.4702 338.004 76.4246 339.036C73.5201 335.835 77.7856 333.312 72.8618 337.675ZM72.8946 345.246C79.6641 345.976 76.351 334.959 71.0769 339.195C68.8402 341.052 69.9813 344.934 72.8946 345.246ZM69.2956 340.68C64.1736 344.83 67.3946 341.072 70.0683 344.459C70.1904 344.561 68.6836 343.008 69.2956 340.68ZM66.1246 350.368C72.8832 351.571 70.0118 340.213 64.7214 344.202C62.2996 345.974 63.1918 349.84 66.1246 350.368ZM59.9483 347.469C61.2531 347.535 62.5107 348.194 63.2925 349.35C60.8816 345.72 65.5203 343.882 59.9483 347.469ZM62.6697 349.78C60.1889 346.097 54.6408 349.432 56.8455 353.378C59.0761 357.36 65.267 353.642 62.6697 349.78ZM56.0077 349.871C50.8498 352.882 53.3512 350.584 55.4683 352.785C55.357 351.991 55.4973 351.027 56.0077 349.871ZM51.3453 358.965C57.8666 361.259 56.8263 349.484 50.9348 352.687C48.3355 353.968 48.5195 357.971 51.3453 358.965ZM45.6935 355.17C47.1061 355.469 48.1829 356.352 48.7441 357.552C46.893 353.555 51.8544 352.423 45.6935 355.17ZM46.6157 362.285C48.7535 360.995 49.353 357.333 46.1523 356.096C44.9699 355.614 43.9373 355.771 43.1504 356.283C42.3133 356.708 41.6611 357.524 41.4876 358.789C40.9587 362.18 44.4298 363.492 46.6157 362.285ZM40.9147 357.929C35.4554 361.891 38.916 358.16 41.4531 361.762C40.6941 360.676 40.4682 359.302 40.9147 357.929ZM41.3752 364.721C41.9282 361.777 38.5534 359.616 36.1435 361.226C30.4246 364.727 40.1015 371.516 41.3752 364.721ZM31.1685 364.212C32.4251 364.348 33.3298 364.708 33.9617 365.202C33.1149 362.268 36.3553 361.25 31.1685 364.212ZM27.7595 369.936C29.8055 374.116 36.1202 370.614 33.7874 366.691C31.4724 362.808 25.8101 365.946 27.7595 369.936ZM27.1181 366.423C21.226 369.455 25.1374 366.357 27.0755 370.26C26.4653 369.005 26.5232 367.586 27.1181 366.423ZM26.5406 373.222C27.5498 370.418 24.6475 367.712 21.9019 368.923C15.8024 371.511 24.203 379.676 26.5406 373.222ZM19.4516 373.682C17.8552 369.673 22.7205 368.763 16.5656 371.124C18.8875 371.758 19.4792 373.839 19.4516 373.682ZM18.72 376.524C19.9064 373.845 17.1148 370.915 14.3883 371.924C8.08306 374.373 15.9676 382.751 18.72 376.524ZM12.1793 372.71C5.94 374.793 10.2572 372.36 11.5771 376.476C11.1611 375.133 11.421 373.76 12.1793 372.71ZM10.5944 379.341C12.0547 376.67 9.49711 373.592 6.63423 374.388C0.225963 376.092 7.33094 385.29 10.5944 379.341ZM-10.9343 377.662C-9.81333 378.311 -8.98447 379.481 -8.81243 380.883C-9.2889 376.629 -4.35889 376.988 -10.9343 377.662ZM-1.27424 376.228C-2.0757 376.421 -2.68001 376.729 -3.11712 377.113C-3.65894 376.902 -4.3326 376.818 -5.15146 376.911C-8.1787 377.39 -9.08884 381.279 -6.808 383.028C-4.77854 384.584 -3.09035 383.973 -2.13994 382.655C-0.795811 383.568 0.999706 383.565 2.37464 381.409C3.91908 378.985 1.73416 375.643 -1.27424 376.228ZM3.52392 378.708C3.20608 377.331 3.58468 375.949 4.4161 374.956C-1.99302 376.571 2.51675 374.548 3.52392 378.708ZM1.58346 373.568C16.7456 370.114 30.4418 363.461 42.1039 354.47C55.7216 348.866 68.3316 340.331 78.9032 328.927C60.4171 343.413 45.4073 325.376 46.2373 328.7C48.311 337.019 46.0433 345.648 40.5874 351.844C32.4938 353.47 23.8871 351.12 17.7194 345.165C15.2562 342.784 23.3715 364.801 1.58346 373.568ZM14.9575 338.525C21.2339 349.478 30.8866 352.274 39.6396 350.202C45.8102 343.658 48.2155 333.9 41.868 322.988C39.271 319.112 36.682 315.858 31.2607 313.361C34.1002 319.082 31.3908 324.297 27.267 328.772C21.3301 330.106 15.4588 329.845 11.9243 324.525C11.3753 330.469 12.8989 334.338 14.9575 338.525ZM38.336 302.403C38.5599 301.518 38.831 300.644 39.152 299.78C37.6666 301.089 37.8153 300.565 38.336 302.403ZM37.664 306.015C34.5364 299.419 39.8134 301.399 26.6008 307.843C27.6285 308.705 28.5136 309.521 29.4243 310.601C35.4217 312.601 37.6703 314.71 38.3214 315.534C37.8926 314.624 37.0509 311.862 37.664 306.015ZM11.3377 317.433C11.3699 317.624 11.4221 317.781 11.4575 317.966C12.5411 314.973 11.209 316.702 11.3377 317.433ZM2.36008 326.397C7.73064 328.79 9.70138 330.9 10.2757 331.727C9.88683 330.751 9.18494 327.749 10.4518 321.555C9.97184 320.227 9.70791 319.052 9.4748 317.731C-2.71145 325.951 -1.78817 320.391 2.36008 326.397ZM-1.10366 325.174C-2.43552 323.804 -1.90708 323.937 -3.78304 324.569C-2.8746 324.723 -1.98159 324.925 -1.10366 325.174ZM1.33527 312.609C-3.65153 313.025 -6.85452 318.254 -5.80083 322.948C18.3948 315.485 4.57964 312.311 1.33527 312.609ZM17.9559 303.884C16.1972 302.982 14.3138 302.918 12.5862 303.344C11.3536 304.628 10.4668 306.29 10.369 308.265C10.2977 310.374 10.7962 312.189 11.8056 313.681C13.5889 312.265 15.0799 310.973 16.3133 309.8C17.9456 309.318 19.81 308.673 21.9285 307.837C21.1407 306.216 19.8188 304.877 17.9559 303.884ZM17.4321 311.737C9.52279 320.858 11.3636 329.188 26.0915 326.736C35.5789 315.207 29.2854 309.448 17.4321 311.737ZM25.8136 309.677C25.6704 309.554 25.5613 309.431 25.4113 309.307C24.8432 308.83 22.68 309.12 25.8136 309.677ZM26.2353 298.233C24.3551 300.894 20.1965 314.445 38.7574 297.222C35.2186 293.963 29.0885 294.122 26.2353 298.233ZM38.9845 288.585C38.1593 292.613 39.7517 295.971 43.5108 292.383C46.3913 288.058 42.8083 287.073 38.9845 288.585ZM46.2718 274.354C42.7187 277.878 43.6263 283.943 47.451 286.861C61.1892 265.592 48.5658 272.04 46.2718 274.354ZM53.3956 256.987C51.4683 257.426 49.9849 258.588 48.9352 260.025C48.816 261.8 49.2055 263.644 50.3992 265.219C51.7011 266.882 53.249 267.951 54.9815 268.445C55.4371 266.214 55.7487 264.266 55.9395 262.574C56.8803 261.156 57.8937 259.464 58.9791 257.461C57.3348 256.726 55.4614 256.55 53.3956 256.987ZM56.1056 247.336C56.3758 250.583 61.9007 263.637 65.0486 238.513C60.2427 238.29 55.6491 242.353 56.1056 247.336ZM59.6707 231.75C61.628 235.366 65.0059 236.915 65.5794 231.75C65.0059 226.585 61.628 228.134 59.6707 231.75ZM56.1056 216.164C55.6491 221.148 60.2427 225.21 65.0486 224.987C61.9007 199.863 56.3758 212.918 56.1056 216.164ZM50.3992 198.281C49.2052 199.856 48.8157 201.7 48.9352 203.475C49.9849 204.912 51.4683 206.074 53.3956 206.514C55.4614 206.95 57.3348 206.774 58.9794 206.04C57.894 204.037 56.8805 202.345 55.9398 200.926C55.7487 199.235 55.4371 197.287 54.9818 195.055C53.2493 195.55 51.7011 196.619 50.3992 198.281ZM46.2718 189.146C48.5658 191.46 61.1891 197.909 47.451 176.639C43.6266 179.558 42.719 185.622 46.2718 189.146ZM38.9845 174.915C42.8083 176.427 46.3911 175.442 43.5108 171.117C39.752 167.53 38.1593 170.887 38.9845 174.915ZM38.3214 147.966C37.6703 148.791 35.4217 150.899 29.4243 152.899C28.5136 153.979 27.6285 154.795 26.6008 155.657C39.8134 162.101 34.5364 164.081 37.664 157.485C37.0509 151.638 37.8925 148.877 38.3214 147.966ZM38.336 161.097C37.8152 162.936 37.6666 162.411 39.152 163.72C38.831 162.856 38.5596 161.982 38.336 161.097ZM26.2353 165.267C29.0888 169.378 35.2189 169.538 38.7574 166.278C20.1965 149.055 24.3551 162.607 26.2353 165.267ZM25.4113 154.193C25.5613 154.069 25.6704 153.946 25.8136 153.823C22.6799 154.38 24.8432 154.67 25.4113 154.193ZM26.0912 136.765C11.3633 134.312 9.52276 142.642 17.4318 151.763C29.2854 154.052 35.5789 148.293 26.0912 136.765ZM12.5862 160.156C14.3138 160.582 16.1972 160.519 17.9559 159.616C19.8188 158.623 21.1407 157.284 21.9284 155.664C19.8099 154.827 17.9456 154.182 16.3133 153.701C15.0799 152.528 13.5888 151.236 11.8056 149.819C10.7961 151.311 10.2977 153.126 10.369 155.236C10.4666 157.21 11.3536 158.873 12.5862 160.156ZM1.33525 150.891C4.57962 151.189 18.395 148.015 -5.80086 140.552C-6.85482 145.246 -3.65155 150.476 1.33525 150.891ZM-3.78279 138.931C-1.90683 139.563 -2.43527 139.697 -1.10341 138.327C-1.98162 138.575 -2.87462 138.777 -3.78279 138.931ZM2.36006 137.103C-1.7882 143.109 -2.71176 137.549 9.47506 145.769C9.70788 144.449 9.97212 143.274 10.452 141.945C9.18492 135.751 9.8871 132.749 10.276 131.773C9.70135 132.6 7.73062 134.71 2.36006 137.103ZM11.3377 146.068C11.209 146.798 12.5411 148.527 11.4575 145.534C11.4218 145.72 11.3699 145.876 11.3377 146.068ZM14.9575 124.975C12.8989 129.162 11.3753 133.032 11.924 138.975C15.4582 133.655 21.3298 133.394 27.2667 134.728C31.3905 139.203 34.0998 144.418 31.2603 150.139C36.6819 147.642 39.2709 144.388 41.8676 140.512C48.2154 129.6 45.8099 119.842 39.6393 113.298C30.8869 111.226 21.2339 114.022 14.9575 124.975ZM-8.81246 82.6172C-8.98479 84.0196 -9.81334 85.1894 -10.9344 85.8382C-4.35891 86.5121 -9.28893 86.8711 -8.81246 82.6172ZM2.37434 82.0908C0.999384 79.9347 -0.796118 79.9321 -2.14026 80.8457C-3.09066 79.5275 -4.77885 78.9158 -6.80831 80.4717C-9.08916 82.2209 -8.17873 86.1095 -5.15178 86.5886C-4.33291 86.6816 -3.65961 86.598 -3.1175 86.3874C-2.6804 86.7706 -2.07601 87.0793 -1.27456 87.2722C1.73414 87.8574 3.91906 84.5149 2.37434 82.0908ZM3.5239 84.7922C2.51673 88.9525 -1.99303 86.929 4.41609 88.5447C3.58467 87.5518 3.20606 86.1692 3.5239 84.7922ZM10.5944 84.1588C7.33119 78.2102 0.225931 87.408 6.6342 89.1128C9.49708 89.908 12.0547 86.8302 10.5944 84.1588ZM11.5771 87.0245C10.2574 91.1403 5.93997 88.7077 12.1793 90.7908C11.4209 89.7411 11.1611 88.367 11.5771 87.0245ZM18.72 86.9766C15.9672 80.7492 8.08305 89.1268 14.3883 91.5765C17.1148 92.5848 19.9064 89.6558 18.72 86.9766ZM16.5655 92.3763C22.7207 94.737 17.8552 93.8271 19.4515 89.8178C19.4792 89.6606 18.8875 91.7423 16.5655 92.3763ZM26.5406 90.2786C24.2029 83.8238 15.8023 91.9897 21.9019 94.5769C24.6478 95.7881 27.55 93.0827 26.5406 90.2786ZM27.0755 93.2399C25.1374 97.1428 21.226 94.0448 27.1181 97.0772C26.5232 95.914 26.4652 94.495 27.0755 93.2399ZM27.7594 93.5644C25.8101 97.5545 31.4721 100.692 33.7874 96.8096C36.1202 92.8867 29.8054 89.3842 27.7594 93.5644ZM33.9617 98.2987C33.33 98.792 32.4253 99.1523 31.1685 99.2884C36.3553 102.25 33.1149 101.232 33.9617 98.2987ZM41.3752 98.7794C40.1015 91.9845 30.4246 98.7731 36.1435 102.274C38.5536 103.884 41.9281 101.723 41.3752 98.7794ZM40.9147 105.572C40.4682 104.198 40.6941 102.825 41.4531 101.738C38.9163 105.34 35.4557 101.609 40.9147 105.572ZM46.6156 101.215C44.4298 100.008 40.9586 101.32 41.4876 104.711C41.6608 105.976 42.3133 106.792 43.1504 107.217C43.9373 107.73 44.9699 107.886 46.1522 107.404C49.353 106.167 48.7538 102.505 46.6156 101.215ZM48.7441 105.948C48.1829 107.148 47.1061 108.031 45.6935 108.33C51.8544 111.077 46.8929 109.946 48.7441 105.948ZM51.3453 104.536C48.5195 105.529 48.3352 109.532 50.9348 110.814C56.8263 114.016 57.8668 102.241 51.3453 104.536ZM55.4685 110.716C53.3514 112.916 50.85 110.618 56.008 113.629C55.4973 112.473 55.3569 111.51 55.4685 110.716ZM56.8454 110.122C54.6408 114.068 60.1888 117.403 62.6697 113.72C65.2669 109.858 59.0761 106.14 56.8454 110.122ZM59.9483 116.032C65.5205 119.619 60.8815 117.78 63.2925 114.15C62.5107 115.306 61.253 115.965 59.9483 116.032ZM42.1036 109.03C30.4418 100.039 16.7453 93.3857 1.58315 89.9322C23.3712 98.699 15.2559 120.716 17.7188 118.335C23.8868 112.38 32.4931 110.03 40.5868 111.656C46.0427 117.852 48.3104 126.481 46.2367 134.801C45.4064 138.124 60.4162 120.087 78.9026 134.573C68.3312 123.169 55.7213 114.634 42.1036 109.03ZM76.4246 124.464C75.4702 125.496 74.1503 125.958 72.8618 125.826C77.7856 130.188 73.5201 127.665 76.4246 124.464ZM70.0682 119.041C67.3945 122.428 64.1736 118.67 69.2956 122.82C68.6836 120.492 70.1904 118.939 70.0682 119.041ZM66.1246 113.132C63.1915 113.66 62.2996 117.527 64.7214 119.299C70.0121 123.287 72.8835 111.929 66.1246 113.132ZM72.8946 118.254C69.9812 118.566 68.8405 122.449 71.0768 124.305C76.3507 128.541 79.6641 117.525 72.8946 118.254ZM79.3976 123.882C76.3541 123.953 74.9675 127.707 77.0877 129.789C81.7681 134.486 86.1811 123.734 79.3976 123.882ZM91.292 137.11C91.625 134.575 90.2509 133.419 88.6343 133.254C88.7532 131.634 87.8533 130.08 85.2985 129.967C82.4271 129.841 80.6247 133.405 82.6357 135.718C83.2032 136.316 83.7727 136.685 84.3233 136.872C84.4118 137.446 84.6763 138.071 85.1662 138.734C87.0947 141.116 90.9174 139.96 91.292 137.11ZM96.2596 143.978C97.5832 137.323 86.2284 139.802 90.0417 145.227C91.7234 147.676 95.661 146.963 96.2596 143.978ZM94.3982 152.099C95.8385 154.624 99.8601 154.174 100.673 151.359C102.567 144.82 91.1425 146.169 94.3982 152.099ZM104.542 158.916C106.9 152.469 95.2157 153.324 98.2252 159.227C99.55 161.92 103.512 161.713 104.542 158.916ZM103.363 162.216C99.3052 164.02 101.626 170.063 105.895 168.577C110.203 167.071 107.617 160.329 103.363 162.216ZM110.441 174.963C113.833 168.94 102.057 167.919 104.188 174.277C104.998 177.06 108.973 177.574 110.441 174.963ZM112.89 180.198C111.991 177.868 108.489 176.642 106.715 179.579C106.034 180.66 106.01 181.705 106.378 182.568C106.651 183.467 107.341 184.251 108.557 184.641C111.804 185.751 113.699 182.56 112.89 180.198ZM114.379 185.782C111.576 184.726 108.861 187.674 110.029 190.327C112.484 196.567 120.849 188.216 114.379 185.782ZM112.105 195.745C112.457 194.531 112.969 193.703 113.565 193.166C110.529 193.491 110.089 190.123 112.105 195.745ZM115.001 193.596C110.776 195.202 112.882 201.323 117.15 200.096C121.622 198.807 119.269 191.98 115.001 193.596ZM120.175 201.867C117.588 200.386 114.42 202.775 115.136 205.689C116.625 212.145 126.125 205.29 120.175 201.867ZM122.068 210.142C119.636 208.509 116.266 210.749 116.786 213.609C118.104 220.244 127.723 213.935 122.068 210.142ZM123.432 218.634C121.055 216.732 117.58 218.716 117.866 221.674C118.432 228.281 128.724 222.881 123.432 218.634ZM118.305 229.782C118.356 230.604 118.555 231.253 118.856 231.75C118.555 232.247 118.356 232.896 118.305 233.719C118.251 236.783 121.923 238.355 124.042 236.412C125.926 234.684 125.617 232.915 124.484 231.75C125.617 230.585 125.926 228.816 124.042 227.088C121.922 225.146 118.251 226.718 118.305 229.782Z" fill="url(#paint0_linear_126_148)"/>
<path d="M43.9354 258.205C43.5 267.631 39.6037 276.733 33.5152 283.995C27.4203 291.252 19.1332 296.67 9.92567 298.736C3.97391 305.198 -4.10206 309.484 -12.7178 311.381L-12.7178 310.274C-3.05409 308.142 4.22468 303.556 9.24886 297.564C17.5077 296.111 25.6776 291.655 32.6876 283.301C39.6973 274.947 42.6663 266.128 42.6634 257.742C48.0559 251.32 51.4507 242.656 51.4507 231.75C51.4507 220.845 48.0559 212.18 42.6634 205.758C42.6663 197.373 39.6973 188.553 32.6876 180.199C25.6776 171.845 17.5077 167.39 9.24885 165.936C4.22467 159.944 -3.05411 155.358 -12.7179 153.226L-12.7179 152.119C-4.10208 154.016 3.97389 158.302 9.92564 164.764C19.1332 166.83 27.4203 172.247 33.5152 179.504C39.6037 186.767 43.4997 195.869 43.9354 205.295C49.6609 212.796 52.5269 222.273 52.5312 231.75C52.5269 241.227 49.6612 250.704 43.9354 258.205Z" fill="url(#paint1_linear_126_148)"/>
<path d="M43.339 244.998C43.2954 249.354 41.798 253.348 39.3058 256.52C39.1765 260.551 37.7565 264.573 34.9898 267.938C35.3883 273.093 33.7019 277.915 30.631 281.575C27.5601 285.235 23.1037 287.733 17.9583 288.236C15.1247 291.545 11.4101 293.642 7.46247 294.469C4.77221 297.474 1.09901 299.643 -3.18362 300.442C-5.63395 303.867 -9.00898 306.214 -12.7176 307.422L-12.7176 306.426C-9.59617 305.346 -6.73841 303.4 -4.53289 300.632C-7.25939 300.942 -10.0538 300.661 -12.7176 299.763L-12.7176 298.954C-3.25266 303.047 0.500967 295.403 -0.802363 286.754C-8.18185 287.856 -11.3643 287.937 -12.7176 288.082L-12.7176 286.799C-10.1517 285.425 -10.8986 285.522 -12.7176 284.586L-12.7176 283.46C-12.111 283.899 -11.2621 284.338 -10.0139 284.818C-0.253672 276.326 -6.50247 275.619 -12.7176 274.799L-12.7176 274.007C-11.6008 274.101 -10.481 274.103 -9.37133 273.989C-10.4393 273.35 -11.5626 272.842 -12.7176 272.442L-12.7176 271.061C-11.4005 271.629 -9.81182 272.487 -7.90817 273.786C-6.53979 273.532 -5.57714 273.316 -4.92005 273.021C-4.33628 272.6 -3.66775 271.874 -2.76358 270.816C-3.09741 266.404 -2.61755 263.769 -2.03321 262.294C-3.34198 263.095 -5.73866 263.988 -9.87294 264.442C-10.9132 265.861 -11.861 266.956 -12.7173 267.821L-12.7173 266.163C-12.1295 265.611 -11.572 265.029 -11.0641 264.405C-11.6273 264.547 -12.176 264.723 -12.7173 264.915L-12.7173 263.953C-11.8839 263.744 -11.2065 263.608 -10.5874 263.205C-8.73764 262.267 -8.50367 259.893 -2.18243 257.887C-5.20767 257.476 -9.60388 254.951 -12.7173 254.274L-12.7173 252.974C-12.6628 252.966 -12.6094 252.952 -12.5546 252.945C-12.6126 252.891 -12.6622 252.839 -12.7173 252.786L-12.7173 251.521C-12.3324 251.899 -11.8884 252.306 -11.3106 252.799C-6.91443 252.471 -4.27124 252.946 -2.79528 253.527L-2.79612 253.526L-2.79445 253.526C-3.62301 252.173 -4.55003 249.653 -4.99028 245.267C-8.60098 242.287 -8.95108 242.548 -11.8137 245.959C-12.1555 246.367 -12.4537 246.726 -12.7176 247.056L-12.7176 245.58C-12.6559 245.505 -12.606 245.422 -12.5432 245.347C-11.6556 244.289 -10.6655 243.354 -9.57502 242.515C-10.7893 242.012 -11.8222 241.653 -12.7176 241.4L-12.7176 240.01C-9.37762 239.897 -7.37951 239.942 -6.21827 239.95C-7.28708 239.065 -9.29318 237.464 -12.7176 234.305L-12.7176 233.16C-11.8294 234.007 -10.0789 234.901 -7.14068 235.827C-7.43684 234.483 -7.59408 233.13 -7.59408 231.749C-7.59408 230.368 -7.43684 229.016 -7.14068 227.672C-10.0789 228.597 -11.8294 229.491 -12.7176 230.338L-12.7176 229.193C-9.29318 226.034 -7.28708 224.433 -6.21828 223.549C-7.37951 223.556 -9.37762 223.601 -12.7176 223.488L-12.7176 222.098C-11.8222 221.846 -10.7893 221.487 -9.57503 220.983C-10.6655 220.144 -11.6556 219.209 -12.5432 218.152C-12.606 218.077 -12.6559 217.994 -12.7176 217.918L-12.7176 216.442C-12.4539 216.773 -12.1555 217.132 -11.8137 217.54C-8.95108 220.951 -8.60098 221.212 -4.99028 218.232C-4.55032 213.846 -3.62302 211.325 -2.79445 209.972L-2.79613 209.973L-2.79529 209.972C-4.27153 210.552 -6.91443 211.028 -11.3106 210.7C-11.8887 211.193 -12.3327 211.6 -12.7173 211.978L-12.7173 210.713C-12.6625 210.66 -12.6128 210.608 -12.5546 210.554C-12.6091 210.546 -12.6628 210.532 -12.7173 210.524L-12.7173 209.224C-9.60361 208.548 -5.20738 206.022 -2.18243 205.612C-8.50397 203.606 -8.73764 201.232 -10.5874 200.294C-11.2065 199.89 -11.8839 199.754 -12.7173 199.545L-12.7173 198.583C-12.176 198.776 -11.6273 198.952 -11.0641 199.093C-11.572 198.469 -12.1295 197.887 -12.7173 197.336L-12.7173 195.678C-11.8611 196.543 -10.9132 197.639 -9.87295 199.057C-5.73868 199.511 -3.34199 200.404 -2.03323 201.205C-2.61757 199.73 -3.09714 197.095 -2.7636 192.683C-3.66777 191.625 -4.33629 190.899 -4.92006 190.478C-5.57686 190.183 -6.53979 189.967 -7.90817 189.712C-9.81183 191.012 -11.4005 191.871 -12.7176 192.438L-12.7176 191.057C-11.5626 190.657 -10.4393 190.149 -9.37134 189.51C-10.481 189.396 -11.6008 189.398 -12.7176 189.492L-12.7176 188.7C-6.50247 187.88 -0.253677 187.174 -10.0139 178.681C-11.2618 179.161 -12.111 179.6 -12.7176 180.039L-12.7176 178.913C-10.8987 177.978 -10.1517 178.075 -12.7176 176.701L-12.7176 175.418C-11.3643 175.563 -8.18185 175.643 -0.802369 176.746C0.50096 168.097 -3.25241 160.452 -12.7176 164.545L-12.7176 163.736C-10.0541 162.838 -7.2594 162.557 -4.5329 162.867C-6.73842 160.099 -9.59619 158.153 -12.7176 157.073L-12.7176 156.077C-9.009 157.285 -5.63423 159.632 -3.18363 163.058C1.099 163.857 4.7722 166.025 7.46246 169.03C11.4101 169.858 15.1247 171.955 17.9583 175.264C23.1037 175.766 27.5601 178.265 30.631 181.925C33.7019 185.584 35.3883 190.407 34.9897 195.561C37.7565 198.926 39.1768 202.949 39.3058 206.98C41.7983 210.151 43.2957 214.145 43.339 218.501C46.9577 222.193 48.7655 226.972 48.7655 231.75C48.7655 236.527 46.9577 241.305 43.339 244.998ZM38.3614 256.176C40.6542 253.358 42.1031 249.819 42.3436 245.928C39.1078 248.79 34.8982 250.562 30.2755 250.672C30.2552 251.514 30.1799 252.341 30.0529 253.152C29.6289 253.854 29.1547 254.537 28.6294 255.194C32.1003 258.25 34.1855 262.314 34.8249 266.586C37.1417 263.45 38.306 259.808 38.3614 256.176ZM29.8443 235.827C33.859 234.563 36.1582 233.184 36.1653 231.75C36.1584 230.315 33.859 228.937 29.8443 227.672C30.1519 229.067 30.298 230.42 30.298 231.75C30.2977 233.079 30.1516 234.433 29.8443 235.827ZM37.4404 231.078C47.6226 220.37 40.1258 214.025 30.2726 213.78C29.7091 235.261 26.8339 221.021 37.4404 231.078ZM30.2726 249.72C40.1258 249.474 47.6226 243.129 37.4404 232.421C26.834 242.478 29.7091 228.238 30.2726 249.72ZM9.00296 192.464C9.83295 191.84 10.71 191.28 11.6341 190.797C7.89133 188.417 9.10852 189.415 9.00296 192.464ZM8.93073 193.713C8.49162 198.098 7.56581 200.619 6.7381 201.973C8.21576 201.393 10.8589 200.919 15.2528 201.248C18.797 198.222 18.6239 197.827 15.7544 194.407C12.8847 190.988 12.5257 190.749 8.93073 193.713ZM2.33272 201.825C5.26408 192.645 8.99579 196.297 7.84224 188.991C-8.51395 183.368 1.48589 195.565 2.33272 201.825ZM7.6488 187.922C5.59793 178.625 2.61438 179.666 -0.504166 187.213C2.23177 186.857 5.0153 187.098 7.6488 187.922ZM-1.85713 193.849C-1.91762 197.734 -0.735549 201.479 1.54358 204.626C1.60292 200.639 0.34639 196.898 -1.85713 193.849ZM7.84226 274.508C8.99581 267.202 5.2641 270.855 2.33274 261.674C1.48591 267.935 -8.51393 280.132 7.84226 274.508ZM1.54358 258.874C-0.735546 262.02 -1.91761 265.765 -1.85713 269.65C0.346394 266.601 1.60292 262.86 1.54358 258.874ZM-0.504161 276.286C2.61439 283.834 5.59765 284.875 7.64881 275.578C5.01531 276.401 2.23177 276.643 -0.504161 276.286ZM11.6341 272.702C10.71 272.219 9.83295 271.66 9.00296 271.035C9.10853 274.085 7.89133 275.082 11.6341 272.702ZM8.93073 269.786C12.5257 272.751 12.8847 272.512 15.7544 269.092C18.6241 265.672 18.797 265.277 15.2528 262.252C10.8589 262.581 8.21576 262.107 6.7381 261.527C7.56582 262.881 8.49163 265.402 8.93073 269.786ZM20.0159 211.668C27.99 209.907 29.5336 207.15 20.7335 203.516C21.0873 206.253 20.8422 209.035 20.0159 211.668ZM6.11862 206.337C12.1366 208.258 22.412 220.224 19.7141 203.139C12.7195 200.735 15.6685 205.044 6.11862 206.337ZM18.5939 199.092C17.9577 199.918 17.2547 200.685 16.4957 201.394C19.5175 201.819 20.2879 203.191 18.5939 199.092ZM13.2459 211.848C10.6258 209.149 7.15978 207.262 3.22351 206.628C5.92633 209.419 9.40892 211.233 13.2459 211.848ZM7.8371 194.704C5.14111 197.323 3.25687 200.785 2.62431 204.717C5.48178 201.943 7.23735 198.413 7.8371 194.704ZM3.32166 205.548C7.30357 205.607 11.0404 204.353 14.0876 202.153C10.3302 202.099 6.54947 203.215 3.32166 205.548ZM18.5685 212.88C17.5542 213.011 16.5245 213.05 15.4857 213.015C16.1953 213.958 16.5658 214.758 16.8489 215.154C16.8865 215.639 17.1166 216.49 17.1793 217.669C17.952 216.973 18.7662 216.342 19.627 215.79C18.7434 215.329 18.1257 215.017 17.7011 214.844C17.9154 214.438 18.1873 213.801 18.5685 212.88ZM14.2965 228.805C22.4429 223.656 22.9538 228.853 26.7666 222.515C17.8515 207.694 17.6715 223.465 14.2965 228.805ZM23.0902 226.888C19.3414 227.161 15.6725 228.602 12.661 231.207C16.6326 230.919 20.2465 229.344 23.0902 226.888ZM12.661 232.292C15.6728 234.897 19.3417 236.339 23.0902 236.612C20.2465 234.155 16.6326 232.58 12.661 232.292ZM11.8915 233.056C12.1679 236.932 13.6696 240.56 16.2135 243.498C15.9416 239.746 14.4996 236.072 11.8915 233.056ZM16.2135 220.002C13.6696 222.939 12.1679 226.567 11.8915 230.443C14.4996 227.427 15.9416 223.754 16.2135 220.002ZM25.423 225.921C26.4601 225.977 27.4916 226.112 28.5099 226.336C27.1726 222.107 27.4639 223.653 25.423 225.921ZM24.5645 226.832C21.41 229.908 19.0807 231.244 17.5759 231.75C19.0807 232.255 21.4103 233.591 24.5645 236.668C29.2243 236.628 29.3456 236.214 29.3456 231.75C29.3456 227.285 29.2243 226.871 24.5645 226.832ZM25.423 237.578C27.4639 239.847 27.1723 241.392 28.5099 237.163C27.4916 237.387 26.4601 237.523 25.423 237.578ZM14.2965 234.695C17.6718 240.034 17.8515 255.806 26.7666 240.984C22.9538 234.646 22.4429 239.843 14.2965 234.695ZM3.22351 256.872C7.15978 256.238 10.6258 254.351 13.2459 251.651C9.40894 252.266 5.92633 254.081 3.22351 256.872ZM14.0876 261.347C11.0404 259.146 7.30329 257.892 3.32166 257.952C6.54947 260.284 10.3302 261.4 14.0876 261.347ZM2.62432 258.783C3.25687 262.714 5.14112 266.177 7.8371 268.796C7.23735 265.086 5.48179 261.557 2.62432 258.783ZM6.11863 257.162C15.6685 258.455 12.7195 262.764 19.7141 260.36C22.412 243.276 12.1366 255.242 6.11863 257.162ZM16.4957 262.106C17.2547 262.815 17.9577 263.581 18.594 264.408C20.2879 260.309 19.5175 261.68 16.4957 262.106ZM18.5685 250.619C18.1873 249.698 17.9151 249.062 17.7011 248.656C18.126 248.483 18.7434 248.17 19.627 247.71C18.7662 247.158 17.952 246.526 17.1793 245.831C17.1166 247.01 16.8866 247.861 16.8489 248.346C16.5658 248.742 16.1953 249.541 15.4857 250.485C16.5248 250.449 17.5542 250.489 18.5685 250.619ZM20.0159 251.831C20.8422 254.464 21.0873 257.247 20.7335 259.983C29.5336 256.349 27.99 253.592 20.0159 251.831ZM27.899 254.583C28.3749 253.985 28.8052 253.404 29.1912 252.838C29.2591 252.156 29.3036 251.435 29.3227 250.671C26.3945 250.595 24.1277 250.477 22.3713 250.356C23.7945 251.392 25.6068 252.759 27.899 254.583ZM22.3867 273.781C37.0695 272.123 35.4052 262.444 28.0152 255.922C13.7752 272.015 20.7264 259.259 22.3867 273.781ZM18.7572 266.289C18.0964 267.555 17.3382 268.686 16.4834 269.704C15.6286 270.723 14.6468 271.666 13.515 272.536C17.403 274.148 20.0505 274.57 20.9781 273.476C21.8951 272.372 21.0197 269.838 18.7572 266.289ZM5.78908 245.399C3.51081 248.547 2.33219 252.291 2.39382 256.177C4.72887 252.946 5.84529 249.16 5.78908 245.399ZM14.2365 250.556C15.1213 249.482 15.7199 248.697 16.0337 248.049C16.2098 247.351 16.2557 246.365 16.2683 244.974C13.1769 241.808 11.8504 239.481 11.3497 237.976C10.8624 239.431 9.60065 241.656 6.72521 244.661C6.99626 248.812 6.5329 251.327 5.97083 252.755C7.32181 251.923 9.83374 250.993 14.2365 250.556ZM10.8093 233.055C8.26421 235.993 6.76087 239.618 6.4821 243.494C8.94298 240.649 10.5211 237.032 10.8093 233.055ZM-0.385465 236.611C3.36191 236.336 7.02994 234.896 10.0418 232.292C6.07126 232.58 2.4583 234.155 -0.385465 236.611ZM10.0421 231.207C7.03023 228.604 3.36189 227.163 -0.385191 226.889C2.4583 229.345 6.07128 230.919 10.0421 231.207ZM10.8093 230.444C10.5211 226.468 8.94298 222.85 6.4821 220.005C6.76087 223.881 8.26421 227.507 10.8093 230.444ZM6.72521 218.838C9.60065 221.843 10.8626 224.068 11.3497 225.523C11.8501 224.018 13.1769 221.691 16.2683 218.526C16.2557 217.134 16.2101 216.148 16.0337 215.45C15.7199 214.802 15.1213 214.018 14.2365 212.943C9.83374 212.506 7.32181 211.576 5.97083 210.744C6.5329 212.172 6.99626 214.688 6.72521 218.838ZM2.39382 207.322C2.3319 211.208 3.5108 214.952 5.78908 218.1C5.84529 214.339 4.72887 210.554 2.39382 207.322ZM16.4837 193.795C17.3383 194.814 18.0966 195.945 18.7574 197.211C21.02 193.662 21.8951 191.128 20.9783 190.024C20.0508 188.93 17.4033 189.352 13.5153 190.964C14.6468 191.834 15.6289 192.777 16.4837 193.795ZM28.0155 207.578C35.4052 201.056 37.0697 191.376 22.3869 189.719C20.7264 204.241 13.7752 191.484 28.0155 207.578ZM27.899 208.917C25.6068 210.74 23.7945 212.107 22.3713 213.143C24.1274 213.023 26.3942 212.905 29.3227 212.828C29.3033 212.065 29.2591 211.343 29.1912 210.661C28.8049 210.096 28.3749 209.514 27.899 208.917ZM21.5153 215.788C23.8407 217.273 25.8171 219.247 27.305 221.571C31.7106 213.131 28.7556 212.011 21.5153 215.788ZM27.3053 241.928C25.8174 244.252 23.841 246.226 21.5156 247.712C28.7556 251.489 31.7106 250.369 27.3053 241.928ZM29.9014 280.963C32.6245 277.717 34.1938 273.503 34.0782 268.951C31.1041 272.084 27.0662 274.216 22.4719 274.729C22.7647 279.342 21.3661 283.689 18.7976 287.162C23.3002 286.485 27.178 284.208 29.9014 280.963ZM21.5235 274.81C6.93349 275.696 18.2898 266.636 4.91349 283.454C12.6194 289.599 22.4406 289.557 21.5235 274.81ZM-2.4412 299.3C1.34983 298.387 4.58248 296.346 6.95975 293.598C10.5274 292.913 13.9118 291.134 16.5978 288.307C12.2792 288.42 7.91558 287.072 4.30315 284.184C3.74706 284.816 3.15734 285.402 2.53905 285.941C1.76299 286.206 0.960943 286.424 0.135793 286.59C0.829977 291.163 -0.184335 295.616 -2.4412 299.3ZM-0.0308326 285.653C0.71784 285.502 1.42112 285.332 2.0805 285.147C2.57067 284.669 3.06858 284.144 3.57445 283.572C1.38006 281.631 -0.280451 280.083 -1.54785 278.862C-1.12443 280.571 -0.614314 282.783 -0.0308326 285.653ZM-8.99128 285.184C0.0858515 288.057 0.675893 284.953 -4.30093 278.478C-5.36032 281.026 -6.96124 283.316 -8.99128 285.184ZM-4.48635 273.773C-4.95771 273.894 -5.75546 274.268 -6.90559 274.535C-6.08671 275.175 -5.3238 275.867 -4.63076 276.619C-4.3309 275.669 -4.12976 275.006 -4.03331 274.558C-3.59677 274.699 -2.92256 274.856 -1.94963 275.071C-2.25434 274.095 -2.47201 273.088 -2.61723 272.059C-3.42269 272.921 -4.14569 273.425 -4.48635 273.773ZM-9.30941 263.393C-5.59542 262.795 -2.06115 261.038 0.715275 258.177C-3.12226 258.791 -6.60459 260.602 -9.30941 263.393ZM-10.1457 253.705C-7.09874 255.904 -3.36282 257.158 0.617954 257.099C-2.60901 254.768 -6.38858 253.651 -10.1457 253.705ZM1.3153 256.268C0.681888 252.338 -1.2021 248.876 -3.89665 246.258C-3.2969 249.967 -1.54132 253.495 1.3153 256.268ZM1.60515 253.373C2.48308 246.799 4.78019 246.157 5.3825 244.173C6.1968 242.265 4.85012 240.297 8.4032 234.696C4.82958 236.954 -3.38702 237.787 -4.02328 240.749C-5.44046 243.428 0.318363 249.347 1.60515 253.373ZM-2.71971 237.578C-5.81027 237.414 -6.65024 236.115 -4.60165 240.041C-4.04185 239.166 -3.41075 238.346 -2.71971 237.578ZM-5.06299 244.017C-5.09837 242.983 -5.05478 241.949 -4.92152 240.92C-9.01414 242.61 -7.53557 242.155 -5.06299 244.017ZM-6.64193 231.75C-6.64193 236.203 -6.54092 236.628 -1.85998 236.666C1.2965 233.589 3.62667 232.254 5.13115 231.75L5.12941 231.75L5.13115 231.749C3.62696 231.245 1.29679 229.911 -1.85998 226.833C-6.54121 226.872 -6.64194 227.296 -6.64193 231.75ZM-5.063 219.483C-7.53586 221.345 -9.01414 220.889 -4.92152 222.579C-5.05478 221.55 -5.09839 220.516 -5.063 219.483ZM-2.71971 225.922C-3.41104 225.153 -4.04187 224.333 -4.60167 223.459C-6.64996 227.384 -5.81027 226.085 -2.71971 225.922ZM-4.02328 222.75C-3.38702 225.713 4.82987 226.546 8.4032 228.803C4.85011 223.203 6.19679 221.234 5.38249 219.327C4.78018 217.342 2.48308 216.7 1.60515 210.126C0.318361 214.152 -5.44046 220.072 -4.02328 222.75ZM1.31529 207.231C-1.54132 210.004 -3.2969 213.533 -3.89665 217.242C-1.20238 214.623 0.681611 211.162 1.31529 207.231ZM-10.1457 209.795C-6.38887 209.848 -2.60901 208.732 0.617951 206.4C-3.36253 206.342 -7.09874 207.596 -10.1457 209.795ZM0.715257 205.322C-2.06117 202.462 -5.5957 200.705 -9.30942 200.107C-6.6046 202.897 -3.12228 204.708 0.715257 205.322ZM-6.90559 188.964C-5.75546 189.231 -4.95773 189.605 -4.48637 189.727C-4.14571 190.074 -3.42271 190.578 -2.61668 191.441C-2.47174 190.411 -2.25374 189.405 -1.94902 188.428C-2.92195 188.644 -3.59615 188.801 -4.03268 188.941C-4.12912 188.493 -4.33035 187.83 -4.63022 186.88C-5.32384 187.632 -6.08701 188.324 -6.90559 188.964ZM-8.99129 178.315C-6.96124 180.184 -5.36032 182.473 -4.30093 185.021C0.675888 178.547 0.0858452 175.442 -8.99129 178.315ZM-1.5482 184.637C-0.280533 183.416 1.38007 181.868 3.57416 179.927C3.06857 179.355 2.57039 178.83 2.08021 178.352C1.42084 178.167 0.717544 177.997 -0.0311285 177.846C-0.614319 180.717 -1.1245 182.929 -1.5482 184.637ZM6.95975 169.901C4.58247 167.154 1.34982 165.112 -2.44121 164.2C-0.184617 167.883 0.829955 172.337 0.135497 176.909C0.960357 177.075 1.76242 177.293 2.53877 177.558C3.15706 178.098 3.74647 178.683 4.30286 179.315C7.91527 176.427 12.2793 175.079 16.5975 175.192C13.9118 172.365 10.5277 170.586 6.95975 169.901ZM4.91348 180.046C18.2898 196.864 6.93376 187.803 21.5235 188.69C22.4406 173.942 12.6194 173.901 4.91348 180.046ZM29.9014 182.537C27.178 179.291 23.3005 177.014 18.7976 176.337C21.3658 179.81 22.7647 184.157 22.4719 188.771C27.0661 189.283 31.104 191.416 34.0782 194.548C34.1938 189.996 32.6245 185.782 29.9014 182.537ZM38.3614 207.324C38.306 203.691 37.1417 200.049 34.8246 196.914C34.1855 201.186 32.1001 205.249 28.6291 208.305C29.1544 208.963 29.6289 209.645 30.0526 210.348C30.1793 211.158 30.2546 211.986 30.2752 212.827C34.8982 212.937 39.1077 214.71 42.3432 217.572C42.103 213.68 40.6539 210.142 38.3614 207.324ZM43.2923 219.863C43.0272 224.175 41.3048 228.404 38.1149 231.75C41.3048 235.095 43.0272 239.325 43.2923 243.636C46.3067 240.223 47.8134 235.986 47.8131 231.75C47.8134 227.513 46.3067 223.276 43.2923 219.863Z" fill="url(#paint2_linear_126_148)"/>
<path d="M202.971 233.055C191.926 237.976 172.239 272.509 147.563 268.246C161.738 273.454 167.29 290.005 171.021 304.46C158.871 313.134 143.98 322.245 129.773 317.123C151.417 329.719 144.3 368.827 149.598 379.696C150.486 381.517 151.031 382.304 150.913 382.503C150.736 382.655 149.867 382.254 147.92 381.697C136.296 378.366 99.0173 392.166 82.8543 373.038C90.3659 386.14 83.9793 402.387 77.5465 415.859C62.6634 414.694 45.3994 412.101 37.809 399.045C46.2924 422.607 15.7028 447.991 12.7749 459.722C12.2836 461.688 12.1962 462.641 11.9771 462.718C11.7451 462.72 11.3368 461.855 10.2032 460.176C7.01053 455.445 -3.01329 449.961 -12.7178 442.859L-12.7178 439.316C-3.43271 446.475 6.69102 452.144 10.8846 456.523C17.3637 441.809 59.9267 404.311 18.6801 383.663C8.62463 387.277 15.5367 383.715 19.5997 386.476C22.585 388.502 23.71 396.332 11.037 394.223C33.1646 404.655 21.5723 421.121 4.88632 400.133C8.42569 407.461 13.7472 420.375 6.16914 423.444C16.4072 428.569 17.1767 435.669 9.50966 443.088C11.3174 443.133 12.8656 444.178 13.1806 445.754C13.8493 449.099 11.9003 450.101 9.70991 449.858C7.73437 450.835 5.56029 450.561 5.04472 447.188C4.80191 445.6 5.89926 444.089 7.58264 443.428C-2.15958 439.079 -3.86498 432.143 4.00299 423.826C-4.16799 423.534 -3.58422 409.578 -2.7645 401.482C-5.69928 410.26 -9.58931 414.633 -12.7178 415.886L-12.7178 414.451C-12.2645 414.394 -11.8915 414.292 -11.6878 414.175C-6.37517 411.112 -2.59298 396.906 -1.55384 391.579C-6.74179 396.311 -10.3097 400.081 -12.7178 403.097L-12.7178 400.393C-12.0622 399.619 -11.3617 398.834 -10.566 398.032C-11.3303 398.463 -12.0408 398.817 -12.7178 399.123L-12.7178 397.612C-8.71225 395.614 -4.32549 392.175 -2.32998 390.324C-6.7139 390.569 -10.0975 390.985 -12.7178 391.504L-12.7178 386.888C-9.04207 386.713 -5.32521 386.368 -1.58184 385.821C17.5753 381.861 34.2899 373.14 47.4394 363.711C62.1792 357.038 78.0898 346.923 91.0975 332.312C103.228 316.965 110.425 299.54 114.438 283.865C121.44 269.278 127.127 251.303 127.7 231.75C127.127 212.196 121.44 194.221 114.438 179.634C110.426 163.959 103.228 146.534 91.0975 131.186C78.0898 116.576 62.1792 106.461 47.4393 99.7875C34.2899 90.3592 17.5753 81.6376 -1.58187 77.6779C-5.32525 77.1304 -9.0424 76.786 -12.7179 76.6111L-12.7179 71.9941C-10.0975 72.5133 -6.71393 72.9302 -2.33001 73.175C-4.32552 71.3244 -8.71229 67.8846 -12.7179 65.8874L-12.7179 64.3757C-12.0408 64.6822 -11.3304 65.0357 -10.566 65.4671C-11.3615 64.6648 -12.0622 63.8802 -12.7179 63.1058L-12.7179 60.4016C-10.3101 63.4185 -6.74181 67.1882 -1.55385 71.9199C-2.59299 66.5927 -6.37521 52.3867 -11.6878 49.3241C-11.8913 49.2071 -12.2645 49.1044 -12.7179 49.0481L-12.7179 47.6121C-9.58935 48.8655 -5.69932 53.2386 -2.76453 62.0162C-3.58454 53.9205 -4.16802 39.9647 4.00295 39.6726C-3.86501 31.3555 -2.15962 24.42 7.5826 20.0706C5.89922 19.4101 4.80187 17.8987 5.04468 16.3104C5.56025 12.9379 7.73433 12.6632 9.70987 13.6404C11.9003 13.3978 13.8493 14.3996 13.1805 17.745C12.8655 19.3205 11.3174 20.3653 9.50962 20.4104C17.1767 27.8296 16.4072 34.93 6.1691 40.0543C13.7472 43.1235 8.42565 56.0382 4.88628 63.3652C21.5723 42.3782 33.1646 58.844 11.0369 69.2758C23.7097 67.167 22.5849 74.997 19.5996 77.0228C15.5367 79.7839 8.6246 76.2213 18.6801 79.8355C59.9266 59.1881 17.3639 21.6901 10.8846 6.97645C6.69098 11.3547 -3.43275 17.0237 -12.7179 24.1835L-12.7179 20.6409C-3.01333 13.5382 7.01047 8.05467 10.2032 3.3238C11.3368 1.64469 11.7451 0.779338 11.977 0.781902C12.1959 0.858928 12.2835 1.8116 12.7748 3.77714C15.7028 15.5092 46.2927 40.8932 37.809 64.4548C45.3993 51.3989 62.6634 48.8059 77.5465 47.6412C83.9793 61.1126 90.3659 77.3601 82.8543 90.4616C99.0173 71.3338 136.295 85.1335 147.92 81.8033C149.867 81.2458 150.736 80.8455 150.913 80.9964C151.031 81.1961 150.485 81.9825 149.598 83.8037C144.3 94.6729 151.417 133.781 129.773 146.377C143.98 141.255 158.871 150.365 171.021 159.04C167.29 173.495 161.738 190.046 147.563 195.254C172.239 190.991 191.926 225.524 202.971 230.444C204.821 231.269 205.744 231.521 205.782 231.75C205.745 231.979 204.821 232.23 202.971 233.055ZM8.34645 442.269C8.35072 442.272 8.35925 442.272 8.37152 442.268C8.38406 442.267 8.39235 442.265 8.3952 442.26C8.71875 442.529 20.7741 431.782 5.19908 424.296C-6.86962 436.657 8.13444 442.632 8.34645 442.269ZM4.8735 422.43C13.9966 420.088 4.41472 401.82 -0.289051 393.152C-1.74446 402.907 -4.50037 423.35 4.8735 422.43ZM17.6127 409.008C19.6059 409.357 32.8484 404.61 0.361751 391.241C3.15988 395.892 11.5728 407.947 17.6127 409.008ZM18.6088 392.641C20.3173 391.804 25.1634 382.398 0.661358 389.797C4.46095 391.397 14.6774 394.566 18.6088 392.641ZM22.2888 382.335C28.5131 385.826 33.0422 390.052 35.8629 394.869C28.0751 373.028 46.1021 372.898 22.2888 382.335ZM8.39516 21.2393C8.39202 21.2347 8.38402 21.2319 8.37148 21.2313C8.35921 21.2276 8.35068 21.2273 8.34641 21.2307C8.13441 20.8675 -6.86967 26.8426 5.20559 39.2049C20.7743 31.717 8.71871 20.9705 8.39516 21.2393ZM4.87347 41.0698C-4.5004 40.1499 -1.74422 60.593 -0.289084 70.3472C4.41468 61.6786 13.9965 43.4111 4.87347 41.0698ZM17.6126 54.4909C11.573 55.552 3.16013 67.6076 0.361718 72.258C32.8481 58.8888 19.6056 54.1419 17.6126 54.4909ZM18.6088 70.8585C14.6771 68.9338 4.46092 72.1025 0.661325 73.7031C25.1634 81.1018 20.3175 71.695 18.6088 70.8585ZM22.2888 81.1636C46.1018 90.6017 28.0751 90.4713 35.8628 68.6299C33.0422 73.4478 28.513 77.673 22.2888 81.1636ZM51.7511 371.179C70.1431 372.765 68.4351 359.895 49.8669 367.916C33.6362 379.986 43.9285 387.9 51.7511 371.179ZM58.7522 383.306C71.597 390.564 74.313 379.444 53.0487 373.426C47.6279 394.851 58.6159 398.059 58.7522 383.306ZM57.1571 363.508C67.41 360.936 70.9188 372.437 56.2346 372.651C76.5972 378.082 72.9443 390.937 59.8419 385.193C58.2655 399.412 45.3057 396.148 50.7839 375.798C43.2569 388.408 35.0505 379.618 42.4046 372.025C32.6958 378.229 34.2796 402.815 57.1034 409.551C62.8104 411.466 69.3921 412.32 75.8152 412.859C78.5597 407.027 81.1116 400.9 82.3065 395C87.8839 371.866 67.3843 358.202 57.1571 363.508ZM80.2114 369.265C77.4495 364.413 76.0551 358.378 76.1439 351.242C56.064 367.146 65.1902 351.599 80.2114 369.265ZM86.9087 353.208C90.5413 350.766 92.9053 340.334 93.4188 336.243C74.7604 353.763 85.3297 354.269 86.9087 353.208ZM101.581 360.529C103.683 354.768 97.4484 341.454 94.82 336.706C90.1547 371.525 100.887 362.43 101.581 360.529ZM120.706 337.738C122.457 336.724 129.55 324.575 96.0703 335.216C101.203 336.979 115.397 340.807 120.706 337.738ZM110.948 324.559C111.719 322.819 109.385 312.498 95.3713 333.916C99.3107 332.7 109.174 328.561 110.948 324.559ZM107.745 319.199C111.333 318.832 117.228 324.107 106.165 330.638C129.821 324.406 131.525 344.47 105.252 339.119C112.674 342.457 125.051 348.929 121.219 356.152C132.356 353.497 137.509 358.441 136.405 369.053C137.819 367.925 139.676 367.731 140.93 368.735C143.593 370.867 142.744 372.888 140.91 374.11C140.025 376.128 138.182 377.315 135.62 375.063C134.413 374.003 134.282 372.14 135.147 370.551C124.888 373.482 119.124 369.265 119.805 357.837C113.358 362.865 104.834 351.799 100.258 345.07C110.091 370.014 90.0349 371.821 92.0644 347.442C87.5541 359.471 81.3355 354.582 81.0742 350.983C80.7144 346.084 87.2553 341.879 79.0978 348.781C76.3556 394.825 130.111 376.714 146.093 378.459C141.599 363.024 150.101 306.939 105.232 317.635C99.8521 326.868 102.857 319.696 107.745 319.199ZM96.8001 337.098C101.956 345.505 112.985 362.937 119.574 356.207C125.058 348.549 105.975 340.715 96.8001 337.098ZM134.987 369.173C134.992 369.173 134.999 369.167 135.006 369.156C135.015 369.147 135.019 369.14 135.019 369.135C135.439 369.133 137.767 353.151 121.023 357.427C119.723 374.654 135.058 369.587 134.987 369.173ZM107.143 314.299C114.155 312.972 120.341 313.297 125.598 315.175C105.593 303.45 119.319 291.762 107.143 314.299ZM122.542 286.815C137.649 276.207 128.068 267.446 119 285.526C114.326 305.205 127.296 304.652 122.542 286.815ZM121.752 277.463C127.952 268.902 138.034 275.458 126.922 285.06C146.012 276.131 151.477 288.328 137.747 292.349C145.679 304.255 133.654 310.085 124.769 290.975C127.108 305.473 115.172 304.015 115.925 293.471C112.476 304.464 129.492 322.28 151.306 312.769C156.909 310.568 162.5 306.991 167.766 303.275C166.12 297.044 164.137 290.71 161.26 285.422C150.662 264.115 126.175 266.825 121.752 277.463ZM124.98 287.702C134.599 307.599 145.078 302.993 135.699 291.604C150.204 288.907 145.137 278.644 124.98 287.702ZM143.113 267.054C137.878 265.113 132.931 261.386 128.412 255.863C123.253 280.953 120.251 263.177 143.113 267.054ZM128.412 207.636C132.931 202.113 137.878 198.386 143.113 196.445C120.251 200.322 123.253 182.546 128.412 207.636ZM119 177.973C128.068 196.053 137.65 187.292 122.542 176.684C127.296 158.848 114.326 158.294 119 177.973ZM125.598 148.324C120.34 150.202 114.155 150.527 107.143 149.201C119.319 171.737 105.593 160.05 125.598 148.324ZM94.82 126.794C97.4483 122.045 103.683 108.731 101.581 102.97C100.887 101.069 90.1547 91.975 94.82 126.794ZM95.3713 129.583C109.385 151.001 111.719 140.68 110.948 138.941C109.174 134.939 99.3107 130.799 95.3713 129.583ZM96.0705 128.284C129.55 138.924 122.457 126.776 120.706 125.762C115.397 122.693 101.203 126.52 96.0705 128.284ZM93.4188 127.256C92.9052 123.165 90.5413 112.734 86.9086 110.291C85.3297 109.23 74.7604 109.737 93.4188 127.256ZM76.1438 112.257C76.0551 105.121 77.4495 99.0862 80.2114 94.2344C65.1902 111.9 56.064 96.3532 76.1438 112.257ZM49.8671 95.5837C68.4354 103.605 70.143 90.7347 51.7514 92.3199C43.9285 75.5996 33.6362 83.5136 49.8671 95.5837ZM58.7522 80.1939C58.6158 65.4409 47.6276 68.6487 53.0487 90.073C74.3129 84.0551 71.597 72.9353 58.7522 80.1939ZM82.3062 68.4989C81.1113 62.5991 78.559 56.4724 75.8148 50.6402C69.392 51.1795 62.8101 52.0329 57.1031 53.9476C34.2796 60.6843 32.6955 85.27 42.4043 91.4736C35.0502 83.8804 43.2565 75.0912 50.7835 87.7011C45.3057 67.3511 58.2652 64.087 59.8416 78.3062C72.944 72.5618 76.5969 85.4172 56.2343 90.8482C70.9185 91.0619 67.4097 102.563 57.1568 99.991C67.3843 105.298 87.8839 91.6331 82.3062 68.4989ZM146.094 85.0397C130.112 86.7853 76.3558 68.6741 79.098 114.718C87.2556 121.62 80.7147 117.415 81.0744 112.516C81.3361 108.917 87.5546 104.029 92.0647 116.058C90.0352 91.6788 110.091 93.4849 100.259 118.429C104.835 111.7 113.358 100.634 119.805 105.663C119.124 94.2338 124.888 90.0171 135.147 92.9476C134.282 91.3595 134.413 89.4964 135.62 88.4358C138.183 86.1838 140.025 87.3707 140.91 89.3891C142.744 90.6114 143.593 92.6317 140.93 94.7642C139.676 95.7688 137.819 95.5739 136.405 94.4464C137.51 105.058 132.356 110.003 121.219 107.347C125.052 114.57 112.674 121.042 105.253 124.38C131.525 119.029 129.821 139.094 106.165 132.861C117.228 139.392 111.334 144.667 107.745 144.3C102.858 143.803 99.8524 136.632 105.232 145.863C150.1 156.56 141.599 100.476 146.094 85.0397ZM96.8001 126.402C105.975 122.785 125.058 114.95 119.574 107.292C112.985 100.562 101.956 117.994 96.8001 126.402ZM121.027 106.077C137.767 110.348 135.439 94.3668 135.019 94.3651C135.019 94.3593 135.015 94.3522 135.006 94.3434C134.999 94.3325 134.992 94.3271 134.987 94.3265C135.058 93.9123 119.723 88.845 121.027 106.077ZM161.26 178.077C164.137 172.79 166.12 166.455 167.766 160.224C162.5 156.508 156.909 152.931 151.307 150.73C129.492 141.22 112.475 159.035 115.926 170.028C115.173 159.485 127.109 158.026 124.769 172.524C133.654 153.414 145.68 159.244 137.747 171.15C151.477 175.171 146.012 187.367 126.922 178.439C138.034 188.041 127.953 194.596 121.752 186.036C126.175 196.675 150.662 199.384 161.26 178.077ZM124.98 175.797C145.137 184.856 150.204 174.592 135.699 171.896C145.078 160.507 134.599 155.901 124.98 175.797ZM129.093 211.421C130.906 221.951 128.598 214.525 132.023 211.004C134.536 208.416 142.442 208.668 138.165 220.781C152.281 200.802 166.484 215.077 142.918 227.865C150.748 225.652 164.39 222.654 166.097 230.65C172.922 221.457 180.048 221.933 186.023 230.771C186.381 228.999 187.679 227.656 189.285 227.619C192.696 227.541 193.344 229.634 192.725 231.75C193.344 233.865 192.696 235.958 189.285 235.88C187.679 235.843 186.381 234.5 186.023 232.728C180.048 241.567 172.922 242.042 166.097 232.849C164.391 240.845 150.748 237.847 142.918 235.634C166.484 248.422 152.281 262.697 138.165 242.717C142.442 254.831 134.536 255.083 132.023 252.495C128.598 248.973 130.906 241.548 129.093 252.078C156.589 289.112 186.127 240.685 199.492 231.749C186.127 222.814 156.589 174.386 129.093 211.421ZM133.375 232.722C152.182 262.394 154.558 248.528 153.868 246.626C151.774 240.862 138.441 234.67 133.375 232.722ZM153.868 216.873C154.558 214.971 152.182 201.105 133.375 230.777C138.441 228.829 151.774 222.637 153.868 216.873ZM132.004 233.269C128.972 258.683 137.394 252.277 137.922 250.449C139.135 246.243 134.24 236.732 132.004 233.269ZM132.004 230.231C134.24 226.767 139.135 217.256 137.922 213.05C137.395 211.222 128.972 204.816 132.004 230.231ZM135.144 231.75C144.497 234.877 164.151 241.141 164.873 231.75C164.151 222.359 144.497 228.623 135.144 231.75ZM185.018 231.75C185.019 231.737 185.018 231.729 185.014 231.725C185.335 231.453 176.845 217.715 166.767 231.753C176.845 245.785 185.334 232.047 185.014 231.775C185.018 231.771 185.019 231.762 185.018 231.75Z" fill="url(#paint3_linear_126_148)"/>
<defs>
<linearGradient id="paint0_linear_126_148" x1="197.727" y1="231.75" x2="-44.3313" y2="223.634" gradientUnits="userSpaceOnUse">
<stop stop-color="#D41875" stop-opacity="0.02"/>
<stop offset="1" stop-color="#D41875" stop-opacity="0.2"/>
</linearGradient>
<linearGradient id="paint1_linear_126_148" x1="197.727" y1="231.75" x2="-44.3313" y2="223.634" gradientUnits="userSpaceOnUse">
<stop stop-color="#D41875" stop-opacity="0.02"/>
<stop offset="1" stop-color="#D41875" stop-opacity="0.2"/>
</linearGradient>
<linearGradient id="paint2_linear_126_148" x1="197.727" y1="231.75" x2="-44.3313" y2="223.634" gradientUnits="userSpaceOnUse">
<stop stop-color="#D41875" stop-opacity="0.02"/>
<stop offset="1" stop-color="#D41875" stop-opacity="0.2"/>
</linearGradient>
<linearGradient id="paint3_linear_126_148" x1="197.727" y1="231.75" x2="-44.3313" y2="223.634" gradientUnits="userSpaceOnUse">
<stop stop-color="#D41875" stop-opacity="0.02"/>
<stop offset="1" stop-color="#D41875" stop-opacity="0.2"/>
</linearGradient>
</defs>
</svg>
